<svg xmlns="http://www.w3.org/2000/svg" width="305.681" height="303.883" viewBox="0 0 305.681 303.883">
  <g id="creaate-order" transform="translate(-1328 -1261)">
    <g id="Group_1503" data-name="Group 1503" transform="translate(1328 1261)">
      <g id="Polygon_28" data-name="Polygon 28" transform="matrix(0.819, 0.574, -0.574, 0.819, 130.156, 0)" fill="none" opacity="0.7">
        <path d="M69.93,11.894a5,5,0,0,1,9.312,0l23.824,60.859a5,5,0,0,0,.616,1.123l38.538,52.852a5,5,0,0,1-4.734,7.9l-62.207-8.713a5,5,0,0,0-1.387,0l-62.207,8.713a5,5,0,0,1-4.734-7.9L45.49,73.876a5,5,0,0,0,.616-1.123Z" stroke="none"/>
        <path d="M 74.58579254150391 9.7164306640625 C 73.26615905761719 9.7164306640625 71.59466552734375 10.38417053222656 70.86103057861328 12.25831604003906 L 47.03688049316406 73.11775970458984 C 46.84946441650391 73.59658050537109 46.60077667236328 74.05006408691406 46.29775238037109 74.46562957763672 L 7.760040283203125 127.3174133300781 C 6.854660034179688 128.5591278076172 6.72784423828125 130.1141357421875 7.420852661132813 131.4770812988281 C 8.110977172851563 132.8344421386719 9.46337890625 133.6776428222656 10.95027160644531 133.6776428222656 C 11.14619445800781 133.6776428222656 11.34695434570313 133.6634521484375 11.54693603515625 133.6354522705078 L 73.75355529785156 124.9225234985352 C 74.0283203125 124.884033203125 74.30833435058594 124.8645248413086 74.58579254150391 124.8645248413086 C 74.86325073242188 124.8645248413086 75.14326477050781 124.884033203125 75.41804504394531 124.9225234985352 L 137.6246795654297 133.6354522705078 C 137.8245544433594 133.6634521484375 138.0252990722656 133.6776428222656 138.2213134765625 133.6776428222656 C 139.7080230712891 133.6776428222656 141.0603637695313 132.8343963623047 141.7505340576172 131.4769592285156 C 142.4435577392578 130.1139373779297 142.3168029785156 128.5589752197266 141.4115142822266 127.3174133300781 L 102.873779296875 74.46562957763672 C 102.5707931518555 74.05010223388672 102.3221206665039 73.59661102294922 102.1346817016602 73.11777496337891 L 78.31055450439453 12.25831604003906 C 77.576904296875 10.38420104980469 75.90542602539063 9.7164306640625 74.58579254150391 9.7164306640625 M 74.58578491210938 8.7164306640625 C 76.49916076660156 8.7164306640625 78.41253662109375 9.775543212890625 79.24175262451172 11.893798828125 L 103.0658874511719 72.75325012207031 C 103.2221755981445 73.15251922607422 103.4291687011719 73.53001403808594 103.6817932128906 73.87646484375 L 142.2195129394531 126.7282485961914 C 144.6722717285156 130.0920104980469 142.1791839599609 134.6776580810547 138.2213134765625 134.6776580810547 C 137.9812469482422 134.6776580810547 137.7360229492188 134.6607971191406 137.4859313964844 134.6257781982422 L 75.27933502197266 125.9128494262695 C 75.04928588867188 125.8806304931641 74.81753540039063 125.8645248413086 74.58579254150391 125.8645248413086 C 74.35404968261719 125.8645248413086 74.12229919433594 125.8806304931641 73.89225006103516 125.9128494262695 L 11.68565368652344 134.6257781982422 C 11.43583679199219 134.6607666015625 11.19009399414063 134.6776580810547 10.95027160644531 134.6776580810547 C 6.991958618164063 134.6776580810547 4.499160766601563 130.0922241210938 6.952041625976563 126.7282485961914 L 45.48975372314453 73.87646484375 C 45.74237060546875 73.53001403808594 45.94939422607422 73.15251922607422 46.10568237304688 72.75325012207031 L 69.92983245849609 11.893798828125 C 70.75904083251953 9.775543212890625 72.67240905761719 8.7164306640625 74.58578491210938 8.7164306640625 Z" stroke="none" fill="#f4f7fc"/>
      </g>
      <g id="Polygon_30" data-name="Polygon 30" transform="matrix(0.819, 0.574, -0.574, 0.819, 137.599, 52.872)" fill="none" opacity="0.7">
        <path d="M34.791,11.829a5,5,0,0,1,9.306,0l10.3,26.176a5,5,0,0,0,.62,1.125L71.9,62.177a5,5,0,0,1-4.724,7.907L40.135,66.315a5,5,0,0,0-1.381,0L11.713,70.084A5,5,0,0,1,6.99,62.177L23.876,39.13a5,5,0,0,0,.62-1.125Z" stroke="none"/>
        <path d="M 39.44440460205078 9.659538269042969 C 38.12708282470703 9.659538269042969 36.45743560791016 10.32569885253906 35.72202301025391 12.19535827636719 L 25.42592620849609 38.37117767333984 C 25.23720550537109 38.85096740722656 24.98701477050781 39.30511856079102 24.68229293823242 39.72102737426758 L 7.796302795410156 62.7681770324707 C 6.88690185546875 64.00937652587891 6.757301330566406 65.56562805175781 7.449638366699219 66.93114471435547 C 8.139091491699219 68.29100799560547 9.492256164550781 69.13576507568359 10.98106384277344 69.13576507568359 C 11.17619323730469 69.13576507568359 11.37608337402344 69.12169647216797 11.57518768310547 69.09394836425781 L 38.61605453491211 65.32460784912109 C 38.8895149230957 65.28648376464844 39.168212890625 65.26715850830078 39.44441604614258 65.26715850830078 C 39.72061538696289 65.26715850830078 39.99930572509766 65.28648376464844 40.27276611328125 65.32460784912109 L 67.31365203857422 69.09394073486328 C 67.51277160644531 69.12169647216797 67.71266174316406 69.13576507568359 67.90777587890625 69.13576507568359 C 69.39639282226563 69.13576507568359 70.74946594238281 68.29095458984375 71.43896484375 66.9310302734375 C 72.13132476806641 65.56546020507813 72.00180816650391 64.00924682617188 71.09250640869141 62.7681770324707 L 54.20651245117188 39.72101593017578 C 53.90179443359375 39.30511856079102 53.65160369873047 38.85096740722656 53.46288299560547 38.37117767333984 L 43.16679382324219 12.19535827636719 C 42.43137359619141 10.32569885253906 40.76172637939453 9.659538269042969 39.44440460205078 9.659538269042969 M 39.44440460205078 8.659538269042969 C 41.35529327392578 8.659538269042969 43.26618576049805 9.716133117675781 44.09739303588867 11.82931518554688 L 54.39348602294922 38.0051383972168 C 54.55083465576172 38.40517807006836 54.75911712646484 38.78324890136719 55.01317596435547 39.13000869750977 L 71.89916229248047 62.17715835571289 C 74.36255645751953 65.53936004638672 71.87101745605469 70.13576507568359 67.90777587890625 70.13576507568359 C 67.66873168945313 70.13576507568359 67.42457580566406 70.11906433105469 67.17558288574219 70.08435821533203 L 40.13470458984375 66.31502532958984 C 39.90571594238281 66.28311157226563 39.67506408691406 66.26715087890625 39.44441223144531 66.26715087890625 C 39.21376037597656 66.26715087890625 38.98310852050781 66.28311157226563 38.75411605834961 66.31502532958984 L 11.71324157714844 70.08436584472656 C 11.46451568603516 70.11903381347656 11.21986389160156 70.13577270507813 10.98106384277344 70.13577270507813 C 7.017356872558594 70.13577270507813 4.526084899902344 65.53958129882813 6.989646911621094 62.17715835571289 L 23.87563323974609 39.13000869750977 C 24.12969589233398 38.78324890136719 24.33797454833984 38.40517807006836 24.49532318115234 38.0051383972168 L 34.79142379760742 11.82931518554688 C 35.62263107299805 9.716133117675781 37.53351593017578 8.659538269042969 39.44440460205078 8.659538269042969 Z" stroke="none" fill="#f4f7fc"/>
      </g>
      <g id="Polygon_29" data-name="Polygon 29" transform="matrix(-0.921, 0.391, -0.391, -0.921, 305.681, 210.29)" fill="none" opacity="0.7">
        <path d="M115.114,11.845a5,5,0,0,1,9.307,0l41.22,104.92a5,5,0,0,0,.619,1.124l66.295,90.592a5,5,0,0,1-4.726,7.9L120.459,201.4a5,5,0,0,0-1.382,0L11.706,216.386a5,5,0,0,1-4.726-7.9L73.275,117.89a5,5,0,0,0,.619-1.124Z" stroke="none"/>
        <path d="M 119.7676010131836 9.6737060546875 C 118.4496917724609 9.6737060546875 116.7795715332031 10.34025573730469 116.0446014404297 12.2110595703125 L 74.82441711425781 117.1309356689453 C 74.635986328125 117.6104965209961 74.38618469238281 118.0644683837891 74.08192443847656 118.4802627563477 L 7.787246704101563 209.0720825195313 C 6.878829956054688 210.3134765625 6.749923706054688 211.8694458007813 7.442398071289063 213.2342987060547 C 8.13201904296875 214.593505859375 9.485015869140625 215.4378509521484 10.97335815429688 215.4378509521484 C 11.16859436035156 215.4378509521484 11.36871337890625 215.4237365722656 11.56809997558594 215.3959045410156 L 118.9382476806641 200.4112396240234 C 119.2120742797852 200.3730010986328 119.4911041259766 200.3536071777344 119.7676010131836 200.3536071777344 C 120.044075012207 200.3536071777344 120.323127746582 200.3730010986328 120.5969543457031 200.4112091064453 L 227.967041015625 215.3959045410156 C 228.1665191650391 215.4237365722656 228.3666381835938 215.4378509521484 228.5618286132813 215.4378509521484 C 230.0500183105469 215.4378509521484 231.4029235839844 214.5934448242188 232.0926055908203 213.2341461181641 C 232.7851257324219 211.8692016601563 232.6562805175781 210.3133239746094 231.7479553222656 209.0720825195313 L 165.4532470703125 118.4802627563477 C 165.1489562988281 118.0644683837891 164.8991394042969 117.610466003418 164.7107543945313 117.1309127807617 L 123.4906005859375 12.21102905273438 C 122.7556304931641 10.34025573730469 121.0855102539063 9.6737060546875 119.7676010131836 9.6737060546875 M 119.7676010131836 8.673690795898438 C 121.6791152954102 8.673690795898438 123.5906295776367 9.730926513671875 124.4213333129883 11.84538269042969 L 165.6414794921875 116.7652359008789 C 165.7985687255859 117.1650848388672 166.0065307617188 117.5430297851563 166.26025390625 117.8897018432617 L 232.5549468994141 208.4815216064453 C 235.0157165527344 211.8441772460938 232.5238342285156 216.4378356933594 228.5618286132813 216.4378356933594 C 228.3225860595703 216.4378356933594 228.0780639648438 216.4210968017578 227.8288726806641 216.3863220214844 L 120.4587173461914 201.401611328125 C 120.2294540405273 201.3696136474609 119.9985275268555 201.3536071777344 119.7676010131836 201.3536071777344 C 119.5366821289063 201.3536071777344 119.3057632446289 201.3696136474609 119.0765151977539 201.401611328125 L 11.70632934570313 216.3863220214844 C 11.4573974609375 216.4210662841797 11.21237182617188 216.4378356933594 10.97337341308594 216.4378356933594 C 7.010894775390625 216.4378356933594 4.519332885742188 211.8443908691406 6.980255126953125 208.4815216064453 L 73.27491760253906 117.8897018432617 C 73.52859497070313 117.5430297851563 73.736572265625 117.1650848388672 73.89369201660156 116.7652359008789 L 115.1138687133789 11.84538269042969 C 115.9445724487305 9.730926513671875 117.856086730957 8.673690795898438 119.7676010131836 8.673690795898438 Z" stroke="none" fill="#f4f7fc"/>
      </g>
    </g>
    <g id="Group_1505" data-name="Group 1505" transform="translate(1328 1349.887)">
      <circle id="Ellipse_212" data-name="Ellipse 212" cx="2.547" cy="2.547" r="2.547" transform="translate(17.422 90.395)" fill="#f5c84c"/>
      <circle id="Ellipse_213" data-name="Ellipse 213" cx="2.547" cy="2.547" r="2.547" transform="translate(96.805 12.573)" fill="#87d147"/>
      <circle id="Ellipse_214" data-name="Ellipse 214" cx="2.547" cy="2.547" r="2.547" transform="translate(173.723 138.386)" fill="#3caadc"/>
      <path id="Path_1112" data-name="Path 1112" d="M16.883,95.409H15.157V93.683a2.383,2.383,0,1,0-4.766,0v1.726H8.583a2.383,2.383,0,1,0,0,4.766h1.726V101.9a2.383,2.383,0,1,0,4.766,0v-1.726H16.8a2.385,2.385,0,0,0,2.383-2.383A2.316,2.316,0,0,0,16.883,95.409Z" transform="translate(-1.105 -24.736)" fill="#fc657e"/>
      <path id="Path_1113" data-name="Path 1113" d="M229.424,155.467a8.444,8.444,0,0,1-6.656-6.492c0-.082-.082-.164-.164-.082a.08.08,0,0,0-.082.082,8.234,8.234,0,0,1-6.656,6.492.177.177,0,0,0-.164.164c0,.082.082.082.164.164a8.444,8.444,0,0,1,6.656,6.492c0,.082.082.164.164.082a.08.08,0,0,0,.082-.082,8.234,8.234,0,0,1,6.656-6.492.177.177,0,0,0,.164-.164C229.506,155.467,229.506,155.467,229.424,155.467Z" transform="translate(-38.444 -34.995)" fill="#f5c84c"/>
      <g id="Group_1504" data-name="Group 1504" transform="translate(35.336 42.157)">
        <path id="Path_1114" data-name="Path 1114" d="M161.089,111.975h-39.2a6.447,6.447,0,0,1-6.492-5.835,6.206,6.206,0,0,1,5.835-6.656h.411a6.287,6.287,0,1,1-.082-12.573,6.328,6.328,0,0,1,0-12.655,6.277,6.277,0,0,1-1.726-12.327V61.6H47.848A4.805,4.805,0,0,0,43,66.448v91.217h.164c10.437-.411,14.052-5.342,18.408-7.889a30.241,30.241,0,0,1,17.257-5.424H92.471a6.667,6.667,0,0,1,6.739,5.67,6.577,6.577,0,0,1-5.67,7.4c-.247,0-.575.082-.822.082h23.174a5.917,5.917,0,0,1,0,11.834h8.136a5.852,5.852,0,0,1,5.588,3.945,5.958,5.958,0,0,1-3.616,7.56,5.524,5.524,0,0,1-1.972.329h41.089a5.156,5.156,0,0,0,5.177-5.177V110.249a23.49,23.49,0,0,1-9.2,1.726Z" transform="translate(-43 -61.6)" fill="#5290db"/>
        <path id="Path_1115" data-name="Path 1115" d="M137.8,61.8h0Z" transform="translate(-59.896 -61.636)" fill="#5290db"/>
      </g>
      <path id="Path_1116" data-name="Path 1116" d="M135.467,99.384a6.287,6.287,0,0,1-.082-12.573,6.328,6.328,0,1,1,0-12.655,6.277,6.277,0,0,1-1.726-12.327V61.5H120.1v41.828h9.368A6.748,6.748,0,0,1,135.467,99.384Z" transform="translate(-21.405 -19.425)" fill="#f5c84c"/>
      <path id="Path_1117" data-name="Path 1117" d="M101.2,61.7h15.614v41.828H101.2Z" transform="translate(-18.037 -19.461)" fill="#edb311"/>
      <path id="Path_1118" data-name="Path 1118" d="M122.458,187.482h-8.136a5.917,5.917,0,1,0,0-11.833H91.149a6.574,6.574,0,0,0,0-13.148H77.343a30.241,30.241,0,0,0-17.257,5.424c-4.438,2.548-7.971,7.4-18.408,7.889l-7.478.082v43.061H48.745c6.081,0,9.779,1.89,13.066,2.794a25.408,25.408,0,0,0,7.807,1.233h37.473a5.917,5.917,0,1,0,0-11.833h7.232a5.917,5.917,0,0,0,0-11.834h8.136a5.917,5.917,0,1,0,0-11.833Z" transform="translate(-6.095 -37.426)" fill="#f9d0b4"/>
      <path id="Path_1119" data-name="Path 1119" d="M21,226.033h8.957a1.86,1.86,0,0,0,1.89-1.89V174.59a1.86,1.86,0,0,0-1.89-1.89H21Z" transform="translate(-3.743 -39.244)" fill="#edf4fc"/>
      <path id="Path_1120" data-name="Path 1120" d="M4.637,167H15.484a2.122,2.122,0,0,1,2.137,2.137v58.346a2.122,2.122,0,0,1-2.137,2.137H4.637A2.122,2.122,0,0,1,2.5,227.482V169.137A2.176,2.176,0,0,1,4.637,167Z" transform="translate(-0.446 -38.228)" fill="#70d6f9"/>
      <path id="Path_1121" data-name="Path 1121" d="M170.3,12.782l11.34-.082a1.973,1.973,0,0,1,1.972,1.808v11.34A13.955,13.955,0,0,1,170.3,12.782Z" transform="translate(-30.352 -10.728)" fill="#b2e26d"/>
      <path id="Path_1122" data-name="Path 1122" d="M149.731,12.9l-11.423.082A1.824,1.824,0,0,0,136.5,14.79l.082,11.34A13.832,13.832,0,0,0,149.731,12.9Z" transform="translate(-24.328 -10.763)" fill="#b2e26d"/>
      <path id="Path_1123" data-name="Path 1123" d="M138.637,52.985a5.524,5.524,0,0,0-1.972.329L136.5,14.772a1.824,1.824,0,0,1,1.808-1.808l37.308-.164a1.973,1.973,0,0,1,1.972,1.808V53.067H138.637Z" transform="translate(-24.328 -10.746)" fill="#87d147"/>
      <path id="Path_1124" data-name="Path 1124" d="M158.835,39.4a12.907,12.907,0,0,1,12.984,12.737,13.184,13.184,0,0,1-1.233,5.588H147.33a12.781,12.781,0,0,1,6.163-17.093A11.613,11.613,0,0,1,158.835,39.4Z" transform="translate(-26.037 -15.486)" fill="#b2e26d"/>
      <path id="Path_1125" data-name="Path 1125" d="M205.635,59.565c-12.244-.329-12.9-1.726-15.285-4.848a14.062,14.062,0,0,0-6.328-4.6,19.9,19.9,0,0,0-7.314-1.315V59.4H137.674a6.447,6.447,0,0,0-6.492,5.835,6.206,6.206,0,0,0,5.835,6.656h.411a6.287,6.287,0,1,0,0,12.573,6.287,6.287,0,1,0,.082,12.573,6.33,6.33,0,0,0-6.328,6.328v.411a6.384,6.384,0,0,0,6.492,5.835h39.2c6,0,9.533-1.89,13.066-2.876,5.835-1.89,7.56-1.4,15.7-1.4Z" transform="translate(-23.366 -17.162)" fill="#f9d0b4"/>
      <path id="Path_1126" data-name="Path 1126" d="M223.754,56.9h8.875v54.4h-8.957a2,2,0,0,1-1.972-1.972V58.872a2.073,2.073,0,0,1,2.054-1.972Z" transform="translate(-39.513 -18.605)" fill="#edf4fc"/>
      <path id="Path_1127" data-name="Path 1127" d="M237.236,51.9h10.847a2.122,2.122,0,0,1,2.137,2.137v58.346a2.122,2.122,0,0,1-2.137,2.137H237.236a2.122,2.122,0,0,1-2.137-2.137V54.037A2.072,2.072,0,0,1,237.236,51.9Z" transform="translate(-41.9 -17.714)" fill="#70d6f9"/>
      <path id="Path_1128" data-name="Path 1128" d="M206.183,42.431H195.335a4.139,4.139,0,0,0-4.191,4.109h-6.9a4.033,4.033,0,0,0-4.027,4.027c-8.793-.329-9.533-1.233-11.587-3.945-3.2-4.191-8.053-6.163-13.231-6.656v-25.8A4.057,4.057,0,0,0,151.37,10.3c-45.855.247-32.707.164-37.308.164a3.876,3.876,0,0,0-3.862,3.945l.164,36.158H40.185a6.945,6.945,0,0,0-6.9,6.9v89.244l-3.2.082v-1.15a3.945,3.945,0,0,0-3.945-3.945h-6.9v-.411a4.209,4.209,0,0,0-4.191-4.191H4.191A4.209,4.209,0,0,0,0,141.29v58.346a4.209,4.209,0,0,0,4.191,4.191H15.038a4.209,4.209,0,0,0,4.191-4.191v-.411h6.9a3.945,3.945,0,0,0,3.945-3.945v-1.315H42.568c8.711,0,11.751,4.027,20.791,4.027h37.473a7.989,7.989,0,0,0,6.985-11.834h.329a7.989,7.989,0,0,0,6.985-11.834h42.321a7.242,7.242,0,0,0,7.232-7.232V102.832c6.492-2.219,7.807-2.219,13.641-2.137h1.808v.411a4.033,4.033,0,0,0,4.027,4.027h6.9a4.192,4.192,0,0,0,4.191,4.109H206.1a4.209,4.209,0,0,0,4.191-4.191V46.7a4.108,4.108,0,0,0-4.109-4.273Zm-84.149,4.684a10.806,10.806,0,1,1,21.613-.082,9.823,9.823,0,0,1-.575,3.451H122.526A11.527,11.527,0,0,1,122.033,47.115ZM132.8,32.159a14.941,14.941,0,0,0-14.874,14.956,15.738,15.738,0,0,0,.411,3.369h-3.862l-.082-23.01a15.8,15.8,0,0,0,12.9-13.066l10.93-.082a16.185,16.185,0,0,0,13.148,12.9V50.4h-3.945a16.629,16.629,0,0,0,.411-3.534A15.033,15.033,0,0,0,132.8,32.159Zm-9.779-17.668a11.61,11.61,0,0,1-8.711,8.793l-.082-8.711Zm28.269-.082V23.2a12.063,12.063,0,0,1-8.957-8.711ZM106.913,92.4h-6v-37.8h6a8.288,8.288,0,0,0,1.644,10.519,8.331,8.331,0,0,0-.822,11.751,3.9,3.9,0,0,0,.822.822,8.331,8.331,0,0,0-.822,11.751,3.9,3.9,0,0,0,.822.822A8.248,8.248,0,0,0,106.913,92.4ZM96.8,54.594V92.313H85.3V54.594ZM15.2,199.554a.08.08,0,0,1-.082.082H4.191a.08.08,0,0,1-.082-.082V141.208a.08.08,0,0,1,.082-.082H15.038a.08.08,0,0,1,.082.082v58.346Zm10.847-4.52H19.312V145.728H26.05Zm60.318-24.9a2.054,2.054,0,1,0,0,4.109h21.859a3.862,3.862,0,1,1,0,7.725H86.368a2.054,2.054,0,1,0,0,4.109h14.545a3.862,3.862,0,0,1,0,7.725H63.441c-7.889,0-11.669-4.027-20.791-4.027H30.159V150.823l5.259-.082h.247C52.922,150,53.5,137.51,71.248,137.51H84.889a4.677,4.677,0,0,1,4.766,4.273,4.461,4.461,0,0,1-4.273,4.766H73.138a2.054,2.054,0,0,0,0,4.109c47.416.082,31.885,0,35.09,0a3.821,3.821,0,0,1,.082,7.642l-21.941.082a2.054,2.054,0,0,0,0,4.109l22.517-.082c9.615,0,6.821-.164,9.039.329a3.9,3.9,0,0,1,2.054,5.095,4,4,0,0,1-3.534,2.383Zm74.206-3.123a3.121,3.121,0,0,1-3.123,3.123H123.266a8.051,8.051,0,0,0,.9-5.177c-1.233-7.232-8.875-6.574-8.957-6.656a7.718,7.718,0,0,0,.986-3.862,7.979,7.979,0,0,0-7.971-7.971H92.449a8.747,8.747,0,0,0-2.794-11.916,9,9,0,0,0-4.52-1.315H71.248c-8.711,0-15.038,3.123-21.53,7.889-4.191,3.123-6.985,4.684-12.244,5.177V57.388a2.771,2.771,0,0,1,2.794-2.794H81.191V94.367a2.034,2.034,0,0,0,2.054,2.054h22.517v.657a8.519,8.519,0,0,0,8.546,7.807h39.2a29.9,29.9,0,0,0,7.149-.9ZM178.489,96.5c-5.095-.082-7.478-.082-12.491,1.479-3.534.986-6.9,2.794-12.491,2.794h-39.2a4.325,4.325,0,0,1-4.438-3.945,4.249,4.249,0,0,1,4.027-4.52h32.3a2.054,2.054,0,1,0,0-4.109H114.144a4.232,4.232,0,1,1-.082-8.464h32.049a2.054,2.054,0,0,0,0-4.109H114.062a4.273,4.273,0,1,1,0-8.546h32.049a2.054,2.054,0,0,0,0-4.109H114.062a4.335,4.335,0,0,1-4.273-4.191v-.329a4.388,4.388,0,0,1,4.438-3.945H153.26a2.034,2.034,0,0,0,2.054-2.054v-8.3c3.945.411,7.56,1.89,9.943,5.013,2.958,3.123,2.958,5.095,14.874,5.588V96.586c-.575,0-1.15-.082-1.644-.082Zm5.835-45.855h6.739v50.292h-6.739Zm21.941,54.319a.08.08,0,0,1-.082.082H195.335a.08.08,0,0,1-.082-.082V46.622a.08.08,0,0,1,.082-.082h10.847a.08.08,0,0,1,.082.082Z" transform="translate(0 -10.3)"/>
    </g>
  </g>
</svg>
