<svg xmlns="http://www.w3.org/2000/svg" width="44" height="44" viewBox="0 0 44 44">
  <g id="delete" transform="translate(-1506 -323)">
    <circle id="Ellipse_264" data-name="Ellipse 264" cx="22" cy="22" r="22" transform="translate(1506 323)" fill="#ff4757" opacity="0.3"/>
    <g id="bin" transform="translate(1519.003 334.001)">
      <path id="Path_1555" data-name="Path 1555" d="M222.936,154.7a.538.538,0,0,0-.538.538v10.167a.538.538,0,1,0,1.076,0V155.241A.538.538,0,0,0,222.936,154.7Zm0,0" transform="translate(-210.437 -146.382)" fill="#ff4757"/>
      <path id="Path_1556" data-name="Path 1556" d="M104.936,154.7a.538.538,0,0,0-.538.538v10.167a.538.538,0,0,0,1.076,0V155.241A.538.538,0,0,0,104.936,154.7Zm0,0" transform="translate(-98.785 -146.382)" fill="#ff4757"/>
      <path id="Path_1557" data-name="Path 1557" d="M1.525,6.837V20.091a2.968,2.968,0,0,0,.789,2.047,2.649,2.649,0,0,0,1.922.831H14.414a2.649,2.649,0,0,0,1.922-.831,2.968,2.968,0,0,0,.789-2.047V6.837A2.055,2.055,0,0,0,16.6,2.8H13.844V2.124A2.113,2.113,0,0,0,11.713,0H6.937a2.113,2.113,0,0,0-2.13,2.125V2.8H2.052a2.055,2.055,0,0,0-.527,4.041Zm12.89,15.056H4.236a1.7,1.7,0,0,1-1.635-1.8V6.884H16.05V20.091a1.7,1.7,0,0,1-1.635,1.8ZM5.882,2.124A1.036,1.036,0,0,1,6.937,1.074h4.777a1.036,1.036,0,0,1,1.054,1.049V2.8H5.882ZM2.052,3.872H16.6a.968.968,0,1,1,0,1.937H2.052a.968.968,0,1,1,0-1.937Zm0,0" transform="translate(0 0)" fill="#ff4757"/>
      <path id="Path_1558" data-name="Path 1558" d="M163.936,154.7a.538.538,0,0,0-.538.538v10.167a.538.538,0,1,0,1.076,0V155.241A.538.538,0,0,0,163.936,154.7Zm0,0" transform="translate(-154.611 -146.382)" fill="#ff4757"/>
    </g>
  </g>
</svg>
