<svg xmlns="http://www.w3.org/2000/svg" width="44" height="44" viewBox="0 0 44 44">
  <g id="edit" transform="translate(-1453 -324)">
    <circle id="Ellipse_263" data-name="Ellipse 263" cx="22" cy="22" r="22" transform="translate(1453 324)" fill="#2ed573" opacity="0.3"/>
    <g id="edit-2" data-name="edit" transform="translate(1457.162 335.999)">
      <g id="Group_1588" data-name="Group 1588" transform="translate(7.838 0)">
        <g id="Group_1587" data-name="Group 1587" transform="translate(0 0)">
          <path id="Path_1559" data-name="Path 1559" d="M26.539,16.62h.112l5.418-1.179a.533.533,0,0,0,.281-.14l9.18-9.18A3.538,3.538,0,0,0,42.57,3.594a3.65,3.65,0,0,0-1.039-2.555A3.537,3.537,0,0,0,39,0a3.453,3.453,0,0,0-2.527,1.067l-9.152,9.18a.505.505,0,0,0-.168.253l-1.179,5.418a.618.618,0,0,0,.168.533A.562.562,0,0,0,26.539,16.62ZM39,1.124a2.442,2.442,0,0,1,2.443,2.442q0,.014,0,.028a2.358,2.358,0,0,1-.7,1.712L37.292,1.825A2.414,2.414,0,0,1,39,1.124Zm-2.5,1.516,3.453,3.453-8,7.973L28.5,10.641Zm-8.45,9.124,2.779,2.779-3.565.786Z" transform="translate(-24.995 0)" fill="#2ed573"/>
          <path id="Path_1560" data-name="Path 1560" d="M27.209,365.717H8.4a.561.561,0,0,0,0,1.123h18.81a.561.561,0,0,0,0-1.123Z" transform="translate(-7.838 -346.065)" fill="#2ed573"/>
        </g>
      </g>
    </g>
  </g>
</svg>
