<svg xmlns="http://www.w3.org/2000/svg" width="91" height="91" viewBox="0 0 91 91">
  <g id="info" transform="translate(-860 -415)">
    <circle id="Ellipse_264" data-name="Ellipse 264" cx="45.5" cy="45.5" r="45.5" transform="translate(860 415)" fill="#f0bc5e" opacity="0.3"/>
    <g id="question_2_" data-name="question (2)" transform="translate(882 436.5)">
      <g id="Group_1607" data-name="Group 1607">
        <g id="Group_1606" data-name="Group 1606">
          <circle id="Ellipse_266" data-name="Ellipse 266" cx="2.368" cy="2.368" r="2.368" transform="translate(21.882 33.486)" fill="#f0bc5e"/>
          <path id="Path_1563" data-name="Path 1563" d="M24.25,0A24.25,24.25,0,1,0,48.5,24.25,24.237,24.237,0,0,0,24.25,0Zm0,44.711A20.461,20.461,0,1,1,44.711,24.25,20.45,20.45,0,0,1,24.25,44.711Z" fill="#f0bc5e"/>
          <path id="Path_1564" data-name="Path 1564" d="M183.578,128.5A7.587,7.587,0,0,0,176,136.078a1.895,1.895,0,0,0,3.789,0,3.789,3.789,0,1,1,3.789,3.789,1.894,1.894,0,0,0-1.895,1.895V146.5a1.895,1.895,0,0,0,3.789,0v-3.082a7.579,7.579,0,0,0-1.895-14.917Z" transform="translate(-159.328 -116.328)" fill="#f0bc5e"/>
        </g>
      </g>
    </g>
  </g>
</svg>
