<svg xmlns="http://www.w3.org/2000/svg" width="818.211" height="805.014" viewBox="0 0 818.211 805.014">
  <g id="delivery-date" transform="translate(-1 -2)">
    <path id="Path_956" data-name="Path 956" d="M22,9H312.333V35.394H22Z" transform="translate(256.136 85.379)" fill="#2f3542"/>
    <path id="Path_957" data-name="Path 957" d="M647.651,9H621.257V35.394h26.394a39.639,39.639,0,0,1,39.591,39.591v92.379H27.394V74.985A39.639,39.639,0,0,1,66.985,35.394H225.348V9H66.985A66.06,66.06,0,0,0,1,74.985V470.893a66.06,66.06,0,0,0,65.985,65.985H436.5V510.484H66.985a39.639,39.639,0,0,1-39.591-39.591V193.757H687.241V356.779h26.394V74.985A66.06,66.06,0,0,0,647.651,9Z" transform="translate(0 85.379)" fill="#2f3542"/>
    <path id="Path_958" data-name="Path 958" d="M230.954,428.909C121.8,428.909,33,340.106,33,230.954S121.8,33,230.954,33s197.954,88.8,197.954,197.954S340.106,428.909,230.954,428.909Zm0-329.924c-72.768,0-131.969,59.2-131.969,131.969s59.2,131.97,131.969,131.97,131.97-59.2,131.97-131.97S303.722,98.985,230.954,98.985Z" transform="translate(390.302 378.105)" fill="#fbc531"/>
    <path id="Path_959" data-name="Path 959" d="M182.166,37C102.127,37,37,102.127,37,182.166s65.127,145.167,145.166,145.167,145.167-65.127,145.167-145.167S262.206,37,182.166,37Zm74.655,201.161-18.661,18.661,18.053,18.053a118.2,118.2,0,0,1-60.851,25.285V274.545H168.97V300.16a118.2,118.2,0,0,1-60.851-25.285l18.053-18.053-18.661-18.661L89.458,256.215a118.2,118.2,0,0,1-25.285-60.851H89.788V168.97H64.172a118.2,118.2,0,0,1,25.285-60.851l18.053,18.053,18.661-18.661L108.118,89.458A118.2,118.2,0,0,1,168.97,64.172V195.363H300.16a118.2,118.2,0,0,1-25.285,60.851ZM300.16,168.97h-104.8V64.172A118.937,118.937,0,0,1,300.16,168.97Z" transform="translate(439.09 426.893)" fill="#2f3542"/>
    <path id="Path_960" data-name="Path 960" d="M14,26H145.969v79.182H14Z" transform="translate(158.56 292.727)" fill="#fbc531"/>
    <path id="Path_961" data-name="Path 961" d="M334.924,288.939H44.591A39.639,39.639,0,0,1,5,249.348V64.591A39.639,39.639,0,0,1,44.591,25H334.924a39.639,39.639,0,0,1,39.591,39.591V249.348A39.639,39.639,0,0,1,334.924,288.939ZM44.591,51.394a13.21,13.21,0,0,0-13.2,13.2V249.348a13.21,13.21,0,0,0,13.2,13.2H334.924a13.21,13.21,0,0,0,13.2-13.2V64.591a13.21,13.21,0,0,0-13.2-13.2Z" transform="translate(48.788 280.53)" fill="#2f3542"/>
    <path id="Path_962" data-name="Path 962" d="M150.97,65.394H124.576V39H150.97Zm-52.788,0H71.788V39H98.182Zm-52.788,0H19V39H45.394Z" transform="translate(219.545 451.287)" fill="#2f3542"/>
    <path id="Path_963" data-name="Path 963" d="M35,25H246.151V51.394H35Z" transform="translate(414.696 280.53)" fill="#2f3542"/>
    <path id="Path_964" data-name="Path 964" d="M49,29H75.394V55.394H49Z" transform="translate(585.454 329.318)" fill="#2f3542"/>
    <path id="Path_965" data-name="Path 965" d="M45,29H71.394V55.394H45Z" transform="translate(536.666 329.318)" fill="#2f3542"/>
    <path id="Path_966" data-name="Path 966" d="M35,29H140.576V55.394H35Z" transform="translate(414.696 329.318)" fill="#2f3542"/>
    <g id="Group_1459" data-name="Group 1459" transform="translate(93.379 2)">
      <path id="Path_967" data-name="Path 967" d="M126.379,2A92.379,92.379,0,0,0,34,94.379H86.788a39.591,39.591,0,1,1,79.182,0v26.394a39.588,39.588,0,0,1-39.591,39.591h-13.2v52.788h13.2a92.379,92.379,0,0,0,92.379-92.379V94.379A92.378,92.378,0,0,0,126.379,2Z" transform="translate(309.121 -2)" fill="#fbc531"/>
      <path id="Path_968" data-name="Path 968" d="M100.379,2A92.379,92.379,0,0,0,8,94.379H60.788a39.591,39.591,0,1,1,79.182,0v26.394a39.588,39.588,0,0,1-39.591,39.591h-13.2v52.788h13.2a92.379,92.379,0,0,0,92.379-92.379V94.379A92.379,92.379,0,0,0,100.379,2Z" transform="translate(-8 -2)" fill="#fbc531"/>
    </g>
  </g>
</svg>
