<svg xmlns="http://www.w3.org/2000/svg" xmlns:xlink="http://www.w3.org/1999/xlink" width="1529.83" height="376" viewBox="0 0 1529.83 376">
  <defs>
    <filter id="Ellipse_207" x="0" y="0" width="375" height="376" filterUnits="userSpaceOnUse">
      <feOffset dy="22" input="SourceAlpha"/>
      <feGaussianBlur stdDeviation="25" result="blur"/>
      <feFlood flood-color="#535c68" flood-opacity="0.098"/>
      <feComposite operator="in" in2="blur"/>
      <feComposite in="SourceGraphic"/>
    </filter>
  </defs>
  <g id="logo" transform="translate(-263 -261)">
    <g id="Group_1654" data-name="Group 1654" transform="translate(66)">
      <circle id="Ellipse_269" data-name="Ellipse 269" cx="153.5" cy="153.5" r="153.5" transform="translate(231 272)" fill="#fff"/>
      <g id="Group_1527" data-name="Group 1527" transform="translate(271.76 303.22)">
        <g id="icon" transform="translate(0 11.274)">
          <g transform="matrix(1, 0, 0, 1, -74.76, -53.49)" filter="url(#Ellipse_207)">
            <ellipse id="Ellipse_207-2" data-name="Ellipse 207" cx="112.5" cy="113" rx="112.5" ry="113" transform="translate(75 53)" fill="#fbc531"/>
          </g>
        </g>
        <text id="K" transform="translate(6.24 166.779)" fill="#2f3542" font-size="173" font-family="Montserrat-BlackItalic, Montserrat" font-weight="800" font-style="italic"><tspan x="0" y="0">K</tspan></text>
        <path id="Path_1078" data-name="Path 1078" d="M-21103.219-11617.676l-53.686,53.207,59.658,63.461.09.1.059.063.3.316h0" transform="translate(21304.416 11676.063)" fill="none" stroke="#2f3542" stroke-width="29"/>
        <path id="Path_1131" data-name="Path 1131" d="M-19701.617-11446.488s-1.3,3.182-3.406,7.563c-1.184,2.472-3,5.938-4.16,8a44.886,44.886,0,0,1-6.016,8.423l-5.156-7.025,18.141-17.4Z" transform="translate(19918.643 11613.498)" fill="#2f3542"/>
        <path id="Path_1132" data-name="Path 1132" d="M20.4,18.263s.068-.152-.725-1.107c-1.436-1.728-4.891-5.7-5.623-6.978C13.478,9.175,2.591,0,2.591,0L0,3.529Z" transform="translate(192.42 46.41) rotate(8)" fill="#2f3542"/>
      </g>
    </g>
    <g id="Group_1653" data-name="Group 1653">
      <text id="MR.KONKRETE" transform="matrix(0.999, -0.035, 0.035, 0.999, 600.23, 555.751)" fill="#2f3542" font-size="150" font-family="Montserrat-BlackItalic, Montserrat" font-weight="800" font-style="italic"><tspan x="0" y="0">MR.KONKRETE</tspan></text>
      <text id="_Ok_Delivery_" data-name="&quot;Ok Delivery&quot;" transform="matrix(0.999, -0.035, 0.035, 0.999, 591.564, 373.521)" fill="#1e272e" font-size="102" font-family="FreestyleScript-Regular, Freestyle Script"><tspan x="0" y="0">&quot;Ok Delivery&quot;</tspan></text>
    </g>
  </g>
</svg>
