<svg xmlns="http://www.w3.org/2000/svg" width="135.016" height="150.44" viewBox="0 0 135.016 150.44">
  <g id="off" transform="translate(-18.197)">
    <g id="Group_352" data-name="Group 352" transform="translate(18.197)">
      <g id="Group_350" data-name="Group 350" transform="translate(62.211)">
        <path id="Path_102" data-name="Path 102" d="M170.281,74.747a5.3,5.3,0,0,1-5.3-5.3V5.3a5.3,5.3,0,0,1,10.6,0V69.449A5.3,5.3,0,0,1,170.281,74.747Z" transform="translate(-164.983)" fill="#b2bec3"/>
      </g>
      <g id="Group_351" data-name="Group 351" transform="translate(0 17.929)">
        <path id="Path_103" data-name="Path 103" d="M85.705,174.816A67.585,67.585,0,0,1,18.2,107.308,66.9,66.9,0,0,1,31.936,66.486,68.016,68.016,0,0,1,66.689,42.521a5.3,5.3,0,1,1,2.98,10.167,56.913,56.913,0,1,0,32.072,0,5.3,5.3,0,1,1,2.98-10.167,68.016,68.016,0,0,1,34.753,23.965,66.9,66.9,0,0,1,13.739,40.822A67.584,67.584,0,0,1,85.705,174.816Z" transform="translate(-18.197 -42.305)" fill="#b2bec3"/>
      </g>
    </g>
  </g>
</svg>
