<svg xmlns="http://www.w3.org/2000/svg" width="17.625" height="22.859" viewBox="0 0 17.625 22.859">
  <g id="order" transform="translate(-58.614)">
    <path id="Path_129" data-name="Path 129" d="M288.222,0h-4.137a1.752,1.752,0,0,0-1.75,1.75V5.887a1.752,1.752,0,0,0,1.75,1.75h4.137a1.752,1.752,0,0,0,1.75-1.75V1.75A1.752,1.752,0,0,0,288.222,0Zm.411,5.887a.411.411,0,0,1-.41.41h-4.137a.411.411,0,0,1-.41-.41V1.75a.411.411,0,0,1,.41-.41h4.137a.411.411,0,0,1,.41.41Z" transform="translate(-213.732)" fill="#f5f6fa"/>
    <path id="Path_130" data-name="Path 130" d="M71.285,9.309a1.9,1.9,0,0,0-.89.221,1.908,1.908,0,0,0-2.531-.6,1.909,1.909,0,0,0-2.109-.693v-.6h.159a1.752,1.752,0,0,0,1.75-1.75V1.75A1.752,1.752,0,0,0,65.915,0H61.777a1.752,1.752,0,0,0-1.75,1.75V5.887a1.752,1.752,0,0,0,1.75,1.75h.159v4.149a1.922,1.922,0,0,0-.348-.276,1.9,1.9,0,0,0-1.367-.253,1.631,1.631,0,0,0-1.559,2.06l.88,3.767A11.065,11.065,0,0,0,62.6,22.676a.67.67,0,0,0,.46.183h7.533a.67.67,0,0,0,.56-.3,12.374,12.374,0,0,0,2.04-6.814V11.218h0A1.912,1.912,0,0,0,71.285,9.309ZM63.343,21.52a9.626,9.626,0,0,1-2.48-4.668q0-.025-.01-.049l-.886-3.79a.359.359,0,0,1,.042-.307.392.392,0,0,1,.283-.121c.065-.006.092-.014.152-.018a.732.732,0,0,1,.437.081.566.566,0,0,1,.254.355l.764,3.269a.67.67,0,0,0,.569.512l.054.007a.67.67,0,0,0,.753-.665V5.482a.57.57,0,1,1,1.14,0v6.28a.67.67,0,1,0,1.339,0V10.056a.57.57,0,0,1,1.14,0v1.783a.67.67,0,1,0,1.339,0V10.587a.57.57,0,1,1,1.14,0v1.72a.67.67,0,1,0,1.339,0V11.218a.57.57,0,0,1,1.14,0v4.525a11.035,11.035,0,0,1-1.628,5.777H63.343ZM61.367,5.887V1.75a.411.411,0,0,1,.41-.41h4.137a.411.411,0,0,1,.41.41V5.887a.411.411,0,0,1-.41.41h-.159V5.482a1.91,1.91,0,0,0-3.819,0V6.3h-.159A.411.411,0,0,1,61.367,5.887Z" transform="translate(0)" fill="#f5f6fa"/>
  </g>
</svg>
