<svg xmlns="http://www.w3.org/2000/svg" width="115" height="115" viewBox="0 0 115 115">
  <g id="arcived-icon" transform="translate(-1004 -438)">
    <circle id="Ellipse_21" data-name="Ellipse 21" cx="57.5" cy="57.5" r="57.5" transform="translate(1004 438)" fill="#ff4757" opacity="0.3"/>
    <circle id="Ellipse_30" data-name="Ellipse 30" cx="31.5" cy="31.5" r="31.5" transform="translate(1030 464)" fill="#ff4757"/>
    <g id="bin" transform="translate(1053.004 484.001)">
      <path id="Path_143" data-name="Path 143" d="M222.915,154.7a.517.517,0,0,0-.517.517v9.764a.517.517,0,1,0,1.033,0V155.22A.517.517,0,0,0,222.915,154.7Zm0,0" transform="translate(-210.912 -146.712)" fill="#f5f6fa"/>
      <path id="Path_144" data-name="Path 144" d="M104.915,154.7a.517.517,0,0,0-.517.517v9.764a.517.517,0,1,0,1.033,0V155.22A.517.517,0,0,0,104.915,154.7Zm0,0" transform="translate(-99.008 -146.712)" fill="#f5f6fa"/>
      <path id="Path_145" data-name="Path 145" d="M1.464,6.566V19.294a2.85,2.85,0,0,0,.758,1.966,2.544,2.544,0,0,0,1.846.8h9.775a2.543,2.543,0,0,0,1.846-.8,2.85,2.85,0,0,0,.758-1.966V6.566a1.973,1.973,0,0,0-.506-3.881H13.295V2.039A2.029,2.029,0,0,0,11.249,0H6.661A2.029,2.029,0,0,0,4.615,2.039v.646H1.97a1.973,1.973,0,0,0-.506,3.881ZM13.842,21.025H4.068A1.636,1.636,0,0,1,2.5,19.294V6.611H15.413V19.294a1.636,1.636,0,0,1-1.57,1.731ZM5.649,2.039A1,1,0,0,1,6.661,1.032h4.587a1,1,0,0,1,1.013,1.007v.646H5.649ZM1.97,3.718H15.94a.93.93,0,0,1,0,1.86H1.97a.93.93,0,1,1,0-1.86Zm0,0" transform="translate(0 0)" fill="#f5f6fa"/>
      <path id="Path_146" data-name="Path 146" d="M163.915,154.7a.517.517,0,0,0-.517.517v9.764a.517.517,0,0,0,1.033,0V155.22A.517.517,0,0,0,163.915,154.7Zm0,0" transform="translate(-154.96 -146.712)" fill="#f5f6fa"/>
    </g>
  </g>
</svg>
