<svg xmlns="http://www.w3.org/2000/svg" width="15" height="15" viewBox="0 0 15 15">
  <g id="cog" transform="translate(0 0)">
    <path id="Path_59" data-name="Path 59" d="M8.5,15H6.5a.468.468,0,0,1-.435-.295l-.392-.98A6.434,6.434,0,0,1,4.392,13.2l-.97.416a.473.473,0,0,1-.516-.1l-1.42-1.42a.469.469,0,0,1-.1-.516l.415-.97a6.487,6.487,0,0,1-.528-1.275l-.98-.393A.469.469,0,0,1,0,8.5V6.5a.469.469,0,0,1,.294-.435l.98-.393A6.49,6.49,0,0,1,1.8,4.393l-.415-.97a.469.469,0,0,1,.1-.516l1.42-1.42a.473.473,0,0,1,.516-.1l.97.416a6.431,6.431,0,0,1,1.276-.528L6.06.295A.468.468,0,0,1,6.5,0H8.5A.468.468,0,0,1,8.94.295l.392.98a6.433,6.433,0,0,1,1.276.528l.97-.416a.473.473,0,0,1,.516.1l1.42,1.42a.469.469,0,0,1,.1.516l-.415.97a6.487,6.487,0,0,1,.528,1.275l.98.393A.469.469,0,0,1,15,6.5V8.5a.469.469,0,0,1-.294.435l-.98.393a6.49,6.49,0,0,1-.528,1.275l.415.97a.469.469,0,0,1-.1.516l-1.42,1.42a.473.473,0,0,1-.516.1l-.97-.416a6.431,6.431,0,0,1-1.276.528l-.392.98A.468.468,0,0,1,8.5,15Zm-1.691-.937H8.187l.36-.9a.468.468,0,0,1,.32-.28,5.552,5.552,0,0,0,1.47-.61.473.473,0,0,1,.425-.028l.892.383.972-.971-.382-.892a.47.47,0,0,1,.028-.425,5.527,5.527,0,0,0,.609-1.47.468.468,0,0,1,.28-.32l.9-.361V6.812l-.9-.361a.468.468,0,0,1-.28-.32,5.527,5.527,0,0,0-.609-1.47.47.47,0,0,1-.028-.425l.382-.892-.972-.971-.892.383a.473.473,0,0,1-.425-.028,5.551,5.551,0,0,0-1.47-.61.468.468,0,0,1-.32-.28l-.36-.9H6.813l-.36.9a.468.468,0,0,1-.32.28,5.552,5.552,0,0,0-1.47.61.473.473,0,0,1-.425.028l-.892-.383-.972.971.382.892a.47.47,0,0,1-.028.425,5.527,5.527,0,0,0-.609,1.47.468.468,0,0,1-.28.32l-.9.361V8.188l.9.361a.468.468,0,0,1,.28.32,5.527,5.527,0,0,0,.609,1.47.47.47,0,0,1,.028.425l-.382.892.972.971.892-.383a.473.473,0,0,1,.425.028,5.551,5.551,0,0,0,1.47.61.468.468,0,0,1,.32.28ZM14.531,8.5h0Z" fill="#f5f6fa"/>
    <path id="Path_60" data-name="Path 60" d="M141.532,145.282a3.75,3.75,0,1,1,3.75-3.75A3.754,3.754,0,0,1,141.532,145.282Zm0-6.562a2.812,2.812,0,1,0,2.812,2.813A2.816,2.816,0,0,0,141.532,138.72Z" transform="translate(-134.032 -134.032)" fill="#f5f6fa"/>
  </g>
</svg>
