<svg id="trolly" xmlns="http://www.w3.org/2000/svg" width="16.854" height="14.814" viewBox="0 0 16.854 14.814">
  <path id="Path_54" data-name="Path 54" d="M5.43,9.876h8.955a.494.494,0,0,0,.475-.358L16.835,2.6a.494.494,0,0,0-.475-.629H4.291L3.938.387A.494.494,0,0,0,3.456,0H.494a.494.494,0,0,0,0,.988H3.06L4.843,9.01a1.481,1.481,0,0,0,.588,2.841h8.954a.494.494,0,1,0,0-.988H5.431a.494.494,0,0,1,0-.987ZM15.706,2.963,14.013,8.888H5.828L4.511,2.963Zm0,0" transform="translate(0 0)" fill="#f5f6fa"/>
  <path id="Path_55" data-name="Path 55" d="M150,361.481A1.481,1.481,0,1,0,151.481,360,1.483,1.483,0,0,0,150,361.481Zm1.481-.494a.494.494,0,1,1-.494.494A.494.494,0,0,1,151.481,360.988Zm0,0" transform="translate(-145.062 -348.149)" fill="#f5f6fa"/>
  <path id="Path_56" data-name="Path 56" d="M362,361.481A1.481,1.481,0,1,0,363.481,360,1.483,1.483,0,0,0,362,361.481Zm1.481-.494a.494.494,0,1,1-.494.494A.494.494,0,0,1,363.481,360.988Zm0,0" transform="translate(-350.083 -348.149)" fill="#f5f6fa"/>
</svg>
