<svg xmlns="http://www.w3.org/2000/svg" width="55" height="55" viewBox="0 0 55 55">
  <g id="suppliers-inactive" transform="translate(0.041)">
    <circle id="Ellipse_20" data-name="Ellipse 20" cx="27.5" cy="27.5" r="27.5" transform="translate(-0.041)" fill="#b2bec3" opacity="0.3"/>
    <g id="inventory_1_" data-name="inventory (1)" transform="translate(13.968 13.967)">
      <path id="Path_73" data-name="Path 73" d="M33,49.536H46.17V39H33Zm5.268-9.658H40.9v.878H38.268Zm-4.39,0H37.39v1.756h4.39V39.878h3.512v8.78H33.878Z" transform="translate(-18.952 -22.318)" fill="#b2bec3"/>
      <path id="Path_74" data-name="Path 74" d="M57,57h.878v.878H57Z" transform="translate(-32.417 -32.417)" fill="#b2bec3"/>
      <path id="Path_75" data-name="Path 75" d="M53,57h.878v.878H53Z" transform="translate(-30.172 -32.417)" fill="#b2bec3"/>
      <path id="Path_76" data-name="Path 76" d="M49,57h.878v.878H49Z" transform="translate(-27.928 -32.417)" fill="#b2bec3"/>
      <path id="Path_77" data-name="Path 77" d="M27.339,9.78h-.878V1H15.048V9.78H14.17V1H2.756V9.78H1.878A.879.879,0,0,0,1,10.658v.878a.879.879,0,0,0,.878.878h2.31a3.485,3.485,0,0,0,1.458,3.8A6.6,6.6,0,0,0,1,22.511a2.2,2.2,0,0,0,1.317,2.009v3.7H14.17V22.511a6.6,6.6,0,0,0-4.647-6.293,3.485,3.485,0,0,0,1.458-3.8H27.339a.879.879,0,0,0,.878-.878v-.878A.879.879,0,0,0,27.339,9.78Zm-7.9-7.9h2.634v.878H19.438Zm-3.512,0H18.56V3.634h4.39V1.878h2.634v7.9H22.95V8.024H18.56V9.78H15.926Zm6.146,7.9H19.438V8.9h2.634ZM7.146,1.878H9.78v.878H7.146Zm-3.512,0H6.268V3.634h4.39V1.878h2.634v7.9H10.658V8.024H6.268V9.78H3.634Zm3.512,7.9V8.9H9.78V9.78ZM1.878,11.536v-.878H5.27a3.542,3.542,0,0,0-.722.878Zm1.317,13.17H4.951v2.634H3.195Zm4.17-3.073H5.829V19.438H8.9v2.195H11.1v5.707H5.829V24.706H7.365a1.536,1.536,0,1,0,0-3.073ZM9.78,20.058l.7.7h-.7Zm3.512,2.452v4.829H11.975V21.012L9.523,18.56H4.951v3.073H3.634v.878H7.365a.658.658,0,1,1,0,1.317H3.195a1.319,1.319,0,0,1-1.317-1.317,5.707,5.707,0,1,1,11.414,0ZM7.585,15.926a2.634,2.634,0,1,1,2.634-2.634A2.637,2.637,0,0,1,7.585,15.926Zm19.755-4.39H10.622a3.532,3.532,0,0,0-.722-.878H27.339Z" transform="translate(-1 -1)" fill="#b2bec3"/>
      <path id="Path_78" data-name="Path 78" d="M49,53h4.39v.878H49Z" transform="translate(-27.928 -30.172)" fill="#b2bec3"/>
    </g>
  </g>
</svg>
