<svg xmlns="http://www.w3.org/2000/svg" width="128.43" height="118.515" viewBox="0 0 128.43 118.515">
  <g id="category" transform="translate(0 -19.763)">
    <g id="Group_370" data-name="Group 370" transform="translate(61.706 81.556)">
      <g id="Group_369" data-name="Group 369">
        <path id="Path_125" data-name="Path 125" d="M250.282,266.847a2.4,2.4,0,0,0-.381-.311,2.545,2.545,0,0,0-.431-.231,2.621,2.621,0,0,0-.472-.143,2.469,2.469,0,0,0-.978,0,2.542,2.542,0,0,0-.469.143,2.468,2.468,0,0,0-.434.231,2.4,2.4,0,0,0-.381.311,2.5,2.5,0,0,0,.381,3.86,2.484,2.484,0,0,0,.434.231,2.527,2.527,0,0,0,.469.143,2.408,2.408,0,0,0,.978,0,2.61,2.61,0,0,0,.472-.143,2.508,2.508,0,0,0,.813-4.091Z" transform="translate(-246 -266.113)" fill="#b2bec3"/>
      </g>
    </g>
    <g id="Group_372" data-name="Group 372" transform="translate(0 19.762)">
      <g id="Group_371" data-name="Group 371" transform="translate(0)">
        <path id="Path_126" data-name="Path 126" d="M127.324,59.554,112.175,49.329l13.538-8.2a2.508,2.508,0,0,0-.343-4.465L84.811,19.952a2.509,2.509,0,0,0-2.088.081L64.215,29.393,45.706,20.032a2.508,2.508,0,0,0-2.088-.081L3.06,36.668a2.508,2.508,0,0,0-.343,4.465l13.538,8.2L1.105,59.554a2.508,2.508,0,0,0,.477,4.41L18.4,70.648v48.846a2.508,2.508,0,0,0,1.626,2.348l43.307,16.274a2.5,2.5,0,0,0,1.762,0L108.4,121.842a2.508,2.508,0,0,0,1.626-2.348V70.648l16.818-6.683a2.509,2.509,0,0,0,.477-4.41ZM83.962,25.028l34.9,14.386-11.582,7.012L70.343,31.916ZM100.6,49.192,64.215,63.217,27.826,49.192,64.215,34.9ZM9.563,39.414l34.9-14.386,13.62,6.888L21.146,46.426ZM7.848,61.056l13.38-9.031L58.663,66.454,44.312,75.547Zm58.876,71.09V93.216a2.508,2.508,0,0,0-5.017,0v38.93L23.417,117.757V72.641l20.231,8.04a2.509,2.509,0,0,0,2.269-.212l18.3-11.594,18.3,11.594a2.509,2.509,0,0,0,2.269.212l20.231-8.04v45.116h0Zm17.394-56.6L69.767,66.454,107.2,52.025l13.38,9.031Z" transform="translate(0 -19.762)" fill="#b2bec3"/>
      </g>
    </g>
  </g>
</svg>
