<svg xmlns="http://www.w3.org/2000/svg" width="83.832" height="92.969" viewBox="0 0 83.832 92.969">
  <g id="empty-cart" transform="translate(-11.376)">
    <path id="Path_114" data-name="Path 114" d="M105.321,120.82a3.012,3.012,0,0,0,2.992,2.7,3.053,3.053,0,0,0,.313-.016,3.012,3.012,0,0,0,2.686-3.305l-1.389-13.439a3.012,3.012,0,0,0-5.991.619Z" transform="translate(-55.38 -62.275)" fill="#b2bec3"/>
    <path id="Path_115" data-name="Path 115" d="M150.323,123.506a3.055,3.055,0,0,0,.313.016,3.012,3.012,0,0,0,2.992-2.7l1.389-13.439a3.012,3.012,0,0,0-5.992-.619L147.637,120.2A3.012,3.012,0,0,0,150.323,123.506Z" transform="translate(-81.535 -62.274)" fill="#b2bec3"/>
    <path id="Path_116" data-name="Path 116" d="M82.385,185.088a9.323,9.323,0,1,0,9.322,9.322A9.332,9.332,0,0,0,82.385,185.088Zm0,12.623a3.3,3.3,0,1,1,3.3-3.3A3.3,3.3,0,0,1,82.385,197.711Z" transform="translate(-36.917 -110.766)" fill="#b2bec3"/>
    <path id="Path_117" data-name="Path 117" d="M159.825,185.088a9.323,9.323,0,1,0,9.323,9.322A9.333,9.333,0,0,0,159.825,185.088Zm0,12.623a3.3,3.3,0,1,1,3.3-3.3A3.3,3.3,0,0,1,159.825,197.711Z" transform="translate(-83.26 -110.766)" fill="#b2bec3"/>
    <path id="Path_118" data-name="Path 118" d="M94.579,59.531a3.011,3.011,0,0,0-2.382-1.17H32.167l-2.521-9.694a3.012,3.012,0,0,0-2.915-2.254H14.388a3.012,3.012,0,0,0,0,6.023H24.4l2.5,9.616c.012.054.027.107.042.16l9.3,35.757a3.012,3.012,0,0,0,2.915,2.254H82.877a3.012,3.012,0,0,0,2.915-2.254l9.32-35.838A3.012,3.012,0,0,0,94.579,59.531ZM80.548,94.2H41.487L33.733,64.385H88.3Z" transform="translate(0 -27.776)" fill="#b2bec3"/>
    <path id="Path_119" data-name="Path 119" d="M90.125,31.079a3.012,3.012,0,0,0,4.258-4.26l-9.471-9.467a3.012,3.012,0,0,0-4.258,4.26Z" transform="translate(-40.931 -9.856)" fill="#b2bec3"/>
    <path id="Path_120" data-name="Path 120" d="M154.686,31.961a3,3,0,0,0,2.131-.883l9.457-9.466a3.011,3.011,0,0,0-4.261-4.257l-9.457,9.466a3.011,3.011,0,0,0,2.13,5.14Z" transform="translate(-83.962 -9.858)" fill="#b2bec3"/>
    <path id="Path_121" data-name="Path 121" d="M130.519,19.4h0a3.012,3.012,0,0,0,3.012-3.011l0-13.376A3.012,3.012,0,0,0,130.524,0h0a3.012,3.012,0,0,0-3.012,3.011l0,13.376A3.012,3.012,0,0,0,130.519,19.4Z" transform="translate(-69.499)" fill="#b2bec3"/>
  </g>
</svg>
