<svg xmlns="http://www.w3.org/2000/svg" width="152.01" height="104.392" viewBox="0 0 152.01 104.392">
  <g id="supplier" transform="translate(0 -80.193)">
    <g id="Group_374" data-name="Group 374" transform="translate(22.863 102.414)">
      <g id="Group_373" data-name="Group 373" transform="translate(0 0)">
        <path id="Path_127" data-name="Path 127" d="M116.862,155.036l-6.6,6.6,9.477,9.477H77.007v9.337h42.729l-9.476,9.476,6.6,6.6,20.747-20.747Z" transform="translate(-77.007 -155.036)" fill="#b2bec3"/>
      </g>
    </g>
    <g id="Group_376" data-name="Group 376" transform="translate(0 80.193)">
      <g id="Group_375" data-name="Group 375">
        <path id="Path_128" data-name="Path 128" d="M115.8,99.49H105.89v-19.3H0v90.26H20.589a18.871,18.871,0,0,0,36.532,0h49.142a18.871,18.871,0,0,0,36.532,0h9.214V99.49ZM38.855,175.247a9.532,9.532,0,1,1,9.532-9.532A9.543,9.543,0,0,1,38.855,175.247Zm57.7-75.757v61.626h-39.4a18.869,18.869,0,0,0-36.6,0H9.337V89.53H96.553Zm28.582,9.337h17.539V130.3H125.135Zm-.6,66.42a9.532,9.532,0,1,1,9.532-9.532A9.543,9.543,0,0,1,124.53,175.247Zm18.143-14.7h0a18.866,18.866,0,0,0-36.443.569h-.341V108.827H115.8V139.64h26.876v20.907Z" transform="translate(0 -80.193)" fill="#b2bec3"/>
      </g>
    </g>
  </g>
</svg>
