<svg xmlns="http://www.w3.org/2000/svg" width="29.47" height="29.47" viewBox="0 0 29.47 29.47">
  <g id="category" transform="translate(-2 -2)">
    <path id="Path_1024" data-name="Path 1024" d="M45.735,39.35V37.385l-1.645-.413a5.855,5.855,0,0,0-.693-1.665l.874-1.454-1.39-1.39-1.454.874a5.855,5.855,0,0,0-1.665-.693L39.35,31H37.385l-.413,1.645a5.855,5.855,0,0,0-1.665.693l-1.454-.874-1.39,1.39.874,1.454a5.855,5.855,0,0,0-.693,1.665L31,37.385V39.35l1.645.413a5.855,5.855,0,0,0,.693,1.665l-.874,1.454,1.39,1.39,1.454-.874a5.855,5.855,0,0,0,1.665.693l.4,1.586.015.059H39.35l.413-1.645a5.855,5.855,0,0,0,1.665-.693l1.454.874,1.39-1.39L43.4,41.427a5.855,5.855,0,0,0,.693-1.665Zm-5.2,2.289a3.914,3.914,0,0,1-1.68.629,4.059,4.059,0,0,1-.491.029,3.929,3.929,0,1,1,0-7.859,4.058,4.058,0,0,1,.491.029,3.929,3.929,0,0,1,1.68,7.171Z" transform="translate(-14.756 -14.756)" fill="#bddbff"/>
    <path id="Path_1025" data-name="Path 1025" d="M45.495,50.717a2.456,2.456,0,0,0-1.248-.668A2.314,2.314,0,0,0,43.756,50a2.438,2.438,0,0,0-2.166,1.311,3.9,3.9,0,0,0,2.166.653,4.058,4.058,0,0,0,.491-.029,3.914,3.914,0,0,0,1.68-.629,2.431,2.431,0,0,0-.432-.589Z" transform="translate(-20.145 -24.424)" fill="#bddbff"/>
    <path id="Path_1026" data-name="Path 1026" d="M44.965,42.088A1.362,1.362,0,0,0,44.473,42,1.473,1.473,0,0,0,43,43.473v.491h.575a.985.985,0,0,0,.7-.29l.2-.2.2.2a.991.991,0,0,0,.29.2.966.966,0,0,0,.408.088h.575v-.491A1.458,1.458,0,0,0,44.965,42.088Z" transform="translate(-20.862 -20.353)" fill="#bddbff"/>
    <path id="Path_1027" data-name="Path 1027" d="M42.929,6.929H39.982A.985.985,0,0,1,39,5.947V3Z" transform="translate(-18.827 -0.509)" fill="#bddbff"/>
    <path id="Path_1028" data-name="Path 1028" d="M12.572,19.845A1.965,1.965,0,1,1,10.961,19,1.965,1.965,0,0,1,12.572,19.845Z" transform="translate(-3.558 -8.65)" fill="#bddbff"/>
    <path id="Path_1029" data-name="Path 1029" d="M12.572,33.845A1.965,1.965,0,1,1,10.961,33,1.965,1.965,0,0,1,12.572,33.845Z" transform="translate(-3.558 -15.774)" fill="#bddbff"/>
    <path id="Path_1030" data-name="Path 1030" d="M12.572,47.845A1.965,1.965,0,1,1,10.961,47,1.965,1.965,0,0,1,12.572,47.845Z" transform="translate(-3.558 -22.898)" fill="#bddbff"/>
    <g id="Group_1478" data-name="Group 1478" transform="translate(2 2)">
      <path id="Path_1031" data-name="Path 1031" d="M2.982,29.014V4.456A1.473,1.473,0,0,1,4.456,2.982H19.682V5.438a1.473,1.473,0,0,0,1.473,1.473h2.456V14.77h.982V6.42a.491.491,0,0,0-.144-.347L20.52,2.144A.491.491,0,0,0,20.173,2H4.456A2.459,2.459,0,0,0,2,4.456V29.014A2.459,2.459,0,0,0,4.456,31.47h16.7v-.982H4.456A1.473,1.473,0,0,1,2.982,29.014ZM20.664,5.438V3.677l2.252,2.252H21.155A.491.491,0,0,1,20.664,5.438Z" transform="translate(-2 -2)" fill="#3d9ae2"/>
      <path id="Path_1032" data-name="Path 1032" d="M8,8h.982v.982H8Z" transform="translate(-5.053 -5.053)" fill="#3d9ae2"/>
      <path id="Path_1033" data-name="Path 1033" d="M12,8h2.947v.982H12Z" transform="translate(-7.088 -5.053)" fill="#3d9ae2"/>
      <path id="Path_1034" data-name="Path 1034" d="M8,12h4.912v.982H8Z" transform="translate(-5.053 -7.088)" fill="#3d9ae2"/>
      <path id="Path_1035" data-name="Path 1035" d="M41.42,37a4.42,4.42,0,1,0,4.42,4.42A4.42,4.42,0,0,0,41.42,37Zm-1.456,7.53a1.945,1.945,0,0,1,1.456-.654,1.969,1.969,0,0,1,1.391.573c.025.024.045.054.068.08a3.394,3.394,0,0,1-2.915,0Zm.473-2.619h.084a1.46,1.46,0,0,0,.9-.305,1.46,1.46,0,0,0,.9.305H42.4a.982.982,0,1,1-1.965,0Zm0-.982a.982.982,0,0,1,1.965,0h-.084a.5.5,0,0,1-.347-.144l-.2-.2a.491.491,0,0,0-.695,0l-.2.2a.5.5,0,0,1-.347.144ZM43.7,43.984a2.851,2.851,0,0,0-.2-.231,2.982,2.982,0,0,0-.662-.491,1.953,1.953,0,0,0,.541-1.35v-.982a1.965,1.965,0,1,0-3.929,0v.982A1.954,1.954,0,0,0,40,43.264a2.909,2.909,0,0,0-.86.724,3.438,3.438,0,1,1,4.561,0Z" transform="translate(-19.809 -19.809)" fill="#3d9ae2"/>
      <path id="Path_1036" data-name="Path 1036" d="M45.345,36.4l-1.365-.344a6.339,6.339,0,0,0-.521-1.254l.725-1.208a.491.491,0,0,0-.074-.6l-1.389-1.388a.491.491,0,0,0-.6-.074l-1.208.726a6.327,6.327,0,0,0-1.254-.52l-.344-1.366A.491.491,0,0,0,38.841,30H36.876a.491.491,0,0,0-.476.372l-.344,1.366a6.327,6.327,0,0,0-1.252.521L33.6,31.535a.491.491,0,0,0-.6.074L31.607,33a.491.491,0,0,0-.074.6l.726,1.208a6.339,6.339,0,0,0-.521,1.254l-1.365.344a.491.491,0,0,0-.373.474v1.965a.491.491,0,0,0,.372.476l1.365.344a6.339,6.339,0,0,0,.521,1.254l-.725,1.208a.491.491,0,0,0,.074.6L33,44.11a.491.491,0,0,0,.6.074l1.208-.726a6.328,6.328,0,0,0,1.254.52l.344,1.366a.491.491,0,0,0,.474.373h1.965a.491.491,0,0,0,.476-.372l.344-1.366a6.327,6.327,0,0,0,1.252-.521l1.208.724a.491.491,0,0,0,.6-.074l1.389-1.388a.491.491,0,0,0,.074-.6l-.726-1.208a6.339,6.339,0,0,0,.521-1.254l1.365-.344a.491.491,0,0,0,.373-.474V36.876a.491.491,0,0,0-.372-.476Zm-.61,2.057-1.274.319a.491.491,0,0,0-.358.361,5.368,5.368,0,0,1-.633,1.526.491.491,0,0,0,0,.508l.676,1.127-.847.847-1.127-.676a.491.491,0,0,0-.508,0,5.361,5.361,0,0,1-1.528.635.491.491,0,0,0-.361.358l-.318,1.274h-1.2l-.319-1.274a.491.491,0,0,0-.361-.358,5.36,5.36,0,0,1-1.526-.633.491.491,0,0,0-.508,0l-1.127.676-.847-.847.676-1.127a.491.491,0,0,0,0-.508,5.368,5.368,0,0,1-.635-1.528.491.491,0,0,0-.358-.361l-1.274-.318v-1.2l1.274-.319a.491.491,0,0,0,.358-.361,5.368,5.368,0,0,1,.633-1.526.491.491,0,0,0,0-.508l-.676-1.127.847-.847,1.127.676a.491.491,0,0,0,.508,0,5.36,5.36,0,0,1,1.528-.635.491.491,0,0,0,.361-.358l.318-1.274h1.2l.319,1.274a.491.491,0,0,0,.361.358,5.361,5.361,0,0,1,1.526.633.491.491,0,0,0,.508,0l1.127-.676.847.847-.676,1.127a.491.491,0,0,0,0,.508,5.368,5.368,0,0,1,.635,1.528.491.491,0,0,0,.358.361l1.274.318Z" transform="translate(-16.247 -16.247)" fill="#3d9ae2"/>
      <path id="Path_1037" data-name="Path 1037" d="M10.45,22.912a2.459,2.459,0,0,0,2.456-2.456h-.982a1.473,1.473,0,1,1-1.1-1.424l.246-.952a2.456,2.456,0,1,0-.614,4.832Z" transform="translate(-5.047 -10.141)" fill="#3d9ae2"/>
      <path id="Path_1038" data-name="Path 1038" d="M10.45,36.912a2.459,2.459,0,0,0,2.456-2.456h-.982a1.473,1.473,0,1,1-1.1-1.424l.246-.952a2.456,2.456,0,1,0-.614,4.832Z" transform="translate(-5.047 -17.265)" fill="#3d9ae2"/>
      <path id="Path_1039" data-name="Path 1039" d="M10.45,50.912a2.459,2.459,0,0,0,2.456-2.456h-.982a1.473,1.473,0,1,1-1.1-1.424l.246-.952a2.456,2.456,0,1,0-.614,4.832Z" transform="translate(-5.047 -24.389)" fill="#3d9ae2"/>
      <path id="Path_1040" data-name="Path 1040" d="M0,0H3.473V.982H0Z" transform="translate(5.054 10.458) rotate(-45)" fill="#3d9ae2"/>
      <path id="Path_1041" data-name="Path 1041" d="M22,20h5.894v.982H22Z" transform="translate(-12.177 -11.159)" fill="#3d9ae2"/>
      <path id="Path_1042" data-name="Path 1042" d="M22,24h5.894v.982H22Z" transform="translate(-12.177 -13.194)" fill="#3d9ae2"/>
      <path id="Path_1043" data-name="Path 1043" d="M0,0H3.473V.982H0Z" transform="translate(5.053 17.334) rotate(-45)" fill="#3d9ae2"/>
      <path id="Path_1044" data-name="Path 1044" d="M22,34h4.912v.982H22Z" transform="translate(-12.177 -18.283)" fill="#3d9ae2"/>
      <path id="Path_1045" data-name="Path 1045" d="M22,38h3.929v.982H22Z" transform="translate(-12.177 -20.318)" fill="#3d9ae2"/>
      <path id="Path_1046" data-name="Path 1046" d="M0,0H3.473V.982H0Z" transform="translate(5.052 24.209) rotate(-45)" fill="#3d9ae2"/>
      <path id="Path_1047" data-name="Path 1047" d="M22,48h2.947v.982H22Z" transform="translate(-12.177 -25.407)" fill="#3d9ae2"/>
      <path id="Path_1048" data-name="Path 1048" d="M22,52h3.929v.982H22Z" transform="translate(-12.177 -27.442)" fill="#3d9ae2"/>
    </g>
  </g>
</svg>
