<svg xmlns="http://www.w3.org/2000/svg" width="33.763" height="35.953" viewBox="0 0 33.763 35.953">
  <g id="clock" transform="translate(-0.026 0.001)">
    <path id="Path_1049" data-name="Path 1049" d="M94.941,112.486a11.455,11.455,0,1,1-11.455-11.455A11.455,11.455,0,0,1,94.941,112.486Zm0,0" transform="translate(-66.578 -93.418)" fill="#bddbff"/>
    <g id="Group_1479" data-name="Group 1479" transform="translate(0.026 -0.001)">
      <path id="Path_1050" data-name="Path 1050" d="M76.089,93.031a12.058,12.058,0,1,0,12.058,12.058A12.058,12.058,0,0,0,76.089,93.031Zm0,22.91a10.852,10.852,0,1,1,10.852-10.852A10.852,10.852,0,0,1,76.089,115.942Zm0,0" transform="translate(-59.207 -86.02)" fill="#3d9ae2"/>
      <path id="Path_1051" data-name="Path 1051" d="M96.031,245.031h1.206v1.206H96.031Zm0,0" transform="translate(-88.796 -226.565)" fill="#3d9ae2"/>
      <path id="Path_1052" data-name="Path 1052" d="M216.031,365.031h1.206v1.206h-1.206Zm0,0" transform="translate(-199.752 -337.521)" fill="#3d9ae2"/>
      <path id="Path_1053" data-name="Path 1053" d="M336.031,245.031h1.206v1.206h-1.206Zm0,0" transform="translate(-310.709 -226.565)" fill="#3d9ae2"/>
      <path id="Path_1054" data-name="Path 1054" d="M216.031,125.031h1.206v1.206h-1.206Zm0,0" transform="translate(-199.752 -115.608)" fill="#3d9ae2"/>
      <path id="Path_1055" data-name="Path 1055" d="M171.648,217.854h-2.412v-1.206h1.809a.6.6,0,0,0,.6-.6v-2.412a.6.6,0,0,0-.6-.6h-2.412a.6.6,0,0,0-.6.6v1.206h1.206v-.6h1.206v1.206h-1.809a.6.6,0,0,0-.6.6v2.412a.6.6,0,0,0,.6.6h3.015Zm0,0" transform="translate(-155.37 -196.976)" fill="#3d9ae2"/>
      <path id="Path_1056" data-name="Path 1056" d="M234.443,215.443h-1.206v-2.412h-1.206v3.014a.6.6,0,0,0,.6.6h1.809v2.412h1.206v-6.029h-1.206Zm0,0" transform="translate(-214.546 -196.976)" fill="#3d9ae2"/>
      <path id="Path_1057" data-name="Path 1057" d="M32.583,19.068A15.675,15.675,0,1,1,15.563,3.453l-1.442,1.72.923.775L17.37,3.174a.6.6,0,0,0-.074-.85L14.522,0l-.773.927L15.34,2.262A16.881,16.881,0,1,0,33.789,19.068Zm0,0" transform="translate(-0.026 0.001)" fill="#3d9ae2"/>
      <path id="Path_1058" data-name="Path 1058" d="M413.666,161.39l1.13-.419c-.144-.389-.305-.778-.478-1.155l-1.1.5C413.383,160.668,413.532,161.028,413.666,161.39Zm0,0" transform="translate(-382.083 -147.772)" fill="#3d9ae2"/>
      <path id="Path_1059" data-name="Path 1059" d="M398.981,132.446l1.056-.582c-.2-.362-.415-.724-.643-1.071l-1.011.659C398.6,131.777,398.8,132.111,398.981,132.446Zm0,0" transform="translate(-368.362 -120.936)" fill="#3d9ae2"/>
      <path id="Path_1060" data-name="Path 1060" d="M424.183,192.347l1.18-.246c-.085-.409-.186-.817-.3-1.214l-1.159.334C424.01,191.591,424.1,191.967,424.183,192.347Zm0,0" transform="translate(-391.958 -176.501)" fill="#3d9ae2"/>
      <path id="Path_1061" data-name="Path 1061" d="M430.318,224.657l1.206-.07c-.024-.415-.063-.833-.121-1.244l-1.2.158C430.258,223.883,430.3,224.272,430.318,224.657Zm0,0" transform="translate(-397.787 -206.512)" fill="#3d9ae2"/>
      <path id="Path_1062" data-name="Path 1062" d="M380.421,106.147l.958-.733c-.253-.331-.521-.655-.795-.964l-.9.8c.258.287.509.588.741.9Zm0,0" transform="translate(-351.068 -96.578)" fill="#3d9ae2"/>
      <path id="Path_1063" data-name="Path 1063" d="M306.885,47.3c-.369-.19-.75-.369-1.132-.532l-.472,1.11c.354.151.708.316,1.051.494Zm0,0" transform="translate(-282.277 -43.245)" fill="#3d9ae2"/>
      <path id="Path_1064" data-name="Path 1064" d="M277.621,36.471c-.391-.133-.8-.254-1.2-.358l-.3,1.167c.375.1.749.208,1.112.332Zm0,0" transform="translate(-255.314 -33.392)" fill="#3d9ae2"/>
      <path id="Path_1065" data-name="Path 1065" d="M247.21,30.407c-.407-.073-.823-.132-1.237-.176l-.125,1.2c.385.04.771.094,1.145.163Zm0,0" transform="translate(-227.322 -27.952)" fill="#3d9ae2"/>
      <path id="Path_1066" data-name="Path 1066" d="M334.328,62.669c-.336-.241-.687-.475-1.042-.693L332.656,63c.33.2.655.422.965.643Zm0,0" transform="translate(-307.589 -57.306)" fill="#3d9ae2"/>
      <path id="Path_1067" data-name="Path 1067" d="M359.335,82.19c-.3-.289-.608-.571-.927-.838l-.775.924c.3.248.586.51.861.778Zm0,0" transform="translate(-330.683 -75.221)" fill="#3d9ae2"/>
    </g>
  </g>
</svg>
