<svg xmlns="http://www.w3.org/2000/svg" width="27" height="27" viewBox="0 0 27 27">
  <g id="customer" transform="translate(-610 -394)">
    <circle id="Ellipse_20" data-name="Ellipse 20" cx="13.5" cy="13.5" r="13.5" transform="translate(610 394)" fill="#fbc531" opacity="0.3"/>
    <g id="value_3_" data-name="value (3)" transform="translate(592.892 377.011)">
      <path id="Path_91" data-name="Path 91" d="M35.363,283.154l-.059.032a.818.818,0,0,0-.971-.243l0,0-.14.075a1.064,1.064,0,0,0-1.218-.11l-.754.41h-1a1.45,1.45,0,0,1-.628-.144l-.138-.067a2.369,2.369,0,0,0-2.465.241l-.01.008-.333.3a1.157,1.157,0,0,1-.436.243l-.189-.621a.15.15,0,0,0-.144-.106H25.258a.15.15,0,0,0-.149.168l.537,4.406a.15.15,0,0,0,.149.132h2.418a.15.15,0,0,0,.144-.194l-.318-1.042.989-.625a.6.6,0,0,1,.434-.056l.009,0,2.013.371a2.6,2.6,0,0,0,1.609-.227l.018-.011,3.481-2.39a.15.15,0,0,0,.044-.2A.956.956,0,0,0,35.363,283.154Zm-.893.056a.512.512,0,0,1,.56.124l-1.32.712-.078.041a1.144,1.144,0,0,0-.181-.328Zm-1.354-.037,0,0a.763.763,0,0,1,.776.007l-.671.361a1.14,1.14,0,0,0-.429-.193Zm-7.188,4.4-.5-4.106h1.331l1.252,4.106Zm7.023-1.737a2.3,2.3,0,0,1-1.413.2l-2.008-.37a.9.9,0,0,0-.652.088l-.007,0-.923.584-.658-2.157a1.457,1.457,0,0,0,.548-.307l.329-.293a2.07,2.07,0,0,1,2.149-.207l.138.067a1.752,1.752,0,0,0,.758.174h1.339a.847.847,0,0,1,.83.688l-.97-.044a5.814,5.814,0,0,0-1.056.049.15.15,0,0,0,.041.3,5.5,5.5,0,0,1,1-.046l1.142.052h.007a.15.15,0,0,0,.15-.15c0-.024,0-.048,0-.072l.157-.083,1.655-.892a.656.656,0,0,1,.789.126Z" transform="translate(0 -251.331)" fill="#fbc531"/>
      <path id="Path_92" data-name="Path 92" d="M76.974,431.77a.473.473,0,1,0,.473-.473A.473.473,0,0,0,76.974,431.77Zm.473-.172a.172.172,0,1,1-.172.172.172.172,0,0,1,.172-.172Z" transform="translate(-50.569 -396.146)" fill="#fbc531"/>
      <path id="Path_93" data-name="Path 93" d="M212.813,26.623v-.495a1.139,1.139,0,1,0-2.278,0v.495a1.139,1.139,0,1,0,2.278,0Zm-1.978,0v-.495a.839.839,0,1,1,1.678,0v.495a.839.839,0,1,1-1.678,0Z" transform="translate(-180.788)" fill="#fbc531"/>
      <path id="Path_94" data-name="Path 94" d="M72.818,141.7h3.673a.15.15,0,0,0,.15-.15V141.2h2.514a.15.15,0,0,0,.15-.15v-.974a1.125,1.125,0,0,0-1.053-1.122.175.175,0,0,0-.155.085.689.689,0,0,1-1.087-.027.15.15,0,0,0-.124-.061,1.113,1.113,0,0,0-.552.161,1.262,1.262,0,0,0-.88-.437.183.183,0,0,0-.155.09.808.808,0,0,1-1.275-.031.15.15,0,0,0-.124-.061,1.256,1.256,0,0,0-.872.38c-.019.019-.037.039-.054.06a1.116,1.116,0,0,0-.512-.161.176.176,0,0,0-.155.085.689.689,0,0,1-1.087-.027.15.15,0,0,0-.124-.061,1.124,1.124,0,0,0-1.1,1.124v.974a.15.15,0,0,0,.15.15h2.518v.344A.15.15,0,0,0,72.818,141.7Zm4-2.438a.989.989,0,0,0,1.481,0,.825.825,0,0,1,.7.815v.824H76.641v-.963a1.256,1.256,0,0,0-.139-.575A.811.811,0,0,1,76.822,139.26Zm-2.987-.278a1.108,1.108,0,0,0,1.674,0,.964.964,0,0,1,.832.954V141.4H72.968v-1.457A.97.97,0,0,1,73.835,138.983ZM70.3,140.9v-.824a.83.83,0,0,1,.732-.819.989.989,0,0,0,1.481,0,.819.819,0,0,1,.293.1,1.257,1.257,0,0,0-.137.573v.963Z" transform="translate(-43.769 -110.845)" fill="#fbc531"/>
      <path id="Path_95" data-name="Path 95" d="M333.162,51.709v-.433a1.016,1.016,0,1,0-2.032,0v.433a1.016,1.016,0,1,0,2.032,0Zm-1.732,0v-.433a.716.716,0,1,1,1.431,0v.433a.716.716,0,1,1-1.431,0Z" transform="translate(-298.367 -24.639)" fill="#fbc531"/>
      <path id="Path_96" data-name="Path 96" d="M101.678,51.709v-.433a1.016,1.016,0,1,0-2.032,0v.433a1.016,1.016,0,0,0,2.032,0Zm-1.732,0v-.433a.716.716,0,1,1,1.431,0v.433a.716.716,0,1,1-1.431,0Z" transform="translate(-72.674 -24.639)" fill="#fbc531"/>
    </g>
  </g>
</svg>
