<svg xmlns="http://www.w3.org/2000/svg" width="27" height="27" viewBox="0 0 27 27">
  <g id="industry" transform="translate(-425 -678)">
    <circle id="Ellipse_20" data-name="Ellipse 20" cx="13.5" cy="13.5" r="13.5" transform="translate(425 678)" fill="#fbc531" opacity="0.3"/>
    <g id="factory_1_" data-name="factory (1)" transform="translate(431 621)">
      <g id="Group_340" data-name="Group 340" transform="translate(0 64)">
        <g id="Group_339" data-name="Group 339" transform="translate(0 0)">
          <path id="Path_97" data-name="Path 97" d="M14.776,67.777a.309.309,0,0,0-.3-.014L11.192,69.4V68.042a.311.311,0,0,0-.45-.278L7.462,69.4V68.042a.311.311,0,0,0-.45-.278L4.37,69.084,3.728,64.27A.311.311,0,0,0,3.42,64H1.554a.311.311,0,0,0-.308.27L.167,72.364A19.137,19.137,0,0,0,0,74.881a.311.311,0,0,0,.311.311h14.3a.311.311,0,0,0,.311-.311v-6.84A.311.311,0,0,0,14.776,67.777ZM.625,74.571a18.548,18.548,0,0,1,.159-2.124l1.044-7.824H3.148l1.044,7.824a18.549,18.549,0,0,1,.159,2.124H.625Zm4.063-3.109H5.6v.622H4.77ZM14.3,74.571H4.964c-.01-.622-.052-1.246-.123-1.865H5.907a.311.311,0,0,0,.311-.311V71.151a.311.311,0,0,0-.311-.311H4.6l-.147-1.1L6.84,68.545v1.362a.311.311,0,0,0,.45.278l3.281-1.64v1.362a.311.311,0,0,0,.45.278l3.281-1.64v6.026Z" transform="translate(0 -64)" fill="#fbc531"/>
          <path id="Path_98" data-name="Path 98" d="M258.176,298.667h-1.865a.311.311,0,0,0-.311.311v1.244a.311.311,0,0,0,.311.311h1.865a.311.311,0,0,0,.311-.311v-1.244A.311.311,0,0,0,258.176,298.667Zm-.311,1.244h-1.244v-.622h1.244Z" transform="translate(-248.538 -291.827)" fill="#fbc531"/>
          <path id="Path_99" data-name="Path 99" d="M384.311,300.531h1.865a.311.311,0,0,0,.311-.311v-1.244a.311.311,0,0,0-.311-.311h-1.865a.311.311,0,0,0-.311.311v1.244A.311.311,0,0,0,384.311,300.531Zm.311-1.244h1.244v.622h-1.244Z" transform="translate(-372.808 -291.826)" fill="#fbc531"/>
        </g>
      </g>
    </g>
  </g>
</svg>
