<svg xmlns="http://www.w3.org/2000/svg" width="28.879" height="28.879" viewBox="0 0 28.879 28.879">
  <g id="measure" transform="translate(-0.003 0)">
    <path id="Path_1020" data-name="Path 1020" d="M88.668,22.447v.481L80,31.592V8.489a.481.481,0,0,1,.481-.481h7.7a.481.481,0,0,1,.481.481Zm0,0" transform="translate(-75.188 -7.526)" fill="#bddbff"/>
    <path id="Path_1021" data-name="Path 1021" d="M33.032,35.924H8L35.92,8.008V35.443a.481.481,0,0,1-.481.481ZM31.107,30.63v-11L19.623,31.111h11A.481.481,0,0,0,31.107,30.63Zm0,0" transform="translate(-7.519 -7.526)" fill="#bddbff"/>
    <g id="Group_1477" data-name="Group 1477" transform="translate(0.003 0)">
      <path id="Path_1022" data-name="Path 1022" d="M28.585.037a.478.478,0,0,0-.525.1l-14.1,14.1V.963A.963.963,0,0,0,13,0H5.3a.963.963,0,0,0-.963.963v22.9L.144,28.058a.481.481,0,0,0,.34.821H27.919a.963.963,0,0,0,.963-.963V.482a.481.481,0,0,0-.3-.445ZM5.3.963H13V2.888H10.592v.963H13V5.776H10.592v.963H13V8.664H10.592v.963H13v1.925H10.592v.963H13V14.44H9.148V15.4H12.8L5.3,22.9Zm20.7,26.954v-.963h-.963v.963H23.106v-.963h-.963v.963H20.218v-.963h-.963v.963H17.33V25.991h-.963v1.925H14.443v-.963H13.48v.963H11.555v-.963h-.963v.963H8.667v-.963H7.7v.963H5.779v-.963H4.816v.963H1.646L27.919,1.644v3.17h-.963v.963h.963V7.7h-.963v.963h.963v1.925h-.963v.963h.963v1.925h-.963v.963h.963v1.925H25.994v.963h1.925v1.925h-.963v.963h.963v1.925h-.963V23.1h.963v1.925h-.963v.963h.963v1.925Zm0,0" transform="translate(-0.003 0)" fill="#3d9ae2"/>
      <path id="Path_1023" data-name="Path 1023" d="M205.289,193.178a.477.477,0,0,0-.525.1l-11.483,11.483a.481.481,0,0,0,.34.821h11a.963.963,0,0,0,.963-.963v-11A.481.481,0,0,0,205.289,193.178Zm-.666,11.446h-9.84l9.84-9.839Zm0,0" transform="translate(-181.521 -181.52)" fill="#3d9ae2"/>
    </g>
  </g>
</svg>
