<svg xmlns="http://www.w3.org/2000/svg" width="44" height="32.266" viewBox="0 0 44 32.266">
  <g id="Truck" transform="translate(-2 -9)">
    <path id="Path_1068" data-name="Path 1068" d="M7.4,11.8V26.76A42.628,42.628,0,0,1,3,25.147V13.413A42.628,42.628,0,0,1,7.4,11.8Z" transform="translate(-0.267 -0.747)" fill="#bddbff"/>
    <path id="Path_1069" data-name="Path 1069" d="M29.667,12.933V24.667S23.067,27.6,17.933,27.6A18.549,18.549,0,0,1,15,27.336V10.264A18.549,18.549,0,0,1,17.933,10C23.067,10,29.667,12.933,29.667,12.933Z" transform="translate(-3.467 -0.267)" fill="#bddbff"/>
    <path id="Path_1070" data-name="Path 1070" d="M26.467,39.667v4.4H23.533a3.667,3.667,0,1,0-7.333,0H13.267a3.667,3.667,0,1,0-7.333,0h-2.2A.733.733,0,0,1,3,43.333V37.467H21.333L22.8,36h3.667Z" transform="translate(-0.267 -7.2)" fill="#bddbff"/>
    <path id="Path_1071" data-name="Path 1071" d="M39,35.667V21h2.933v7.333H55.016a2.767,2.767,0,0,1,.117.814v2.119H51.467a.733.733,0,0,0-.733.733v1.467a.733.733,0,0,0,.733.733h3.667v4.4a1.471,1.471,0,0,1-1.467,1.467H50a3.667,3.667,0,1,0-7.333,0H39Z" transform="translate(-9.867 -3.2)" fill="#bddbff"/>
    <g id="Group_1480" data-name="Group 1480" transform="translate(2 9)">
      <path id="Path_1072" data-name="Path 1072" d="M42,34h2.933v1.467H42Z" transform="translate(-12.667 -15.667)" fill="#3d9ae2"/>
      <path id="Path_1073" data-name="Path 1073" d="M11,46h1.467v1.467H11Z" transform="translate(-4.4 -18.867)" fill="#3d9ae2"/>
      <path id="Path_1074" data-name="Path 1074" d="M25,46h1.467v1.467H25Z" transform="translate(-8.133 -18.867)" fill="#3d9ae2"/>
      <path id="Path_1075" data-name="Path 1075" d="M48,46h1.467v1.467H48Z" transform="translate(-14.267 -18.867)" fill="#3d9ae2"/>
      <path id="Path_1076" data-name="Path 1076" d="M45.477,26.992l-3.554-5.925A2.214,2.214,0,0,0,40.036,20h-10.9a.733.733,0,0,0-.733.733V34.667H26.933V31.733A.733.733,0,0,0,26.2,31H22.533a.733.733,0,0,0-.518.215l-1.252,1.252H2.733A.733.733,0,0,0,2,33.2v5.867a1.467,1.467,0,0,0,1.467,1.467H5a4.395,4.395,0,0,0,8.668,0h1.6a4.395,4.395,0,0,0,8.668,0h8.2a4.395,4.395,0,0,0,8.668,0h3a2.2,2.2,0,0,0,2.2-2.2V28.879a3.666,3.666,0,0,0-.523-1.887Zm-4.811-5.169,3.306,5.51H32.8V21.467h7.236A.74.74,0,0,1,40.666,21.823ZM28.4,36.133v2.933H26.933V36.133Zm-19.067,6.6A2.933,2.933,0,1,1,12.267,39.8,2.933,2.933,0,0,1,9.333,42.733Zm10.267,0A2.933,2.933,0,1,1,22.533,39.8,2.933,2.933,0,0,1,19.6,42.733Zm0-7.333a4.4,4.4,0,0,0-4.334,3.667h-1.6a4.395,4.395,0,0,0-8.668,0H3.467V33.933h17.6a.733.733,0,0,0,.518-.215l1.252-1.252h2.63v6.6H23.934A4.4,4.4,0,0,0,19.6,35.4Zm16.867,7.333A2.933,2.933,0,1,1,39.4,39.8,2.933,2.933,0,0,1,36.467,42.733ZM43.8,39.067h-3a4.395,4.395,0,0,0-8.668,0H29.867v-17.6h1.467v6.6a.733.733,0,0,0,.733.733H44.522c0,.026.011.052.011.079v1.387H41.6a1.467,1.467,0,0,0-1.467,1.467V33.2A1.467,1.467,0,0,0,41.6,34.667h2.933v1.467h-2.2V37.6h2.2v.733A.733.733,0,0,1,43.8,39.067Zm.733-7.333V33.2H41.6V31.733Z" transform="translate(-2 -11.933)" fill="#3d9ae2"/>
      <path id="Path_1077" data-name="Path 1077" d="M2.436,25.07c.275.122,6.8,3,12.031,3s11.755-2.874,12.031-3a.733.733,0,0,0,.436-.67V12.667A.733.733,0,0,0,26.5,12c-.276-.122-6.8-3-12.031-3S2.711,11.874,2.436,12a.733.733,0,0,0-.436.67V24.4a.733.733,0,0,0,.436.67Zm5.431.392V11.6c.926-.272,1.923-.527,2.933-.727V26.189c-1.011-.2-2.007-.455-2.933-.727Zm17.6-12.31V23.915c-1.536.632-6.824,2.685-11,2.685a16.459,16.459,0,0,1-2.2-.164v-15.8a16.46,16.46,0,0,1,2.2-.164C18.642,10.467,23.931,12.52,25.467,13.152Zm-22,0c.558-.23,1.613-.649,2.933-1.088V25c-1.32-.44-2.375-.857-2.933-1.088Z" transform="translate(-2 -9)" fill="#3d9ae2"/>
    </g>
  </g>
</svg>
