<svg xmlns="http://www.w3.org/2000/svg" xmlns:xlink="http://www.w3.org/1999/xlink" width="303.812" height="237.72" viewBox="0 0 303.812 237.72">
  <defs>
    <linearGradient id="linear-gradient" y1="0.5" x2="1" y2="0.5" gradientUnits="objectBoundingBox">
      <stop offset="0" stop-color="gray" stop-opacity="0.251"/>
      <stop offset="0.54" stop-color="gray" stop-opacity="0.122"/>
      <stop offset="1" stop-color="gray" stop-opacity="0.102"/>
    </linearGradient>
  </defs>
  <g id="default" transform="translate(0.004 -0.003)">
    <ellipse id="Ellipse_255" data-name="Ellipse 255" cx="52.995" cy="10.039" rx="52.995" ry="10.039" transform="translate(53.573 213.041)" fill="#6c63ff" opacity="0.1"/>
    <path id="Path_1465" data-name="Path 1465" d="M271.743,88.557c-19.477-.674-38.027-6.964-55.74-13.843s-35.258-14.5-54.268-18.144c-12.227-2.344-26.212-2.678-36.062,3.87-9.483,6.32-12.546,17.2-14.192,27.3-1.24,7.6-1.968,15.6,1.426,22.721,2.359,4.941,6.542,9.094,9.437,13.828,10.072,16.467,2.952,36.775-7.96,52.854-5.116,7.542-11.06,14.746-15.011,22.766s-5.778,17.241-2.32,25.444c3.425,8.125,11.589,14.216,20.434,18.5,17.963,8.712,39.122,11.2,59.77,12.618,45.692,3.124,91.624,1.773,137.436.415,16.955-.5,33.982-1.008,50.66-3.629,9.263-1.457,18.824-3.768,25.55-9.347,8.535-7.081,10.65-19.071,4.929-27.948-9.594-14.9-36.113-18.6-42.827-34.578-3.69-8.8.1-18.6,5.465-26.757,11.508-17.506,30.8-32.863,31.809-52.869.7-13.741-8.574-27.5-22.911-34.006-15.026-6.816-35.866-5.959-46.947,5.324C309,84.687,288.942,89.156,271.743,88.557Z" transform="translate(-95.23 -55.03)" fill="#bdc3c7" opacity="0.1"/>
    <path id="Path_1466" data-name="Path 1466" d="M412.061,231.082l-9.218-6.214h0l4.65-6.922L383.147,216,374.4,222.77l-10.951-6.139-9.134,1.1-.108-2.408a67.933,67.933,0,0,0-.755-7.493c.039-.752.066-1.616.063-2.555,0-3.957-.536-9.2-2.889-12.7l.542-4.869-4.394-5.191a33.21,33.21,0,0,1,2.408-4.051c.15-.217.3-.427.463-.632A10.927,10.927,0,0,0,359.845,167a6.934,6.934,0,0,0-.03-.791,2.862,2.862,0,0,0-.033-.319c.557.3,1.12.6,1.682.9.105.15.226.3.358.478h0l.027.033.169.208.054.063c.06.072.123.141.187.214l.042.048c.16.178.328.358.509.536a.541.541,0,0,1,.06.057l.226.211.063.057c.193.172.4.337.6.494l.066.048.259.178.084.054c.1.06.2.123.3.181l.036.021c.117.063.238.123.358.181l.06.024q.153.066.3.126l.093.033c.105.036.208.069.316.1l.066.018c.132.033.265.06.4.081h.015a3.274,3.274,0,0,0,.385.039h.087a3.306,3.306,0,0,0,.346,0h.075a3.565,3.565,0,0,0,.43-.051,4.749,4.749,0,0,0,1.9-.68,1.656,1.656,0,0,0,.385-.358,1.419,1.419,0,0,0-.06-1.652h0c-.235-.56-1.757-.954-1.757-.954s-4.815-2.01-4.815-3.611-1.2-9.907-13.63-11.806c0,0-8.083-.454-10.355,3.873l-.048.506c-.668.418-1.222,1.258-1.881,1.5a3.074,3.074,0,0,0-.816.3v-.057h0a.775.775,0,0,0-.184.238,2.407,2.407,0,0,0-.25.9,3.4,3.4,0,0,1-.394,1.092,2.433,2.433,0,0,1-.181.277h0l-.051.081a2.2,2.2,0,0,0,1.023-.166,5.094,5.094,0,0,1-.3,1.2,1,1,0,0,0,.927-.554v-.024l.039-.054a2.541,2.541,0,0,0,.187-.436l-.033.036c.06-.2.114-.394.181-.587a.92.92,0,0,1,.147-.3.728.728,0,0,1,.623-.208l-.123,2.609h.054a3.562,3.562,0,0,1-.265.548c-.427.692-1.2,1.165-1.49,1.923a2.828,2.828,0,0,0-.138,1.138c0,.226.027.454.045.68v-.018a2.538,2.538,0,0,1-.271,1.658c-.223.331-.581.581-.7.957a.933.933,0,0,0-.045.325,3.651,3.651,0,0,0,.2.966.043.043,0,0,0,0-.018,1.468,1.468,0,0,1,.051.71c-.135.6-.867,1.1-.831,1.679a.647.647,0,0,0,.033.223,1.219,1.219,0,0,0,.68.6,2.648,2.648,0,0,0,1.529.337,2.011,2.011,0,0,0,.572-.2c-.211.485-.427.963-.647,1.417-.033.072-.069.144-.105.217,0,0-1.86-1.243-2.916,1.291a5.621,5.621,0,0,0-.653,1.7,4.038,4.038,0,0,1-.223.7,4.493,4.493,0,0,1-2.01,1.806c-2.155.987-10.858,11.842-11.011,14.653a16.4,16.4,0,0,1-.554,3.244,19.3,19.3,0,0,0-.518,7.671,14.679,14.679,0,0,0,.533,2.447,54.818,54.818,0,0,1,1.541,8.047l1,9.094a25.881,25.881,0,0,0,.163,3.759c-1.02,1.165-5.116,6.019-3.551,7.34,1.2,1.041,3.31.87,4.493.656-1,2.465-2.564,6.75-2.772,9.693-.3,4.355.515,10.124,1.806,12.339s5.594,7.9,5.594,7.9-.2,7.794,1.336,10.626,2.158,8.706,2.158,8.706,1.435,4.959.716,6.783,1.333,3.34-.822,4.553-4.911,28.547-4.911,28.547-1.11,17.915,0,18.827a1.13,1.13,0,0,0,.19.111v6.019s-.77,1.264,2.362,1.52c2.146.172,8.228.56,11.836.785l2.8.175s6.621,1.318,9.546,0,8.11-1.288,7.34-4.77a9.9,9.9,0,0,0-.409-1.393c-.846-2.161-2.281-2.408-4.926-3.009-.153-.033-.3-.063-.436-.087-2.787-.484-3.7.813-5.263-.876-1.357-1.46-5.679-3.094-7.15-3.611.036-.108.081-.214.117-.325a2.2,2.2,0,0,1-1.117-.545l3.987.253,2.374.147s5.628,1.122,8.125,0,6.892-1.092,6.235-4.051a8.488,8.488,0,0,0-.346-1.186c-.719-1.836-1.941-2.037-4.189-2.546-.129-.027-.25-.054-.37-.075-2.368-.412-3.145.689-4.472-.743-1.138-1.222-4.728-2.591-6.019-3.058,0-.668-.9-1.619-1.472-2.573-.668-1.113.566-5.011.566-5.011l.7-16.169a3.122,3.122,0,0,1,.843-.241s3.184-3.039,2.465-6.278a20.8,20.8,0,0,1-.229-2.958,15.2,15.2,0,0,0,2.9-3.292c.668-1.441,0-8.426,0-8.426V256l5.327.539,4.833.5,1.472.15,4.833.488,11.108,1.122,10.009-1.9,4.331-.819,8.9-1.685V232.6Zm-73.312-72.2-.62-.066C338.334,158.826,338.55,158.865,338.749,158.883Z" transform="translate(-251.025 -122.218)" fill="url(#linear-gradient)"/>
    <path id="Path_1467" data-name="Path 1467" d="M504.341,438.453c-3.009,4.306-13.828,2.025-13.828,2.025l-8.384-7.845L481,431.571l1.893-4.021s.6.165,1.634.46C489.947,429.584,506.881,434.833,504.341,438.453Z" transform="translate(-364.909 -315.442)" fill="#efb7b9"/>
    <path id="Path_1468" data-name="Path 1468" d="M484.521,428.01a17.655,17.655,0,0,1-2.392,4.622L481,431.571l1.893-4.021S483.5,427.716,484.521,428.01Z" transform="translate(-364.909 -315.442)" opacity="0.1"/>
    <path id="Path_1469" data-name="Path 1469" d="M380.048,278.126s-7.728,3.428-7.349,11.845a138.775,138.775,0,0,0,1.77,16.179s-1.58,12.667,5,15.932,12.667,5.95,12.667,5.95,10.292,1.107,11.571,1.565,5.275-6.536,4.538-7.626-10.184-3.374-11.388-5.191a10.049,10.049,0,0,0-3.987-2.94s-2.874-1.739-3.07-3.31a7.146,7.146,0,0,1,.755-3.431c.193-.689.68-7.343.68-7.343S394.478,276.071,380.048,278.126Z" transform="translate(-289.191 -210.897)" fill="#dce6f2"/>
    <path id="Path_1470" data-name="Path 1470" d="M391.693,370.39s-10.6,1.776-9.576,5.486A22.477,22.477,0,0,1,391.693,370.39Z" transform="translate(-295.736 -275.483)" opacity="0.1"/>
    <path id="Path_1471" data-name="Path 1471" d="M403.135,375.38s-5.829,4.758-4.689,5S403.135,375.38,403.135,375.38Z" transform="translate(-307.096 -278.972)" opacity="0.1"/>
    <path id="Path_1472" data-name="Path 1472" d="M421.557,380.89s-1.562,3.2-.6,2.982S421.557,380.89,421.557,380.89Z" transform="translate(-322.716 -282.823)" opacity="0.1"/>
    <path id="Path_1473" data-name="Path 1473" d="M410.1,324.589l-.644-.184a1.84,1.84,0,0,0,.084-1.315c-.737-1.089-10.178-3.371-11.379-5.191a10,10,0,0,0-3.987-2.94s-2.874-1.739-3.07-3.31a7.146,7.146,0,0,1,.755-3.431c.193-.689.68-7.346.68-7.346s3.235-23.681-11.195-21.626c0,0-7.728,3.431-7.352,11.848a138.391,138.391,0,0,0,1.773,16.179s-1.58,12.667,5,15.932,12.667,5.95,12.667,5.95,10.289,1.1,11.571,1.565c.484.175,1.36-.725,2.218-1.962l.488.454,8.384,7.842s10.819,2.284,13.828-2.022C432.459,331.408,415.528,326.16,410.1,324.589Z" transform="translate(-290.093 -211.68)" opacity="0.1"/>
    <path id="Path_1474" data-name="Path 1474" d="M378.162,169.419a2.558,2.558,0,0,0-.834.322c-.3.25-.3.677-.376,1.05a3.455,3.455,0,0,1-.6,1.439,2.164,2.164,0,0,0,1-.166,5.159,5.159,0,0,1-.3,1.2.975.975,0,0,0,.9-.551,5.792,5.792,0,0,0,.376-1.056.87.87,0,0,1,.144-.3c.277-.328.791-.181,1.219-.138a2,2,0,0,0,1.83-.879c.454-.689.481-2.453-.6-2.639C379.79,167.518,379.086,169.076,378.162,169.419Z" transform="translate(-291.753 -133.783)" fill="#965d7b"/>
    <g id="Group_1584" data-name="Group 1584" transform="translate(84.642 35.88)" opacity="0.1">
      <path id="Path_1475" data-name="Path 1475" d="M378.4,174.7c.027-.147.045-.3.078-.448h0a1.765,1.765,0,0,0-.376,1.05,3.312,3.312,0,0,1-.178.635A3.448,3.448,0,0,0,378.4,174.7Z" transform="translate(-377.493 -174.25)"/>
      <path id="Path_1476" data-name="Path 1476" d="M377.5,181.2a5,5,0,0,0,.3-1.2,2.155,2.155,0,0,1-.954.166,3.482,3.482,0,0,1-.346.6,2.143,2.143,0,0,0,1-.163,5,5,0,0,1-.3,1.2.978.978,0,0,0,.9-.551,2.248,2.248,0,0,0,.181-.43.9.9,0,0,1-.782.376Z" transform="translate(-376.5 -178.27)"/>
      <path id="Path_1477" data-name="Path 1477" d="M385.258,175.487c-.427-.042-.945-.19-1.222.138a.929.929,0,0,0-.144.3c-.027.078-.051.159-.072.241.286-.226.749-.105,1.138-.066a2.01,2.01,0,0,0,1.83-.879,1.667,1.667,0,0,0,.2-.473A2,2,0,0,1,385.258,175.487Z" transform="translate(-381.617 -174.6)"/>
    </g>
    <path id="Path_1478" data-name="Path 1478" d="M313.626,201l4.589,5.519-.6,5.57-5.546-8.682Z" transform="translate(-218.159 -140.509)" fill="#dce6f2"/>
    <path id="Path_1479" data-name="Path 1479" d="M318.212,206.519l-.563,5.239-.036.331-5-7.836-.539-.846.156-.244,1.4-2.164.31.373Z" transform="translate(-218.159 -140.509)" opacity="0.1"/>
    <path id="Path_1480" data-name="Path 1480" d="M391.47,212.36c-1.553.445-3.036,1.974-4.327,3.831a32.684,32.684,0,0,0-2.335,4.015c-.424.849-.8,1.664-1.107,2.374l-.217.506c-.524,1.237-.816,2.064-.816,2.064s-11.887-8.938-10.006-9.54c.632-.2,1.463-1.556,2.284-3.262l.1-.217c.521-1.1,1.032-2.317,1.487-3.467.93-2.362,1.619-4.415,1.619-4.415S396.21,211.006,391.47,212.36Z" transform="translate(-289.033 -159.341)" fill="#efb7b9"/>
    <path id="Path_1481" data-name="Path 1481" d="M459.26,202.58s2.745,4.965,6.431,4.288,2.17-2.666,2.17-2.666Z" transform="translate(-349.712 -158.174)" fill="#444053"/>
    <path id="Path_1482" data-name="Path 1482" d="M390.237,746.509c-2.432,1.11-7.93,0-7.93,0l-2.317-.144c-3.009-.193-8.047-.518-9.829-.662-2.6-.214-1.962-1.279-1.962-1.279v-6.437l12.615-3.2s4.987,1.706,6.353,3.2c1.3,1.42,2.055.328,4.37.737.114.021.235.045.361.075,2.2.5,3.389.7,4.093,2.522a8.453,8.453,0,0,1,.34,1.174C396.981,745.425,392.666,745.4,390.237,746.509Z" transform="translate(-286.007 -530.221)" fill="#a36468"/>
    <path id="Path_1483" data-name="Path 1483" d="M395.991,750.457a9.431,9.431,0,0,1-1.42.728c-1.655.755-3.229,1.676-4.9,2.389a11.466,11.466,0,0,1-5.287,1.086,7.884,7.884,0,0,0-2.823-.03,6.518,6.518,0,0,0-1.568.87c-3.009-.193-8.047-.518-9.829-.662-2.6-.214-1.962-1.279-1.962-1.279v-.752c.093,0,.2-.027.319-.036a5.68,5.68,0,0,1,1.836.274c1.306.355,2.606.7,3.912,1.053a3.091,3.091,0,0,1,1.5-1.92,4.8,4.8,0,0,1,2.426-.557c2.025.027,3.942.987,5.965,1.083a3.286,3.286,0,0,0,1.652-.277c.277-.138.521-.34.791-.494a5.776,5.776,0,0,1,1.363-.46,30.018,30.018,0,0,0,3.9-1.258c.361-.141.782-.4.734-.782-.063-.512-.867-.572-1.077-1.041a.6.6,0,0,1,.024-.533c.114.021.235.045.361.075C394.1,748.438,395.287,748.636,395.991,750.457Z" transform="translate(-286.007 -539.358)" opacity="0.1"/>
    <path id="Path_1484" data-name="Path 1484" d="M372.636,788.492c-2.859,1.306-9.329,0-9.329,0l-2.723-.159c-3.527-.226-9.468-.6-11.565-.779-3.061-.253-2.308-1.5-2.308-1.5v-7.587l14.845-3.762s5.868,2.007,7.475,3.762c1.526,1.67,2.408.385,5.143.867.135.024.277.054.424.087,2.585.6,3.987.828,4.815,2.97a9.657,9.657,0,0,1,.4,1.381C380.56,787.216,375.5,787.189,372.636,788.492Z" transform="translate(-270.976 -558.12)" fill="#a36468"/>
    <path id="Path_1485" data-name="Path 1485" d="M379.407,793.172a11.2,11.2,0,0,1-1.67.858c-1.947.888-3.8,1.971-5.769,2.811a13.524,13.524,0,0,1-6.223,1.279,9.078,9.078,0,0,0-3.31-.036,7.671,7.671,0,0,0-1.851,1.035c-3.527-.226-9.468-.6-11.565-.779-3.061-.253-2.308-1.5-2.308-1.5v-.885a3.761,3.761,0,0,1,.376-.042,6.6,6.6,0,0,1,2.161.322l4.6,1.24a3.641,3.641,0,0,1,1.785-2.26,5.616,5.616,0,0,1,2.856-.656c2.383.033,4.638,1.162,7.018,1.276a3.886,3.886,0,0,0,1.938-.322c.328-.166.6-.4.933-.581a6.544,6.544,0,0,1,1.6-.542,36.027,36.027,0,0,0,4.562-1.481c.424-.169.921-.469.864-.921-.075-.6-1.02-.674-1.27-1.228a.725.725,0,0,1,.03-.626c.135.024.277.054.424.087C377.177,790.8,378.58,791.03,379.407,793.172Z" transform="translate(-270.976 -568.907)" opacity="0.1"/>
    <path id="Path_1486" data-name="Path 1486" d="M388.642,647.54l-.8,18.908s-1.2,3.861-.551,4.966,1.754,2.206,1.354,2.859-5.215,7.713-6.771,5-3.091-14.445-3.091-14.445l1.435-14.5Z" transform="translate(-293.451 -469.228)" fill="#444053"/>
    <path id="Path_1487" data-name="Path 1487" d="M412.644,491l2.233,2.985V519.95s.653,6.922,0,8.351-3.963,4.288-3.963,4.288L408.13,518.3l.6-15.122Z" transform="translate(-313.969 -359.797)" fill="#444053"/>
    <path id="Path_1488" data-name="Path 1488" d="M388.642,647.54l-.8,18.908s-1.2,3.861-.551,4.966,1.754,2.206,1.354,2.859-5.215,7.713-6.771,5-3.091-14.445-3.091-14.445l1.435-14.5Z" transform="translate(-293.451 -469.228)" opacity="0.1"/>
    <path id="Path_1489" data-name="Path 1489" d="M412.644,491l2.233,2.985V519.95s.653,6.922,0,8.351-3.963,4.288-3.963,4.288L408.13,518.3l.6-15.122Z" transform="translate(-313.969 -359.797)" opacity="0.1"/>
    <path id="Path_1490" data-name="Path 1490" d="M358.163,437.423v14.045L355.656,462.4s-.8,26.383-.1,29.591-2.408,6.22-2.408,6.22-1.806.2-1.806,1.6-3.009,5.417-3.009,5.417l.1,7.824s1.306,14.647-.7,17.454.7,3.211.7,3.211c-2.507,8.225-14.544,6.32-15.631,5.417s0-18.658,0-18.658,2.69-27.085,4.8-28.288.1-2.708.8-4.514-.7-6.72-.7-6.72-.6-5.82-2.107-8.628-1.306-10.533-1.306-10.533-4.213-5.619-5.465-7.824-2.058-7.924-1.758-12.239c.2-2.916,1.736-7.162,2.708-9.606.466-1.171.8-1.929.8-1.929l.286.075,16.437,4.3Z" transform="translate(-257.254 -317.294)" fill="#444053"/>
    <path id="Path_1491" data-name="Path 1491" d="M400.929,212.311c-1.553.445-3.036,1.974-4.328,3.831h-.337a10.75,10.75,0,0,1-9.329-5.4,10.586,10.586,0,0,1-.945-2.152c.93-2.362,1.619-4.415,1.619-4.415S405.668,210.957,400.929,212.311Z" transform="translate(-298.492 -159.293)" opacity="0.1"/>
    <path id="Path_1492" data-name="Path 1492" d="M405.9,181.19a10.759,10.759,0,1,1-20.127-5.272,10.515,10.515,0,0,1,1.138-1.643,10.887,10.887,0,0,1,2.474-2.173,10.759,10.759,0,0,1,16.5,8.3C405.888,180.666,405.9,180.928,405.9,181.19Z" transform="translate(-297.366 -135.694)" fill="#efb7b9"/>
    <path id="Path_1493" data-name="Path 1493" d="M388.524,248.9l-.036.331-5-7.824c-.524,1.237-.816,2.064-.816,2.064s-11.887-8.95-10.006-9.552c.632-.2,1.463-1.556,2.284-3.262l.1-.217c.873,2.6,5.944,7.8,8.053,9.88.244.241.445.439.6.584l.322.3.169.169C384.961,242.165,388.2,245.656,388.524,248.9Z" transform="translate(-289.033 -177.65)" opacity="0.1"/>
    <path id="Path_1494" data-name="Path 1494" d="M355.932,275.245l-.548,17.626-.1,3.139s-6.488-.6-12.543-1.264c-4.875-.533-9.471-1.107-10.178-1.444a19.157,19.157,0,0,0-4.364-.96c-1.18-.159-2.107-.244-2.107-.244s-.346.1-.879.2c-1.162.211-3.2.382-4.391-.65-1.52-1.321,2.474-6.121,3.47-7.274l.22-.25-.376-3.476-.978-9.013a54.993,54.993,0,0,0-1.5-7.975,14.71,14.71,0,0,1-.521-2.423,19.4,19.4,0,0,1,.506-7.6,16.578,16.578,0,0,0,.542-3.217c.15-2.784,8.652-13.542,10.759-14.52a4.466,4.466,0,0,0,2.155-2.149,4.1,4.1,0,0,0,.328-.936c.9-3.912,3.187-2.359,3.187-2.359.551,3.061,9.076,11.162,9.076,11.162l.169.169c.846.867,4.613,4.935,4.346,8.408a10.193,10.193,0,0,0,.569,3.8,64.325,64.325,0,0,1,2.964,16.853Z" transform="translate(-252.701 -177.447)" fill="#dce6f2"/>
    <path id="Path_1495" data-name="Path 1495" d="M388.95,310.45s-2.107,5.116-3.687,5.944S389.7,318.139,388.95,310.45Z" transform="translate(-297.798 -233.582)" opacity="0.1"/>
    <path id="Path_1496" data-name="Path 1496" d="M392.2,342.2s-4.815.6-4.815,1.5S392.2,342.2,392.2,342.2Z" transform="translate(-299.463 -255.777)" opacity="0.1"/>
    <path id="Path_1497" data-name="Path 1497" d="M398.788,361.7s-7,14.9-8.953,15.348S398.788,361.7,398.788,361.7Z" transform="translate(-301.015 -269.409)" opacity="0.1"/>
    <path id="Path_1498" data-name="Path 1498" d="M380.772,243.734l-5.787,2.516L368,235.7a4.1,4.1,0,0,0,.328-.936c.9-3.912,3.187-2.359,3.187-2.359.551,3.061,9.076,11.162,9.076,11.162Z" transform="translate(-285.916 -178.81)" opacity="0.1"/>
    <path id="Path_1499" data-name="Path 1499" d="M381.772,241.734l-5.787,2.516L369,233.7a4.1,4.1,0,0,0,.328-.936c.9-3.912,3.187-2.359,3.187-2.359.551,3.061,9.076,11.162,9.076,11.162Z" transform="translate(-286.615 -177.412)" fill="#dce6f2"/>
    <path id="Path_1500" data-name="Path 1500" d="M362.552,339.13s-6.488-.6-12.543-1.264l10.864,2.844v3.31c-.475.43-.888.653-1.156.539-1.252-.527-11.469-2.182-11.469-2.182s-5.935-3.009-12.339-6.621a4.946,4.946,0,0,1-.451-.283,7.113,7.113,0,0,1-1.9-1.9,13.478,13.478,0,0,1-2.01-6.07,26.255,26.255,0,0,1-.156-3.726,30.542,30.542,0,0,1,.385-4.21,138.454,138.454,0,0,1-.9-16.251c.075-8.426,7.975-11.436,7.975-11.436,14.52-1.279,10.018,22.194,10.018,22.194s-.84,6.621-1.068,7.3a7.145,7.145,0,0,0-.939,3.386c.111,1.58,2.886,3.47,2.886,3.47a10.132,10.132,0,0,1,3.825,3.151c.813,1.387,6.091,3.268,9.073,4.61Z" transform="translate(-259.965 -220.567)" opacity="0.1"/>
    <path id="Path_1501" data-name="Path 1501" d="M404.767,171.256a3.407,3.407,0,0,1-.3,1.438,8.893,8.893,0,0,1-.536,1.071,4.935,4.935,0,0,1-1.318,1.637,6.743,6.743,0,0,1-2.408.837,3.484,3.484,0,0,0-2.176,1.234,4.315,4.315,0,0,0-.509,1.475,3.172,3.172,0,0,1-.6,1.426,1.183,1.183,0,0,1-1.408.337,1.424,1.424,0,0,1-.545-.7,10.056,10.056,0,0,1-.569-2.465,5.243,5.243,0,0,0-.846-2.362,2.116,2.116,0,0,0-2.221-.852,2.14,2.14,0,0,0-1.2,1.168,6.692,6.692,0,0,0-.454,1.661q-.56,3.064-1.321,6.091a.559.559,0,0,1-.1.229.433.433,0,0,1-.3.126c-.674.09-1.321-.382-2-.331a1.15,1.15,0,0,0-.208.033,10.753,10.753,0,0,1,1.086-12.278l.054-.015a3.245,3.245,0,0,0,1.2-.758,12.709,12.709,0,0,0,1.2-1.393l.241-.3a13.726,13.726,0,0,1,2.347-2.23,2.407,2.407,0,0,1,.8-.433,2.371,2.371,0,0,1,.758-.024,19.129,19.129,0,0,0,3.133.117,20.1,20.1,0,0,1,2.2-.223c1.9.054,3.53,1.4,4.734,2.874A4.452,4.452,0,0,1,404.767,171.256Z" transform="translate(-297.317 -132.442)" opacity="0.1"/>
    <path id="Path_1502" data-name="Path 1502" d="M377.117,172.272c-.418.686-1.174,1.153-1.457,1.9-.415,1.092.286,2.453-.358,3.428-.214.328-.566.572-.686.948-.2.635.355,1.312.211,1.965s-1.005,1.2-.776,1.842a1.2,1.2,0,0,0,.662.6,2.588,2.588,0,0,0,1.5.334c.822-.135,1.432-.942,2.266-1,.677-.048,1.324.421,2,.334a.452.452,0,0,0,.3-.129.521.521,0,0,0,.1-.229q.758-3.024,1.324-6.091a6.562,6.562,0,0,1,.451-1.661,2.158,2.158,0,0,1,1.2-1.168,2.122,2.122,0,0,1,2.221.852,5.212,5.212,0,0,1,.849,2.362,10.19,10.19,0,0,0,.566,2.465,1.438,1.438,0,0,0,.548.7,1.179,1.179,0,0,0,1.405-.337,3.139,3.139,0,0,0,.6-1.429,4.3,4.3,0,0,1,.509-1.472,3.492,3.492,0,0,1,2.176-1.234,6.809,6.809,0,0,0,2.408-.84,4.953,4.953,0,0,0,1.318-1.634,4.811,4.811,0,0,0,.825-2.513,4.613,4.613,0,0,0-1.234-2.6c-1.2-1.475-2.832-2.82-4.737-2.871a18.724,18.724,0,0,0-2.2.223,18.83,18.83,0,0,1-3.133-.12,2.461,2.461,0,0,0-.758.027,2.269,2.269,0,0,0-.8.433,13.734,13.734,0,0,0-2.35,2.227,17.249,17.249,0,0,1-1.451,1.685,3.265,3.265,0,0,1-1.2.761c-.3.084-.6.024-.888.117C377.647,170.434,377.53,171.592,377.117,172.272Z" transform="translate(-290.119 -131.764)" fill="#965d7b"/>
    <path id="Path_1503" data-name="Path 1503" d="M465.691,206.865c-2.408.442-4.4-1.5-5.507-2.925a11.809,11.809,0,0,1-.924-1.36l8.264,1.559.334.063S469.378,206.191,465.691,206.865Z" transform="translate(-349.712 -158.174)" opacity="0.1"/>
    <g id="Group_1585" data-name="Group 1585" transform="translate(83.879 38.213)" opacity="0.1">
      <path id="Path_1504" data-name="Path 1504" d="M376.124,211.486a2.507,2.507,0,0,0-.175-1.156c0,.03-.027.06-.036.09a2.24,2.24,0,0,0,.156,1.24A.9.9,0,0,0,376.124,211.486Z" transform="translate(-375.295 -201.804)"/>
      <path id="Path_1505" data-name="Path 1505" d="M379.057,197.8a6.692,6.692,0,0,0,.024,1.249A6.7,6.7,0,0,0,379.057,197.8Z" transform="translate(-377.511 -193.045)"/>
      <path id="Path_1506" data-name="Path 1506" d="M396.41,183.941a4.936,4.936,0,0,1-1.318,1.637,6.723,6.723,0,0,1-2.408.837,3.476,3.476,0,0,0-2.176,1.234,4.335,4.335,0,0,0-.509,1.475,3.151,3.151,0,0,1-.6,1.429,1.175,1.175,0,0,1-1.405.337,1.438,1.438,0,0,1-.548-.7,10.019,10.019,0,0,1-.566-2.465,5.2,5.2,0,0,0-.849-2.362,2.115,2.115,0,0,0-2.221-.852,2.149,2.149,0,0,0-1.2,1.168,6.56,6.56,0,0,0-.451,1.661q-.563,3.067-1.324,6.091a.52.52,0,0,1-.1.229.451.451,0,0,1-.3.129c-.674.087-1.321-.382-2-.334-.834.06-1.445.867-2.266,1a2.543,2.543,0,0,1-1.5-.334,1.61,1.61,0,0,1-.551-.391.813.813,0,0,0-.111.7,1.174,1.174,0,0,0,.662.6,2.543,2.543,0,0,0,1.5.334c.822-.132,1.432-.939,2.266-1,.677-.048,1.324.421,2,.334a.451.451,0,0,0,.3-.129.521.521,0,0,0,.1-.229q.758-3.009,1.324-6.091a6.56,6.56,0,0,1,.451-1.661,2.149,2.149,0,0,1,1.2-1.168,2.117,2.117,0,0,1,2.221.852,5.212,5.212,0,0,1,.849,2.362,10.193,10.193,0,0,0,.566,2.465,1.439,1.439,0,0,0,.548.7,1.179,1.179,0,0,0,1.405-.337,3.151,3.151,0,0,0,.6-1.429,4.336,4.336,0,0,1,.509-1.475,3.505,3.505,0,0,1,2.176-1.234,6.864,6.864,0,0,0,2.408-.837,4.935,4.935,0,0,0,1.318-1.637,4.792,4.792,0,0,0,.825-2.51A3.226,3.226,0,0,0,397.2,182a5.914,5.914,0,0,1-.788,1.941Z" transform="translate(-373.964 -182)"/>
    </g>
    <path id="Path_1507" data-name="Path 1507" d="M407.737,175.944a10.632,10.632,0,0,1,1.339,4.469c-2.681-1.5-5.2-3.157-6.476-3.732-2.218-1-10.512-.852-13.63-.758a10.509,10.509,0,0,1,1.138-1.643,10.887,10.887,0,0,1,2.483-2.173,10.765,10.765,0,0,1,15.161,3.831Z" transform="translate(-300.575 -135.7)" opacity="0.1"/>
    <path id="Path_1508" data-name="Path 1508" d="M466.443,205.589c-1.448.445-3.81-.415-6.26-1.649a11.809,11.809,0,0,1-.924-1.36l8.264,1.559C468.072,204.512,468.21,205.045,466.443,205.589Z" transform="translate(-349.712 -158.174)" opacity="0.1"/>
    <path id="Path_1509" data-name="Path 1509" d="M396.241,154.048s-7.9-.451-10.121,3.837l-.358,3.8-.6-.066-.12,2.585s12.074-.527,14.821.713,11.285,7.487,14.707,6.434-.3-2.031-.3-2.031-4.71-2-4.71-3.56S408.39,155.929,396.241,154.048Z" transform="translate(-297.828 -124.238)" fill="#444053"/>
    <path id="Path_1510" data-name="Path 1510" d="M371.63,622.28s5.041,4.89,7.223,4.514C378.853,626.794,372.683,626.268,371.63,622.28Z" transform="translate(-288.453 -451.57)" opacity="0.1"/>
    <path id="Path_1511" data-name="Path 1511" d="M368.13,629.81s.451,2.516,1.655,2.269S368.13,629.81,368.13,629.81Z" transform="translate(-286.006 -456.834)" opacity="0.1"/>
    <path id="Path_1512" data-name="Path 1512" d="M380.241,769.53s-7.156,5.567-5.95,5.718S380.241,769.53,380.241,769.53Z" transform="translate(-290.218 -554.506)" opacity="0.1"/>
    <path id="Path_1513" data-name="Path 1513" d="M330.96,338.571l23.172-3.771v21.939l-22.017-1.153Z" transform="translate(-231.364 -234.043)" fill="#f0bc5e"/>
    <path id="Path_1514" data-name="Path 1514" d="M330.96,338.571l23.172-3.771v21.939l-22.017-1.153Z" transform="translate(-230.762 -234.043)" opacity="0.05"/>
    <path id="Path_1515" data-name="Path 1515" d="M407.96,334.8l27.789,2.079-1.538,19.092-26.251.767Z" transform="translate(-285.192 -234.043)" fill="#f0bc5e"/>
    <path id="Path_1516" data-name="Path 1516" d="M407.96,334.8l27.789,2.079-1.538,19.092-26.251.767Z" transform="translate(-285.192 -234.043)" opacity="0.1"/>
    <path id="Path_1517" data-name="Path 1517" d="M416.5,312.55l-8.544,6.7,27.789,2.079,4.541-6.852Z" transform="translate(-285.192 -218.489)" fill="#f0bc5e"/>
    <path id="Path_1518" data-name="Path 1518" d="M303.08,317.13l20.861-2.54,10.7,6.082-23.172,3.771Z" transform="translate(-211.874 -219.915)" fill="#f0bc5e"/>
    <path id="Path_1519" data-name="Path 1519" d="M359.212,349.256v29.995l-10.855-1.113-4.722-.482-1.438-.15-4.719-.484-6.518-.668V347.33l23.169,1.577Z" transform="translate(-231.364 -242.802)" fill="#fbc531"/>
    <path id="Path_1520" data-name="Path 1520" d="M447.549,341.71v29.251l-8.7,1.67-4.231.813-9.778,1.878V345.327Z" transform="translate(-296.992 -238.874)" fill="#fbc531"/>
    <path id="Path_1521" data-name="Path 1521" d="M447.549,341.71v29.251l-8.7,1.67-4.231.813-9.778,1.878V345.327Z" transform="translate(-296.39 -238.874)" opacity="0.05"/>
    <path id="Path_1522" data-name="Path 1522" d="M303.08,353.644l8.39-6.314,28.252,1.926-4.159,7.006Z" transform="translate(-211.874 -242.802)" fill="#fbc531"/>
    <path id="Path_1523" data-name="Path 1523" d="M303.08,353.644l8.39-6.314,28.252,1.926-4.159,7.006Z" transform="translate(-211.573 -242.802)" fill="#fff" opacity="0.1"/>
    <path id="Path_1524" data-name="Path 1524" d="M447.549,341.71l-22.709,3.617,7.391,6.621,24.325-4.081Z" transform="translate(-296.992 -238.874)" fill="#f0bc5e"/>
    <path id="Path_1525" data-name="Path 1525" d="M447.549,341.71l-22.709,3.617,7.391,6.621,24.325-4.081Z" transform="translate(-296.39 -239.174)" fill="#fff" opacity="0.1"/>
    <path id="Path_1526" data-name="Path 1526" d="M461.561,429.507l-4.231.813v-6.25l3.963-1Z" transform="translate(-319.704 -295.749)" fill="#fff" opacity="0.1"/>
    <path id="Path_1527" data-name="Path 1527" d="M377.8,435.96v4.135l-4.722-.482V435.96Z" transform="translate(-260.808 -304.76)" fill="#fff" opacity="0.1"/>
    <path id="Path_1528" data-name="Path 1528" d="M357.339,440.29v2.2l-4.719-.484V440.29Z" transform="translate(-246.506 -307.787)" fill="#fff" opacity="0.1"/>
    <path id="Path_1529" data-name="Path 1529" d="M457.355,455.738c-3.235,4.138-13.918,1.279-13.918,1.279l-7.939-8.282-1.077-1.123,2.107-3.912s.6.2,1.607.548C443.454,446.108,460.078,452.256,457.355,455.738Z" transform="translate(-332.347 -326.731)" opacity="0.1"/>
    <path id="Path_1530" data-name="Path 1530" d="M456.355,453.738c-3.235,4.138-13.918,1.279-13.918,1.279l-7.939-8.282-1.077-1.122,2.107-3.912s.6.2,1.607.548C442.454,444.108,459.078,450.256,456.355,453.738Z" transform="translate(-331.648 -325.333)" fill="#efb7b9"/>
    <path id="Path_1531" data-name="Path 1531" d="M437.094,442.248a17.792,17.792,0,0,1-2.636,4.487l-1.077-1.122,2.107-3.912S436.091,441.9,437.094,442.248Z" transform="translate(-331.62 -325.333)" opacity="0.1"/>
    <path id="Path_1532" data-name="Path 1532" d="M339.853,287.88s-7.9,3.009-7.975,11.436a138.454,138.454,0,0,0,.9,16.251s-2.257,12.564,4.138,16.176,12.339,6.621,12.339,6.621,10.217,1.655,11.472,2.182,5.616-6.245,4.938-7.373-9.979-3.912-11.084-5.793a10.022,10.022,0,0,0-3.825-3.148s-2.775-1.893-2.886-3.473a7.109,7.109,0,0,1,.939-3.386c.232-.677,1.071-7.3,1.071-7.3S354.373,286.586,339.853,287.88Z" transform="translate(-260.664 -217.768)" fill="#dce6f2"/>
    <path id="Path_1533" data-name="Path 1533" d="M347.38,380.7s-10.683,1.2-9.856,4.966A22.476,22.476,0,0,1,347.38,380.7Z" transform="translate(-264.579 -282.691)" opacity="0.1"/>
    <path id="Path_1534" data-name="Path 1534" d="M358.563,385.7s-6.064,4.439-4.95,4.74S358.563,385.7,358.563,385.7Z" transform="translate(-275.763 -286.186)" opacity="0.1"/>
    <path id="Path_1535" data-name="Path 1535" d="M376.937,391.7s-1.73,3.112-.752,2.949S376.937,391.7,376.937,391.7Z" transform="translate(-291.427 -290.38)" opacity="0.1"/>
    <path id="Path_1536" data-name="Path 1536" d="M725.287,167.386s-11.436-.689-10.1,7.334a1.957,1.957,0,0,0,1.017,2.061s.021-.6,1.174-.394a5.267,5.267,0,0,0,1.243.06,2.579,2.579,0,0,0,1.523-.629h0s3.217-1.327,4.469-6.588c0,0,.927-1.15.9-1.445l-1.932.828a3.462,3.462,0,0,1,.138,2.552s-.06-2.5-.433-2.444c-.075,0-1,.485-1,.485s1.135,2.426.277,4.192c0,0,.325-2.991-.632-4.018l-1.36.794s1.327,2.507.427,4.553c0,0,.232-3.139-.713-4.361l-1.234.96s1.249,2.474.487,4.171c0,0-.1-3.653-.755-3.93a7.445,7.445,0,0,0-1.24,1.342s.852,1.806.322,2.742c0,0-.325-2.435-.6-2.447a8.1,8.1,0,0,0-1.186,2.708,5.856,5.856,0,0,1,.924-2.871,3.223,3.223,0,0,0-1.643.852s.165-1.141,1.908-1.24a8.23,8.23,0,0,1,1.125-1.3,7.057,7.057,0,0,0-2.784.322s.924-1.074,3.1-.6l1.2-.993a10.384,10.384,0,0,0-3.25.033s1.113-.951,3.578-.259l1.324-.791a11.888,11.888,0,0,0-3.1-.268,4.76,4.76,0,0,1,3.491.054l.948-.424s-1.426-.28-1.842-.325-.439-.16-.439-.16a4.923,4.923,0,0,1,2.675.3A11.809,11.809,0,0,0,725.287,167.386Z" transform="translate(-528.545 -133.561)" fill="#6c63ff"/>
    <path id="Path_1537" data-name="Path 1537" d="M840.747,300.726s-11.436-.689-10.1,7.334a1.957,1.957,0,0,0,1.017,2.061s.021-.6,1.177-.394a5.273,5.273,0,0,0,1.243.06,2.576,2.576,0,0,0,1.5-.626h0s3.22-1.33,4.472-6.591c0,0,.924-1.147.888-1.441l-1.932.825a3.472,3.472,0,0,1,.141,2.552s-.063-2.5-.433-2.444c-.075,0-1.005.485-1.005.485s1.138,2.429.28,4.192c0,0,.325-2.991-.635-4.018l-1.345.785s1.327,2.507.427,4.553c0,0,.232-3.139-.713-4.361l-1.231.963s1.246,2.471.487,4.168c0,0-.1-3.653-.755-3.93a7.549,7.549,0,0,0-1.243,1.342s.855,1.806.325,2.742c0,0-.325-2.435-.6-2.447a8.1,8.1,0,0,0-1.186,2.708,5.873,5.873,0,0,1,.927-2.871,3.238,3.238,0,0,0-1.646.852s.169-1.141,1.911-1.24a7.512,7.512,0,0,1,1.126-1.3,7.056,7.056,0,0,0-2.784.322s.924-1.074,3.1-.587l1.2-.993a10.387,10.387,0,0,0-3.25.033s1.113-.951,3.578-.259l1.324-.791a12.06,12.06,0,0,0-3.106-.268,4.77,4.77,0,0,1,3.494.054l.948-.424s-1.427-.28-1.845-.325-.439-.159-.439-.159a4.932,4.932,0,0,1,2.678.3A12.144,12.144,0,0,0,840.747,300.726Z" transform="translate(-609.258 -226.773)" fill="#6c63ff" opacity="0.1"/>
    <path id="Path_1538" data-name="Path 1538" d="M615.479,250.815s2.633-11.162-5.5-11.2a1.955,1.955,0,0,0-2.2.65s.581.123.187,1.225a5.358,5.358,0,0,0-.271,1.2,2.585,2.585,0,0,0,.358,1.6h0s.761,3.4,5.718,5.531c0,0,.975,1.107,1.27,1.119l-.481-2.043a3.458,3.458,0,0,1-2.54-.3s2.477.364,2.48,0c0-.075-.3-1.071-.3-1.071s-2.585.7-4.18-.442c0,0,2.892.831,4.069.063l-.542-1.481s-2.708.882-4.562-.355c0,0,3.055.764,4.421.042l-.737-1.378s-2.648.807-4.192-.232c0,0,3.611.524,4-.072a7.475,7.475,0,0,0-1.11-1.454s-1.914.536-2.757-.147c0,0,2.453.093,2.51-.166a8.113,8.113,0,0,0-2.477-1.634,5.9,5.9,0,0,1,2.675,1.4,3.247,3.247,0,0,0-.56-1.767s1.1.361.9,2.107a7.5,7.5,0,0,1,1.086,1.33,7.076,7.076,0,0,0,.156-2.8s.9,1.1.051,3.157l.77,1.369a9.985,9.985,0,0,0,.521-3.208s.749,1.258-.355,3.569l.557,1.442a12.051,12.051,0,0,0,.791-3.009,4.757,4.757,0,0,1-.65,3.434l.259,1.005s.518-1.357.632-1.76.232-.406.232-.406a4.929,4.929,0,0,1-.749,2.588A11.956,11.956,0,0,0,615.479,250.815Z" transform="translate(-453.462 -183.986)" fill="#6c63ff" opacity="0.1"/>
    <path id="Path_1539" data-name="Path 1539" d="M520.167,283.015s-9.185-6.87-12.468.572a1.959,1.959,0,0,0-.283,2.281s.343-.485,1.2.319a5.269,5.269,0,0,0,1.005.734,2.582,2.582,0,0,0,1.616.3h0s3.419.659,7.355-3.045c0,0,1.405-.451,1.538-.716l-2.073-.364a3.477,3.477,0,0,1-1.285,2.209s1.321-2.125.978-2.278c-.069-.033-1.1-.151-1.1-.151s-.385,2.654-2.07,3.656c0,0,1.917-2.32,1.679-3.7l-1.574-.084s-.268,2.826-2.146,4.042c0,0,1.917-2.495,1.806-4.036l-1.559.126s-.316,2.748-1.884,3.747c0,0,1.923-3.106,1.529-3.7a7.565,7.565,0,0,0-1.776.436s-.274,1.968-1.237,2.468c0,0,1.068-2.212.852-2.365a8.09,8.09,0,0,0-2.486,1.616,5.878,5.878,0,0,1,2.353-1.89A3.241,3.241,0,0,0,508.3,283s.764-.861,2.275.015a7.6,7.6,0,0,1,1.655-.466,7.042,7.042,0,0,0-2.5-1.261s1.366-.391,2.916,1.2l1.562-.16a10.307,10.307,0,0,0-2.732-1.757s1.454-.184,3.13,1.748l1.541.069a12.014,12.014,0,0,0-2.444-1.932,4.758,4.758,0,0,1,2.886,1.965l1.026.166s-1.038-1.017-1.363-1.282-.28-.376-.28-.376a4.945,4.945,0,0,1,2.073,1.721A12.167,12.167,0,0,0,520.167,283.015Z" transform="translate(-383.194 -212.382)" fill="#6c63ff" opacity="0.1"/>
    <path id="Path_1540" data-name="Path 1540" d="M621.777,70.9s-9.185-6.873-12.468.572a1.958,1.958,0,0,0-.283,2.281s.343-.485,1.2.319a5.355,5.355,0,0,0,1.008.731,2.579,2.579,0,0,0,1.616.3h0s3.419.659,7.355-3.049c0,0,1.405-.448,1.535-.716l-2.073-.358a3.461,3.461,0,0,1-1.285,2.209s1.324-2.125.981-2.278c-.069-.033-1.1-.15-1.1-.15s-.4,2.66-2.082,3.656c0,0,1.914-2.32,1.679-3.7l-1.574-.084s-.271,2.826-2.146,4.039c0,0,1.917-2.495,1.806-4.036l-1.556.126s-.319,2.751-1.887,3.75c0,0,1.926-3.106,1.532-3.7a7.565,7.565,0,0,0-1.776.436s-.274,1.968-1.237,2.468c0,0,1.068-2.212.852-2.368a8.119,8.119,0,0,0-2.486,1.619,5.85,5.85,0,0,1,2.353-1.89,3.22,3.22,0,0,0-1.845-.193s.767-.861,2.278.015a7.433,7.433,0,0,1,1.655-.466,7.082,7.082,0,0,0-2.5-1.264s1.363-.388,2.913,1.2l1.562-.159a10.318,10.318,0,0,0-2.733-1.76s1.454-.181,3.133,1.751l1.541.066a11.89,11.89,0,0,0-2.447-1.929,4.76,4.76,0,0,1,2.889,1.965l1.023.166s-1.041-1.005-1.366-1.264-.28-.373-.28-.373a4.935,4.935,0,0,1,2.073,1.721A12.992,12.992,0,0,0,621.777,70.9Z" transform="translate(-454.226 -64.101)" fill="#6c63ff" opacity="0.1"/>
    <path id="Path_1541" data-name="Path 1541" d="M740.462,88.917s-3.671-10.867-10.6-6.6a1.978,1.978,0,0,0-1.526,1.718s.557-.2.8.939a5.417,5.417,0,0,0,.412,1.177,2.605,2.605,0,0,0,1.156,1.171h0s2.444,2.483,7.788,1.661c0,0,1.411.427,1.67.28l-1.5-1.478a3.462,3.462,0,0,1-2.311,1.089s2.3-1,2.107-1.321c-.039-.063-.825-.746-.825-.746s-1.824,1.965-3.78,1.836c0,0,2.892-.825,3.482-2.107l-1.246-.96s-1.824,2.173-4.06,2.107c0,0,3.009-.966,3.771-2.3l-1.354-.779s-1.806,2.086-3.677,2.019c0,0,3.346-1.466,3.355-2.176a7.524,7.524,0,0,0-1.709-.647s-1.342,1.466-2.407,1.333c0,0,2.131-1.219,2.04-1.469a8.074,8.074,0,0,0-2.964-.075,5.866,5.866,0,0,1,3.01-.226,3.248,3.248,0,0,0-1.411-1.2s1.12-.274,1.869,1.3a7.578,7.578,0,0,1,1.625.554,7.072,7.072,0,0,0-1.345-2.459s1.345.454,1.712,2.654l1.378.752a10.157,10.157,0,0,0-1.255-3.009s1.3.674,1.586,3.217l1.234.93a11.965,11.965,0,0,0-.921-2.979,4.765,4.765,0,0,1,1.264,3.259l.749.716s-.277-1.426-.391-1.83-.021-.43-.021-.43a4.963,4.963,0,0,1,.731,2.594A11.988,11.988,0,0,0,740.462,88.917Z" transform="translate(-537.815 -73.41)" fill="#6c63ff" opacity="0.1"/>
    <path id="Path_1542" data-name="Path 1542" d="M664.565,108.162s-11.406-1.27-10.464,6.822a1.953,1.953,0,0,0,.9,2.107s.051-.6,1.2-.331a5.537,5.537,0,0,0,1.24.123,2.588,2.588,0,0,0,1.55-.551h0s3.283-1.165,4.815-6.356c0,0,.981-1.1.96-1.4l-1.971.728a3.356,3.356,0,0,1,0,2.555s.063-2.5-.3-2.462c-.075,0-1.026.433-1.026.433s1.011,2.483.066,4.213c0,0,.475-2.973-.43-4.045l-1.4.722s1.2,2.573.2,4.571c0,0,.391-3.124-.49-4.391l-1.279.9s1.119,2.531.274,4.189c0,0,.087-3.653-.554-3.963a7.826,7.826,0,0,0-1.309,1.276s.761,1.836.187,2.754c0,0-.2-2.447-.466-2.471a8.092,8.092,0,0,0-1.324,2.654,5.858,5.858,0,0,1,1.071-2.823,3.238,3.238,0,0,0-1.685.767s.223-1.129,1.968-1.141c0,0,.948-1.177,1.2-1.24a7.076,7.076,0,0,0-2.8.181s.978-1.029,3.127-.43l1.267-.93a9.76,9.76,0,0,0-3.259-.163s1.162-.9,3.587-.075l1.363-.725a11.983,11.983,0,0,0-3.088-.424,4.727,4.727,0,0,1,3.485.232l.969-.376s-1.411-.352-1.827-.418-.43-.181-.43-.181a4.951,4.951,0,0,1,2.66.433A12.31,12.31,0,0,0,664.565,108.162Z" transform="translate(-485.879 -92.119)" fill="#6c63ff" opacity="0.1"/>
    <path id="Path_1543" data-name="Path 1543" d="M996.179,402.331s-11.4-1.27-10.458,6.813a1.953,1.953,0,0,0,.9,2.107s.051-.6,1.2-.334a5.207,5.207,0,0,0,1.24.123,2.567,2.567,0,0,0,1.55-.551h0s3.283-1.165,4.8-6.353c0,0,.981-1.1.96-1.4l-1.971.725a3.365,3.365,0,0,1,0,2.558s.063-2.5-.3-2.462c-.075,0-1.026.43-1.026.43s1.011,2.483.066,4.213c0,0,.476-2.97-.43-4.045l-1.4.725s1.2,2.573.2,4.571c0,0,.388-3.124-.494-4.394l-1.279.9s1.119,2.531.274,4.186c0,0,.087-3.653-.554-3.96a7.947,7.947,0,0,0-1.309,1.276s.764,1.836.187,2.754c0,0-.2-2.447-.466-2.471a8.093,8.093,0,0,0-1.324,2.654,5.859,5.859,0,0,1,1.071-2.823,3.211,3.211,0,0,0-1.685.767s.223-1.132,1.968-1.144c0,0,.951-1.177,1.2-1.237a7.05,7.05,0,0,0-2.8.178s.978-1.026,3.13-.427l1.264-.93a10.057,10.057,0,0,0-3.247-.132s1.162-.9,3.587-.078l1.363-.722a11.985,11.985,0,0,0-3.088-.424,4.727,4.727,0,0,1,3.485.232l.969-.379s-1.411-.352-1.827-.415-.43-.181-.43-.181a4.932,4.932,0,0,1,2.66.43A11.787,11.787,0,0,0,996.179,402.331Z" transform="translate(-717.702 -297.762)" fill="#6c63ff" opacity="0.1"/>
    <path id="Path_1544" data-name="Path 1544" d="M1054.089,437.712s-11.4-1.267-10.458,6.813a1.959,1.959,0,0,0,.9,2.107s.051-.6,1.2-.331a5.312,5.312,0,0,0,1.237.12,2.6,2.6,0,0,0,1.544-.548h0s3.28-1.165,4.8-6.356c0,0,.984-1.1.96-1.4l-1.971.725a3.364,3.364,0,0,1,0,2.558s.063-2.5-.3-2.462c-.075,0-1.026.43-1.026.43s1.011,2.483.066,4.213c0,0,.476-2.97-.43-4.042l-1.4.722s1.2,2.573.2,4.571c0,0,.388-3.124-.494-4.391l-1.279.9s1.12,2.531.277,4.189c0,0,.084-3.656-.557-3.963a7.945,7.945,0,0,0-1.309,1.276s.764,1.836.187,2.754c0,0-.2-2.447-.467-2.471a8.047,8.047,0,0,0-1.321,2.654,5.875,5.875,0,0,1,1.068-2.823,3.238,3.238,0,0,0-1.685.767s.226-1.132,1.971-1.141c0,0,.948-1.177,1.2-1.24a7.076,7.076,0,0,0-2.8.181s.978-1.029,3.13-.43l1.264-.93a10.058,10.058,0,0,0-3.247-.132s1.162-.9,3.587-.075l1.363-.725a11.982,11.982,0,0,0-3.088-.424,4.727,4.727,0,0,1,3.485.232l.969-.376s-1.411-.352-1.824-.418-.433-.181-.433-.181a4.951,4.951,0,0,1,2.66.433A11.906,11.906,0,0,0,1054.089,437.712Z" transform="translate(-758.184 -322.495)" fill="#6c63ff" opacity="0.1"/>
    <path id="Path_1545" data-name="Path 1545" d="M919.717,133.155s-9.185-6.87-12.468.572a1.959,1.959,0,0,0-.283,2.281s.343-.485,1.2.319a5.269,5.269,0,0,0,1.005.734,2.585,2.585,0,0,0,1.616.3h0s3.419.659,7.358-3.046c0,0,1.4-.451,1.535-.716l-2.067-.373a3.477,3.477,0,0,1-1.285,2.209s1.321-2.125.978-2.278c-.069-.033-1.1-.15-1.1-.15s-.388,2.654-2.073,3.656c0,0,1.917-2.32,1.679-3.7l-1.574-.084s-.268,2.826-2.146,4.042c0,0,1.92-2.495,1.806-4.036l-1.559.126s-.3,2.748-1.884,3.747c0,0,1.926-3.106,1.529-3.7a7.564,7.564,0,0,0-1.776.436s-.271,1.968-1.234,2.468c0,0,1.065-2.212.849-2.365a8.089,8.089,0,0,0-2.486,1.616,5.878,5.878,0,0,1,2.353-1.89,3.241,3.241,0,0,0-1.842-.193s.767-.861,2.278.015a7.567,7.567,0,0,1,1.652-.466,7.042,7.042,0,0,0-2.5-1.261s1.366-.391,2.916,1.2l1.562-.16a10.253,10.253,0,0,0-2.733-1.757s1.454-.184,3.13,1.748l1.544.069a12.066,12.066,0,0,0-2.447-1.932,4.751,4.751,0,0,1,2.886,1.965l1.026.166s-1.038-1.017-1.363-1.282-.277-.352-.277-.352a4.948,4.948,0,0,1,2.07,1.721A12.083,12.083,0,0,0,919.717,133.155Z" transform="translate(-662.504 -107.621)" fill="#6c63ff" opacity="0.1"/>
    <path id="Path_1546" data-name="Path 1546" d="M945.9,286.284s-3.166-11.023-10.286-7.066a1.955,1.955,0,0,0-1.6,1.646s.566-.178.761.975a5.333,5.333,0,0,0,.361,1.2,2.585,2.585,0,0,0,1.1,1.228h0s2.329,2.588,7.7,2.01c0,0,1.39.487,1.655.355l-1.423-1.547a3.461,3.461,0,0,1-2.356.987s2.335-.9,2.155-1.225c-.036-.066-.788-.785-.788-.785s-1.908,1.884-3.858,1.664c0,0,2.928-.692,3.572-1.938l-1.2-1.017s-1.92,2.089-4.15,1.926c0,0,3.033-.834,3.87-2.131l-1.318-.84s-1.911,2-3.765,1.851c0,0,3.41-1.315,3.452-2.022a7.513,7.513,0,0,0-1.682-.722s-1.405,1.4-2.474,1.222c0,0,2.185-1.122,2.107-1.375a8.127,8.127,0,0,0-2.958-.211,5.872,5.872,0,0,1,3.009-.087,3.229,3.229,0,0,0-1.354-1.264s1.132-.226,1.806,1.384a7.509,7.509,0,0,1,1.6.626,7.037,7.037,0,0,0-1.234-2.516s1.324.512,1.592,2.727l1.342.816a10.008,10.008,0,0,0-1.12-3.052s1.27.731,1.441,3.283l1.2.984a11.935,11.935,0,0,0-.785-3.009,4.755,4.755,0,0,1,1.117,3.31l.716.752s-.211-1.439-.3-1.848,0-.466,0-.466a4.933,4.933,0,0,1,.617,2.624A11.941,11.941,0,0,0,945.9,286.284Z" transform="translate(-681.591 -211.149)" fill="#6c63ff" opacity="0.1"/>
    <path id="Path_1547" data-name="Path 1547" d="M708.992,373.9s-6.148-9.684-11.857-3.888a1.947,1.947,0,0,0-1.077,2.031s.5-.331,1.008.722a5.152,5.152,0,0,0,.68,1.041,2.57,2.57,0,0,0,1.4.867h0s2.964,1.83,7.96-.241c0,0,1.472.078,1.688-.123l-1.806-1.083A3.46,3.46,0,0,1,705,374.84s1.992-1.5,1.724-1.782c-.051-.054-.978-.53-.978-.53s-1.3,2.341-3.235,2.681c0,0,2.615-1.49,2.886-2.868l-1.442-.635s-1.255,2.543-3.44,3.009c0,0,2.678-1.652,3.115-3.133l-1.5-.433s-1.27,2.459-3.091,2.835c0,0,2.9-2.221,2.742-2.913a7.476,7.476,0,0,0-1.806-.22s-.954,1.742-2.031,1.869c0,0,1.781-1.691,1.634-1.914a8.109,8.109,0,0,0-2.9.632,5.856,5.856,0,0,1,2.871-.933,3.228,3.228,0,0,0-1.652-.834s1.02-.533,2.107.822a7.434,7.434,0,0,1,1.712.15,6.928,6.928,0,0,0-1.893-2.067s1.414.12,2.293,2.17l1.52.4a10.06,10.06,0,0,0-1.932-2.612s1.423.343,2.305,2.748l1.42.6a11.993,11.993,0,0,0-1.6-2.672,4.741,4.741,0,0,1,2,2.862l.9.521s-.6-1.321-.816-1.685-.129-.448-.129-.448a4.935,4.935,0,0,1,1.327,2.344A12.237,12.237,0,0,0,708.992,373.9Z" transform="translate(-515.229 -273.929)" fill="#6c63ff" opacity="0.1"/>
    <path id="Path_1548" data-name="Path 1548" d="M843.422,208.918s-5.847-9.868-11.737-4.252a1.957,1.957,0,0,0-1.138,2s.5-.319.984.749a5.2,5.2,0,0,0,.647,1.065,2.555,2.555,0,0,0,1.372.9h0s2.9,1.92,7.963,0c0,0,1.469.123,1.691-.072l-1.766-1.138a3.46,3.46,0,0,1-2.034,1.547s2.037-1.454,1.782-1.727c-.054-.057-.963-.563-.963-.563s-1.375,2.3-3.31,2.582c0,0,2.66-1.408,2.97-2.775l-1.42-.668s-1.333,2.507-3.533,2.907c0,0,2.73-1.568,3.211-3.033l-1.487-.482s-1.348,2.408-3.178,2.739c0,0,2.967-2.131,2.829-2.826a7.433,7.433,0,0,0-1.806-.277s-1.008,1.712-2.089,1.806c0,0,1.833-1.631,1.694-1.86a8.1,8.1,0,0,0-2.916.542,5.875,5.875,0,0,1,2.9-.843,3.235,3.235,0,0,0-1.628-.885s1.038-.5,2.107.885a7.623,7.623,0,0,1,1.706.2,7.2,7.2,0,0,0-1.827-2.125s1.408.163,2.224,2.239l1.5.451a10,10,0,0,0-1.851-2.672s1.414.388,2.221,2.817l1.4.653a12.091,12.091,0,0,0-1.5-2.708,4.76,4.76,0,0,1,1.914,2.922l.882.548s-.566-1.339-.764-1.709-.114-.451-.114-.451a4.945,4.945,0,0,1,1.255,2.383A11.65,11.65,0,0,0,843.422,208.918Z" transform="translate(-609.252 -158.424)" fill="#6c63ff"/>
    <path id="Path_1549" data-name="Path 1549" d="M727.923,268.517s.3-11.466-7.665-9.85a1.961,1.961,0,0,0-2.028,1.086s.6,0,.433,1.159a5.281,5.281,0,0,0-.018,1.246,2.573,2.573,0,0,0,.677,1.5h0s1.435,3.172,6.735,4.249c0,0,1.177.888,1.472.84l-.9-1.9a3.474,3.474,0,0,1-2.546.226s2.5-.147,2.429-.515c0-.075-.518-.99-.518-.99s-2.389,1.219-4.18.418c0,0,3.009.226,3.993-.764l-.84-1.333s-2.462,1.408-4.538.578c0,0,3.145.126,4.336-.858l-1-1.2s-2.429,1.33-4.15.626c0,0,3.647-.22,3.912-.885a7.8,7.8,0,0,0-1.384-1.2s-1.763.9-2.727.415c0,0,2.408-.4,2.423-.671a8.076,8.076,0,0,0-2.757-1.1,5.859,5.859,0,0,1,2.9.831,3.235,3.235,0,0,0-.9-1.616s1.147.129,1.3,1.866a7.483,7.483,0,0,1,1.336,1.083,7.038,7.038,0,0,0-.415-2.772s1.107.888.692,3.079l1.032,1.186a10.076,10.076,0,0,0-.141-3.247s.987,1.08.379,3.566l.834,1.3a12,12,0,0,0,.166-3.112,4.776,4.776,0,0,1,.06,3.494l.457.933s.232-1.435.262-1.854.144-.445.144-.445a4.942,4.942,0,0,1-.208,2.687A11.469,11.469,0,0,0,727.923,268.517Z" transform="translate(-530.748 -197.273)" fill="#6c63ff"/>
    <ellipse id="Ellipse_256" data-name="Ellipse 256" cx="8.104" cy="1.369" rx="8.104" ry="1.369" transform="translate(202.241 214.196)" fill="#6c63ff" opacity="0.1"/>
    <ellipse id="Ellipse_257" data-name="Ellipse 257" cx="8.104" cy="1.369" rx="8.104" ry="1.369" transform="translate(172.697 234.985)" fill="#6c63ff" opacity="0.1"/>
    <ellipse id="Ellipse_258" data-name="Ellipse 258" cx="8.104" cy="1.369" rx="8.104" ry="1.369" transform="translate(19.922 224.335)" fill="#6c63ff" opacity="0.1"/>
    <ellipse id="Ellipse_259" data-name="Ellipse 259" cx="8.104" cy="1.369" rx="8.104" ry="1.369" transform="translate(234.167 233.616)" fill="#6c63ff" opacity="0.1"/>
    <ellipse id="Ellipse_260" data-name="Ellipse 260" cx="12.101" cy="2.046" rx="12.101" ry="2.046" transform="translate(238.609 215.565)" fill="#6c63ff"/>
    <path id="Path_1550" data-name="Path 1550" d="M919,754.053a3.494,3.494,0,0,0,1.153-1.74,1.546,1.546,0,0,0-.8-1.772,2.272,2.272,0,0,0-2.134.746,2.859,2.859,0,0,1-2.07,1,3.16,3.16,0,0,0,.975-2.952,1.237,1.237,0,0,0-.271-.6c-.412-.439-1.156-.25-1.649.1-1.565,1.1-2,3.226-2.01,5.14a9.653,9.653,0,0,1-.027-2.107,2.161,2.161,0,0,0-.8-1.872,2.38,2.38,0,0,0-1.2-.3,2.515,2.515,0,0,0-1.968.56,1.94,1.94,0,0,0,.075,2.408,7.783,7.783,0,0,0,2.037,1.631,4.553,4.553,0,0,1,1.457,1.387,1.411,1.411,0,0,1,.105.247h4.412a12.17,12.17,0,0,0,2.72-1.872Z" transform="translate(-663.272 -539.791)" fill="#6c63ff"/>
    <path id="Path_1551" data-name="Path 1551" d="M170.29,778.069s4.619-.141,6.019-1.135,7.111-2.176,7.457-.584,6.946,7.912,1.727,7.954-12.125-.813-13.515-1.661S170.29,778.069,170.29,778.069Z" transform="translate(-147.704 -558.729)" fill="#a8a8a8"/>
    <path id="Path_1552" data-name="Path 1552" d="M185.581,789.538c-5.218.042-12.125-.812-13.515-1.661-1.059-.644-1.481-2.958-1.622-4.027h-.153s.3,3.729,1.682,4.574,8.3,1.7,13.515,1.661c1.5,0,2.025-.548,2-1.342C187.275,789.228,186.7,789.529,185.581,789.538Z" transform="translate(-147.704 -564.517)" opacity="0.2"/>
  </g>
</svg>
