<svg xmlns="http://www.w3.org/2000/svg" width="370.974" height="295.913" viewBox="0 0 370.974 295.913">
  <g id="orders" transform="translate(-775 -392.773)">
    <path id="Path_1162" data-name="Path 1162" d="M157.76,23.874c85.916,63.611,165.108,13.6,165.108,72.059S250.591,201.792,161.434,201.791,0,154.4,0,95.933,71.843-39.737,157.76,23.874Z" transform="translate(840.697 392.773) rotate(19)" fill="rgba(83,92,104,0.1)" opacity="0.21"/>
    <g id="undraw_deliveries_131a" transform="translate(672.78 341.836)">
      <path id="Path_1184" data-name="Path 1184" d="M276.661,567.89l-50.718,10.374-1.153-.115-44.57-4.5V517.172l54.56-9.221,39.576,4.611.012.25,0,.123Z" transform="translate(0 -275.627)" fill="#f1f2f6"/>
      <path id="Path_1185" data-name="Path 1185" d="M348.091,575.679l-50.718,10.374-1.153-.115v-57.9L345.8,520.6Z" transform="translate(-71.43 -283.416)" opacity="0.1"/>
      <path id="Path_1186" data-name="Path 1186" d="M274.371,512.933l-.015.012-49.565,7.3-44.57-3.074,54.56-9.221,39.576,4.611.012.25Z" transform="translate(0 -275.627)" opacity="0.05"/>
      <path id="Path_1187" data-name="Path 1187" d="M421.661,573.89l-50.718,10.374-1.153-.115-44.57-4.5V523.172l54.56-9.221,39.576,4.611.012.25,0,.123Z" transform="translate(-89.287 -279.322)" fill="#535c68"/>
      <path id="Path_1188" data-name="Path 1188" d="M493.091,581.679l-50.718,10.374-1.153-.115v-57.9L490.8,526.6Z" transform="translate(-160.716 -287.111)" opacity="0.1"/>
      <path id="Path_1189" data-name="Path 1189" d="M419.371,518.933l-.015.012-49.565,7.3-44.57-3.074,54.56-9.221,39.576,4.611.012.25Z" transform="translate(-89.287 -279.322)" opacity="0.05"/>
      <path id="Path_1190" data-name="Path 1190" d="M330.661,429.89l-50.718,10.374-1.153-.115-44.57-4.5V379.171l54.56-9.221,39.576,4.611.012.25,0,.123Z" transform="translate(-33.252 -190.65)" fill="#bdc3c7"/>
      <path id="Path_1191" data-name="Path 1191" d="M402.091,437.679l-50.718,10.374-1.153-.115v-57.9L399.8,382.6Z" transform="translate(-104.681 -198.44)" opacity="0.1"/>
      <path id="Path_1192" data-name="Path 1192" d="M328.371,374.933l-.015.012-49.565,7.3-44.57-3.074,54.56-9.221,39.576,4.611.012.25Z" transform="translate(-33.252 -190.65)" opacity="0.05"/>
      <path id="Path_1193" data-name="Path 1193" d="M479.554,481.974l-26.469,5.418-.6-.062-23.261-2.348V455.5L457.7,450.69l20.656,2.409.008.131v.061Z" transform="translate(-153.327 -240.368)" fill="#535c68"/>
      <path id="Path_1194" data-name="Path 1194" d="M516.833,486.044l-26.469,5.418-.6-.061v-30.22l25.878-3.881Z" transform="translate(-190.606 -244.438)" opacity="0.1"/>
      <path id="Path_1195" data-name="Path 1195" d="M478.359,453.291l-.008.008-25.87,3.812L429.22,455.5,457.7,450.69l20.656,2.409.008.131Z" transform="translate(-153.327 -240.368)" opacity="0.05"/>
      <path id="Path_1196" data-name="Path 1196" d="M294.554,332.974l-26.47,5.414-.6-.058-23.261-2.348V306.5L272.7,301.69l20.656,2.409.008.131v.061Z" transform="translate(-39.409 -148.618)" fill="#b2bec3"/>
      <path id="Path_1197" data-name="Path 1197" d="M331.833,337.044l-26.47,5.414-.6-.058v-30.22l25.878-3.881Z" transform="translate(-76.688 -152.688)" opacity="0.1"/>
      <path id="Path_1198" data-name="Path 1198" d="M293.359,304.291l-.008.008-25.87,3.812L244.22,306.5,272.7,301.69l20.656,2.409.008.131Z" transform="translate(-39.409 -148.618)" opacity="0.05"/>
      <path id="Path_1199" data-name="Path 1199" d="M415.554,329.974l-26.47,5.414-.6-.058-23.261-2.348V303.5L393.7,298.69l20.656,2.409.008.131v.061Z" transform="translate(-113.918 -146.771)" fill="#f4f7fc"/>
      <path id="Path_1200" data-name="Path 1200" d="M452.833,334.044l-26.469,5.414-.6-.058v-30.22l25.878-3.881Z" transform="translate(-151.197 -150.841)" opacity="0.1"/>
      <path id="Path_1201" data-name="Path 1201" d="M414.359,301.291l-.008.008-25.87,3.812L365.22,303.5,393.7,298.69l20.656,2.409.008.131Z" transform="translate(-113.918 -146.771)" opacity="0.05"/>
      <path id="Path_1202" data-name="Path 1202" d="M451.554,252.974l-26.469,5.414-.6-.058-23.261-2.348V226.5L429.7,221.69l20.656,2.409.008.131v.061Z" transform="translate(-136.086 -99.356)" fill="#f0bc5e"/>
      <path id="Path_1203" data-name="Path 1203" d="M488.833,257.044l-26.47,5.414-.6-.058v-30.22l25.878-3.881Z" transform="translate(-173.364 -103.426)" opacity="0.1"/>
      <path id="Path_1204" data-name="Path 1204" d="M450.359,224.291l-.008.008-25.87,3.812L401.22,226.5,429.7,221.69l20.656,2.409.008.131Z" transform="translate(-136.086 -99.356)" opacity="0.05"/>
      <path id="Path_1205" data-name="Path 1205" d="M699.221,231.92c-.28,2.5-2.186,4.511-2.893,6.916-1.06,3.631.768,7.531,3.289,10.374a22.965,22.965,0,0,0,15.992,7.585,6.881,6.881,0,0,0,2.643-.288,5.739,5.739,0,0,0,2.01-1.376,12.85,12.85,0,0,0,3.312-7.189,38.45,38.45,0,0,0,.092-8.034,4.546,4.546,0,0,0-.3-1.621,4.119,4.119,0,0,0-1.041-1.279,24.2,24.2,0,0,0-4.476-3.254,5.026,5.026,0,0,1-1.875-1.433,4.693,4.693,0,0,1-.58-1.717l-.5-2.521a4.942,4.942,0,0,0-.726-2.044c-.872-1.176-2.544-1.337-4.008-1.395l-5.379-.211c-1.671-.065-3.869-.546-5.5-.215-1.537.3-1.018,1.71-.742,2.985A21.59,21.59,0,0,1,699.221,231.92Z" transform="translate(-365.725 -138.564)" fill="#ffc0c6"/>
      <path id="Path_1206" data-name="Path 1206" d="M699.221,231.92c-.28,2.5-2.186,4.511-2.893,6.916-1.06,3.631.768,7.531,3.289,10.374a22.965,22.965,0,0,0,15.992,7.585,6.881,6.881,0,0,0,2.643-.288,5.739,5.739,0,0,0,2.01-1.376,12.85,12.85,0,0,0,3.312-7.189,38.45,38.45,0,0,0,.092-8.034,4.546,4.546,0,0,0-.3-1.621,4.119,4.119,0,0,0-1.041-1.279,24.2,24.2,0,0,0-4.476-3.254,5.026,5.026,0,0,1-1.875-1.433,4.693,4.693,0,0,1-.58-1.717l-.5-2.521a4.942,4.942,0,0,0-.726-2.044c-.872-1.176-2.544-1.337-4.008-1.395l-5.379-.211c-1.671-.065-3.869-.546-5.5-.215-1.537.3-1.018,1.71-.742,2.985A21.59,21.59,0,0,1,699.221,231.92Z" transform="translate(-365.725 -138.564)" opacity="0.1"/>
      <path id="Path_1207" data-name="Path 1207" d="M748.529,517.381,746.246,542.4c-.6,6.563-1.2,13.152-2.371,19.63-.384,2.232-.876,4.453-1.437,6.655-1.56,6.113-3.823,12.088-4.553,18.355-.023.181-.042.384-.062.549a16.457,16.457,0,0,1-.768,4.073c-.384.957-.926,1.829-1.322,2.774a18.182,18.182,0,0,0-.987,6.029,25.99,25.99,0,0,0-8.949-3.074c-1.537-.227-3.208-.384-4.227-1.537-1.153-1.253-1.018-3.17-.826-4.853q.907-7.838,1.806-15.669a40.831,40.831,0,0,1,1.153-6.655c.207-.726.457-1.441.711-2.156.35-.984.7-1.967.968-2.978a35.862,35.862,0,0,0,.761-4.93c.619-5.256,1.364-10.5,2.017-15.753l.035-.277a161.088,161.088,0,0,0,1.51-23.98c-.031-1.187-.081-2.375-.158-3.566-.108-1.725-.265-2.64,1.153-3.719a26.882,26.882,0,0,1,5.464-2.8c.972-.423,11.677-4.227,11.911-3.389a20.863,20.863,0,0,1,.768,5.464,60.774,60.774,0,0,1-.315,6.789Z" transform="translate(-380.871 -311.539)" fill="#535c68"/>
      <path id="Path_1208" data-name="Path 1208" d="M749.9,622.256c-.384,2.232-.876,4.453-1.437,6.655-1.56,6.113-3.823,12.088-4.553,18.355-.023.181-.042.384-.062.549-4.772-6.816-8.791-14.147-13.448-21.036.35-.984.7-1.967.968-2.978a35.862,35.862,0,0,0,.8-4.96c.619-5.256,1.364-10.5,2.017-15.753l.035-.277a16.312,16.312,0,0,0,1.153,3.231c3.128,6.355,10.558,9.567,14.193,15.65Q749.746,621.975,749.9,622.256Z" transform="translate(-386.895 -371.763)" opacity="0.1"/>
      <path id="Path_1209" data-name="Path 1209" d="M680.336,458.41a118.179,118.179,0,0,0,1.787,15.181l1.679,10.374c.918,5.687,1.879,11.485,4.568,16.576,2.013,3.812,4.91,7.062,7.535,10.478,6.447,8.4,11.292,17.917,17.406,26.562,1.779,2.513,4.319,5.233,7.35,4.707,1.99-.342,3.435-2,4.995-3.277,1.844-1.506,4.065-2.609,5.518-4.5s1.737-5.026-.231-6.371a10.628,10.628,0,0,0-2.252-.922c-3.047-1.153-5.022-4.134-6.274-7.147s-2.017-6.244-3.689-9.045c-3.635-6.082-11.07-9.294-14.2-15.653-1.752-3.558-1.921-7.685-2.052-11.631l-.342-10.109a7.362,7.362,0,0,1,.384-3.266c1.195-2.69,4.807-2.943,7.734-3.285a26.416,26.416,0,0,0,9.479-2.989,9.831,9.831,0,0,0,4.227-3.762,12.084,12.084,0,0,0,1.03-5.091l1.014-18.324a11.555,11.555,0,0,0-.384-4.684c-1.395-3.712-6.082-4.926-10.044-4.749-7.37.33-14.17,3.5-21.133,5.644a54,54,0,0,1-5.237,1.364c-1.537.311-3.458.184-4.934.684-2.643.891-2.578,6.678-2.951,9.075A76.185,76.185,0,0,0,680.336,458.41Z" transform="translate(-356.053 -263.791)" fill="#535c68"/>
      <path id="Path_1210" data-name="Path 1210" d="M780.368,709.336a4.7,4.7,0,0,1,1.03,2.524,86.129,86.129,0,0,1,1.46,15.258,2.529,2.529,0,0,0,.273,1.383,1.765,1.765,0,0,0,.719.576c1.879.9,4.057-.353,5.625-1.725,2.9-2.54,5.356-5.952,5.521-9.806a22.566,22.566,0,0,1,.1-2.974,12.375,12.375,0,0,1,1.848-3.984,33.832,33.832,0,0,0,3.074-6.847c.284-.9.476-2.029-.231-2.655a2.472,2.472,0,0,0-.834-.434l-8.491-3.151c-.738-.273-2.567,4.426-2.855,4.941a3.889,3.889,0,0,1-2.843,2.259c-1.426.292-3.185-.131-4.545.6C777.917,706.523,779.066,708.026,780.368,709.336Z" transform="translate(-416.76 -430.064)" fill="#535070"/>
      <path id="Path_1211" data-name="Path 1211" d="M733.172,733.524a2.587,2.587,0,0,0-.646-.818,2.893,2.893,0,0,0-1.3-.442c-1.614-.277-3.527-.457-4.645.745-1.045,1.126-.865,2.959-1.737,4.227a13.163,13.163,0,0,0-.891,1.153,4.326,4.326,0,0,0-.384,2.067c-.046,1.956-.092,3.919.046,5.871a8.192,8.192,0,0,0,1.41,4.638c1.644,2.06,4.611,2.355,7.239,2.486l2.133.111a4.226,4.226,0,0,0,1.744-.161,2.863,2.863,0,0,0,1.506-1.656c1.11-2.759-.645-5.729-1.729-8.5C734.666,740.064,734.889,736.533,733.172,733.524Z" transform="translate(-382.658 -451.351)" fill="#535070"/>
      <path id="Path_1212" data-name="Path 1212" d="M691.055,183.556a1.741,1.741,0,0,1,.119-.822c.311-.549,1.126-.384,1.741-.246,2.471.622,5.076.058,7.623.2s5.414,1.418,5.925,3.915a18.524,18.524,0,0,0,4.7-4.826,5.79,5.79,0,0,0,1.226-3.535c-.138-1.829-1.671-3.2-3.074-4.357l-4.227-3.458a6.42,6.42,0,0,0-1.9-1.206,9.444,9.444,0,0,0-3.074-.173c-3.074,0-6.37-1.4-9.11,0a9.724,9.724,0,0,0-2.839,2.582l-3.777,4.472a2.385,2.385,0,0,0-.607,1.026,4.513,4.513,0,0,0,.273,1.633c.177,1-.254,2.067.077,3.028.549,1.591,2.486,1.817,3.669,2.732.438.338,1.13,1.495,1.656,1.479C690.382,185.984,691.028,184.293,691.055,183.556Z" transform="translate(-358.173 -104.282)" fill="#3f3d56"/>
      <circle id="Ellipse_223" data-name="Ellipse 223" cx="12.103" cy="12.103" r="12.103" transform="translate(327.187 68.258)" fill="#ffc0c6"/>
      <path id="Path_1213" data-name="Path 1213" d="M680.128,258.683a5.863,5.863,0,0,0-5.69-3.927,1.71,1.71,0,0,1-1.053-.134,1.456,1.456,0,0,1-.434-.538,21.406,21.406,0,0,1-1.764-4.173c-.192-.642-.457-1.4-1.107-1.564a1.485,1.485,0,0,0-1.406.615,13.457,13.457,0,0,1-1.007,1.264c-1.537,1.36-4.227.119-5.836,1.368-.265.2-.484.465-.768.653a3.5,3.5,0,0,1-.888.384A85.059,85.059,0,0,0,651,256.217c1.076,6.47,2.175,13.064,4.7,19.115,1.2,2.882,2.555,5.706,3.516,8.676,2.129,6.582,2.221,13.625,2.248,20.545,0,4.734,0,9.567-1.537,14.047a13.6,13.6,0,0,0-.864,3.074,3.2,3.2,0,0,0,1.083,2.874,3.655,3.655,0,0,0,1.671.588c2.655.384,5.329-.315,7.942-.922a213.769,213.769,0,0,1,21.279-3.458l11.95-1.537a6.989,6.989,0,0,0,2.474-.642c2.186-1.195,2.394-4.484,1.034-6.574-.649-1-1.568-1.825-2.117-2.886a2.68,2.68,0,0,1,.35-3.285c1.921-1.5,1.345-4.276,1.437-6.7q.384-10.19-.1-20.364a39.836,39.836,0,0,1-.069-4.226,37.279,37.279,0,0,1,1.318-7.054l3.631-14.293a7.452,7.452,0,0,0-4.484-2.882c-1.718-.43-3.512-.557-5.206-1.084-3.458-1.076-6.563-3.8-10.186-3.55a1.863,1.863,0,0,0-.792.192c-.815.465-.688,1.641-.738,2.578-.115,2.079-1.645,3.812-3.327,5.03s-3.612,2.1-5.16,3.489A2.305,2.305,0,0,0,680.128,258.683Z" transform="translate(-338.002 -151.838)" fill="#bdc3c7"/>
      <path id="Path_1214" data-name="Path 1214" d="M591.69,307.632a14.219,14.219,0,0,1-2.544,1.31,8.454,8.454,0,0,0-2.44,1.183,3.861,3.861,0,0,0-.849,1.049,4.661,4.661,0,0,0,4.3,6.943,9.365,9.365,0,0,0,3.178-.949l8.538-3.715c1.445-.626,3-1.356,3.689-2.778a.669.669,0,0,0,.084-.442.726.726,0,0,0-.353-.384,19.121,19.121,0,0,1-4.968-4.688c-.35-.476-.768-1.6-1.276-1.887C597.239,302.272,593.139,306.694,591.69,307.632Z" transform="translate(-297.52 -187.227)" fill="#ffc0c6"/>
      <path id="Path_1215" data-name="Path 1215" d="M806.867,307l3.147,3.6c.676.768,1.352,1.537,1.967,2.367a27.536,27.536,0,0,1,3.6,6.789,11.871,11.871,0,0,1,1.014,5.614,13.827,13.827,0,0,1-.788,2.855,35.3,35.3,0,0,1-2.14,5.149,29.3,29.3,0,0,1-2.394,3.6,84.183,84.183,0,0,1-7.98,9.125c-1.076,1.064-1.537,2.79-1.994,4.227-.865,2.655-2.92,4.726-4.907,6.686a13.521,13.521,0,0,1-2.109,1.814,6.839,6.839,0,0,1-3.842,1.091,4.227,4.227,0,0,1-1.725-.357,4.463,4.463,0,0,1-2.194-3.715,7.954,7.954,0,0,1,.661-3.981c1.806-4,6.444-5.733,9.721-8.653a31.725,31.725,0,0,0,4.845-5.986,20.765,20.765,0,0,0,2.448-4.292c.73-1.956.446-4.269,1.087-6.251.269-.841.768-1.6,1.041-2.432a2.88,2.88,0,0,0-.146-2.54,3.669,3.669,0,0,0-1.425-1.045c-2.094-1.06-4.438-2.428-4.837-4.745a5.08,5.08,0,0,1,.938-3.623,14.983,14.983,0,0,1,2.64-2.766C804.408,308.7,805.949,307.792,806.867,307Z" transform="translate(-421.435 -189.611)" fill="#ffc0c6"/>
      <path id="Path_1216" data-name="Path 1216" d="M573.431,322.812a5.823,5.823,0,0,0-2.371-2.824,4.365,4.365,0,0,0-3.458,0,13.11,13.11,0,0,0-3.028,1.829l-2.713,2a6.676,6.676,0,0,0-1.61,1.487,6.191,6.191,0,0,0-.838,2.305,16.742,16.742,0,0,0-.426,5.69c.43,3.074,2.275,5.733,4.3,8.069,1.268,1.452,2.836,2.92,4.764,2.985a2.186,2.186,0,0,0,2.106-1.06,2.627,2.627,0,0,0,.188-.945c.207-3.412-1.014-6.743-2.436-9.852a6.1,6.1,0,0,1-.768-2.647.715.715,0,0,1,.115-.446.745.745,0,0,1,.461-.227c1.948-.384,5.306,1.13,6.67-1.034C575.275,326.716,574.061,324.084,573.431,322.812Z" transform="translate(-281.282 -197.389)" fill="#ffc0c6"/>
      <path id="Path_1217" data-name="Path 1217" d="M689.407,173.646a1.789,1.789,0,0,1,.123-.822c.311-.553,1.126-.384,1.74-.246,2.471.622,5.076.058,7.623.2s5.41,1.418,5.925,3.915a18.645,18.645,0,0,0,4.7-4.826,5.809,5.809,0,0,0,1.226-3.539c-.138-1.829-1.675-3.2-3.074-4.353l-4.227-3.458a6.4,6.4,0,0,0-1.894-1.206,9.45,9.45,0,0,0-3.074-.173c-3.074,0-6.37-1.4-9.11,0a9.722,9.722,0,0,0-2.839,2.582l-3.781,4.472a2.394,2.394,0,0,0-.6,1.026,4.515,4.515,0,0,0,.273,1.633c.177,1-.254,2.067.077,3.024.549,1.595,2.486,1.821,3.669,2.736.438.338,1.13,1.495,1.656,1.479C688.727,176.074,689.372,174.383,689.407,173.646Z" transform="translate(-357.163 -98.18)" fill="#3f3d56"/>
      <path id="Path_1218" data-name="Path 1218" d="M623.808,277.764a5.017,5.017,0,0,0-1.268,1.18c-.442.672-.534,1.537-.915,2.229-.815,1.514-2.724,2.056-3.911,3.3a1.226,1.226,0,0,0-.384.646,1.426,1.426,0,0,0,.319.93l5.74,9.022c1.921.169,3.742-1.03,5.656-.868a5.7,5.7,0,0,0,2.129.092,6.189,6.189,0,0,0,1.364-.834c1.153-.722,2.659-.807,3.616-1.756a4.836,4.836,0,0,0,1.026-3.639,14.362,14.362,0,0,0-.342-3.343c-.845-3.458-3.493-6.125-5.153-9.191-.811-1.495-1.249-2.367-2.958-1.341S625.425,276.58,623.808,277.764Z" transform="translate(-317.269 -169.131)" fill="#bdc3c7"/>
      <path id="Path_1219" data-name="Path 1219" d="M799.808,267.454a13.476,13.476,0,0,1,2.889,2.528c.872,1.126,1.368,2.509,2.209,3.662a40.02,40.02,0,0,0,2.843,3.012A22.963,22.963,0,0,1,811.031,282a80.152,80.152,0,0,1-7.423,8.376,2.378,2.378,0,0,1-1.13.738,1.81,1.81,0,0,1-1.591-.649c-.415-.43-.707-.968-1.1-1.418a5.667,5.667,0,0,0-3.508-1.694,24.1,24.1,0,0,0-3.977-.058,1.537,1.537,0,0,1-.849-.142,1.4,1.4,0,0,1-.461-.53c-1.537-2.643-1.057-5.963-.507-8.983l1.256-6.916a15.542,15.542,0,0,1,1.049-3.842c.476-1.018,1.537-2.747,2.851-2.44S798.7,266.655,799.808,267.454Z" transform="translate(-423.566 -163.383)" fill="#bdc3c7"/>
      <path id="Path_1220" data-name="Path 1220" d="M324.554,255.974l-26.469,5.414-.6-.058-23.261-2.348V229.5L302.7,224.69l20.656,2.409.008.131v.061Z" transform="translate(-57.883 -101.203)" fill="#2f3542"/>
      <path id="Path_1221" data-name="Path 1221" d="M361.833,260.044l-26.469,5.414-.6-.058v-30.22l25.878-3.881Z" transform="translate(-95.161 -105.274)" opacity="0.1"/>
      <path id="Path_1222" data-name="Path 1222" d="M323.359,227.291l-.008.008-25.87,3.812L274.22,229.5,302.7,224.69l20.656,2.409.008.131Z" transform="translate(-57.883 -101.203)" opacity="0.05"/>
      <path id="Path_1223" data-name="Path 1223" d="M360.554,179.974l-26.469,5.418-.6-.061-23.261-2.348V153.5L338.7,148.69l20.656,2.409.008.131v.061Z" transform="translate(-80.05 -54.405)" fill="#bdc3c7"/>
      <path id="Path_1224" data-name="Path 1224" d="M397.833,184.044l-26.469,5.418-.6-.061v-30.22l25.878-3.881Z" transform="translate(-117.329 -58.475)" opacity="0.1"/>
      <path id="Path_1225" data-name="Path 1225" d="M359.359,151.291l-.008.008-25.87,3.812L310.22,153.5,338.7,148.69l20.656,2.409.008.131Z" transform="translate(-80.05 -54.405)" opacity="0.05"/>
    </g>
  </g>
</svg>
