<svg xmlns="http://www.w3.org/2000/svg" width="325" height="236.447" viewBox="0 0 325 236.447">
  <g id="partner" transform="translate(-0.01 0)">
    <path id="Path_1385" data-name="Path 1385" d="M383.356,299.143c-8.05,16.612-24.4,27.72-41.346,35.045a152.55,152.55,0,0,1-42.568,11.359q-4.213.5-8.453.776A163.946,163.946,0,0,1,269.3,346.3q-6.516-.433-12.987-1.385a163.8,163.8,0,0,1-43.422-12.645q-5.983-2.694-11.723-5.883A149.979,149.979,0,0,1,182.841,314.4q-1.928-1.473-3.807-3.01l-.515-.421c-.985-.812-1.961-1.643-2.952-2.449a42.915,42.915,0,0,0-5.231-3.752c-.124-.073-.249-.145-.376-.215-.339-.2-.685-.382-1.037-.558a23.728,23.728,0,0,0-2.225-.982,29.138,29.138,0,0,0-11.05-1.737c-.63,0-1.261.042-1.894.085h0c-.885.061-1.773.152-2.658.267l-.327.045a60.245,60.245,0,0,0-8.344,1.791c-4.225,1.212-8.374,2.728-12.551,4.095h0c-1.773.585-3.549,1.143-5.34,1.643l-.394.109a58.453,58.453,0,0,1-7.762,1.624,43.249,43.249,0,0,1-17.764-1.431l-.2-.058-.37-.109-.506-.158q-1.273-.4-2.525-.876l-.506-.194q-1.212-.467-2.373-1l-.506-.23q-1.212-.564-2.373-1.191c-.279-.145-.555-.3-.827-.452q-1.237-.691-2.425-1.449-1.261-.8-2.467-1.676-.558-.4-1.1-.821A48.9,48.9,0,0,1,76.563,296c-.1-.1-.194-.2-.288-.3-.482-.521-.955-1.052-1.412-1.594-.17-.2-.339-.4-.506-.606q-.815-.994-1.573-2.034c-.076-.1-.149-.2-.221-.3a43.822,43.822,0,0,1-5.113-9.244c-.042-.1-.082-.2-.118-.3q-.606-1.561-1.106-3.173c-.136-.449-.267-.909-.382-1.358-.039-.133-.076-.27-.109-.4-1.673-6.586-1.864-13.432-1.864-20.24v-2.379c.049-11.011.218-22.21,1.843-33.069a1.38,1.38,0,0,1,.033-.224,103.278,103.278,0,0,1,2.216-10.856,80.087,80.087,0,0,1,3.731-11c3.737-8.789,9.171-16.788,15.206-24.2a136.426,136.426,0,0,1,24.892-23.943q2-1.464,4.055-2.843l.633-.415c.221-.148.442-.3.664-.433h0c.455-.3.909-.588,1.37-.876l.515-.321.982-.606.3-.173.524-.3.518-.3q.909-.536,1.84-1.049,3.973-2.216,8.135-4.049,1.227-.542,2.47-1.046a87.121,87.121,0,0,1,11.563-3.792q2.182-.552,4.392-.97,2.607-.5,5.24-.833a83.154,83.154,0,0,1,8.42-.627,86.175,86.175,0,0,1,55.309,18.312c6.183,4.922,11.738,10.75,18.682,14.524,6.062,3.285,13.157,4.646,19.649,2.061,5.365-2.137,8.856-3.2,14.881-2.873a124.736,124.736,0,0,1,36.464,7.626c.473.173.946.352,1.415.53,30.523,11.684,56.767,34.885,70.4,64.7q.539,1.182,1.052,2.382C389.4,258.37,392.33,280.631,383.356,299.143Z" transform="translate(-63.851 -110.225)" fill="#bdc3c7" opacity="0.1"/>
    <path id="Path_1386" data-name="Path 1386" d="M124.5,308.474V423.39l-.394.109a58.457,58.457,0,0,1-7.762,1.625,43.249,43.249,0,0,1-17.764-1.431l-.2-.058-.37-.109-.506-.158q-1.273-.4-2.525-.876l-.506-.194q-1.212-.467-2.373-1l-.506-.23q-1.212-.564-2.373-1.191c-.279-.146-.555-.3-.827-.452q-1.237-.691-2.425-1.449-1.261-.8-2.467-1.676-.558-.4-1.1-.821a48.9,48.9,0,0,1-5.871-5.295c-.1-.1-.194-.2-.288-.3-.482-.521-.955-1.052-1.412-1.594-.17-.2-.339-.4-.506-.606q-.815-.994-1.573-2.034c-.076-.1-.149-.2-.221-.3a43.823,43.823,0,0,1-5.113-9.244c-.042-.1-.082-.2-.118-.3q-.606-1.561-1.106-3.173c-.136-.449-.267-.909-.382-1.358-.039-.133-.076-.27-.109-.4-1.673-6.586-1.864-13.433-1.864-20.24v-2.379c.048-11.011.218-22.21,1.843-33.069a1.38,1.38,0,0,1,.033-.224,103.281,103.281,0,0,1,2.216-10.856H98.882V308.474h6.171V295.93h13.281v12.544Z" transform="translate(-63.83 -224.403)" fill="#6c63ff" opacity="0.1"/>
    <path id="Path_1387" data-name="Path 1387" d="M619.807,390.372c-8.05,16.612-24.4,27.72-41.346,35.045a152.549,152.549,0,0,1-42.568,11.359q-4.213.5-8.453.776a163.941,163.941,0,0,1-21.691-.024q-6.516-.433-12.987-1.385A163.8,163.8,0,0,1,449.339,423.5q-5.983-2.694-11.723-5.883a149.982,149.982,0,0,1-18.324-11.984q-1.928-1.473-3.807-3.01l-.515-.421c-.985-.812-1.961-1.643-2.952-2.449A42.913,42.913,0,0,0,406.787,396c-.124-.073-.249-.145-.376-.215-.339-.2-.685-.382-1.037-.558a23.726,23.726,0,0,0-2.225-.982V347.235H459.4V357.7h24.686V281.148h29.056V311.76h14.372V293.635h11.875V274.275h5.455V263c.473.173.946.352,1.415.53v10.744h5.31v19.373h11.866v18.124h17.5v69.051h27.811V330.605H617.7C625.847,349.6,628.781,371.86,619.807,390.372Z" transform="translate(-300.302 -201.454)" fill="#535c68" opacity="0.1"/>
    <rect id="Rectangle_650" data-name="Rectangle 650" width="12.987" height="12.987" transform="translate(192.466 91.215)" fill="#6c63ff" opacity="0.1"/>
    <rect id="Rectangle_651" data-name="Rectangle 651" width="12.987" height="12.987" transform="translate(192.466 118.134)" fill="#6c63ff" opacity="0.1"/>
    <rect id="Rectangle_652" data-name="Rectangle 652" width="12.987" height="12.987" transform="translate(192.466 145.057)" fill="#6c63ff" opacity="0.1"/>
    <rect id="Rectangle_653" data-name="Rectangle 653" width="12.987" height="12.987" transform="translate(192.466 171.98)" fill="#6c63ff" opacity="0.1"/>
    <rect id="Rectangle_654" data-name="Rectangle 654" width="12.987" height="12.987" transform="translate(192.466 198.899)" fill="#6c63ff" opacity="0.1"/>
    <path id="Path_1388" data-name="Path 1388" d="M711.827,805v10.256q-6.516-.433-12.987-1.385V805Z" transform="translate(-506.374 -579.184)" fill="#6c63ff" opacity="0.1"/>
    <rect id="Rectangle_655" data-name="Rectangle 655" width="45.459" height="5.883" transform="translate(107.131 162.566)" fill="#6c63ff" opacity="0.1"/>
    <rect id="Rectangle_656" data-name="Rectangle 656" width="45.459" height="5.883" transform="translate(107.131 180.432)" fill="#6c63ff" opacity="0.1"/>
    <path id="Path_1389" data-name="Path 1389" d="M473.3,714.21v5.88H439.7q-1.928-1.473-3.807-3.01l-.515-.421c-.985-.812-1.961-1.643-2.952-2.449Z" transform="translate(-320.708 -515.911)" fill="#6c63ff" opacity="0.1"/>
    <path id="Path_1390" data-name="Path 1390" d="M532.159,773.15v5.883h-3.546q-5.983-2.694-11.723-5.883Z" transform="translate(-379.57 -556.987)" fill="#6c63ff" opacity="0.1"/>
    <rect id="Rectangle_657" data-name="Rectangle 657" width="8.453" height="8.453" transform="translate(227.144 126.381)" fill="#6c63ff" opacity="0.1"/>
    <rect id="Rectangle_658" data-name="Rectangle 658" width="8.453" height="8.453" transform="translate(44.084 86.987)" fill="#6c63ff" opacity="0.1"/>
    <rect id="Rectangle_659" data-name="Rectangle 659" width="8.453" height="8.453" transform="translate(44.084 106.626)" fill="#6c63ff" opacity="0.1"/>
    <rect id="Rectangle_660" data-name="Rectangle 660" width="8.453" height="8.453" transform="translate(44.084 126.263)" fill="#6c63ff" opacity="0.1"/>
    <rect id="Rectangle_661" data-name="Rectangle 661" width="8.453" height="8.453" transform="translate(44.084 145.903)" fill="#6c63ff" opacity="0.1"/>
    <rect id="Rectangle_662" data-name="Rectangle 662" width="8.453" height="8.453" transform="translate(44.084 165.542)" fill="#6c63ff" opacity="0.1"/>
    <rect id="Rectangle_663" data-name="Rectangle 663" width="8.453" height="8.453" transform="translate(44.084 185.179)" fill="#6c63ff" opacity="0.1"/>
    <rect id="Rectangle_664" data-name="Rectangle 664" width="8.453" height="8.453" transform="translate(259.419 126.381)" fill="#6c63ff" opacity="0.1"/>
    <rect id="Rectangle_665" data-name="Rectangle 665" width="8.453" height="8.453" transform="translate(227.144 147.233)" fill="#6c63ff" opacity="0.1"/>
    <rect id="Rectangle_666" data-name="Rectangle 666" width="8.453" height="8.453" transform="translate(259.419 147.233)" fill="#6c63ff" opacity="0.1"/>
    <rect id="Rectangle_667" data-name="Rectangle 667" width="8.453" height="8.453" transform="translate(227.144 168.088)" fill="#6c63ff" opacity="0.1"/>
    <rect id="Rectangle_668" data-name="Rectangle 668" width="8.453" height="8.453" transform="translate(259.419 168.088)" fill="#6c63ff" opacity="0.1"/>
    <rect id="Rectangle_669" data-name="Rectangle 669" width="8.453" height="8.453" transform="translate(227.144 188.943)" fill="#6c63ff" opacity="0.1"/>
    <rect id="Rectangle_670" data-name="Rectangle 670" width="8.453" height="8.453" transform="translate(259.419 188.943)" fill="#6c63ff" opacity="0.1"/>
    <rect id="Rectangle_671" data-name="Rectangle 671" width="8.453" height="8.453" transform="translate(227.144 209.795)" fill="#6c63ff" opacity="0.1"/>
    <rect id="Rectangle_672" data-name="Rectangle 672" width="8.453" height="8.453" transform="translate(259.419 209.795)" fill="#6c63ff" opacity="0.1"/>
    <path id="Path_1391" data-name="Path 1391" d="M749.43,766.462V761.01h8.453v4.677Z" transform="translate(-522.286 -530.363)" fill="#6c63ff" opacity="0.1"/>
    <path id="Path_1392" data-name="Path 1392" d="M69.93,424.68v4.849h32.33V424.68Zm2.879,4.546H70.436v-4.243h2.373Zm2.879,0H73.315v-4.243h2.373Zm2.879,0H76.195v-4.243h2.373Zm2.879,0H79.074v-4.243h2.373Zm2.879,0H81.953v-4.243h2.373Zm2.879,0H84.832v-4.243h2.373Zm2.879,0H87.712v-4.243h2.373Zm2.879,0H90.591v-4.243h2.373Zm2.879,0H93.47v-4.243h2.373Zm2.879,0H96.35v-4.243h2.373Zm3.031,0H99.229v-4.243h2.525Z" transform="translate(-68.074 -314.132)" fill="#6c63ff" opacity="0.1"/>
    <path id="Path_1393" data-name="Path 1393" d="M69.93,471.14v4.834h32.33V471.14Zm2.879,4.531H70.436v-4.228h2.373Zm2.879,0H73.315v-4.228h2.373Zm2.879,0H76.195v-4.228h2.373Zm2.879,0H79.074v-4.228h2.373Zm2.879,0H81.953v-4.228h2.373Zm2.879,0H84.832v-4.228h2.373Zm2.879,0H87.712v-4.228h2.373Zm2.879,0H90.591v-4.228h2.373Zm2.879,0H93.47v-4.228h2.373Zm2.879,0H96.35v-4.228h2.373Zm3.031,0H99.229v-4.228h2.525Z" transform="translate(-68.074 -346.511)" fill="#6c63ff" opacity="0.1"/>
    <path id="Path_1394" data-name="Path 1394" d="M69.93,517.59v4.834h32.33V517.59Zm2.879,4.531H70.436v-4.228h2.373Zm2.879,0H73.315v-4.228h2.373Zm2.879,0H76.195v-4.228h2.373Zm2.879,0H79.074v-4.228h2.373Zm2.879,0H81.953v-4.228h2.373Zm2.879,0H84.832v-4.228h2.373Zm2.879,0H87.712v-4.228h2.373Zm2.879,0H90.591v-4.228h2.373Zm2.879,0H93.47v-4.228h2.373Zm2.879,0H96.35v-4.228h2.373Zm3.031,0H99.229v-4.228h2.525Z" transform="translate(-68.074 -378.883)" fill="#6c63ff" opacity="0.1"/>
    <path id="Path_1395" data-name="Path 1395" d="M69.93,564v4.849h32.33V564Zm2.879,4.546H70.436V564.3h2.373Zm2.879,0H73.315V564.3h2.373Zm2.879,0H76.195V564.3h2.373Zm2.879,0H79.074V564.3h2.373Zm2.879,0H81.953V564.3h2.373Zm2.879,0H84.832V564.3h2.373Zm2.879,0H87.712V564.3h2.373Zm2.879,0H90.591V564.3h2.373Zm2.879,0H93.47V564.3h2.373Zm2.879,0H96.35V564.3h2.373Zm3.031,0H99.229V564.3h2.525Z" transform="translate(-68.074 -411.227)" fill="#6c63ff" opacity="0.1"/>
    <path id="Path_1396" data-name="Path 1396" d="M70.34,610.49c.115.455.245.909.382,1.358v-1.055H73.1v4.243H71.828c.036.1.076.2.118.3h30.611V610.49Zm5.634,4.546H73.6v-4.243h2.373Zm2.879,0H76.48v-4.243h2.373Zm2.879,0H79.36v-4.243h2.373Zm2.879,0H82.239v-4.243h2.373Zm2.879,0H85.118v-4.243h2.373Zm2.879,0H88v-4.243h2.373Zm2.879,0H90.877v-4.243H93.25Zm2.879,0H93.756v-4.243h2.373Zm2.879,0H96.635v-4.243h2.373Zm3.031,0H99.514v-4.243h2.525Z" transform="translate(-68.36 -443.626)" fill="#6c63ff" opacity="0.1"/>
    <path id="Path_1397" data-name="Path 1397" d="M92.51,656.94c.073.1.145.2.221.3H94.3v2.034c.167.2.336.4.506.606v-2.637h2.373v4.243h-.961c.094.1.188.2.288.3H118v-4.849Zm7.553,4.546H97.69v-4.243h2.373Zm2.879,0h-2.373v-4.243h2.373Zm2.879,0h-2.373v-4.243h2.373Zm2.879,0h-2.373v-4.243H108.7Zm2.879,0h-2.373v-4.243h2.373Zm2.879,0h-2.373v-4.243h2.373Zm3.031,0h-2.525v-4.243h2.525Z" transform="translate(-83.811 -475.998)" fill="#6c63ff" opacity="0.1"/>
    <path id="Path_1398" data-name="Path 1398" d="M144.87,703.39c.273.155.549.3.827.452v-.148h2.373v1.34l.506.23v-1.57h2.373v2.573l.506.194v-2.767h2.525v3.637l.506.158v-4.1Z" transform="translate(-120.301 -508.37)" fill="#6c63ff" opacity="0.1"/>
    <path id="Path_1399" data-name="Path 1399" d="M458.991,286.148s-7.225-.436-6.365,4.625a1.237,1.237,0,0,0,.643,1.3s0-.376.74-.249a3.38,3.38,0,0,0,.785.036,1.634,1.634,0,0,0,.961-.394h0s2.031-.84,2.822-4.158c0,0,.582-.724.561-.909l-1.212.521a2.181,2.181,0,0,1,.091,1.609s-.039-1.576-.276-1.54c-.045,0-.633.3-.633.3a3.6,3.6,0,0,1,.176,2.646s.206-1.885-.4-2.534l-.879.506a3.779,3.779,0,0,1,.27,2.873s.148-1.979-.449-2.749l-.779.606a3.683,3.683,0,0,1,.3,2.631s-.064-2.306-.476-2.482a4.678,4.678,0,0,0-.785.849s.539,1.13.206,1.728c0,0-.206-1.534-.376-1.543a5.107,5.107,0,0,0-.746,1.715,3.693,3.693,0,0,1,.582-1.819,2.037,2.037,0,0,0-1.036.536s.106-.718,1.212-.782a4.73,4.73,0,0,1,.712-.818,4.466,4.466,0,0,0-1.758.2,1.974,1.974,0,0,1,1.958-.37l.767-.627a6.317,6.317,0,0,0-2.049.021,2.466,2.466,0,0,1,2.255-.164l.836-.5a7.633,7.633,0,0,0-1.958-.17,3,3,0,0,1,2.2.036l.606-.27s-.909-.176-1.161-.2-.279-.1-.279-.1a3.115,3.115,0,0,1,1.688.188A7.628,7.628,0,0,0,458.991,286.148Z" transform="translate(-334.733 -217.58)" fill="#6c63ff" opacity="0.1"/>
    <path id="Path_1400" data-name="Path 1400" d="M409.834,367.3s-2.47,6.8,2.628,7.422a1.233,1.233,0,0,0,1.427-.245s-.355-.118-.027-.782a3.452,3.452,0,0,0,.261-.74,1.64,1.64,0,0,0-.109-1.034h0s-.227-2.185-3.185-3.885c0,0-.527-.767-.712-.8l.152,1.318a2.184,2.184,0,0,1,1.57.37s-1.515-.409-1.555-.173c0,.045.112.694.112.694a3.589,3.589,0,0,1,2.585.582s-1.752-.733-2.543-.336l.236.964a3.8,3.8,0,0,1,2.831.558,5.391,5.391,0,0,0-2.764-.349l.361.909a3.76,3.76,0,0,1,2.61.452s-2.231-.606-2.513-.249a4.771,4.771,0,0,0,.588.991s1.24-.194,1.715.3c0,0-1.531-.239-1.585-.082a5.226,5.226,0,0,0,1.434,1.212,3.71,3.71,0,0,1-1.573-1.076,2.037,2.037,0,0,0,.221,1.149s-.661-.3-.409-1.379a4.64,4.64,0,0,1-.582-.909,4.4,4.4,0,0,0-.3,1.743,1.976,1.976,0,0,1,.2-1.982l-.382-.909a6.135,6.135,0,0,0-.564,1.973,2.5,2.5,0,0,1,.485-2.212l-.239-.943a7.557,7.557,0,0,0-.718,1.818,2.994,2.994,0,0,1,.658-2.1l-.088-.649s-.424.812-.524,1.058-.176.236-.176.236a3.116,3.116,0,0,1,.658-1.567A7.655,7.655,0,0,0,409.834,367.3Z" transform="translate(-304.543 -274.101)" fill="#6c63ff" opacity="0.1"/>
    <path id="Path_1401" data-name="Path 1401" d="M567.867,348.374s-2.467,6.813,2.628,7.419a1.237,1.237,0,0,0,1.431-.249s-.358-.118-.027-.779a3.242,3.242,0,0,0,.258-.743,1.64,1.64,0,0,0-.106-1.034h0s-.227-2.185-3.185-3.885c0,0-.53-.764-.715-.794l.155,1.315a2.193,2.193,0,0,1,1.57.373s-1.515-.409-1.558-.176c0,.048.112.694.112.694a3.614,3.614,0,0,1,2.588.582s-1.752-.73-2.546-.336l.239.967a3.781,3.781,0,0,1,2.831.558s-1.858-.7-2.767-.352l.361.909a3.76,3.76,0,0,1,2.609.452s-2.228-.606-2.513-.245a4.68,4.68,0,0,0,.606.991s1.237-.2,1.715.3c0,0-1.531-.239-1.585-.079a5.249,5.249,0,0,0,1.431,1.212,3.676,3.676,0,0,1-1.57-1.076,2.051,2.051,0,0,0,.218,1.149s-.658-.3-.406-1.376a4.879,4.879,0,0,1-.585-.909,4.469,4.469,0,0,0-.3,1.743,1.974,1.974,0,0,1,.2-1.982l-.382-.909a6.135,6.135,0,0,0-.564,1.97,2.492,2.492,0,0,1,.485-2.209l-.242-.946a7.556,7.556,0,0,0-.718,1.818,3.009,3.009,0,0,1,.661-2.1L568.1,350s-.424.812-.527,1.058-.176.236-.176.236a3.137,3.137,0,0,1,.661-1.567A7.45,7.45,0,0,0,567.867,348.374Z" transform="translate(-414.68 -260.908)" fill="#6c63ff" opacity="0.1"/>
    <path id="Path_1402" data-name="Path 1402" d="M341.964,531.868s-2.47,6.8,2.628,7.425a1.231,1.231,0,0,0,1.427-.248s-.355-.118-.027-.779a3.264,3.264,0,0,0,.261-.743,1.619,1.619,0,0,0-.109-1.034h0s-.227-2.185-3.185-3.883c0,0-.527-.767-.712-.8l.152,1.315a2.191,2.191,0,0,1,1.57.373s-1.515-.409-1.555-.176c0,.048.112.694.112.694a3.605,3.605,0,0,1,2.585.582s-1.752-.73-2.543-.336l.236.967a3.781,3.781,0,0,1,2.831.558,5.382,5.382,0,0,0-2.764-.352l.361.909a3.76,3.76,0,0,1,2.61.452s-2.228-.606-2.513-.246a4.774,4.774,0,0,0,.588.991s1.24-.2,1.718.3c0,0-1.534-.239-1.588-.079a5.281,5.281,0,0,0,1.434,1.212,3.689,3.689,0,0,1-1.573-1.073,2.028,2.028,0,0,0,.221,1.146s-.661-.3-.409-1.376a4.883,4.883,0,0,1-.582-.909,4.41,4.41,0,0,0-.3,1.743,1.974,1.974,0,0,1,.2-1.982l-.382-.909a6.074,6.074,0,0,0-.561,1.97,2.492,2.492,0,0,1,.485-2.209l-.242-.943a7.5,7.5,0,0,0-.718,1.818,2.991,2.991,0,0,1,.658-2.1l-.088-.652s-.424.812-.524,1.058-.176.236-.176.236a3.1,3.1,0,0,1,.661-1.567A7.727,7.727,0,0,0,341.964,531.868Z" transform="translate(-257.243 -388.793)" fill="#6c63ff" opacity="0.1"/>
    <path id="Path_1403" data-name="Path 1403" d="M309.627,320.271s-2.467,6.8,2.628,7.422a1.24,1.24,0,0,0,1.431-.245s-.358-.118-.027-.782a3.4,3.4,0,0,0,.258-.743,1.63,1.63,0,0,0-.106-1.03h0s-.227-2.185-3.188-3.885c0,0-.527-.767-.712-.8l.155,1.318a2.176,2.176,0,0,1,1.567.37s-1.515-.409-1.555-.173c0,.045.112.694.112.694a3.6,3.6,0,0,1,2.588.582s-1.752-.733-2.546-.336l.236.964a3.789,3.789,0,0,1,2.834.558s-1.858-.7-2.767-.349l.361.909a3.75,3.75,0,0,1,2.609.455s-2.228-.606-2.513-.249a4.769,4.769,0,0,0,.588.991s1.24-.194,1.718.3c0,0-1.531-.239-1.585-.082a5.194,5.194,0,0,0,1.431,1.212,3.728,3.728,0,0,1-1.573-1.076,2.037,2.037,0,0,0,.221,1.149s-.661-.3-.406-1.379a4.781,4.781,0,0,1-.585-.909,4.455,4.455,0,0,0-.3,1.743,1.967,1.967,0,0,1,.2-1.982l-.385-.909a6.074,6.074,0,0,0-.561,1.973,2.5,2.5,0,0,1,.485-2.212l-.242-.943a7.555,7.555,0,0,0-.718,1.818,3.013,3.013,0,0,1,.658-2.1l-.085-.649s-.427.812-.527,1.055-.176.239-.176.239a3.1,3.1,0,0,1,.661-1.567A7.416,7.416,0,0,0,309.627,320.271Z" transform="translate(-234.708 -241.324)" fill="#6c63ff" opacity="0.1"/>
    <path id="Path_1404" data-name="Path 1404" d="M371.44,442.091s1.906,6.971,6.428,4.546a1.234,1.234,0,0,0,1.024-1.024s-.358.109-.47-.621a3.332,3.332,0,0,0-.218-.755,1.6,1.6,0,0,0-.682-.782h0s-1.446-1.655-4.849-1.34c0,0-.873-.318-1.043-.236l.885.985a2.213,2.213,0,0,1,1.5-.606s-1.482.546-1.373.755c.024.042.491.5.491.5a3.58,3.58,0,0,1,2.449-1.018s-1.852.412-2.27,1.194l.749.652a3.8,3.8,0,0,1,2.637-1.179s-1.925.5-2.464,1.309l.824.543a3.665,3.665,0,0,1,2.394-1.134s-2.164.8-2.2,1.246a4.725,4.725,0,0,0,1.055.47s.909-.873,1.573-.749c0,0-1.391.688-1.343.849a5.394,5.394,0,0,0,1.864.158,3.7,3.7,0,0,1-1.9.03,2.018,2.018,0,0,0,.843.809s-.715.13-1.127-.891a4.8,4.8,0,0,1-1.006-.409,4.48,4.48,0,0,0,.758,1.6,1.977,1.977,0,0,1-.979-1.737l-.84-.524a6.351,6.351,0,0,0,.676,1.934,2.494,2.494,0,0,1-.879-2.085l-.74-.63a7.576,7.576,0,0,0,.467,1.909,3.038,3.038,0,0,1-.673-2.1l-.446-.482s.121.909.179,1.167,0,.3,0,.3a3.113,3.113,0,0,1-.364-1.661A7.575,7.575,0,0,0,371.44,442.091Z" transform="translate(-278.203 -326.109)" fill="#6c63ff" opacity="0.1"/>
    <path id="Path_1405" data-name="Path 1405" d="M542.08,462.666s1.906,6.971,6.425,4.546a1.23,1.23,0,0,0,1.027-1.024s-.361.109-.473-.606a3.18,3.18,0,0,0-.215-.755,1.625,1.625,0,0,0-.685-.782h0s-1.446-1.655-4.849-1.337c0,0-.873-.321-1.04-.239l.882.985a2.213,2.213,0,0,1,1.5-.606s-1.482.546-1.37.755c.021.042.491.5.491.5a3.58,3.58,0,0,1,2.449-1.018s-1.855.412-2.273,1.194l.752.652a3.751,3.751,0,0,1,2.634-1.179s-1.922.5-2.461,1.309l.824.542a3.664,3.664,0,0,1,2.391-1.133s-2.164.8-2.194,1.246a4.686,4.686,0,0,0,1.052.47s.909-.873,1.573-.749c0,0-1.388.688-1.343.849a5.4,5.4,0,0,0,1.867.158,3.713,3.713,0,0,1-1.906.03,2.04,2.04,0,0,0,.843.809s-.715.13-1.128-.891a4.723,4.723,0,0,1-1-.409,4.452,4.452,0,0,0,.755,1.6,1.977,1.977,0,0,1-.979-1.737l-.84-.53a6.3,6.3,0,0,0,.679,1.934,2.494,2.494,0,0,1-.879-2.085l-.743-.63a7.48,7.48,0,0,0,.47,1.909,3.03,3.03,0,0,1-.676-2.1l-.445-.482s.121.909.179,1.167,0,.3,0,.3a3.113,3.113,0,0,1-.364-1.661A7.618,7.618,0,0,0,542.08,462.666Z" transform="translate(-397.125 -340.459)" fill="#6c63ff" opacity="0.1"/>
    <path id="Path_1406" data-name="Path 1406" d="M450.141,626.891s15.724-5.295,12.469-24.055l-19.973-5.186L438,613.043Z" transform="translate(-324.59 -434.678)" fill="#ced7e7"/>
    <path id="Path_1407" data-name="Path 1407" d="M438,624.968l12.138,13.848s15.724-5.295,12.469-24.055Z" transform="translate(-324.59 -446.602)" opacity="0.1"/>
    <path id="Path_1408" data-name="Path 1408" d="M219.949,180.11s2.122,3.452,5.022,1.728.118-6.489.118-6.489S219.534,174.588,219.949,180.11Z" transform="translate(-172.61 -140.343)" fill="#fed253"/>
    <path id="Path_1409" data-name="Path 1409" d="M224.971,181.841a2.991,2.991,0,0,1-2.337.394,4.711,4.711,0,0,1-2.322-1.625,5.059,5.059,0,0,1-.364-.494,4.191,4.191,0,0,1,1.312-3.834h0a5.343,5.343,0,0,1,3.479-.958,1.579,1.579,0,0,1,.339.03l.058.1c.082.155.261.5.452.955C226.238,177.907,227.011,180.626,224.971,181.841Z" transform="translate(-172.61 -140.347)" opacity="0.1"/>
    <path id="Path_1410" data-name="Path 1410" d="M462.461,611.85l10.911.882,20.306.167-16,19.7s-5.077.276-6.122.991-15.727.333-15.727.333l-2.37-10.1Z" transform="translate(-335.364 -444.574)" fill="#ffa2a2"/>
    <path id="Path_1411" data-name="Path 1411" d="M462.461,611.85l10.911.882,20.306.167-16,19.7s-5.077.276-6.122.991-15.727.333-15.727.333l-2.37-10.1Z" transform="translate(-335.364 -444.574)" opacity="0.05"/>
    <path id="Path_1412" data-name="Path 1412" d="M421.375,436.107l2.537,4.3.552,7.5s1.767,6.4,3.091,8.274,1.876,6.844,1.876,6.844.552,4.634,1.212,5.625,1.546,8.183,1.546,8.183,5.849,11.7,11.144,13.129c0,0-26.262,8.608-12.469,24.055,0,0-9.82,2.425-12.138-.33s-8.386-43.586-8.386-43.586l1.876-34.43Z" transform="translate(-305.313 -321.798)" fill="#ced7e7"/>
    <path id="Path_1413" data-name="Path 1413" d="M421.375,436.107l2.537,4.3.552,7.5s1.767,6.4,3.091,8.274,1.876,6.844,1.876,6.844.552,4.634,1.212,5.625,1.546,8.183,1.546,8.183,5.849,11.7,11.144,13.129c0,0-26.262,8.608-12.469,24.055,0,0-9.82,2.425-12.138-.33s-8.386-43.586-8.386-43.586l1.876-34.43Z" transform="translate(-305.313 -321.798)" opacity="0.05"/>
    <path id="Path_1414" data-name="Path 1414" d="M267.859,255.331a23.641,23.641,0,0,0,.636,11.487l-4.086,11.7s-31.117-17.324-28.468-21.519c1.5-2.379,1.691-8.674,1.57-13.675-.088-3.8-.358-6.85-.358-6.85s38.188,3.755,33.105,12.472A20.576,20.576,0,0,0,267.859,255.331Z" transform="translate(-183.66 -182.964)" fill="#ffa2a2"/>
    <path id="Path_1415" data-name="Path 1415" d="M273.415,248.942a20.575,20.575,0,0,0-2.4,6.389,25.747,25.747,0,0,1-30.347-12.011c-.088-3.8-.358-6.85-.358-6.85S278.489,240.225,273.415,248.942Z" transform="translate(-186.815 -182.964)" opacity="0.1"/>
    <path id="Path_1416" data-name="Path 1416" d="M282.257,156.614a25.713,25.713,0,1,1-46.693-14.851q.546-.767,1.149-1.5a25.72,25.72,0,0,1,8.368-6.668h0a25.259,25.259,0,0,1,5.5-1.994,25.624,25.624,0,0,1,31.675,25.01Z" transform="translate(-180.209 -109.398)" fill="#ffa2a2"/>
    <path id="Path_1417" data-name="Path 1417" d="M181.485,365.307c-.385,2.055.1,5.81.827,9.632.03.167.064.333.1.5s.082.424.124.633c.336,1.643.7,3.27,1.061,4.749s.679,2.746.952,3.789c.412,1.561.694,2.543.694,2.543s.036.964.085,2.5c.027.885.058,1.964.088,3.155,0,.346.021.7.03,1.061.015.633.03,1.291.045,1.964,0,.218,0,.436.015.658,0,.724.027,1.464.039,2.2.015,1.012.027,2.025.033,3.007v3.776a22.3,22.3,0,0,1-.327,4.634c-.07.176-.133.367-.194.567a19.164,19.164,0,0,0-.57,2.87l-.515-.421c-.985-.812-1.961-1.643-2.952-2.449a42.915,42.915,0,0,0-5.231-3.752c-.124-.073-.249-.145-.376-.215-.339-.2-.685-.382-1.037-.558a23.733,23.733,0,0,0-2.225-.982,29.138,29.138,0,0,0-11.05-1.737c-1.515.579-2.5.994-2.5.994l-1.928.582-.321.1c-2.088.636-5.025,1.54-6.083,1.915-1.709.606-16.551,3.695-16.551,3.695a24.657,24.657,0,0,1-4.14.758,58.448,58.448,0,0,1-7.762,1.625,43.249,43.249,0,0,1-17.764-1.431,2.91,2.91,0,0,1-.515-.015,1.588,1.588,0,0,0,.3-.042l-.37-.109-.506-.158q-1.273-.4-2.525-.876l-.506-.194q-1.212-.467-2.373-1l-.506-.23q-1.212-.564-2.373-1.191c-.279-.145-.555-.3-.827-.452q-1.237-.691-2.425-1.449c-.133-1.143-.2-1.906-.2-1.906l-1.182-5.886-.061-.3-.849-4.243-.061-.3-1.846-9.232-.061-.3-.849-4.243-.061-.3L84.387,370l-.061-.3-.849-4.243-.061-.3L81.562,355.9l-.061-.3-.849-4.228-.061-.3-.336-1.667-.506-2.525s-1.615-2.309-3.434-5.04l-.2-.3c-.518-.767-1.052-1.564-1.57-2.346-.173-.258-.339-.512-.506-.764q-.379-.573-.733-1.118l-.164-.252L73.106,337c-2.613-4.043-.864-5.8-.864-5.8s1.1-1.485,2.513-3.449c.07-.1.142-.2.218-.3.606-.849,1.273-1.776,1.928-2.7l.506-.721c.191-.27.379-.54.561-.806.073-.1.142-.2.209-.3a35.858,35.858,0,0,0,2.785-4.4c.37-.985,2.728-3.9,5.077-6.453a26.753,26.753,0,0,1,4.522-4.243c1.876-.991,2.649-4.195,2.649-4.195s4.082-1.431,4.634-2.534,8.277-6.062,8.277-6.062a40.83,40.83,0,0,0,4.389-3.225,2.585,2.585,0,0,0,.464-.543c.439-.788,3.31-1.437,4.476-1.67.3-.061.491-.094.491-.094a9.878,9.878,0,0,1,1.767-2.319,10.626,10.626,0,0,0,1.57-3.279c.543-1.534.964-3.01.964-3.01.885-2.979,2.649-2.1,2.649-2.1a6.062,6.062,0,0,0,.115,1.212h0c.736,3.637,4.737,5.152,6.837,6.853,2.319,1.873,5.959,6.731,8.829,7.722,2.376.821,5.131,3.919,6,4.952l.067.079c.145.17.218.267.218.267s1.628-.085,2.619-.1h.361a1.055,1.055,0,0,0,.552-.224c.985-.67,2.452-2.634,3.091-3.085.77-.555,1.546-9.492,1.546-9.492l.039-.018c2.749-1.288,5.7,11.6,5.7,11.6s5.186,1.546,5.628,2.649a3.963,3.963,0,0,0,1.064,1.076,58.312,58.312,0,0,0,8.517,5.41c.067.033.13.067.2.094a2.021,2.021,0,0,0,.185.088c.112.055.221.1.324.148q.245.109.455.182l.182.064a4.383,4.383,0,0,1,1.212.627c.109.079.218.161.324.249a8.566,8.566,0,0,1,1.134,1.14c.051.061.1.124.148.185h0a10.184,10.184,0,0,1,.606.837,12.391,12.391,0,0,1,.761,1.267s4.522,7.726,5.959,8.6S187.88,331,187.88,331h0l-4.849,17.976s-.227,4.546-.652,9.183C182.142,360.758,181.842,363.4,181.485,365.307Z" transform="translate(-69.286 -212.373)" fill="#ced7e7"/>
    <path id="Path_1418" data-name="Path 1418" d="M282.791,337.24A17.645,17.645,0,0,1,277,339.171a4.776,4.776,0,0,1-.994-.058,25.566,25.566,0,0,1-6.565-2.591l4.58-5.022,5.571,2.761,2.049,1.906Z" transform="translate(-207.117 -249.193)" fill="#63667e"/>
    <path id="Path_1419" data-name="Path 1419" d="M281.936,152.509a3.05,3.05,0,0,1-.391.452c-1.594,1.515-4.425.888-6.6.536a24.028,24.028,0,0,1-5.495-1.588c-1.534-.655-3.373-1.455-4.752-.515-.53.358-.894.93-1.446,1.246a3.981,3.981,0,0,1-1.906.346,27.835,27.835,0,0,1-6.313-.455c-3.088-.721-6.283-2.537-9.22-1.34-2.3.933-3.543,3.434-4.164,5.837a10.561,10.561,0,0,1-1.212,3.425,2.764,2.764,0,0,1-3.137,1.24c-1.664-.694-1.909-3.519-3.916-3.661-2.2-.155-2.176,2.122-1.534,3.767.952,2.425,2.2,4.849,2.252,7.377a25.728,25.728,0,0,1,1.467-27.411,2.77,2.77,0,0,0,1.094-1.279,1.913,1.913,0,0,0,.055-.218c.167-.846-.3-1.734-.33-2.619-.106-2.161,2.234-3.667,4.38-3.94,1.427-.182,2.888-.042,4.319-.088h0a9.772,9.772,0,0,0,2.137-.285,10.278,10.278,0,0,0,3.334-1.712,25.762,25.762,0,0,1,31.36,20.891Z" transform="translate(-180.215 -109.412)" opacity="0.1"/>
    <path id="Path_1420" data-name="Path 1420" d="M277.026,140.573a3.334,3.334,0,0,1-.909,1.576c-1.594,1.515-4.425.885-6.6.533a23.728,23.728,0,0,1-5.495-1.576c-1.534-.652-3.373-1.452-4.752-.512-.53.358-.894.93-1.446,1.246a3.943,3.943,0,0,1-1.906.342,26.992,26.992,0,0,1-6.313-.452c-3.088-.724-6.283-2.537-9.22-1.343-2.3.933-3.543,3.437-4.164,5.84a10.52,10.52,0,0,1-1.212,3.422,2.77,2.77,0,0,1-3.137,1.243c-1.664-.694-1.909-3.519-3.916-3.661-2.2-.155-2.176,2.122-1.534,3.767,1.127,2.87,2.661,5.725,2.158,8.768-.5,0-1.327-.018-1.818-.03.382-.652-.346-1.428-1.07-1.649s-1.57-.218-2.122-.746a2.487,2.487,0,0,1-.5-2.073,14.266,14.266,0,0,1,1.13-4.528,4.2,4.2,0,0,0,.606-2.846,8.085,8.085,0,0,0-.655-1.24,4.734,4.734,0,0,1,.058-3.979c.23-.533.4-1.037.588-1.515a6.74,6.74,0,0,1,1.034-1.888c.694-.864,1.373-2.164.606-2.967-.194-.2.194-.342.07-.606a.517.517,0,0,1-.045-.142,1.376,1.376,0,0,1,.218-.909,2.209,2.209,0,0,1,.118-.2,1.724,1.724,0,0,1,.118-.2,9.635,9.635,0,0,1,2.622-2.858c.658-.476,1.428-.933,1.688-1.7.3-.909-.23-1.876-.276-2.837-.106-2.161,2.234-3.667,4.38-3.94s4.37.179,6.462-.376c2.967-.782,5.052-3.4,7.747-4.87a10.969,10.969,0,0,1,9.638-.346c3.146,1.437,5.519,4.34,8.8,5.431a16.192,16.192,0,0,1,3.473,1.185,7.64,7.64,0,0,1,2.579,3.334c.961,1.949,1.155,3.907,1.818,5.971a22.134,22.134,0,0,1,1.318,5.662,5.674,5.674,0,0,1-.149,1.676Z" transform="translate(-174.787 -99.26)" fill="#896363"/>
    <g id="Group_1583" data-name="Group 1583" transform="translate(48.353 27.038)" opacity="0.1">
      <path id="Path_1421" data-name="Path 1421" d="M234.712,181.1a1.349,1.349,0,0,0-.227-1.134c.079.236-.264.373-.076.57A1.212,1.212,0,0,1,234.712,181.1Z" transform="translate(-231.016 -170.626)"/>
      <path id="Path_1422" data-name="Path 1422" d="M234.614,177.68h0a1.253,1.253,0,0,0-.064.327C234.608,177.91,234.686,177.81,234.614,177.68Z" transform="translate(-231.154 -169.03)"/>
      <path id="Path_1423" data-name="Path 1423" d="M283.275,192.853c-1.6,1.515-4.425.888-6.6.533a23.568,23.568,0,0,1-5.489-1.585c-1.537-.655-3.373-1.455-4.755-.515-.527.358-.891.93-1.446,1.246a3.95,3.95,0,0,1-1.906.342,27.7,27.7,0,0,1-6.316-.455c-3.085-.721-6.28-2.531-9.217-1.34-2.3.937-3.543,3.437-4.164,5.84a10.492,10.492,0,0,1-1.212,3.425,2.773,2.773,0,0,1-3.137,1.243c-1.664-.7-1.909-3.519-3.916-3.661-1.567-.112-2,1.009-1.9,2.255a1.593,1.593,0,0,1,1.9-1.594c2.006.142,2.252,2.967,3.916,3.661a2.759,2.759,0,0,0,3.137-1.243,10.622,10.622,0,0,0,1.212-3.422c.621-2.4,1.867-4.907,4.164-5.84,2.937-1.194,6.131.606,9.217,1.34a26.844,26.844,0,0,0,6.316.452,3.836,3.836,0,0,0,1.906-.339c.567-.321.909-.888,1.446-1.249,1.382-.937,3.219-.136,4.755.515a23.722,23.722,0,0,0,5.489,1.588c2.179.352,5.007.985,6.6-.536a4.165,4.165,0,0,0,1.07-3.334A3.818,3.818,0,0,1,283.275,192.853Z" transform="translate(-230.213 -177.742)"/>
      <path id="Path_1424" data-name="Path 1424" d="M249.435,149.14a3.218,3.218,0,0,0-.018.455c.03.63.27,1.261.346,1.876A9.433,9.433,0,0,0,249.435,149.14Z" transform="translate(-241.514 -149.14)"/>
      <path id="Path_1425" data-name="Path 1425" d="M226.709,212.4a2.235,2.235,0,0,1,.058.276,2.176,2.176,0,0,0-.058-.937,7.856,7.856,0,0,0-.655-1.243,3.743,3.743,0,0,1-.4-1.44,3.992,3.992,0,0,0,.4,2.1A7.7,7.7,0,0,1,226.709,212.4Z" transform="translate(-224.946 -190.899)"/>
      <path id="Path_1426" data-name="Path 1426" d="M237.368,254.986l-1.773-.027a.761.761,0,0,1-.055.661c.5,0,1.331.018,1.818.03a7.424,7.424,0,0,0,.088-1.57A7.1,7.1,0,0,1,237.368,254.986Z" transform="translate(-231.844 -222.275)"/>
      <path id="Path_1427" data-name="Path 1427" d="M225.968,246.892c-.724-.218-1.567-.221-2.106-.752a1.922,1.922,0,0,1-.5-1.27,2.386,2.386,0,0,0,.5,1.934c.539.53,1.382.533,2.106.752a1.8,1.8,0,0,1,1.1.909C227.375,247.837,226.671,247.1,225.968,246.892Z" transform="translate(-223.345 -215.856)"/>
    </g>
    <path id="Path_1428" data-name="Path 1428" d="M344.8,472.642c-.339-.2-.685-.382-1.037-.558a23.75,23.75,0,0,0-2.225-.982,29.139,29.139,0,0,0-11.05-1.737c-1.515.579-2.5.994-2.5.994l-1.928.582-.321.1c-.021-.212-.045-.424-.067-.639s-.045-.421-.07-.633c-.679-6.428-1.212-13.032-1.212-13.032v-6.368l-.036-16.806-.3-5.54-.142-2.452-.027-.467-.055-.958-.03-.57a5.118,5.118,0,0,1-.17-.552h0c-.021-.076-.042-.161-.061-.249-.076-.3-.158-.694-.242-1.118-.555-2.788-1.249-7.489-1.291-8.444-.055-1.273-1.158-8.886-1.158-8.886-.112-4.192-3.637-12.084-4.525-13.572s-1.879-10.429-1.546-10.911a13.96,13.96,0,0,0,.355-3.188c0-.161.015-.318.021-.473.045-1.1.067-2.019.067-2.019l3.467-.685.93-.182.073-.015.03.061c.1.185.412.776.779,1.552.042.082.082.17.124.258.018.042.039.085.061.127a13.346,13.346,0,0,1,1.431,4.564c-.055,1.988,2.209,6.789,2.209,6.789.218,1.1,5.019,12.081,5.019,12.081s3.919,10.759,3.7,12.526,1.876,13.463,1.876,13.463L337.1,436.73a71.1,71.1,0,0,1,2.425,7.832l.524,3.1.1.591,1.4,8.265.685,4.049s.288,2.152.724,4.546c.036.215.079.433.121.652a33.353,33.353,0,0,0,1.143,4.652,17.416,17.416,0,0,1,.585,2.228Z" transform="translate(-238.688 -278.31)" opacity="0.1"/>
    <path id="Path_1429" data-name="Path 1429" d="M345.948,472.843c-.124-.073-.249-.145-.376-.215-.339-.2-.685-.382-1.037-.558a23.761,23.761,0,0,0-2.225-.982,29.139,29.139,0,0,0-11.05-1.737c-1.515.579-2.5.994-2.5.994l-1.928.582c-.024-.212-.045-.424-.07-.64s-.042-.388-.061-.582c-.679-6.413-1.212-12.987-1.212-12.987V450.3l-.036-16.763-.3-5.292-.061-1.1-.042-.743-.055-.982-.055-1-.039-.718v-.158a.059.059,0,0,0-.021-.052c-.058-.164-.127-.412-.2-.727l-.036-.152c-.015-.07-.033-.145-.049-.221-.57-2.585-1.406-8.159-1.452-9.2-.055-1.273-1.158-8.886-1.158-8.886-.112-4.192-3.637-12.084-4.525-13.572s-1.876-10.429-1.546-10.911a17.622,17.622,0,0,0,.376-3.661v-.352c.039-.937.055-1.667.055-1.667l3.225-.636.818-.161.127-.024.3-.061s.4.733.873,1.743l.061.127a13.9,13.9,0,0,1,1.491,4.692c-.055,1.988,2.209,6.789,2.209,6.789.218,1.1,5.019,12.081,5.019,12.081s3.919,10.759,3.7,12.526,1.876,13.463,1.876,13.463l2.152,12.029a71.1,71.1,0,0,1,2.425,7.832l.488,2.885.1.585,1.1,6.522,1.015,6.01s.3,2.143.721,4.546c.039.218.079.436.121.658a33.536,33.536,0,0,0,1.143,4.674,18.487,18.487,0,0,1,.643,2.422Z" transform="translate(-239.457 -278.296)" fill="#63667e"/>
    <path id="Path_1430" data-name="Path 1430" d="M277.624,108.777s-1.158,1.491-2.2,1.491a32.754,32.754,0,0,1-7.238-.827c-2.122-.661-12.523-1.161-12.523-1.161s-14.73.055-15.227-.443-9.159-3.146-10.041-2.979c-.185.036-.636.115-1.24.215l-.691.112c-1.046.167-2.352.361-3.546.5a11.079,11.079,0,0,1-3.185.109v-1.27a17.251,17.251,0,0,0,1.818-3.2c.109-.712,1.546-11.038,5.3-14.733a14.79,14.79,0,0,1,7.116-6.668c5.077-2.209,10.153-4.082,10.153-4.082L247,75.72l2.864-.424a2.161,2.161,0,0,1,.282-.236c.794-.606,3.2-1.925,6.337.909l.555.885s9.653,2.261,14.12,10.15,4.692,15.615,5.022,19.146c0,0-.221.994.221,1.379a6.178,6.178,0,0,1,.458.449c.039.039.079.079.115.121.127.127.246.261.342.37a.142.142,0,0,1,.03.03.971.971,0,0,0,.076.082Z" transform="translate(-173.867 -69.888)" fill="#fed253"/>
    <path id="Path_1431" data-name="Path 1431" d="M294.239,171.767s-1.158,1.491-2.2,1.491a32.753,32.753,0,0,1-7.238-.827c-2.122-.661-12.523-1.161-12.523-1.161s-14.73.055-15.227-.442-9.159-3.146-10.041-2.979c-.185.036-.636.115-1.24.215l-.158-.97-.039-.239s16.718-3.585,27.862-1.706,19.367,3.97,19.367,3.97-.221.994.221,1.379a6.181,6.181,0,0,1,.458.449c.039.039.079.079.115.121.127.127.246.261.342.37a.142.142,0,0,1,.03.03,1,1,0,0,0,.076.082Z" transform="translate(-190.481 -132.879)" opacity="0.05"/>
    <path id="Path_1432" data-name="Path 1432" d="M274.877,181.413a43.651,43.651,0,0,1-7.532-.588c-.473-.07-.937-.155-1.4-.258-1.785-.388-7.274-1.476-10.608-.973-4.028.606-15.393-.5-15.393-.5a81.562,81.562,0,0,1-9.823-2.591,9.766,9.766,0,0,0-4.48-.349,12.469,12.469,0,0,0-1.3.233c-2.346.555-4.325,1.818-3.982,3.973a5.061,5.061,0,0,1-.364-.494,4.191,4.191,0,0,1,1.312-3.834h0l.2-.082a24.473,24.473,0,0,1,3.158-.676c.167-.027.339-.052.515-.073,3.016-.406,7.377-.5,11.056,1.355a17.6,17.6,0,0,0,5.737,1.6c2.319,0,21.185.167,25.6,1.434a18.8,18.8,0,0,0,2.682.567,10.911,10.911,0,0,0,4.789-.452,5.674,5.674,0,0,1-.164,1.7Z" transform="translate(-172.638 -140.1)" opacity="0.1"/>
    <path id="Path_1433" data-name="Path 1433" d="M277.624,177.428s-1.158,1.491-2.2,1.491a32.755,32.755,0,0,1-7.238-.827c-2.122-.661-12.523-1.161-12.523-1.161s-14.73.055-15.227-.443-9.159-3.146-10.041-2.979c-.185.036-.636.115-1.24.215l-.691.112a12.305,12.305,0,0,0-3.546.5,11.079,11.079,0,0,1-3.185.109V174.2a7.276,7.276,0,0,1,.991-.479,26.8,26.8,0,0,1,6.274-.976,17.534,17.534,0,0,1,8.459,1.582,17.6,17.6,0,0,0,5.737,1.6c2.319,0,21.185.164,25.6,1.434a19.187,19.187,0,0,0,2.682.564,11.153,11.153,0,0,0,5.846-.84.143.143,0,0,1,.03.03,1,1,0,0,0,.076.082Z" transform="translate(-173.867 -138.54)" opacity="0.1"/>
    <path id="Path_1434" data-name="Path 1434" d="M218.254,179.543s-3.7-2.816,1.1-4.692c0,0,8.386-2.591,14.733.606a17.645,17.645,0,0,0,5.737,1.6c2.319,0,21.185.167,25.6,1.437a19.1,19.1,0,0,0,2.682.564,11.417,11.417,0,0,0,6.81-1.294c.3-.167.576-.252.658-.155.276.333.058,2.264-2.37,2.649-1.894.3-6.2-.27-8.007-.533-.47-.07-.937-.158-1.4-.258-1.785-.388-7.274-1.476-10.623-.973-4.025.606-15.393-.5-15.393-.5a81.15,81.15,0,0,1-9.82-2.594C225.149,174.239,217.205,175.239,218.254,179.543Z" transform="translate(-170.497 -139.33)" fill="#fed253"/>
    <path id="Path_1435" data-name="Path 1435" d="M310.926,82.407c-.3-.436-4.2-3.555-5.786-4.816L308,77.166a2.16,2.16,0,0,1,.282-.236A11.847,11.847,0,0,1,310.926,82.407Z" transform="translate(-231.997 -71.778)" opacity="0.1"/>
    <path id="Path_1436" data-name="Path 1436" d="M215.8,89.375l-1.27,1.876,4.855-.164.109-2.1Z" transform="translate(-149.503 -62.019)" opacity="0.1"/>
    <path id="Path_1437" data-name="Path 1437" d="M316.47,97.73l.552,1.709,3.091.5-1.324-2.043Z" transform="translate(-220.547 -68.11)" opacity="0.1"/>
    <path id="Path_1438" data-name="Path 1438" d="M205.18,347c.33.552,11.2,14.851,14.069,14.454S205.18,347,205.18,347Z" transform="translate(-162.333 -259.995)" opacity="0.1"/>
    <path id="Path_1439" data-name="Path 1439" d="M325.33,390.12s2.649,2.54,2.261,3.531S325.33,390.12,325.33,390.12Z" transform="translate(-246.068 -290.046)" opacity="0.1"/>
    <path id="Path_1440" data-name="Path 1440" d="M226.593,447.65s-2.319,10.868-1.1,11.214S226.593,447.65,226.593,447.65Z" transform="translate(-176.241 -330.14)" opacity="0.1"/>
    <path id="Path_1441" data-name="Path 1441" d="M328.24,586.91c.385,1.1,3.585,8.277,4.3,8.662S328.24,586.91,328.24,586.91Z" transform="translate(-248.096 -427.193)" opacity="0.1"/>
    <path id="Path_1442" data-name="Path 1442" d="M445.534,489.7c-.112.385-2.87,2.649-2.264,3.476S445.534,489.7,445.534,489.7Z" transform="translate(-328.202 -359.445)" opacity="0.1"/>
    <path id="Path_1443" data-name="Path 1443" d="M379.855,556.14c-.055.279-.606,6.062.442,7.174S379.855,556.14,379.855,556.14Z" transform="translate(-283.932 -405.749)" opacity="0.1"/>
    <path id="Path_1444" data-name="Path 1444" d="M268.386,615.174c-.8.445-1.628.876-2.47,1.288-.909.442-1.818.864-2.746,1.261-.37.161-.74.318-1.106.47q-.837.346-1.655.664c-1.658.649-3.255,1.212-4.677,1.688-.552.185-1.079.355-1.57.512-2.473.785-4.116,1.212-4.116,1.212a4.459,4.459,0,0,0-1.143-.094h-.327a14.4,14.4,0,0,0-1.531.194A70.633,70.633,0,0,0,236,625.788c-1.515.579-2.5.994-2.5.994l-1.928.582-.321.1c-2.088.636-5.025,1.54-6.083,1.915-1.709.606-16.551,3.695-16.551,3.695a24.654,24.654,0,0,1-4.14.758,75.558,75.558,0,0,1-10.371.236c-3.473.224-9.092-.54-12.363-1.055l-.521-.082c-1.264-.206-2.067-.355-2.067-.355l.424-.585,8.7-12,.052-.073,8.107-11.181.3-.406.736-1.015s.443-.606,2.146-.646h.658a17.767,17.767,0,0,1,4.2.858l.394.118c5.871,1.682,14.945,1.261,14.945,1.261s5.646-.909,10.083-1.455l.33-.042a40.7,40.7,0,0,1,4.373-.379c2.7.055,8.553-1.379,8.553-1.379a5.7,5.7,0,0,0,2.5-1l.3-.218c.3-.227.652-.506,1.1-.852.818-.627,1.967-1.479,3.773-2.673.158-.1.324-.206.5-.3s.406-.227.624-.336a23.666,23.666,0,0,1,5.492-1.818,32.188,32.188,0,0,1,4.78-.658h.239c4.546-.242,9.189.536,11.9,3.091a7.453,7.453,0,0,1,1.231,1.515,6.906,6.906,0,0,1,.442.824,7.732,7.732,0,0,1,.549,1.7q.033.164.055.327v.1c0,.088.018.176.024.264C276.921,609.228,273.156,612.507,268.386,615.174Z" transform="translate(-144.192 -434.742)" opacity="0.1"/>
    <path id="Path_1445" data-name="Path 1445" d="M179.15,630.369s9.82,1.818,14.951,1.488c0,0,9.435.5,14.511-.991,0,0,14.851-3.091,16.551-3.7s8.332-2.594,8.332-2.594,12.911-5.407,16.551-4.525c0,0,28.58-7.392,26.538-17.379s-20.082-7.722-25.762-3.973-4.849,4.14-7.668,4.746c0,0-5.849,1.434-8.553,1.379s-14.787,1.876-14.787,1.876-9.489.443-15.336-1.379-7.007-.221-7.007-.221Z" transform="translate(-144.192 -433.189)" fill="#ffa2a2"/>
    <path id="Path_1446" data-name="Path 1446" d="M139.186,469.058a.15.15,0,0,1,0,.036,2.046,2.046,0,0,1-.173.652c-1.164,2.855-7.771,10.556-7.771,10.556a21.1,21.1,0,0,1-1.088,2.673,41,41,0,0,1-3.137,5.319,72.025,72.025,0,0,1-5.707,7.234h-.015a8.653,8.653,0,0,1-.815.536,6.746,6.746,0,0,1-2.791,1.012,2.907,2.907,0,0,1-.515-.015,1.593,1.593,0,0,0,.3-.042l-.37-.109-.506-.158q-1.273-.4-2.525-.876l-.506-.194q-1.212-.467-2.373-1l-.506-.23q-1.212-.564-2.373-1.191c-.279-.146-.555-.3-.827-.452q-1.237-.691-2.425-1.449-1.261-.8-2.467-1.676c-.606-1.124-1.106-2.122-1.379-2.658a7.393,7.393,0,0,1-.479-3.458,1.647,1.647,0,0,1,.018-.3c.052-.649.13-1.094.13-1.094a15.581,15.581,0,0,1-1.212-1.891,2.225,2.225,0,0,1-.339-1.088,1.291,1.291,0,0,0-.042-.461,10.751,10.751,0,0,0-2.164-3.637c-.691-.761-.733-3.6-.667-5.619.039-1.212.115-2.1.115-2.1a.706.706,0,0,1-.288-.373,9.007,9.007,0,0,1-.491-2.055,2.143,2.143,0,0,0-.042-.3c-.194-1.391-.282-2.788-.282-2.788a10.571,10.571,0,0,1-3.807-6.456l-.064-.3a19.094,19.094,0,0,1-.346-4.243v-.379s.3-6.568,1.127-9.132c.033-.109.07-.209.106-.3a2.271,2.271,0,0,1,.236-.458,5.645,5.645,0,0,0,.7-2.064c.124-.624.227-1.318.3-2.009.07-.576.124-1.149.167-1.679.118-1.418.155-2.525.155-2.525l-.561-2.764c-.155-.755-.273-1.515-.355-2.276a2.665,2.665,0,0,0-.036-.3,25.613,25.613,0,0,1-.076-4.228,1.679,1.679,0,0,1,.018-.3,25.626,25.626,0,0,1,2.473-9.244l.152-.3q.3-.606.636-1.191c.161-.288.33-.573.506-.855a25,25,0,0,1,1.515-2.185c.079-.1.161-.2.242-.3a24.7,24.7,0,0,1,3.14-3.237c3.061-2.631,5.871-3.773,8.423-3.861,11.159-.394,17.418,19.343,18.43,22.8.1.333.145.515.145.515s4.522,4.525,3.2,6.51a3.416,3.416,0,0,0-.458,1.431c-.364,2.67.679,7.068.679,7.068s.37,1.212,1.449,4.116l.318.849a17.429,17.429,0,0,1,.446,7.6c-.373,2.619-1.249,4.934-2.652,5.528-2.87,1.212-2.1,2.425-1.437,3.422a13.621,13.621,0,0,1,.979,2.237c.415,1.118.8,2.294.946,2.752.042.127.064.2.064.2a5.989,5.989,0,0,1,1.246-.333c.543-.076,1.079-.021,1.182.443.055.249.367.542.806.836A23.28,23.28,0,0,0,139.186,469.058Z" transform="translate(-82.933 -297.796)" opacity="0.1"/>
    <path id="Path_1447" data-name="Path 1447" d="M137.013,469.057h0a2,2,0,0,1-.173.667c-1.158,2.858-7.771,10.578-7.771,10.578a21.556,21.556,0,0,1-1.088,2.673,38.622,38.622,0,0,1-2.476,4.325,71.273,71.273,0,0,1-6.3,8.153l-.07.076s-.267.2-.691.464a7.882,7.882,0,0,1-2.47,1.036l-.37-.109-.506-.158q-1.273-.4-2.525-.876l-.506-.194q-1.212-.467-2.373-1l-.506-.23q-1.212-.564-2.373-1.191c-.279-.145-.555-.3-.827-.452q-1.237-.691-2.425-1.449-1.261-.8-2.467-1.676-.558-.4-1.1-.821c-.409-.776-.736-1.431-.94-1.837a7.393,7.393,0,0,1-.479-3.458,1.647,1.647,0,0,1,.018-.3c.052-.649.13-1.094.13-1.094s-.245-.33-.543-.779c-.167-.248-.346-.536-.506-.821a2.812,2.812,0,0,1-.494-1.379.676.676,0,0,0,0-.158,1.47,1.47,0,0,0-.045-.3A10.764,10.764,0,0,0,94.97,475.1c-.691-.761-.733-3.6-.67-5.619v-.3c.042-1.046.106-1.8.106-1.8-.342-.148-.606-1.249-.776-2.425l-.045-.3c-.194-1.391-.282-2.788-.282-2.788a10.552,10.552,0,0,1-3.8-6.456,18.506,18.506,0,0,1-.394-4.849v-.076s.261-6.6,1.091-9.168c.033-.109.07-.209.106-.3a2.271,2.271,0,0,1,.27-.443,10.214,10.214,0,0,0,.967-3.77l.036-.3c.252-2.122.321-4.2.321-4.2l-.564-2.764q-.23-1.137-.355-2.276c-.015-.1-.024-.2-.036-.3a25.62,25.62,0,0,1-.076-4.228,1.444,1.444,0,0,1,.021-.3,25.565,25.565,0,0,1,2.473-9.244c.049-.1.1-.2.152-.3a23.752,23.752,0,0,1,1.3-2.291c.164-.258.33-.512.506-.764.276-.4.564-.794.864-1.176l.242-.3a24.725,24.725,0,0,1,3.113-3.228c3.334-2.858,6.365-3.961,9.092-3.861,10.744.385,16.775,19.412,17.767,22.8.1.333.145.515.145.515s4.525,4.525,3.2,6.51a3.415,3.415,0,0,0-.458,1.431c-.367,2.67.679,7.068.679,7.068s.37,1.212,1.449,4.116c.1.27.2.552.3.849a17.429,17.429,0,0,1,.446,7.6c-.373,2.622-1.246,4.934-2.652,5.528-2.867,1.212-2.1,2.425-1.434,3.422a13.621,13.621,0,0,1,.979,2.237c.524,1.427,1.006,2.949,1.006,2.949a5.9,5.9,0,0,1,.606-.2,3.1,3.1,0,0,1,1.309-.136.579.579,0,0,1,.518.443c.082.364.709.815,1.47,1.243A28.062,28.062,0,0,0,137.013,469.057Z" transform="translate(-81.421 -297.796)" fill="#ced7e7"/>
    <path id="Path_1448" data-name="Path 1448" d="M115.61,513.176c1.049-.055,12.305-4.413,14.624-2.925S146.9,521.4,146.9,521.4s-8.992-11.75-16.827-14.508S115.61,513.176,115.61,513.176Z" transform="translate(-99.91 -371.059)" opacity="0.1"/>
    <path id="Path_1449" data-name="Path 1449" d="M169,587.46s11.256,2.261,12.966,3.807Z" transform="translate(-137.118 -427.576)" opacity="0.1"/>
    <path id="Path_1450" data-name="Path 1450" d="M152.8,643c-.164.167-4.243,9.323-3.916,9.323s3.807-5.455,3.807-5.455Z" transform="translate(-123.088 -466.283)" opacity="0.1"/>
    <path id="Path_1451" data-name="Path 1451" d="M180.363,606.75s-3.31,1.161-2.925,1.27S180.251,607.247,180.363,606.75Z" transform="translate(-142.977 -441.02)" opacity="0.1"/>
    <path id="Path_1452" data-name="Path 1452" d="M176.24,652.45c.552,1.158,2.316,4.634,2.7,4.082S176.24,652.45,176.24,652.45Z" transform="translate(-142.164 -472.869)" opacity="0.1"/>
    <path id="Path_1453" data-name="Path 1453" d="M245.373,301.727l-.473.673s-3.755-2.646-5.3-3.97-5.186,4.743-8.056,6.4-7.722,2.1-7.722,2.1-3.752-3.752-3.637-4.849-1.764-1.434-1.876-2.206a10.976,10.976,0,0,0-1.655-4.082c-.467-.582-.533-2.4-.491-3.989.3-.061.491-.094.491-.094a9.876,9.876,0,0,1,1.767-2.319c.994-.882,2.537-6.289,2.537-6.289.882-2.979,2.646-2.1,2.646-2.1,0,4.525,4.637,6.18,6.953,8.056s5.959,6.731,8.829,7.726C241.742,297.584,244.5,300.691,245.373,301.727Z" transform="translate(-169.981 -213.913)" opacity="0.1"/>
    <path id="Path_1454" data-name="Path 1454" d="M245.338,299.539l-.473.676s-3.77-2.64-5.313-3.973-5.186,4.743-8.056,6.4-7.722,2.1-7.722,2.1-3.752-3.755-3.637-4.849-1.764-1.434-1.876-2.209a10.956,10.956,0,0,0-1.655-4.082c-.467-.582-.533-2.4-.491-3.989l.491-.091a9.878,9.878,0,0,1,1.767-2.319c.994-.885,2.537-6.289,2.537-6.289.882-2.979,2.646-2.1,2.646-2.1,0,4.525,4.637,6.183,6.953,8.059s5.959,6.728,8.829,7.722C241.707,295.408,244.462,298.5,245.338,299.539Z" transform="translate(-169.946 -212.389)" fill="#ced7e7"/>
    <path id="Path_1455" data-name="Path 1455" d="M297.886,348.949a17.645,17.645,0,0,1-5.792,1.931,4.774,4.774,0,0,1-.994-.058h0a15.106,15.106,0,0,1,5.407-2.522Z" transform="translate(-222.212 -260.901)" opacity="0.1"/>
    <path id="Path_1456" data-name="Path 1456" d="M322.8,375.287s-4.1-1.6-5.455.806c.045-1.1.064-2.018.064-2.018l4.47-.885s.43.8.933,1.87C322.8,375.2,322.8,375.287,322.8,375.287Z" transform="translate(-240.499 -278.247)" opacity="0.1"/>
    <path id="Path_1457" data-name="Path 1457" d="M291.1,350.376s4.913-2.949,7.274-2.7c2.476.258,7.274.439,7.274.439s-1.655,3.752-1.434,4.525a38.774,38.774,0,0,1,.276,4.525s-4.964-1.931-5.792,1.655c0,0-2.7-4.028-4.525-5.243a12.39,12.39,0,0,1-3.073-3.2Z" transform="translate(-222.212 -260.456)" fill="#63667e"/>
    <path id="Path_1458" data-name="Path 1458" d="M340.932,326.046c-1.434,0-6.51-3.2-7.613-5.3s-2.649.218-4.082.994c-.909.5-4.513-.543-6.456-1.3.985-.67,3.167-2.555,3.807-3.007.77-.555,1.546-9.492,1.546-9.492,2.758-1.434,5.737,11.587,5.737,11.587s5.189,1.546,5.628,2.649a3.963,3.963,0,0,0,1.064,1.076C341.168,324.786,341.5,326.046,340.932,326.046Z" transform="translate(-244.29 -232.701)" opacity="0.1"/>
    <path id="Path_1459" data-name="Path 1459" d="M342.576,323.877c-1.434,0-6.51-3.2-7.613-5.295s-2.649.218-4.083.991c-.909.5-3.8-.464-5.74-1.212.985-.667,2.452-2.631,3.091-3.085.77-.552,1.546-9.489,1.546-9.489,2.758-1.434,5.737,11.587,5.737,11.587s5.189,1.546,5.628,2.649a3.963,3.963,0,0,0,1.064,1.076C342.813,322.617,343.146,323.877,342.576,323.877Z" transform="translate(-245.935 -231.196)" fill="#ced7e7"/>
    <path id="Path_1460" data-name="Path 1460" d="M446.8,591.311,494.783,551.3a2.57,2.57,0,0,1,1.715-.606l17.9.47s1.24.909-.579,2.9l-45.262,37.142a2.879,2.879,0,0,1-1.728.649l-19.573.649a.676.676,0,0,1-.455-1.194Z" transform="translate(-330.555 -401.956)" fill="#6c63ff"/>
    <path id="Path_1461" data-name="Path 1461" d="M523.94,621s10.481,15.009,22.125,1.049,8.277-21.294,4.746-21.682S527.413,615.26,523.94,621Z" transform="translate(-384.483 -436.564)" fill="#ffa2a2"/>
    <path id="Path_1462" data-name="Path 1462" d="M757.17,76.5s13.508-26.216,29.474-12.7a5.033,5.033,0,0,1,3.222,4.955s-1.343-.736-2.41,2.079a13.6,13.6,0,0,1-1.515,2.828,6.667,6.667,0,0,1-3.364,2.54h0s-7.165,5.368-20.437,1.227c0,0-3.752.539-4.358.073l4.361-3.188s2.216,3.288,5.455,3.664c0,0-5.455-3.425-4.831-4.167.127-.152,2.388-1.585,2.388-1.585s3.876,5.7,8.9,6.122c0,0-7.041-3.21-8.05-6.668l3.537-1.973s3.8,6.228,9.508,6.925c0,0-7.244-3.61-8.7-7.3l3.743-1.461s3.828,6,8.577,6.55c0,0-7.947-5.016-7.7-6.828,0,0,3.519-1.134,4.6-.985,0,0,2.846,4.243,5.634,4.319,0,0-4.955-3.916-4.628-4.519,0,0,4.977-.258,7.577.946a15.084,15.084,0,0,0-7.577-1.725,8.29,8.29,0,0,1,4.043-2.519s-2.743-1.127-5.249,2.594c0,0-3.87.355-4.349.785,0,0,1.958-4.025,4.367-5.737,0,0-3.591.633-5.371,6.089l-3.795,1.385s2.306-5.455,4.34-7.141c0,0-3.564,1.212-5.268,7.577l-3.491,1.9s1.628-4.849,3.485-7.216c0,0-3.064,1.837-4.467,7.8l-2.182,1.537s1.252-3.522,1.7-4.5.224-1.182.224-1.182a12.69,12.69,0,0,0-2.858,6.295S757.422,76.742,757.17,76.5Z" transform="translate(-547.026 -59.93)" fill="#6c63ff" opacity="0.1"/>
    <path id="Path_1463" data-name="Path 1463" d="M941.5,143.642s6.1-11.847,13.317-5.737a2.269,2.269,0,0,1,1.455,2.237s-.606-.33-1.088.943a6.06,6.06,0,0,1-.679,1.276,3.031,3.031,0,0,1-1.516,1.149h0s-3.24,2.425-9.238.555a6.014,6.014,0,0,1-1.967.033l1.97-1.443a4.017,4.017,0,0,0,2.467,1.655s-2.461-1.546-2.182-1.882c.054-.067,1.076-.715,1.076-.715s1.752,2.576,4.025,2.767c0,0-3.182-1.452-3.637-3.031l1.6-.888s1.715,2.816,4.295,3.131c0,0-3.273-1.631-3.94-3.3l1.691-.661s1.728,2.713,3.873,2.961c0,0-3.592-2.267-3.476-3.085a8.761,8.761,0,0,1,2.076-.446s1.285,1.918,2.546,1.949c0,0-2.24-1.767-2.091-2.04a9.429,9.429,0,0,1,3.419.427,6.8,6.8,0,0,0-3.419-.779,3.755,3.755,0,0,1,1.818-1.14s-1.24-.509-2.373,1.173a8.652,8.652,0,0,0-1.964.355,8.219,8.219,0,0,1,1.973-2.591s-1.624.285-2.425,2.752l-1.7.636a11.633,11.633,0,0,1,1.961-3.228s-1.612.549-2.382,3.422l-1.576.855a13.866,13.866,0,0,1,1.573-3.261s-1.385.83-2.016,3.522l-.988.694s.567-1.591.77-2.034.1-.533.1-.533a5.76,5.76,0,0,0-1.291,2.852A14.113,14.113,0,0,1,941.5,143.642Z" transform="translate(-675.489 -113.052)" fill="#6c63ff" opacity="0.1"/>
    <path id="Path_1464" data-name="Path 1464" d="M723.27,189.122s6.1-11.847,13.336-5.737a2.274,2.274,0,0,1,1.455,2.24s-.606-.333-1.088.94a6.189,6.189,0,0,1-.679,1.276,3.031,3.031,0,0,1-1.531,1.149h0s-3.237,2.425-9.235.555c0,0-1.694.245-1.967.033l1.97-1.443A4.029,4.029,0,0,0,728,189.792s-2.461-1.549-2.182-1.885c.058-.067,1.079-.715,1.079-.715s1.752,2.576,4.022,2.767c0,0-3.179-1.452-3.637-3.031l1.6-.885s1.718,2.813,4.3,3.128c0,0-3.273-1.631-3.94-3.3l1.691-.661s1.731,2.713,3.876,2.961c0,0-3.591-2.267-3.479-3.085a8.794,8.794,0,0,1,2.079-.446s1.285,1.919,2.546,1.952c0,0-2.24-1.77-2.091-2.043a9.434,9.434,0,0,1,3.419.427,6.812,6.812,0,0,0-3.422-.779,3.755,3.755,0,0,1,1.818-1.14s-1.237-.509-2.37,1.173a8.65,8.65,0,0,0-1.964.355,8.168,8.168,0,0,1,1.973-2.591s-1.625.285-2.425,2.752l-1.719.636a11.663,11.663,0,0,1,1.961-3.225s-1.609.546-2.379,3.419l-1.579.855a13.926,13.926,0,0,1,1.576-3.261s-1.385.83-2.019,3.522l-.988.694s.567-1.591.77-2.034.1-.533.1-.533a5.728,5.728,0,0,0-1.291,2.852A14.034,14.034,0,0,1,723.27,189.122Z" transform="translate(-523.4 -144.748)" fill="#6c63ff" opacity="0.1"/>
  </g>
</svg>
