<svg xmlns="http://www.w3.org/2000/svg" width="370.974" height="295.913" viewBox="0 0 370.974 295.913">
  <g id="products" transform="translate(-441.011 -244.823)">
    <path id="Path_1162" data-name="Path 1162" d="M157.76,23.874c85.916,63.611,165.108,13.6,165.108,72.059S250.591,201.792,161.434,201.791,0,154.4,0,95.933,71.843-39.737,157.76,23.874Z" transform="translate(506.708 244.823) rotate(19)" fill="rgba(83,92,104,0.1)" opacity="0.21"/>
    <g id="Group_1567" data-name="Group 1567" transform="translate(523.768 344.249)">
      <rect id="Rectangle_625" data-name="Rectangle 625" width="96.793" height="77.937" transform="translate(19.058 35.708)" fill="#e6e6e6"/>
      <rect id="Rectangle_626" data-name="Rectangle 626" width="16.36" height="22.134" transform="translate(59.425 91.205)" fill="#bdc3c7"/>
      <path id="Path_1156" data-name="Path 1156" d="M427.134,715.31l-1.671-1.4.124.873S426.177,714.971,427.134,715.31Z" transform="translate(-300.631 -614.449)" fill="none"/>
      <path id="Path_1157" data-name="Path 1157" d="M488.026,404.879l2.574-6.864,24.025-13.729,16.3-3.432Z" transform="translate(-253.201 -366.707)" fill="#bdc3c7"/>
      <path id="Path_1158" data-name="Path 1158" d="M258.092,404.879l-2.574-6.864-24.025-13.729-16.3-3.432Z" transform="translate(-111.646 -366.707)" fill="#bdc3c7"/>
      <path id="Path_1159" data-name="Path 1159" d="M384.27,395.492H292.458l-7.722-36.038H391.992Z" transform="translate(-147.729 -355.605)" fill="#dcdde1"/>
      <path id="Path_1160" data-name="Path 1160" d="M384.27,395.492H292.458l-7.722-36.038H391.992Z" transform="translate(-147.729 -359.454)" fill="#bdc3c7" opacity="0.1"/>
      <rect id="Rectangle_627" data-name="Rectangle 627" width="92.67" height="76.078" transform="translate(144.301 37.742)" fill="#bdc3c7"/>
      <rect id="Rectangle_628" data-name="Rectangle 628" width="16.36" height="22.134" transform="translate(182.456 91.194)" fill="#fff"/>
      <path id="Path_1161" data-name="Path 1161" d="M277.6,586.875H0v-.867H277.728Z" transform="translate(0 -473.055)" fill="#fbc531"/>
      <rect id="Rectangle_629" data-name="Rectangle 629" width="38.494" height="12.029" transform="translate(171.389 53.312)" fill="#fff"/>
      <rect id="Rectangle_630" data-name="Rectangle 630" width="38.494" height="12.029" transform="translate(48.103 53.312)" fill="#fff"/>
    </g>
  </g>
</svg>
