<svg xmlns="http://www.w3.org/2000/svg" xmlns:xlink="http://www.w3.org/1999/xlink" width="280" height="211.2" viewBox="0 0 280 211.2">
  <defs>
    <linearGradient id="linear-gradient" x1="0.877" y1="1" x2="0.877" gradientUnits="objectBoundingBox">
      <stop offset="0" stop-color="gray" stop-opacity="0.251"/>
      <stop offset="0.54" stop-color="gray" stop-opacity="0.122"/>
      <stop offset="1" stop-color="gray" stop-opacity="0.102"/>
    </linearGradient>
    <linearGradient id="linear-gradient-2" x1="0.5" y1="1" x2="0.5" y2="0" xlink:href="#linear-gradient"/>
  </defs>
  <g id="staff" transform="translate(-0.016 -0.004)">
    <path id="Path_1226" data-name="Path 1226" d="M233.517,72.419c-12.015,10.2-27.6,9.539-41.255,4.232s-26.2-14.753-39.506-21.468a110.917,110.917,0,0,0-34.708-10.97c-16.958-2.354-35.9.52-47.71,17-13.158,18.361-12.147,51.477,2.078,68.321,7.24,8.573,16.719,12.781,24.985,19.483s15.922,17.81,15.218,30.731c-.652,11.95-8.23,21.138-16.072,26.9-6.061,4.45-13.524,9.31-14.254,18.53-.707,8.918,5.57,15.909,11.563,19.883,19.551,12.965,43.642,12.841,63.125-.327,6.946-4.7,13.326-10.949,20.613-14.607,19.132-9.612,40.216.062,60.475,3.6a100.632,100.632,0,0,0,51.435-4.541c10.032-3.593,20.1-9.092,27.152-19.317,5.084-7.378,8.25-16.716,11.222-25.938q4.754-14.747,9.141-29.708c1.753-5.988,3.481-12.09,3.936-18.493.821-11.607-2.639-23.081-7.352-32.874-11.188-23.258-30.032-39.61-50.44-43.764s-42,3.959-57.826,21.712" transform="translate(-61.06 -43.49)" fill="#535c68" opacity="0.1"/>
    <ellipse id="Ellipse_224" data-name="Ellipse 224" cx="58.964" cy="2.691" rx="58.964" ry="2.691" transform="translate(68.223 135.649)" fill="#6c63ff" opacity="0.1"/>
    <path id="Path_1227" data-name="Path 1227" d="M390.676,228.593a53.456,53.456,0,1,1,53.449-53.456A53.516,53.516,0,0,1,390.676,228.593Zm0-106.393a52.937,52.937,0,1,0,52.937,52.937A53,53,0,0,0,390.676,122.2Z" transform="translate(-265.469 -101.365)" fill="#fff"/>
    <path id="Path_1228" data-name="Path 1228" d="M424.853,250.78a41.46,41.46,0,1,1,41.46-41.46A41.51,41.51,0,0,1,424.853,250.78Zm0-82.4a40.94,40.94,0,1,0,40.94,40.94A40.988,40.988,0,0,0,424.853,168.38Z" transform="translate(-299.645 -135.549)" fill="#fff"/>
    <path id="Path_1229" data-name="Path 1229" d="M461.575,274.61a28.575,28.575,0,1,1,28.575-28.575A28.575,28.575,0,0,1,461.575,274.61Zm0-56.631a28.056,28.056,0,1,0,28.056,28.056,28.056,28.056,0,0,0-28.056-28.056Z" transform="translate(-336.368 -172.264)" fill="#fff"/>
    <ellipse id="Ellipse_225" data-name="Ellipse 225" cx="3.707" cy="1.226" rx="3.707" ry="1.226" transform="translate(250.881 103.508)" fill="#6c63ff" opacity="0.1"/>
    <ellipse id="Ellipse_226" data-name="Ellipse 226" cx="21.831" cy="3.582" rx="21.831" ry="3.582" transform="translate(24.563 165.747)" fill="#6c63ff" opacity="0.1"/>
    <g id="Group_1571" data-name="Group 1571" transform="translate(14.58 70.069)" opacity="0.1">
      <path id="Path_1230" data-name="Path 1230" d="M187.224,313.21h-66.6a3.491,3.491,0,0,0-3.481,3.481v42.083a3.491,3.491,0,0,0,3.481,3.481h52.248s1.353,7.185-3.094,7.959c0,0,9.96.714,8.219-7.959h9.23a3.491,3.491,0,0,0,3.481-3.481V316.691A3.491,3.491,0,0,0,187.224,313.21Z" transform="translate(-117.14 -313.21)"/>
      <g id="Group_1570" data-name="Group 1570" transform="translate(9.804 11.17)" opacity="0.2">
        <rect id="Rectangle_632" data-name="Rectangle 632" width="53.955" height="3.289" rx="1.644"/>
        <rect id="Rectangle_633" data-name="Rectangle 633" width="53.955" height="3.289" rx="1.644" transform="translate(0 14.698)"/>
        <rect id="Rectangle_634" data-name="Rectangle 634" width="45.247" height="3.289" rx="1.644" transform="translate(0 22.044)"/>
        <rect id="Rectangle_635" data-name="Rectangle 635" width="23.395" height="3.289" rx="1.644" transform="translate(0 7.349)"/>
      </g>
    </g>
    <path id="Path_1231" data-name="Path 1231" d="M189.457,312.09H122.851a3.491,3.491,0,0,0-3.481,3.481v42.083a3.491,3.491,0,0,0,3.481,3.481H175.1s1.356,7.185-3.094,7.957c0,0,9.96.714,8.219-7.957h9.232a3.489,3.489,0,0,0,3.478-3.481V315.571A3.489,3.489,0,0,0,189.457,312.09Z" transform="translate(-104.211 -242.311)" fill="#fff"/>
    <g id="Group_1572" data-name="Group 1572" transform="translate(24.965 80.949)" opacity="0.2">
      <rect id="Rectangle_636" data-name="Rectangle 636" width="53.955" height="3.289" rx="1.644" fill="#6c63ff"/>
      <rect id="Rectangle_637" data-name="Rectangle 637" width="53.955" height="3.289" rx="1.644" transform="translate(0 14.698)" fill="#6c63ff"/>
      <rect id="Rectangle_638" data-name="Rectangle 638" width="45.247" height="3.289" rx="1.644" transform="translate(0 22.047)" fill="#6c63ff"/>
      <rect id="Rectangle_639" data-name="Rectangle 639" width="23.395" height="3.289" rx="1.644" transform="translate(0 7.349)" fill="#6c63ff"/>
    </g>
    <path id="Path_1232" data-name="Path 1232" d="M255.952,297.239l-3.691,7.85a6.724,6.724,0,0,1-.9,1.746,40.615,40.615,0,0,0-1.9,4.936l-3.956,6.115h0l-.26.416-1.559-.429L242.6,313.8l.068-1.182v-.148a24.387,24.387,0,0,1,2.993-2.756s.426.049,1.244-1.935a5.077,5.077,0,0,1,1.559-2.416l.426-1.439,4.588-7.3s3.845-5.515,4.892-3.068S255.952,297.239,255.952,297.239Z" transform="translate(-195.429 -228.129)" fill="#ffd2c6"/>
    <path id="Path_1233" data-name="Path 1233" d="M205.012,517.737a.883.883,0,0,1-.125.377c-.426.621-2.834,13.324-2.834,13.324a7.17,7.17,0,0,1-.7,3.343,48.088,48.088,0,0,0-1.127,4.816s-.192,8.7-.7,10.061.161,4.273.161,4.273a6.542,6.542,0,0,0,1.234,3.478c.036.047.065.094.094.132.156.223.26.351.26.351a2.023,2.023,0,0,0,.543.673c.034.029.07.055.109.083a6.187,6.187,0,0,0,2.177.92l.075.016c.312.07.52.1.52.1l.192,1.039-2.057.426-3.923.26s-4.624.351-3.575-1.709a3.253,3.253,0,0,0,.19-.436h0c.039-.1.075-.2.107-.306a10.663,10.663,0,0,0,.205-4.385l-.9-7c-1.473-6.525,1.164-13.791,1.164-13.791a3.363,3.363,0,0,1,.275-2.057c.507-1.475,0-4.7,0-4.7s-.26-4.156-.621-6.216a12.559,12.559,0,0,1-.14-2.616,13.059,13.059,0,0,1,.14-1.533l8.858-1.174A6.835,6.835,0,0,1,205.012,517.737Z" transform="translate(-159.816 -392.866)" fill="#ffd2c6"/>
    <path id="Path_1234" data-name="Path 1234" d="M206.833,679.68l-2.057.426-3.923.26s-4.624.351-3.575-1.709a3.249,3.249,0,0,0,.19-.436h0c.039-.1.075-.2.107-.307a7.115,7.115,0,0,1,2.338.473,2.135,2.135,0,0,0,2.309-.818l.639-1.221.094-.177c.156.223.26.351.26.351a2.078,2.078,0,0,0,.652.753l-.109.229-.621,1.3s.795.081,1.883.26a.842.842,0,0,0,1.024-.561l.075.016c.312.07.52.1.52.1Z" transform="translate(-161.766 -511.813)" opacity="0.1"/>
    <path id="Path_1235" data-name="Path 1235" d="M207.781,681.559c-.156.7-4.486.915-4.486.915s-2.411-.234-3.086.33-2.665.429-2.743.429-1.125-.042-1.535-1.922c-.4-1.834.535-2.153.582-2.169h0a7.048,7.048,0,0,1,2.45.475,2.135,2.135,0,0,0,2.309-.816l.733-1.4c.156.223.26.351.26.351a2.053,2.053,0,0,0,.652.756l-.73,1.535s.795.081,1.883.26a.9.9,0,0,0,1.1-.855.88.88,0,0,0,0-.117s.678.195,1.512.429a1.559,1.559,0,0,1,1.1,1.8Z" transform="translate(-160.81 -512.723)" fill="#626696"/>
    <path id="Path_1236" data-name="Path 1236" d="M245.618,524.141c-.1.621-.21,2.229-.21,2.229.364,1.346-.569,4.543-.569,4.543l-.465,1.818c.208,2.338-1.281,8.03-1.281,8.03s-1,5.284-1.517,7.565a6.289,6.289,0,0,0,.26,3.808c.026.062.042.094.042.094a.435.435,0,0,0,.031.127c.013.042.034.125.055.184a2.806,2.806,0,0,0,.52.868,2.622,2.622,0,0,0,.278.286l.016.016a5.622,5.622,0,0,0,1.652,1.016h0l.26.1a7.831,7.831,0,0,0,.823.26h0a.859.859,0,0,0,.094.021l-.21,1.221-2.743-.7-3.676-1.192-1.818-1.039s.021-.1.057-.288v-.031c.016-.081.031-.177.055-.286a37.2,37.2,0,0,0,.66-9.378c-.439-4.091,1.265-9.739,1.681-11.085a6.72,6.72,0,0,0,.312-2.382c-.675-.987-.831-4.92-.831-4.92s-1.242-2.541-2.27-5.234a13.771,13.771,0,0,1-.74-2.722,9.521,9.521,0,0,1-.151-1.99s8.344-7.614,9.258-.242c.031.26.06.488.088.722C246.075,522.3,245.717,523.541,245.618,524.141Z" transform="translate(-190.487 -390.011)" fill="#ffd2c6"/>
    <path id="Path_1237" data-name="Path 1237" d="M249.168,670.841l-.21,1.221-2.743-.7-3.676-1.192-1.818-1.039s.021-.1.057-.288v-.031c.016-.081.031-.177.055-.286l.26-.026h.021a3.461,3.461,0,0,1,1.54.208c.6.226,1.382.483,1.543.374a1.962,1.962,0,0,1,.881-.156l.382-.837.055-.127a2.776,2.776,0,0,0,.52.868,2.936,2.936,0,0,0,.294.3l-.016.3-.021.418a5.348,5.348,0,0,0,1.32.61.764.764,0,0,0,.369,0h0l.26.1a7.793,7.793,0,0,0,.824.26h0A.827.827,0,0,0,249.168,670.841Z" transform="translate(-194.037 -505.736)" opacity="0.1"/>
    <path id="Path_1238" data-name="Path 1238" d="M247.05,674.335c-.766-.221-2.613-.572-2.912-.3s-2.858,0-2.858,0a1.558,1.558,0,0,1-1.322-.779c-.52-.829-.1-3.51-.1-3.51l.19-.018.317-.031h.021a3.42,3.42,0,0,1,1.54.208,3.682,3.682,0,0,0,1.543.374,1.929,1.929,0,0,1,.881-.156l.436-.964a2.8,2.8,0,0,0,.52.868,2.919,2.919,0,0,0,.294.3l-.036.714a5.383,5.383,0,0,0,1.32.608.52.52,0,0,0,.634-.2.392.392,0,0,0,.047-.106h0a4.461,4.461,0,0,0,1.083.361h0a1.983,1.983,0,0,1,2.115,1.522C251.149,674.418,247.8,674.553,247.05,674.335Z" transform="translate(-193.28 -506.624)" fill="#626696"/>
    <path id="Path_1239" data-name="Path 1239" d="M208.233,517.715c-.171.049-.327.1-.473.143a6.559,6.559,0,0,1-1.146.242,47.753,47.753,0,0,1-7.775.057,13.063,13.063,0,0,1,.14-1.533l8.858-1.174A6.94,6.94,0,0,1,208.233,517.715Z" transform="translate(-163.037 -392.844)" opacity="0.1"/>
    <path id="Path_1240" data-name="Path 1240" d="M213.73,481.144s-3.252.5-5.9,1.083c-.883.192-1.7.392-2.3.59a7.064,7.064,0,0,1-1.146.242,51.507,51.507,0,0,1-8.178.031c-1.437-4.66,1.746-10.529,1.746-10.529a5.907,5.907,0,0,1,.662-1.9l.013-.047.452-1.663h12.082l.148.714.307,1.455,1.9,9.006Z" transform="translate(-160.813 -358.423)" fill="#ff4757"/>
    <path id="Path_1241" data-name="Path 1241" d="M245.275,515.551l-.073.031-1.413.626c-1.53.707-6.11.839-7.71.852a9.521,9.521,0,0,1-.151-1.99s8.344-7.614,9.258-.242C245.218,515.091,245.246,515.317,245.275,515.551Z" transform="translate(-190.487 -390.004)" opacity="0.1"/>
    <path id="Path_1242" data-name="Path 1242" d="M224.053,483.265l-.3.13-1.413.629c-1.559.717-6.284.844-7.793.852h-.4a1.82,1.82,0,0,1-1.4-.849c0-.094-.073-.553-.135-.948-.052-.317-.1-.59-.1-.59a36.275,36.275,0,0,1-4.7-2.434c-1.187-.808-.888-6.549-.657-9.435.081-.995.151-1.65.151-1.65l12.23.714,1.715.1.982.218.26.055s.7,5.128,1.039,5.554.12,1.865.078,2.683a4.985,4.985,0,0,1-.114,1.039,6.424,6.424,0,0,1,.384,2.244A4.474,4.474,0,0,0,224.053,483.265Z" transform="translate(-169.042 -358.438)" fill="#ff4757"/>
    <circle id="Ellipse_227" data-name="Ellipse 227" cx="5.011" cy="5.011" r="5.011" transform="translate(36.91 72.22)" fill="#ffd2c6"/>
    <path id="Path_1243" data-name="Path 1243" d="M201.267,348.779s.348,4.746-.621,5.835a43.378,43.378,0,0,1-3.5,3.146l.779,3.224,4.39.507,5.128-5.479-1.166-1.437s-.894-3.032-.156-4.546S201.267,348.779,201.267,348.779Z" transform="translate(-161.786 -269.457)" fill="#ffd2c6"/>
    <path id="Path_1244" data-name="Path 1244" d="M245.507,372.685h0l-.26.416-1.559-.429L242.6,368.6l.068-1.182.32-.46s1.709.042,1.634,1.6A13.625,13.625,0,0,0,245.507,372.685Z" transform="translate(-195.429 -282.928)" opacity="0.1"/>
    <path id="Path_1245" data-name="Path 1245" d="M222.231,470.659s-1.237.275-2.652.46-3.05.278-3.72-.112c-1.125-.665-7.219-.475-8.967-.408a2,2,0,0,0-.3.013l.452-1.663h12.082l.148.714,1.715.1.982.218C222.132,470.384,222.231,470.659,222.231,470.659Z" transform="translate(-168.774 -358.423)" opacity="0.1"/>
    <path id="Path_1246" data-name="Path 1246" d="M198.672,368.15s1.709.039,1.631,1.592a14.334,14.334,0,0,0,.933,4.234l-.39.894s-.543,2.174-.117,2.72,1.982.543,1.088,5.011c0,0-.192,3.341.273,4.429s.465,3.689,1.164,4.777a26.255,26.255,0,0,1,1.634,3.613s-5.053,1.125-6.372.348-9.44-.382-9.44-.382.039-1.361,0-1.514a1.3,1.3,0,0,1,.195-.992c.26-.369.7-.99.465-1.533s.584-1.346.156-2.187-.948-1.011-.844-1.47a1.993,1.993,0,0,0-.475-1.47c-.309-.387-2.411-4.494-2.411-4.494l-.348-1.925s-2.7-1.982-2.655-2.915a5.453,5.453,0,0,1,1.023-2.224l2.6-2.554s1.437,1.559,2.834,1.011a25.823,25.823,0,0,0,4.414-3.146s1.075-.582,1.153-1.008.738-.039.738-.039.972-.533,1.166-.345a3.372,3.372,0,0,0,1.039.345Z" transform="translate(-151.428 -283.809)" fill="#fbc531"/>
    <path id="Path_1247" data-name="Path 1247" d="M150.771,399.3l-.829.647a11.064,11.064,0,0,0-1.039,4.234,58.014,58.014,0,0,1-1.039,6.562l-1.631,2.917a73.7,73.7,0,0,0-3.037,7.123,18.584,18.584,0,0,1-1.943,4.021s-5.4,4.853-1.631,5.715,3.884-3.863,3.884-3.863a5.1,5.1,0,0,0,1.023-1.631c.143-.66,4.92-9.11,4.92-9.11s1.673-2.273,1.322-3.476c0,0,2.174-5.115,2.174-6.4a22.729,22.729,0,0,0-.348-3.182l.348-2.681Z" transform="translate(-118.212 -306.867)" fill="#ffd2c6"/>
    <path id="Path_1248" data-name="Path 1248" d="M216.205,440.53a38.532,38.532,0,0,1-4.546,2.1c-.738.1,3.224-.416,3.224-.416Z" transform="translate(-172.458 -337.386)" opacity="0.1"/>
    <path id="Path_1249" data-name="Path 1249" d="M220.654,446.51s-5.05,1.709-7.274,1.4C213.39,447.908,218.905,448.957,220.654,446.51Z" transform="translate(-173.8 -341.813)" opacity="0.1"/>
    <path id="Path_1250" data-name="Path 1250" d="M221.987,448.66s-4.546,2.857-7.227,2.393c0,0,6.255,1.244,7.227.584l-2.8-.779S222.3,449.216,221.987,448.66Z" transform="translate(-174.821 -343.404)" opacity="0.1"/>
    <path id="Path_1251" data-name="Path 1251" d="M182.259,306.512a4.733,4.733,0,0,0-3.824.722c-.779.613-1.3,1.559-2.174,2.005a12.789,12.789,0,0,1-1.421.5,4.1,4.1,0,0,0-2.5,4.416c.138.779.5,1.481.675,2.239a8.75,8.75,0,0,1-.307,4.125,43.409,43.409,0,0,1-4.325,10.711,1.122,1.122,0,0,0-.216.72,1.04,1.04,0,0,0,.26.46c1.8,2.078,4.717,2.787,7.461,2.881a5.651,5.651,0,0,0,2.956-.491,4.468,4.468,0,0,0,1.442-1.322,7.014,7.014,0,0,0,1.346-4.523c-.075-1.3-.52-2.621-.184-3.881a1.039,1.039,0,0,1,.234-.475c.3-.3.779-.223,1.205-.273a2.66,2.66,0,0,0,2.013-2.473,28.212,28.212,0,0,0-.156-3.434,7.193,7.193,0,0,1,1.353-4.229,4.559,4.559,0,0,0,.992-1.691,2.835,2.835,0,0,0-.725-2.078c-.636-1.008-.948-2.185-1.917-2.954A5.174,5.174,0,0,0,182.259,306.512Z" transform="translate(-140.33 -238.098)" opacity="0.1"/>
    <path id="Path_1252" data-name="Path 1252" d="M181.094,305.313a4.726,4.726,0,0,0-3.824.725c-.779.611-1.3,1.559-2.174,2.005a12.549,12.549,0,0,1-1.418.5,4.1,4.1,0,0,0-2.5,4.416c.138.779.5,1.481.678,2.242a8.773,8.773,0,0,1-.307,4.123,43.435,43.435,0,0,1-4.317,10.71,1.1,1.1,0,0,0-.213.717,1,1,0,0,0,.26.46c1.8,2.078,4.717,2.787,7.461,2.881a5.65,5.65,0,0,0,2.956-.488,4.478,4.478,0,0,0,1.442-1.325,7.014,7.014,0,0,0,1.338-4.512c-.075-1.3-.52-2.621-.182-3.884a1.039,1.039,0,0,1,.231-.475c.3-.3.779-.223,1.208-.26a2.658,2.658,0,0,0,2.011-2.476,27.693,27.693,0,0,0-.156-3.434,7.193,7.193,0,0,1,1.351-4.242,4.543,4.543,0,0,0,.99-1.694,2.837,2.837,0,0,0-.722-2.078c-.636-1.008-.948-2.185-1.92-2.951A5.149,5.149,0,0,0,181.094,305.313Z" transform="translate(-139.477 -237.21)" fill="#985c7e"/>
    <path id="Path_1253" data-name="Path 1253" d="M214.76,492.62s1,4.66,2.655,5.931Z" transform="translate(-174.821 -375.945)" opacity="0.1"/>
    <g id="Group_1573" data-name="Group 1573" transform="translate(27.529 72.719)" opacity="0.1">
      <path id="Path_1254" data-name="Path 1254" d="M183.674,337.523c-.052-.182-.112-.364-.174-.543C183.552,337.162,183.612,337.344,183.674,337.523Z" transform="translate(-179.211 -333.455)"/>
      <path id="Path_1255" data-name="Path 1255" d="M185.626,323.41a1.687,1.687,0,0,1-.021.439,4.6,4.6,0,0,1-.992,1.694,7.173,7.173,0,0,0-1.353,4.227,29.292,29.292,0,0,1,.153,3.434,2.663,2.663,0,0,1-2.011,2.476c-.421.049-.912-.031-1.205.26a1.039,1.039,0,0,0-.234.475c-.33,1.263.109,2.582.182,3.884a7.014,7.014,0,0,1-1.335,4.512,4.5,4.5,0,0,1-1.442,1.325,5.81,5.81,0,0,1-2.959.488c-2.7-.091-5.564-.779-7.367-2.782a.712.712,0,0,0-.044.374,1,1,0,0,0,.26.46c1.8,2.078,4.717,2.787,7.461,2.881a5.649,5.649,0,0,0,2.956-.488,4.506,4.506,0,0,0,1.442-1.325,7.014,7.014,0,0,0,1.338-4.512c-.075-1.3-.52-2.621-.182-3.884a1.039,1.039,0,0,1,.231-.475c.3-.3.779-.223,1.208-.26a2.658,2.658,0,0,0,2.011-2.476,27.693,27.693,0,0,0-.156-3.434,7.194,7.194,0,0,1,1.351-4.227,4.543,4.543,0,0,0,.99-1.694A1.925,1.925,0,0,0,185.626,323.41Z" transform="translate(-166.989 -323.41)"/>
    </g>
    <path id="Path_1256" data-name="Path 1256" d="M557.215,807.433s-9.884-.6-8.718,6.328a1.689,1.689,0,0,0,.878,1.779s.018-.52,1.013-.338a4.544,4.544,0,0,0,1.073.052,2.242,2.242,0,0,0,1.314-.543h0s2.777-1.148,3.858-5.689c0,0,.8-.99.779-1.244l-1.668.712a2.989,2.989,0,0,1,.119,2.2s-.052-2.159-.374-2.107c-.065,0-.865.416-.865.416s.979,2.1.239,3.619c0,0,.281-2.582-.546-3.465l-1.174.683s1.146,2.167.369,3.933c0,0,.2-2.709-.616-3.764l-1.065.829s1.078,2.133.421,3.6c0,0-.086-3.154-.652-3.377a6.389,6.389,0,0,0-1.07,1.156s.735,1.559.278,2.367c0,0-.281-2.1-.52-2.109a6.994,6.994,0,0,0-1.024,2.338,5.061,5.061,0,0,1,.8-2.481,2.783,2.783,0,0,0-1.419.735s.143-.985,1.647-1.07a7.1,7.1,0,0,1,.972-1.12,6.09,6.09,0,0,0-2.4.278,2.715,2.715,0,0,1,2.678-.52l1.039-.857a8.964,8.964,0,0,0-2.806.029s.961-.823,3.089-.223l1.143-.686a10.387,10.387,0,0,0-2.678-.231,4.1,4.1,0,0,1,3.013.049l.818-.369s-1.231-.242-1.59-.278-.379-.138-.379-.138a4.249,4.249,0,0,1,2.309.26A10.535,10.535,0,0,0,557.215,807.433Z" transform="translate(-421.791 -608.968)" fill="#6c63ff"/>
    <ellipse id="Ellipse_228" data-name="Ellipse 228" cx="6.996" cy="1.182" rx="6.996" ry="1.182" transform="translate(121.62 205.996)" fill="#6c63ff" opacity="0.1"/>
    <path id="Path_1257" data-name="Path 1257" d="M855.331,774.834s-9.871-.595-8.718,6.331a1.689,1.689,0,0,0,.878,1.779s.018-.52,1.013-.34a4.575,4.575,0,0,0,1.075.052,2.219,2.219,0,0,0,1.312-.543h0s2.78-1.146,3.858-5.686c0,0,.8-.992.779-1.247l-1.678.727a3,3,0,0,1,.122,2.2s-.055-2.161-.374-2.109c-.065,0-.868.416-.868.416s.979,2.1.242,3.621c0,0,.281-2.582-.548-3.468l-1.174.686s1.146,2.164.369,3.93c0,0,.2-2.709-.616-3.764l-1.062.824s1.075,2.135.418,3.6c0,0-.086-3.156-.649-3.393a6.513,6.513,0,0,0-1.073,1.159s.738,1.559.281,2.364c0,0-.281-2.1-.52-2.109a6.994,6.994,0,0,0-1.024,2.338,5.054,5.054,0,0,1,.8-2.481,2.8,2.8,0,0,0-1.421.735s.146-.982,1.65-1.07a7.1,7.1,0,0,1,.972-1.12,6.105,6.105,0,0,0-2.406.278,2.7,2.7,0,0,1,2.678-.507l1.039-.857a8.964,8.964,0,0,0-2.806.029s.961-.821,3.089-.223l1.143-.683a10.293,10.293,0,0,0-2.681-.231,4.115,4.115,0,0,1,3.016.047l.818-.366s-1.231-.242-1.592-.281-.379-.138-.379-.138a4.258,4.258,0,0,1,2.312.26A10.572,10.572,0,0,0,855.331,774.834Z" transform="translate(-642.466 -584.837)" fill="#6c63ff"/>
    <ellipse id="Ellipse_229" data-name="Ellipse 229" cx="6.996" cy="1.182" rx="6.996" ry="1.182" transform="translate(199.061 197.528)" fill="#6c63ff" opacity="0.1"/>
    <ellipse id="Ellipse_230" data-name="Ellipse 230" cx="20.145" cy="3.304" rx="20.145" ry="3.304" transform="translate(200.178 110.176)" fill="#6c63ff" opacity="0.1"/>
    <path id="Path_1258" data-name="Path 1258" d="M849.312,124.684a10.814,10.814,0,0,0,0-5.523v-2.6a9.1,9.1,0,0,0-3.247-8.362l-2.78-2.45a10.5,10.5,0,0,0-2.008-1.421,2.038,2.038,0,0,0-.26-.039l-.083-.047a8.362,8.362,0,0,1-.608-1.281,1.187,1.187,0,0,0,.99-.338,1.3,1.3,0,0,0,.234-.39h0c.161-.361.187-.8.325-1.182a2.757,2.757,0,0,1,.52-.849c-.029.047-.057.091-.083.138.392-.488.907-.909,1.273-1.426a3.129,3.129,0,0,0,.2-.317l-.055.065a7.14,7.14,0,0,0,.816-2.774,2.5,2.5,0,0,0,.016-.992,3.3,3.3,0,0,0-.278-.629c-.6-1.247-.59-2.811-1.559-3.806a4.659,4.659,0,0,0-2.858-1.1,7.374,7.374,0,0,1-3.011-.743,3.259,3.259,0,0,0-.816-.449.673.673,0,0,0-.8.3.521.521,0,0,1-.107.216.346.346,0,0,1-.309.018l-1.377-.369.016.07h-.034l.049.218a.121.121,0,0,1,.13.075l-.221.34a3.411,3.411,0,0,1-1.244-.26.566.566,0,0,0,0,.068h-.018c-.026.39.416.642.551,1.008a.764.764,0,0,1,0,.494,1.12,1.12,0,0,1-.26.395c-.491.483-1.114.387-1.678.694a.359.359,0,0,0-.205.226.174.174,0,0,0-.018.125.291.291,0,0,0,.114.143,2.6,2.6,0,0,0,.535.333l-.161.156a6.167,6.167,0,0,0,2.13,10.056c.021.107.036.216.052.333v.031l.016.148-1.857.779a1.478,1.478,0,0,1-1.33-.855c-.431-.894-1.956,0-1.956,0s-4.658-.351-6.38.507c0,0-2.78-1.166-3.169-1.244s-.979-.39-1.255-.312-.626-.52-.821-.468-.26-.387-.9-.543-.862.039-1.559-.662-6.419-3.46-6.419-3.46l-2.582-2.1-2.741-2.177-.049.091c-.016-.065-.034-.132-.052-.2a25.984,25.984,0,0,0-1.016-3.2c-.177-.421-.26-.953-.491-.673-.145.169-.395-.2-.779-.449a.647.647,0,0,0-.966.281h0c-2.133,3.343-2.9,3.585-1.66,4.808,1.1,1.091,1.831,2.055,2.73,2.338l.106.034a.151.151,0,0,1-.06,0l5.2,6.222s3.756,3.268,6.341,4.317,2.387,1.361,2.387,1.361,7.827,3.967,9.04,3.9.979,8.128.47,9.451-1.33,10.89-1.33,10.89a4.58,4.58,0,0,0,.039,3.421,21.586,21.586,0,0,1,.018,3.323,11.4,11.4,0,0,0-1.9,4.884,2.777,2.777,0,0,1-.031.3.672.672,0,0,1-.184.151s.068-.016.174-.052a9.87,9.87,0,0,1-.52,2.338,9.528,9.528,0,0,0-.639,3.377v6.18l-.517,3.832s-.626,2.9,0,3.577a1.645,1.645,0,0,1,.343,1.192,2.208,2.208,0,0,0,.4,1.39,1.054,1.054,0,0,1,.26.894c-.208.673.307,7.827.307,7.827a7.961,7.961,0,0,1-.358,2.078c-.208.107.348,2.265.348,2.265s-2.115,1.764-1.577,2.7l.54.829-.143.14-.088.088a.824.824,0,0,0-.538-.1,20.155,20.155,0,0,1-2.128,1.894,23.054,23.054,0,0,1-3.548,1.686l-2.047.166h-.039s-.979-.091-.431,1.426,5.455,1.039,5.455,1.039l2.858-.452a54.991,54.991,0,0,0,6.575-.3c.613-.138.758-.462.72-.795h0l-.016-.016a2.044,2.044,0,0,0-.418-.86.409.409,0,0,0-.036-.044l.094-1.039c2.169-1.25-.613-3.71-.613-3.71A24.807,24.807,0,0,1,825.9,178.5c.491-.668.488-10.578.488-10.578s.26-3.58-.418-4.416a1.494,1.494,0,0,1,.73-1.348c.483-.33,1.943-4.873,3.089-8.645l.722,4.445s-.156,2.125.314,2.748a1.058,1.058,0,0,1,.192.826,3.676,3.676,0,0,0,.106,1.8,1.164,1.164,0,0,0,.377.639c.418.208.444.948.6,1.1s1.122-.221,1.174.348a12.722,12.722,0,0,1,0,1.5l.314,9.23a6.038,6.038,0,0,0-.626,2.8,3.621,3.621,0,0,1-.377,1.652.844.844,0,0,0,.078.992l.091.1-.387.3a.844.844,0,0,0-.239,1.039.834.834,0,0,0-.242.9,1.038,1.038,0,0,0,.068.145,1.463,1.463,0,0,0-.779.384,6.388,6.388,0,0,1-1.377,1.387,25.943,25.943,0,0,0-2.2,1.881,3.154,3.154,0,0,1-1.283,1.039,2.079,2.079,0,0,1-.387.114c-1.039.21-.7,1.286.13,1.455s3.6,1.024,5.754.52a2.011,2.011,0,0,0,1.577-.218,21.713,21.713,0,0,1,3.073-1.039s1.174,0,1.33-.468a1.8,1.8,0,0,0,.068-.455l.034-.031-.031-.029a6.108,6.108,0,0,0-.081-1.039c-.028-.177-.062-.338-.093-.465-.1-.39-.286-.891-.366-1.1a.392.392,0,0,0,.036-.055c.447-.756-.3-2.6-.3-2.6a4.962,4.962,0,0,1,.886-1.039c.418-.309,1.514-8.4,1.514-8.4a7.282,7.282,0,0,1,.52-3.008c.571-.93-.779-6.585-.779-6.585s-.574-1.3-.364-1.764a6.181,6.181,0,0,0-.21-2.177v-2.042a2.242,2.242,0,0,0-.12-.717,3.41,3.41,0,0,1-.14-2.078c.366-.933,1.2-6.689,1.2-6.689a7.709,7.709,0,0,1,.3-4.559,4.371,4.371,0,0,1,.26-.47c.706-1.112.5-3.086.148-4.676-.055-.247-.112-.483-.169-.709-.026-.1-.052-.187-.075-.278l.112-.047a3.5,3.5,0,0,1,.034-.41,2.857,2.857,0,0,0,1.883-1.3,21.011,21.011,0,0,1,4.5-3.811,3.9,3.9,0,0,0,2.271-2.761c-.314-.546.558-2.761.558-2.761ZM841,104.322Zm1.437,23.938-2.26,2.621a.056.056,0,0,1,0-.016c-.587-.816.548-2.645.548-2.645l1.868-4.185a2.532,2.532,0,0,1-.244,1.237c-.52.7.938,1.868.938,1.868-.782-.008-.86,1.12-.86,1.12Z" transform="translate(-605.533 -76.362)" fill="url(#linear-gradient)"/>
    <path id="Path_1259" data-name="Path 1259" d="M804.3,96.356l-1.231,2.393a4.768,4.768,0,0,1-1.148-.239,4.356,4.356,0,0,1-2.7-2.338,3.391,3.391,0,0,1,1.572-4.473c.849-.462,1.636-.995,2.273.52a26.334,26.334,0,0,1,1,3.174C804.208,95.968,804.3,96.356,804.3,96.356Z" transform="translate(-607.2 -78.815)" fill="#cc818c"/>
    <path id="Path_1260" data-name="Path 1260" d="M942.937,137.128l-1.969,2.938s-9.316,4.442-7.533-.779a11.769,11.769,0,0,0,.735-5.146v-.031a4.061,4.061,0,0,0-.73-2.078s9.079-4.645,7.728-1.468a4.416,4.416,0,0,0-.322,2.091,7.121,7.121,0,0,0,.979,2.9A9.608,9.608,0,0,0,942.937,137.128Z" transform="translate(-706.635 -107.118)" fill="#cc818c"/>
    <path id="Path_1261" data-name="Path 1261" d="M900.634,304.526s1.34,5.616.779,6.544a7.379,7.379,0,0,0-.519,2.987s-1.083,8.04-1.5,8.349a4.933,4.933,0,0,0-.875,1.039s.735,1.818.294,2.572a.612.612,0,0,1-.294.26c-.691.291-3.242-1-4.694-1.792a.8.8,0,0,1-.385-.46.819.819,0,0,1,.236-.888.847.847,0,0,1,.236-1.039l.382-.3-.088-.1a.845.845,0,0,1-.078-.987,3.643,3.643,0,0,0,.372-1.639,5.99,5.99,0,0,1,.618-2.782l-.309-9.173a13.141,13.141,0,0,0,0-1.494c-.052-.566-1.005-.192-1.159-.348s-.182-.888-.592-1.1a1.153,1.153,0,0,1-.374-.634,3.7,3.7,0,0,1-.107-1.79,1.054,1.054,0,0,0-.19-.821c-.465-.618-.309-2.73-.309-2.73l-.712-4.416c-1.133,3.749-2.574,8.263-3.05,8.591a1.486,1.486,0,0,0-.722,1.34c.67.823.413,4.38.413,4.38s0,9.84-.483,10.51a25.623,25.623,0,0,0-1.424,2.73s2.761,2.457.59,3.7l-.023.013c-2.216,1.237-6.8-2.213-6.8-2.213l.478-.478.14-.14-.52-.826c-.533-.927,1.559-2.678,1.559-2.678s-.556-2.164-.351-2.268a7.909,7.909,0,0,0,.351-2.063s-.507-7.11-.3-7.778a1.039,1.039,0,0,0-.244-.888,2.217,2.217,0,0,1-.395-1.379,1.642,1.642,0,0,0-.338-1.185c-.618-.67,0-3.556,0-3.556l.519-3.813v-6.074a9.613,9.613,0,0,1,.624-3.408,10.28,10.28,0,0,0,.561-2.743,11.517,11.517,0,0,1,1.925-4.936c.374-.572.652-.914.652-.914l16.488-.647s.26.735.52,1.756c.057.223.114.457.166.7.345,1.585.553,3.546-.146,4.653a3.677,3.677,0,0,0-.26.465,7.7,7.7,0,0,0-.3,4.53s-.823,5.715-1.184,6.648a3.335,3.335,0,0,0,.14,2.052,2.283,2.283,0,0,1,.117.712v2.029a6.234,6.234,0,0,1,.208,2.164C900.075,303.237,900.634,304.526,900.634,304.526Z" transform="translate(-667.153 -216.381)" fill="#bdc3c7"/>
    <path id="Path_1262" data-name="Path 1262" d="M957.79,291.743a4.324,4.324,0,0,0-.26.465l-.927-.052c.088-.478-.543-4.959-.543-4.959l1.87-.107C958.279,288.685,958.489,290.649,957.79,291.743Z" transform="translate(-723.551 -223.806)" opacity="0.1"/>
    <path id="Path_1263" data-name="Path 1263" d="M958.38,291.193a3.694,3.694,0,0,0-.26.465l-.93-.052c.091-.478-.54-4.962-.54-4.962l1.868-.1C958.871,288.125,959.079,290.086,958.38,291.193Z" transform="translate(-723.987 -223.399)" fill="#ff4757"/>
    <path id="Path_1264" data-name="Path 1264" d="M958.38,291.193a3.694,3.694,0,0,0-.26.465l-.93-.052c.091-.478-.54-4.962-.54-4.962l1.868-.1C958.871,288.125,959.079,290.086,958.38,291.193Z" transform="translate(-723.987 -222.399)" fill="#ff4757" opacity="0.05"/>
    <path id="Path_1265" data-name="Path 1265" d="M937.492,459.765a.61.61,0,0,1-.294.26c-.691.291-3.242-1-4.694-1.792a.8.8,0,0,1-.385-.46c.826-.151,1.369.779,1.369.779a1.218,1.218,0,0,1,1.7.413c.709,1.039,2.229.6,2.229.6S937.448,459.638,937.492,459.765Z" transform="translate(-705.83 -350.138)" opacity="0.1"/>
    <path id="Path_1266" data-name="Path 1266" d="M919.335,463.354c-.156.462-1.314.462-1.314.462a24.675,24.675,0,0,0-3,1.057,2.053,2.053,0,0,1-1.559.218c-2.128.491-4.858-.359-5.681-.52s-1.148-1.237-.13-1.442a2.032,2.032,0,0,0,.382-.117,3.1,3.1,0,0,0,1.268-1.039,26.281,26.281,0,0,1,2.169-1.87,6.277,6.277,0,0,0,1.361-1.377c1.211-1.07,2.078.4,2.078.4a1.218,1.218,0,0,1,1.7.413c.709,1.039,2.229.6,2.229.6s.26.7.4,1.2c.031.127.065.288.094.465A4.062,4.062,0,0,1,919.335,463.354Z" transform="translate(-687.244 -350.568)" fill="#ff748f"/>
    <circle id="Ellipse_231" data-name="Ellipse 231" cx="0.143" cy="0.143" r="0.143" transform="translate(228.405 109.243)" fill="#575988"/>
    <circle id="Ellipse_232" data-name="Ellipse 232" cx="0.143" cy="0.143" r="0.143" transform="translate(227.194 110.376)" fill="#575988"/>
    <circle id="Ellipse_233" data-name="Ellipse 233" cx="0.143" cy="0.143" r="0.143" transform="translate(225.963 111.394)" fill="#575988"/>
    <circle id="Ellipse_234" data-name="Ellipse 234" cx="0.143" cy="0.143" r="0.143" transform="translate(226.6 110.94)" fill="#575988"/>
    <circle id="Ellipse_235" data-name="Ellipse 235" cx="0.143" cy="0.143" r="0.143" transform="translate(227.826 109.773)" fill="#575988"/>
    <path id="Path_1267" data-name="Path 1267" d="M919.335,473.238c-.156.462-1.314.462-1.314.462a24.7,24.7,0,0,0-3,1.057,2.053,2.053,0,0,1-1.559.218c-2.128.491-4.858-.358-5.681-.519s-1.148-1.237-.13-1.442a2.033,2.033,0,0,0,.382-.117,9.87,9.87,0,0,0,2.787.52c2.1.088,3.761,0,3.761,0l2.125-.683a3.555,3.555,0,0,1,1.314-.478,3.378,3.378,0,0,0,1.3-.566A4.066,4.066,0,0,1,919.335,473.238Z" transform="translate(-687.244 -360.452)" fill="#dce6f2"/>
    <path id="Path_1268" data-name="Path 1268" d="M933.084,477.273a1.752,1.752,0,0,1-.353-.036l.031-.151a2.231,2.231,0,0,0,1.273-.177,6.091,6.091,0,0,0,.564-.26,6.561,6.561,0,0,1,.67-.294l.21-.073c.117-.039.234-.078.345-.127.065-.026.127-.057.19-.086a2.121,2.121,0,0,1,.478-.182,2.227,2.227,0,0,1,.26-.034,2.216,2.216,0,0,0,.234-.029,2.033,2.033,0,0,0,.447-.166,2.165,2.165,0,0,1,.48-.177l.115-.021a.548.548,0,0,0,.332-.122l.112.107a.693.693,0,0,1-.421.169l-.107.018a2.024,2.024,0,0,0-.447.166,2.172,2.172,0,0,1-.481.177,1.707,1.707,0,0,1-.26.031,2.261,2.261,0,0,0-.242.031,1.965,1.965,0,0,0-.442.171l-.195.088c-.12.049-.239.091-.359.13l-.205.073c-.223.083-.444.187-.66.286s-.377.179-.571.26A2.75,2.75,0,0,1,933.084,477.273Z" transform="translate(-706.281 -363.153)" fill="#575988" opacity="0.5"/>
    <path id="Path_1269" data-name="Path 1269" d="M936,379.278a3.747,3.747,0,0,1,2.9-1.533,9.924,9.924,0,0,0,2.613-.205,6.488,6.488,0,0,1-1.982.779A33.491,33.491,0,0,0,936,379.278Z" transform="translate(-708.702 -290.759)" opacity="0.1"/>
    <path id="Path_1270" data-name="Path 1270" d="M938.38,383.414a4.306,4.306,0,0,1,1.52-.7c.553-.026,1.039-.078,1.039-.078a2.934,2.934,0,0,1-.849.413C939.617,383.183,938.38,383.414,938.38,383.414Z" transform="translate(-710.464 -294.534)" opacity="0.1"/>
    <path id="Path_1271" data-name="Path 1271" d="M939.17,387.4s1.457.117,1.47.5" transform="translate(-711.048 -298.058)" opacity="0.1"/>
    <path id="Path_1272" data-name="Path 1272" d="M887,296.015a5.808,5.808,0,0,0,1.465-1.894,1.325,1.325,0,0,1,.566-.831s.839.335.091,1.361A4.161,4.161,0,0,1,887,296.015Z" transform="translate(-672.431 -228.395)" opacity="0.1"/>
    <path id="Path_1273" data-name="Path 1273" d="M941.8,130.508c-.3.7-.558.753-.5,1.434a5.164,5.164,0,0,1-1.179.927c-.922.548-1.925,1.618-3.073,1.618a6.091,6.091,0,0,1-2.244-.423,4.061,4.061,0,0,0-.73-2.078S943.144,127.331,941.8,130.508Z" transform="translate(-707.273 -107.079)" opacity="0.1"/>
    <path id="Path_1274" data-name="Path 1274" d="M934.157,106.644a6.144,6.144,0,1,1-6.144-6.144,6.144,6.144,0,0,1,6.144,6.144Z" transform="translate(-698.242 -85.687)" fill="#cc818c"/>
    <path id="Path_1275" data-name="Path 1275" d="M942.937,150.487l-1.969,2.938s-9.316,4.442-7.533-.779a11.769,11.769,0,0,0,.735-5.146h.016a4.878,4.878,0,0,1,.184,1.185c.029.8.049,1.818,2.039,2.151a5.558,5.558,0,0,0,5.411-1.925A9.6,9.6,0,0,0,942.937,150.487Z" transform="translate(-706.635 -120.478)" opacity="0.1"/>
    <path id="Path_1276" data-name="Path 1276" d="M812.656,108.18l-1.231,2.393a4.768,4.768,0,0,1-1.148-.239l-.107-.127c.5.192,2.2-3.016,2.2-3.016l.055.044C812.568,107.793,812.656,108.18,812.656,108.18Z" transform="translate(-615.559 -90.639)" opacity="0.1"/>
    <path id="Path_1277" data-name="Path 1277" d="M912.68,278.841c-3.977,1.728-17.74.26-17.74.26a1.73,1.73,0,0,0,.07-.449c.374-.572.652-.914.652-.914l16.488-.647S912.418,277.82,912.68,278.841Z" transform="translate(-678.308 -216.404)" opacity="0.1"/>
    <path id="Path_1278" data-name="Path 1278" d="M843.613,118.249l-1.834.779a1.465,1.465,0,0,1-1.314-.852c-.423-.888-1.93,0-1.93,0s-4.6-.348-6.3.5c0,0-2.743-1.161-3.117-1.237s-.966-.387-1.237-.309-.618-.5-.811-.465-.273-.387-.891-.54-.849.039-1.546-.657-6.336-3.439-6.336-3.439l-2.551-2.078-2.7-2.164s-1.7,3.206-2.2,3.013l5.138,6.183s3.71,3.247,6.261,4.289,2.356,1.353,2.356,1.353,7.731,3.941,8.928,3.865.966,8.076.462,9.391-1.312,10.82-1.312,10.82a4.535,4.535,0,0,0,.036,3.4,19.132,19.132,0,0,1,0,3.361s13.849,1.481,17.776-.26c0,0,.579-6.414,0-7.227s.543-2.626.543-2.626l2.455-5.538,6.022-6.071a9.085,9.085,0,0,0-3.206-8.313L853.555,121a10.179,10.179,0,0,0-1.982-1.411c-.447-.083-.283,0-.283,0a5.558,5.558,0,0,1-5.455,1.99c-1.99-.335-2.011-1.348-2.039-2.151A4.874,4.874,0,0,0,843.613,118.249Z" transform="translate(-616.055 -91.083)" fill="#fbc531"/>
    <path id="Path_1279" data-name="Path 1279" d="M936.981,228.13s-8.5.348-10.2,3.016a8.44,8.44,0,0,1,4.172-.735C932.921,230.715,936.981,228.13,936.981,228.13Z" transform="translate(-701.877 -180.162)" opacity="0.1"/>
    <path id="Path_1280" data-name="Path 1280" d="M929.9,258.5s4.019.26,4.871-.579.852-1.351.852-1.351Z" transform="translate(-704.186 -201.214)" opacity="0.1"/>
    <path id="Path_1281" data-name="Path 1281" d="M965.423,196.6s-3.4,4.019.735,5.757Z" transform="translate(-729.508 -156.823)" opacity="0.1"/>
    <path id="Path_1282" data-name="Path 1282" d="M891.67,166.7s1.237,2.522,1.855,2.691Z" transform="translate(-675.887 -134.69)" opacity="0.1"/>
    <path id="Path_1283" data-name="Path 1283" d="M875.61,162.53a46.28,46.28,0,0,0,3.671,3.052S876.072,162.53,875.61,162.53Z" transform="translate(-663.999 -131.603)" opacity="0.1"/>
    <path id="Path_1284" data-name="Path 1284" d="M918.232,152.27s-2.977,4.442-1.039,7.149A9.5,9.5,0,0,1,918.232,152.27Z" transform="translate(-694.295 -124.009)" opacity="0.1"/>
    <path id="Path_1285" data-name="Path 1285" d="M924.473,274.793l-.909.855-.127.119-1.052.995c-.078.057-.151.114-.226.166-4.286,3.073-5.146-1.6-5.146-1.6s-1.894,1.237-2.164.231,4.416-2.434,5.1-2.356a.9.9,0,0,0,.187,0,2.934,2.934,0,0,0,.961-.34c.07-.036.14-.073.208-.112a7.723,7.723,0,0,0,.694-.436Z" transform="translate(-693.036 -212.873)" fill="#cc818c"/>
    <path id="Path_1286" data-name="Path 1286" d="M939.746,106.641a6.144,6.144,0,0,1-3,5.282,3.578,3.578,0,0,1-.223-.447c-.221-.52-.356-1.062-.577-1.577a4.921,4.921,0,0,0-1.039-1.5.657.657,0,0,0-.26-.19.746.746,0,0,0-.564.156,2.552,2.552,0,0,1-.857.377.912.912,0,0,1-.86-.26,1.289,1.289,0,0,1-.135-1.073,13.319,13.319,0,0,0,.4-2.4,2.365,2.365,0,0,0-1.013-2.094,9.023,9.023,0,0,0-2.091-.455,2.25,2.25,0,0,1-.314-.109,6.146,6.146,0,0,1,10.544,4.291Z" transform="translate(-703.676 -85.685)" opacity="0.1"/>
    <path id="Path_1287" data-name="Path 1287" d="M926.994,94.557c-.112.06-.234.166-.2.291a.287.287,0,0,0,.112.143,2.661,2.661,0,0,0,.972.5,8.538,8.538,0,0,1,2.094.455,2.361,2.361,0,0,1,1.013,2.091,14.01,14.01,0,0,1-.4,2.4,1.3,1.3,0,0,0,.138,1.075.917.917,0,0,0,.86.26,2.534,2.534,0,0,0,.855-.374.74.74,0,0,1,.564-.156.685.685,0,0,1,.275.187,4.88,4.88,0,0,1,1.039,1.507c.223.52.358,1.06.577,1.577a2.543,2.543,0,0,0,1.039,1.283,1.3,1.3,0,0,0,1.559-.164c.358-.395.348-.992.519-1.5.307-.875,1.164-1.426,1.7-2.182A6.706,6.706,0,0,0,940.637,99a2.478,2.478,0,0,0,.016-.987,3.573,3.573,0,0,0-.273-.623c-.6-1.237-.584-2.793-1.538-3.782a4.6,4.6,0,0,0-2.826-1.091,7.265,7.265,0,0,1-2.974-.74,3.271,3.271,0,0,0-.805-.447.662.662,0,0,0-.792.3.521.521,0,0,1-.106.216.338.338,0,0,1-.3.018l-1.361-.366.156.686a3.4,3.4,0,0,1-1.444-.26c-.026.387.411.639.546,1a.925.925,0,0,1-.26.943C928.168,94.349,927.55,94.253,926.994,94.557Z" transform="translate(-701.883 -78.868)" fill="#585268"/>
    <path id="Path_1288" data-name="Path 1288" d="M886.749,453.43l-.055.618-.023.013c-2.216,1.237-6.8-2.213-6.8-2.213l.478-.478a.831.831,0,0,1,.208.644l.938.052,1.12,1.211a21.058,21.058,0,0,0,3.852.153Z" transform="translate(-667.153 -345.41)" opacity="0.1"/>
    <path id="Path_1289" data-name="Path 1289" d="M862.472,456.75a54.055,54.055,0,0,1-6.494.3l-2.821.449s-4.855.465-5.4-1.039.423-1.416.423-1.416h.036l2.021-.164a22.736,22.736,0,0,0,3.5-1.676,20.237,20.237,0,0,0,2.1-1.881s.844-.164.828.813l.938.052,1.12,1.208a21.015,21.015,0,0,0,3.853.156h.283l-.13,1.494.036.047C862.953,455.321,863.761,456.461,862.472,456.75Z" transform="translate(-643.263 -345.366)" fill="#ff748f"/>
    <circle id="Ellipse_236" data-name="Ellipse 236" cx="0.143" cy="0.143" r="0.143" transform="translate(213.834 107.487)" fill="#575988"/>
    <circle id="Ellipse_237" data-name="Ellipse 237" cx="0.143" cy="0.143" r="0.143" transform="translate(210.203 109.064)" fill="#575988"/>
    <circle id="Ellipse_238" data-name="Ellipse 238" cx="0.143" cy="0.143" r="0.143" transform="translate(208.332 109.633)" fill="#575988"/>
    <circle id="Ellipse_239" data-name="Ellipse 239" cx="0.143" cy="0.143" r="0.143" transform="translate(211.156 108.763)" fill="#575988"/>
    <circle id="Ellipse_240" data-name="Ellipse 240" cx="0.143" cy="0.143" r="0.143" transform="translate(209.265 109.35)" fill="#575988"/>
    <circle id="Ellipse_241" data-name="Ellipse 241" cx="0.143" cy="0.143" r="0.143" transform="translate(212.12 108.316)" fill="#575988"/>
    <circle id="Ellipse_242" data-name="Ellipse 242" cx="0.143" cy="0.143" r="0.143" transform="translate(213.073 107.903)" fill="#575988"/>
    <path id="Path_1290" data-name="Path 1290" d="M862.472,467.377a54.055,54.055,0,0,1-6.494.3l-2.821.449s-4.855.465-5.4-1.039.423-1.416.423-1.416h.036a2.6,2.6,0,0,0,2.151.878l3.491.143,3.619-.26s3.377-.1,3.941-.218a8.19,8.19,0,0,0,1.351-.5C862.953,465.948,863.761,467.088,862.472,467.377Z" transform="translate(-643.263 -355.993)" fill="#dce6f2"/>
    <path id="Path_1291" data-name="Path 1291" d="M868.372,470.079a2.281,2.281,0,0,1-.572-.07l.052-.14a2.8,2.8,0,0,0,1.439-.065c.172-.044.34-.094.52-.145a5.89,5.89,0,0,1,2.507-.283h.112a23.733,23.733,0,0,0,4.637-.208,1.725,1.725,0,0,0,.992-.4l.112.109a1.881,1.881,0,0,1-1.078.442,24.087,24.087,0,0,1-4.676.208h-.109a7.59,7.59,0,0,0-1.535.044,7.975,7.975,0,0,0-.922.231c-.172.052-.343.1-.52.148A3.862,3.862,0,0,1,868.372,470.079Z" transform="translate(-658.218 -358.29)" fill="#575988" opacity="0.5"/>
    <path id="Path_1292" data-name="Path 1292" d="M942.9,274.793l-.909.855-2.26-2.891a7.7,7.7,0,0,0,.694-.436Z" transform="translate(-711.463 -212.873)" opacity="0.1"/>
    <path id="Path_1293" data-name="Path 1293" d="M952.693,190.5l1.777,2.473v2.6a10.818,10.818,0,0,1,0,5.489l.091,2.4s-.862,2.2-.553,2.743a3.889,3.889,0,0,1-2.242,2.746,21.041,21.041,0,0,0-4.445,3.767,3.025,3.025,0,0,1-3.283,1.314l-2.281.966-2.626-3.361,3.554-1.933s1.237-1.663,1.972-1.585l3.013-3.51s.078-1.12.849-1.12c0,0-1.429-1.159-.927-1.855s.078-3.788.078-3.788Z" transform="translate(-711.018 -152.307)" fill="#fbc531"/>
    <path id="Path_1294" data-name="Path 1294" d="M978.55,233.686s4.058-.075,4.559.966S979.787,233.107,978.55,233.686Z" transform="translate(-740.198 -184.211)" opacity="0.1"/>
    <path id="Path_1295" data-name="Path 1295" d="M938.54,277.119a1.074,1.074,0,0,1-.016.2,1.367,1.367,0,0,1-1.278,1.161h-.073a1.364,1.364,0,0,1-1.364-1.364,1.4,1.4,0,0,1,.075-.444,2.352,2.352,0,0,1-.662-1.915,2.937,2.937,0,0,0,.961-.34,6.4,6.4,0,0,0,.673,1.374,1.3,1.3,0,0,1,.317-.039,1.364,1.364,0,0,1,1.366,1.364Z" transform="translate(-708.124 -214.427)" opacity="0.1"/>
    <path id="Path_1296" data-name="Path 1296" d="M936.745,273.26s-.914.205-.914.371-.205,1.676.8,2.294.9-.862.9-.862S936.667,273.735,936.745,273.26Z" transform="translate(-708.564 -213.569)" fill="#575988"/>
    <circle id="Ellipse_243" data-name="Ellipse 243" cx="1.366" cy="1.366" r="1.366" transform="translate(227.839 61.325)" fill="#e4aab4"/>
    <circle id="Ellipse_244" data-name="Ellipse 244" cx="1.172" cy="1.172" r="1.172" transform="translate(228.034 61.52)" fill="#dce6f2"/>
    <path id="Path_1297" data-name="Path 1297" d="M922.8,286.84a6.767,6.767,0,0,0,6.6.878v1.159s-2.473,1.7-4.715.67S922.8,286.84,922.8,286.84Z" transform="translate(-698.914 -223.621)" opacity="0.1"/>
    <path id="Path_1298" data-name="Path 1298" d="M922.8,285.65a6.761,6.761,0,0,0,6.6.87v1.159s-2.473,1.7-4.715.67S922.8,285.65,922.8,285.65Z" transform="translate(-698.914 -222.74)" opacity="0.1"/>
    <path id="Path_1299" data-name="Path 1299" d="M922.8,285.65a6.761,6.761,0,0,0,6.6.87v1.159s-2.473,1.7-4.715.67S922.8,285.65,922.8,285.65Z" transform="translate(-698.914 -222.74)" fill="#ff4757"/>
    <path id="Path_1300" data-name="Path 1300" d="M923.1,285.65a6.767,6.767,0,0,0,6.6.878v1.159s-2.481,1.691-4.715.67S923.1,285.65,923.1,285.65Z" transform="translate(-699.139 -221.74)" fill="#ff4757" opacity="0.05"/>
    <path id="Path_1301" data-name="Path 1301" d="M888,451.32s3.865.709,4.432.862-.156.426-.156.426S888.735,451.977,888,451.32Z" transform="translate(-673.171 -345.373)" opacity="0.1"/>
    <path id="Path_1302" data-name="Path 1302" d="M887.61,437.859c.062,0,2.626-.722,3.18-1.959" transform="translate(-672.882 -333.959)" opacity="0.1"/>
    <path id="Path_1303" data-name="Path 1303" d="M902,386.506s1.039,1.366,1.709,1.327S902.61,386.454,902,386.506Z" transform="translate(-683.534 -297.395)" opacity="0.1"/>
    <path id="Path_1304" data-name="Path 1304" d="M904.22,395.24s.436.966,1.081.657" transform="translate(-685.177 -303.861)" opacity="0.1"/>
    <path id="Path_1305" data-name="Path 1305" d="M913.59,313.54l2.741,7.227s.387-4.65-.431-6.042A2.413,2.413,0,0,0,913.59,313.54Z" transform="translate(-692.113 -243.377)" opacity="0.05"/>
    <g id="Group_1574" data-name="Group 1574" transform="translate(224.877 12.678)" opacity="0.1">
      <path id="Path_1306" data-name="Path 1306" d="M938.235,92.5l-.023-.1-.442-.117.049.216a3.162,3.162,0,0,0,.416.005Z" transform="translate(-934.889 -92.28)"/>
      <path id="Path_1307" data-name="Path 1307" d="M933.335,95.49l.047-.042a.922.922,0,0,0,.26-.94,1.267,1.267,0,0,0-.218-.351,3.385,3.385,0,0,1-.636-.187c-.026.387.411.636.546,1A.78.78,0,0,1,933.335,95.49Z" transform="translate(-931.2 -93.531)"/>
      <path id="Path_1308" data-name="Path 1308" d="M936.116,114.675a2.554,2.554,0,0,1-1.039-1.283c-.221-.52-.353-1.065-.577-1.577a4.844,4.844,0,0,0-1.039-1.5.657.657,0,0,0-.273-.19.738.738,0,0,0-.564.156,2.6,2.6,0,0,1-.857.377.927.927,0,0,1-.86-.26,1.289,1.289,0,0,1-.135-1.073,13.342,13.342,0,0,0,.4-2.4,2.32,2.32,0,0,0-1.016-2.078,8.925,8.925,0,0,0-2.078-.455,2.639,2.639,0,0,1-.972-.5l-.055-.049a1.657,1.657,0,0,0-.169.081c-.112.06-.231.166-.2.288a.309.309,0,0,0,.115.145,2.675,2.675,0,0,0,.971.5,8.641,8.641,0,0,1,2.091.457,2.352,2.352,0,0,1,1.016,2.078,13.973,13.973,0,0,1-.4,2.4,1.293,1.293,0,0,0,.135,1.073.914.914,0,0,0,.86.26,2.6,2.6,0,0,0,.857-.374.751.751,0,0,1,.564-.158.682.682,0,0,1,.26.19,4.906,4.906,0,0,1,1.039,1.5c.223.52.356,1.062.577,1.577a2.548,2.548,0,0,0,1.039,1.3,1.315,1.315,0,0,0,1.559-.164,1.228,1.228,0,0,0,.231-.387A1.325,1.325,0,0,1,936.116,114.675Z" transform="translate(-926.681 -100.837)"/>
      <path id="Path_1309" data-name="Path 1309" d="M971.54,133.055c.387-.488.894-.9,1.257-1.418a3.613,3.613,0,0,0,.2-.317A12.877,12.877,0,0,0,971.54,133.055Z" transform="translate(-959.887 -121.178)"/>
    </g>
    <g id="Group_1576" data-name="Group 1576" transform="translate(148.93 17.255)" opacity="0.1">
      <path id="Path_1310" data-name="Path 1310" d="M699,109.9H637.533a3.221,3.221,0,0,0-3.213,3.211v38.834a3.221,3.221,0,0,0,3.213,3.211h48.214s1.25,6.632-2.858,7.344c0,0,9.191.66,7.585-7.344h8.518a3.219,3.219,0,0,0,3.211-3.211V113.111A3.219,3.219,0,0,0,699,109.9Z" transform="translate(-634.32 -109.9)"/>
      <g id="Group_1575" data-name="Group 1575" transform="translate(9.048 10.308)" opacity="0.2">
        <rect id="Rectangle_640" data-name="Rectangle 640" width="49.788" height="3.034" rx="1.517"/>
        <rect id="Rectangle_641" data-name="Rectangle 641" width="41.083" height="3.034" rx="1.517" transform="translate(0 13.56)"/>
        <rect id="Rectangle_642" data-name="Rectangle 642" width="29.575" height="3.034" rx="1.517" transform="translate(0 6.78)"/>
      </g>
    </g>
    <path id="Path_1311" data-name="Path 1311" d="M702.086,107.83H640.623a3.224,3.224,0,0,0-3.213,3.213v38.834a3.221,3.221,0,0,0,3.213,3.211h48.214s1.25,6.632-2.858,7.344c0,0,9.191.66,7.585-7.344h8.518a3.219,3.219,0,0,0,3.211-3.211V111.043A3.221,3.221,0,0,0,702.086,107.83Z" transform="translate(-487.678 -91.113)" fill="#fff"/>
    <g id="Group_1577" data-name="Group 1577" transform="translate(158.78 27.025)" opacity="0.2">
      <rect id="Rectangle_643" data-name="Rectangle 643" width="49.788" height="3.034" rx="1.517" fill="#6c63ff"/>
      <rect id="Rectangle_644" data-name="Rectangle 644" width="41.083" height="3.034" rx="1.517" transform="translate(0 13.563)" fill="#6c63ff"/>
      <rect id="Rectangle_645" data-name="Rectangle 645" width="29.575" height="3.034" rx="1.517" transform="translate(0 6.783)" fill="#6c63ff"/>
    </g>
    <path id="Path_1312" data-name="Path 1312" d="M134.926,596.48s.925,1.211-.429,3.039-2.47,3.377-2.018,4.512c0,0,2.042-3.4,3.7-3.442S136.755,598.522,134.926,596.48Z" transform="translate(-113.839 -452.824)" fill="#6c63ff"/>
    <path id="Path_1313" data-name="Path 1313" d="M135.076,596.48a1.53,1.53,0,0,1,.187.379c1.624,1.907,2.486,3.684.927,3.73-1.452.042-3.193,2.637-3.611,3.294a.473.473,0,0,0,.049.148s2.042-3.4,3.7-3.442S136.905,598.522,135.076,596.48Z" transform="translate(-113.989 -452.824)" opacity="0.1"/>
    <path id="Path_1314" data-name="Path 1314" d="M148.2,601.634c0,.426-.047.779-.107.779s-.107-.346-.107-.779.06-.226.12-.226S148.2,601.208,148.2,601.634Z" transform="translate(-125.396 -456.435)" fill="#ffd037"/>
    <path id="Path_1315" data-name="Path 1315" d="M149,603.552c-.374.205-.7.327-.73.275s.26-.26.626-.462.229-.055.26,0S149.378,603.35,149,603.552Z" transform="translate(-125.605 -457.844)" fill="#ffd037"/>
    <path id="Path_1316" data-name="Path 1316" d="M117.43,596.48s-.925,1.211.429,3.039,2.47,3.377,2.018,4.512c0,0-2.042-3.4-3.7-3.442S115.6,598.522,117.43,596.48Z" transform="translate(-101.237 -452.824)" fill="#6c63ff"/>
    <path id="Path_1317" data-name="Path 1317" d="M117.43,596.48a1.528,1.528,0,0,0-.187.379c-1.624,1.907-2.486,3.684-.927,3.73,1.452.042,3.193,2.637,3.611,3.294-.013.049-.031.1-.049.148,0,0-2.042-3.4-3.7-3.442S115.6,598.522,117.43,596.48Z" transform="translate(-101.237 -452.824)" opacity="0.1"/>
    <path id="Path_1318" data-name="Path 1318" d="M116.73,601.634c0,.426.047.779.107.779s.107-.346.107-.779-.06-.226-.119-.226S116.73,601.208,116.73,601.634Z" transform="translate(-102.257 -456.435)" fill="#ffd037"/>
    <path id="Path_1319" data-name="Path 1319" d="M113.791,603.552c.374.205.7.327.73.275s-.26-.26-.626-.462-.229-.055-.26,0S113.415,603.35,113.791,603.552Z" transform="translate(-99.91 -457.844)" fill="#ffd037"/>
    <ellipse id="Ellipse_245" data-name="Ellipse 245" cx="9.684" cy="1.486" rx="9.684" ry="1.486" transform="translate(8.956 157.502)" fill="#6c63ff" opacity="0.1"/>
    <path id="Path_1320" data-name="Path 1320" d="M123.555,617.664l-.047.377-.065.535-.029.223-.065.533-.026.223-.065.535-.743,6.076c-.065.543-.951.966-2.021.966h-3.86c-1.07,0-1.954-.423-2.021-.966l-.743-6.074-.065-.535-.026-.223-.065-.533-.029-.223-.065-.535-.047-.377c-.036-.307.444-.566,1.039-.566h7.874C123.1,617.1,123.581,617.357,123.555,617.664Z" transform="translate(-99.92 -468.088)" fill="#65617d"/>
    <path id="Path_1321" data-name="Path 1321" d="M62.574,577.23l-.065.535H52.765l-.065-.535Z" transform="translate(-38.998 -427.277)" fill="#9d9cb5"/>
    <path id="Path_1322" data-name="Path 1322" d="M62.742,580.15l-.065.533h-9.56l-.068-.533Z" transform="translate(-39.257 -429.439)" fill="#9d9cb5"/>
    <path id="Path_1323" data-name="Path 1323" d="M62.915,583.06l-.065.535H53.475l-.065-.535Z" transform="translate(-39.524 -431.593)" fill="#9d9cb5"/>
    <ellipse id="Ellipse_246" data-name="Ellipse 246" cx="21.831" cy="3.582" rx="21.831" ry="3.582" transform="translate(145.94 201.474)" fill="#6c63ff" opacity="0.1"/>
    <g id="Group_1579" data-name="Group 1579" transform="translate(122.973 95.047)" opacity="0.1">
      <path id="Path_1324" data-name="Path 1324" d="M604.484,409.36h-66.6a3.491,3.491,0,0,0-3.481,3.481v42.083a3.491,3.491,0,0,0,3.481,3.481h52.248s1.353,7.185-3.094,7.957c0,0,9.957.714,8.217-7.957h9.232a3.491,3.491,0,0,0,3.481-3.481V412.841A3.491,3.491,0,0,0,604.484,409.36Z" transform="translate(-534.4 -409.36)"/>
      <g id="Group_1578" data-name="Group 1578" transform="translate(9.804 18.519)" opacity="0.2">
        <rect id="Rectangle_646" data-name="Rectangle 646" width="53.955" height="3.289" rx="1.644" transform="translate(0 7.349)"/>
        <rect id="Rectangle_647" data-name="Rectangle 647" width="23.395" height="3.289" rx="1.644"/>
      </g>
    </g>
    <path id="Path_1325" data-name="Path 1325" d="M602.257,407.13H535.641a3.491,3.491,0,0,0-3.481,3.481v42.083a3.491,3.491,0,0,0,3.481,3.481h52.248s1.353,7.185-3.094,7.959c0,0,9.96.714,8.219-7.959h9.243a3.491,3.491,0,0,0,3.481-3.481V410.611A3.491,3.491,0,0,0,602.257,407.13Z" transform="translate(-409.769 -312.663)" fill="#fff"/>
    <g id="Group_1580" data-name="Group 1580" transform="translate(132.198 112.987)" opacity="0.2">
      <rect id="Rectangle_648" data-name="Rectangle 648" width="53.955" height="3.289" rx="1.644" transform="translate(0 7.349)" fill="#6c63ff"/>
      <rect id="Rectangle_649" data-name="Rectangle 649" width="23.395" height="3.289" rx="1.644" fill="#6c63ff"/>
    </g>
    <path id="Path_1326" data-name="Path 1326" d="M598.162,496.757c-.314-1.333-.52-2.5-.52-2.5a5.162,5.162,0,0,0-.579-2.543v-.364h0v-2.683a9,9,0,0,1,.678-1.405c.483-.844,0-3.935,0-3.935s-1.792-4.359-1.356-7.123-3.681-12.279-3.681-12.279a12.072,12.072,0,0,1,.387-2.717,2.1,2.1,0,0,0,.052-.569.612.612,0,0,0,0-.07v.023a21.222,21.222,0,0,0-1.5-5.242l.195-6.513a19.151,19.151,0,0,0-.582-9c-.52-1.8-.86-3.239-1.073-4.349-.023-.127-.047-.26-.068-.364,3.091-.47,5.455-.862,5.455-.862s-1.787-7.5-3-8.8S590.393,420,590.393,420s-.631-5.3.387-6.842a10.268,10.268,0,0,0,1.161-4.216s2.338-1.689,2.616-2.437a12.9,12.9,0,0,0,.779-3.328c0-.891-.291-1.689-.195-2.156s-.678-2.25-.291-3.094a2.27,2.27,0,0,0,.156-.813v-.023h0a11.494,11.494,0,0,0-.205-2.2,6.235,6.235,0,0,0-2.3-1.229l-.052-.2-.13-.52c-.078-.052-.153-.1-.229-.138v-.192l-.023-.761.366-1.709c.714-2.977-3.258-3.421-3.258-3.421a2.078,2.078,0,0,0-1.125-.985c-.8-.281-.133,4.476.242,4.78a17.258,17.258,0,0,1,1.559,2.452h0l.068.122a1.459,1.459,0,0,0-.182.19l.151,1.039.023.158a4.328,4.328,0,0,0-.634,1.081,2.308,2.308,0,0,1,.582,1.689,5.134,5.134,0,0,0,.239,2.06c-.041-.049-.553-.6-1.062-.468s-1.938.564-1.938.564-1.065.187-.966.421-.727,1.265-.727,1.265l-2.857-2.712c-.026-.081-.057-.161-.083-.247a6.807,6.807,0,0,1-.26-1.187,6.786,6.786,0,0,0,.914-.291,1.979,1.979,0,0,0,.779-.507,3.082,3.082,0,0,0,.46-1.234,17.836,17.836,0,0,1,1.063-2.369,7.69,7.69,0,0,0,.571-4.252,2.808,2.808,0,0,0-.439-1.244c-.468-.644-1.315-.9-1.933-1.418s-1.013-1.3-1.73-1.681a3.444,3.444,0,0,0-2.174-.187,11.711,11.711,0,0,0-4.055,1.475,2.088,2.088,0,0,1-1.356.447,1.827,1.827,0,0,1-.979-.72.048.048,0,0,1,.013-.039l-.031-.036a5.031,5.031,0,0,0-.423,2.122,3.023,3.023,0,0,0,.013.343v.218h0a.523.523,0,0,1-.021.153,1.118,1.118,0,0,1-.26.387,2.032,2.032,0,0,0-.234.317,1.054,1.054,0,0,1,.039-.117,1.7,1.7,0,0,0-.3.9.894.894,0,0,0,.213.644,3.11,3.11,0,0,0,.468.377,5.455,5.455,0,0,0,2.6,5.674c.034.081.068.164.1.247a6.828,6.828,0,0,1,.52,3.117,1.139,1.139,0,0,1-.036.229c-.016.075-.07.078-.1.119h0s-4.725.047-5.84-.961-2.808,2.46-2.808,2.46-1.694.327-2.031,0-2.325-.047-2.325-.047A4.273,4.273,0,0,0,559.939,400a8.739,8.739,0,0,0-2.167-1.205h0l-.052-.018h0a2.437,2.437,0,0,0-1.065-.135,21.858,21.858,0,0,1-3-2.951c-.678-1.029-3.9-4.855-3.92-4.873v-.184l-.036-.559a1.84,1.84,0,0,1-.288.026c-.018-.055-.039-.119-.065-.192a10.8,10.8,0,0,0-.686-1.577s0-.7.205-.878a12.023,12.023,0,0,0-.086-2.754s-2.094-4.9-3.969-1.242c0,0-3.546,2.367-.569,5.12,0,0,1.187.574,1.354,1.039.112.3.52,1.122.779,1.67l.122.247-.034.029.044.46.018.177c-.561.32-.94.634-.849.873a5.276,5.276,0,0,1,.34,1.265s4.1,5.144,4.632,7.352c0,0,11.038,6.559,14.669,7.027L564.685,412a26.212,26.212,0,0,0-.146,2.67c.047.7-.436,3.9-.436,3.9s-.629,4.676-1.161,5.341-.424,3.463-.424,3.463a23.666,23.666,0,0,1-.727,3.982,10.44,10.44,0,0,0-.146,3.985s-1.839,4.216,2.567,1.359c0,0,2.164-.135,4.655-.221v.26c0,.32,0,.668-.016,1.039-.034,2.416-.047,5.744.062,8.263.195,4.45,1.559,13.261,1.559,13.261v4.416a6.075,6.075,0,0,0-.127,1.265,8.247,8.247,0,0,0,1.192,4.432l.34,2.951a11.555,11.555,0,0,1,.81,3.117,1.788,1.788,0,0,1-.034.283,2.017,2.017,0,0,0-.039.452,25.5,25.5,0,0,0,.764,4.546s.047,3.234.52,3.421c.413.161-.553,1.865-.842,2.354a.173.173,0,0,0-.018-.094l-.06.1a2.267,2.267,0,0,0-.151.816,1.177,1.177,0,0,0,.538,1.138c.92.561,1.413,1.039.631,1.218a8.376,8.376,0,0,0-.852.179l-.042-.109a.52.52,0,0,0-.317.566,2.358,2.358,0,0,0,.288,1.1,12.5,12.5,0,0,0,1.3,2.39l.374-.042a2.008,2.008,0,0,1-.216.4,1.543,1.543,0,0,1-.548.486,1.653,1.653,0,0,1-.662.226,1.872,1.872,0,0,0-1.372.668,1.431,1.431,0,0,0,.169,2.224l3.463,1.195s5.954.779,5.64-.564-.519-2.507-.519-2.507a5.279,5.279,0,0,0-.483-2.369,3.184,3.184,0,0,0-.21-.348l.21-.023s.436-2.954,1.016-3.515c.135-.13.166-.229.133-.307.06-.161-.091-.26-.286-.309l-.042.117a2.835,2.835,0,0,0-.579-.065s-.192-1.546.436-2.107a.6.6,0,0,0,.122-.46,2.58,2.58,0,0,0-.065-.631l-.023.036a22.87,22.87,0,0,0-1.39-3.637,4.43,4.43,0,0,1,.34-1.969c.39-.564-.049-7.637-.049-7.637a23.131,23.131,0,0,0-.291-5.014,5.619,5.619,0,0,1,.533-3.468v-.1l.013-.023s-.023-.211-.057-.538v.031c-.1-.9-.283-2.546-.418-3.3-.195-1.078.047-6.235.047-6.235l.873-2.2,1.559,3.8,1.647,5.06a4.3,4.3,0,0,1,.834,2.151,1.04,1.04,0,0,1,0,.158,3.049,3.049,0,0,0-.018.34,3,3,0,0,0,.5,1.8s.436,2.39,1.115,3a2.7,2.7,0,0,1,.678,1.779,29.767,29.767,0,0,0,1.211,4.078,6.117,6.117,0,0,1,.34,2.356h0v.127s.114,1.239.109,2.281v.371a.1.1,0,0,1,0-.029,3.81,3.81,0,0,1-.1.844.088.088,0,0,1-.016.049l.016-.177a8.93,8.93,0,0,0-.26,2.161,5.534,5.534,0,0,0,.922,3.587c1.3,1.5,2.13,1.314,2.13,1.314s-.629,1.873-1.405,2.247a.436.436,0,0,0-.081.055.807.807,0,0,0-.021-.109.909.909,0,0,0-.226.7,4.98,4.98,0,0,0,.958,2.777,1.514,1.514,0,0,0,.655.382l-.122.075a2.677,2.677,0,0,1-.26.127,1.257,1.257,0,0,1-.395.1,1.855,1.855,0,0,0-1.372.668,1.428,1.428,0,0,0,.169,2.221l3.463,1.2S598.477,498.095,598.162,496.757Z" transform="translate(-417.829 -294.137)" fill="url(#linear-gradient-2)"/>
    <path id="Path_1327" data-name="Path 1327" d="M656.38,813.262l-3.351-1.195a1.457,1.457,0,0,1-.164-2.224,1.793,1.793,0,0,1,1.327-.668,1.557,1.557,0,0,0,.642-.226,1.5,1.5,0,0,0,.52-.486,2.45,2.45,0,0,0,.382-1.3s3.681-1.078,4.676,0a2.767,2.767,0,0,1,.447.652,5.456,5.456,0,0,1,.468,2.369s.19,1.172.491,2.507S656.38,813.262,656.38,813.262Z" transform="translate(-498.792 -608.424)" fill="#2d293d"/>
    <path id="Path_1328" data-name="Path 1328" d="M719.517,806.906l-3.351-1.195A1.453,1.453,0,0,1,716,803.49a1.774,1.774,0,0,1,1.327-.668,1.179,1.179,0,0,0,.382-.1,1.979,1.979,0,0,0,.26-.127,2.127,2.127,0,0,0,.912-1.779s3.678-1.078,4.676,0a2.518,2.518,0,0,1,.351.478,5.3,5.3,0,0,1,.564,2.546s.187,1.172.491,2.507S719.517,806.906,719.517,806.906Z" transform="translate(-545.527 -603.724)" fill="#2d293d"/>
    <path id="Path_1329" data-name="Path 1329" d="M668.808,807.169a2.769,2.769,0,0,1,.447.652h0l-5.515.639a2.449,2.449,0,0,0,.382-1.3S667.8,806.091,668.808,807.169Z" transform="translate(-507.168 -608.426)" opacity="0.1"/>
    <path id="Path_1330" data-name="Path 1330" d="M730.049,801.287v1.039c-.855,1.413-5,1.1-6.209.395a1.979,1.979,0,0,0,.26-.127,2.128,2.128,0,0,0,.912-1.779s3.678-1.078,4.676,0A2.517,2.517,0,0,1,730.049,801.287Z" transform="translate(-551.655 -603.724)" opacity="0.1"/>
    <path id="Path_1331" data-name="Path 1331" d="M670.437,630.784a9.561,9.561,0,0,0-.657,1.405v3.7c-.935,1.559-5.809,1.039-6.466.187s-1.359-3.045-.608-3.419,1.359-2.25,1.359-2.25-.8.187-2.063-1.312-.891-4.827-.655-5.624a16.5,16.5,0,0,0,0-3.468,6.923,6.923,0,0,0-.33-2.483,30.581,30.581,0,0,1-1.172-4.076,2.77,2.77,0,0,0-.655-1.782c-.655-.61-1.078-3-1.078-3a3.078,3.078,0,0,1-.475-2.013,4.071,4.071,0,0,0-.795-2.437l-1.592-5.06-1.5-3.8-.836,2.2s-.236,5.154-.047,6.235.468,3.936.468,3.936a5.8,5.8,0,0,0-.52,3.468,24.164,24.164,0,0,1,.281,5.014s.421,7.076.047,7.637a4.6,4.6,0,0,0-.327,1.969s1.92,4.123,1.3,4.676-.423,2.109-.423,2.109,1.3,0,.751.561-.959,3.523-.959,3.523l-5.666.655a11.767,11.767,0,0,1-1.27-2.39c-.751-1.735.14-1.559.9-1.733s.275-.657-.613-1.218-.377-1.818-.377-1.818,1.359-2.3.891-2.486-.52-3.419-.52-3.419-.938-3.845-.7-4.873-.751-3.515-.751-3.515l-.327-2.954A8.124,8.124,0,0,1,644,607.363v-4.554s-1.3-8.809-1.5-13.261c-.12-2.858-.086-6.741-.047-9.17.023-1.361.047-2.263.047-2.263L662.753,576a16.719,16.719,0,0,0,.366,3.006c.205,1.112.52,2.551,1.039,4.351a19.755,19.755,0,0,1,.561,9l-.187,6.515s1.782,4.356,1.405,5.858a12.478,12.478,0,0,0-.374,2.717s3.982,9.513,3.562,12.277,1.3,7.123,1.3,7.123S670.9,629.94,670.437,630.784Z" transform="translate(-491.387 -437.664)" fill="#2f3542"/>
    <path id="Path_1332" data-name="Path 1332" d="M705.71,690.571l6.164-.821S708.383,693.312,705.71,690.571Z" transform="translate(-538.235 -521.865)" opacity="0.05"/>
    <path id="Path_1333" data-name="Path 1333" d="M722.795,666.57s.21,2.18-1.125,3C721.673,669.57,724.063,669.194,722.795,666.57Z" transform="translate(-550.049 -504.707)" opacity="0.1"/>
    <path id="Path_1334" data-name="Path 1334" d="M703.832,639.88s-5.151,4.24-7.014,3.9S703.832,639.88,703.832,639.88Z" transform="translate(-531.463 -484.95)" opacity="0.1"/>
    <path id="Path_1335" data-name="Path 1335" d="M664.822,700.58s-3.912.888-4.029,2.46S664.822,700.58,664.822,700.58Z" transform="translate(-504.985 -529.882)" opacity="0.1"/>
    <path id="Path_1336" data-name="Path 1336" d="M667.54,775.8s-5.528,1.039-3.959,1.733a27.869,27.869,0,0,0,4.156,1.265S669.509,778.891,667.54,775.8Z" transform="translate(-506.843 -585.562)" opacity="0.05"/>
    <g id="Group_1581" data-name="Group 1581" transform="translate(151.03 140.315)" opacity="0.05">
      <path id="Path_1337" data-name="Path 1337" d="M658.053,784.483a1.1,1.1,0,0,1-.5-.8l-.057.1s-.52,1.265.374,1.818c.1.065.2.13.288.192.166-.031.343-.055.52-.1C659.422,785.511,658.944,785.044,658.053,784.483Z" transform="translate(-653.461 -731.71)"/>
      <path id="Path_1338" data-name="Path 1338" d="M686.753,782.574c.153-.14.148-.5.055-.964a2.613,2.613,0,0,0-.314,1.359A1.135,1.135,0,0,1,686.753,782.574Z" transform="translate(-675.038 -730.177)"/>
      <path id="Path_1339" data-name="Path 1339" d="M683.164,695.58a6.3,6.3,0,0,0-.374,1.722,6.78,6.78,0,0,1,.429-1.185S683.2,695.907,683.164,695.58Z" transform="translate(-672.299 -666.496)"/>
      <path id="Path_1340" data-name="Path 1340" d="M732.711,684.63a2.155,2.155,0,0,0,.052-.52c-.07.348-.12.673-.153.959A2.531,2.531,0,0,1,732.711,684.63Z" transform="translate(-709.177 -658.005)"/>
      <path id="Path_1341" data-name="Path 1341" d="M683.37,756.749a2.988,2.988,0,0,0,.14-1.039,3.533,3.533,0,0,0-.26,1.314A1.267,1.267,0,0,1,683.37,756.749Z" transform="translate(-672.639 -711.005)"/>
      <path id="Path_1342" data-name="Path 1342" d="M665.241,793.72a18.445,18.445,0,0,0-.644,2.878l-5.666.657a11.875,11.875,0,0,1-1.27-2.39c-.065-.153-.117-.288-.159-.413-.34.156-.473.52-.029,1.538a11.99,11.99,0,0,0,1.268,2.39l5.673-.657s.421-2.951.982-3.515C665.67,793.933,665.493,793.793,665.241,793.72Z" transform="translate(-653.349 -739.141)"/>
      <path id="Path_1343" data-name="Path 1343" d="M646.808,629.784s.047,3.234.52,3.421h0c.236-.535.395-1.039.184-1.127-.47-.187-.52-3.421-.52-3.421s-.935-3.842-.7-4.873-.751-3.515-.751-3.515l-.327-2.951a8.113,8.113,0,0,1-1.039-5.577v-4.546s-1.3-8.809-1.5-13.248c-.12-2.857-.086-6.754-.047-9.17,0-.439.013-.829.021-1.156l-.161.016s-.026.9-.047,2.265c-.042,2.426-.075,6.318.047,9.167.187,4.453,1.5,13.262,1.5,13.262v4.546a8.113,8.113,0,0,0,1.039,5.577l.33,2.933s.984,2.483.751,3.515S646.808,629.784,646.808,629.784Z" transform="translate(-642.403 -583.62)"/>
      <path id="Path_1344" data-name="Path 1344" d="M720.393,796.116a5.456,5.456,0,0,1-.9-2.226c-.579.52.086,2.548.709,3.351.655.842,5.528,1.359,6.466-.187v-.894C725.4,797.418,721.021,796.914,720.393,796.116Z" transform="translate(-699.305 -739.267)"/>
      <path id="Path_1345" data-name="Path 1345" d="M749.127,781.962a9.1,9.1,0,0,0-.657,1.405v.652c.107-.242.26-.561.47-.94a2.8,2.8,0,0,0,.205-1.159A.16.16,0,0,0,749.127,781.962Z" transform="translate(-720.917 -730.407)"/>
      <path id="Path_1346" data-name="Path 1346" d="M717.046,765.23a9.063,9.063,0,0,0,.462-1.115s-.8.187-2.063-1.3c-.922-1.091-.974-3.151-.842-4.5-.237.795-.611,4.123.655,5.621A3.361,3.361,0,0,0,717.046,765.23Z" transform="translate(-695.67 -712.938)"/>
      <path id="Path_1347" data-name="Path 1347" d="M691.7,671.475a25.044,25.044,0,0,1,.093,2.777,4.072,4.072,0,0,1,.1-.436,16.474,16.474,0,0,0,0-3.465,6.963,6.963,0,0,0-.327-2.483,30.876,30.876,0,0,1-1.172-4.078,2.76,2.76,0,0,0-.655-1.779c-.655-.608-1.078-3-1.078-3a3.068,3.068,0,0,1-.47-2.013,4.089,4.089,0,0,0-.795-2.437L685.8,649.5l-1.5-3.8-.844,2.2s0,.278-.029.712l.686-1.79,1.5,3.8,1.6,5.063a4.084,4.084,0,0,1,.8,2.437,3.068,3.068,0,0,0,.47,2.013s.421,2.39,1.076,3a2.774,2.774,0,0,1,.657,1.779,30.99,30.99,0,0,0,1.172,4.078A6.9,6.9,0,0,1,691.7,671.475Z" transform="translate(-672.772 -629.573)"/>
    </g>
    <path id="Path_1348" data-name="Path 1348" d="M717.31,400.419l-.353,1.709.021.761.016.564-1.956.2-.218-.405h0A17.9,17.9,0,0,0,713.3,400.8c-.361-.3-1.005-5.06-.231-4.78a2.047,2.047,0,0,1,1.088.987S718,397.455,717.31,400.419Z" transform="translate(-543.414 -304.427)" fill="#ffcdd3"/>
    <path id="Path_1349" data-name="Path 1349" d="M723.014,422.465l-1.956.2-.218-.405h0A1.727,1.727,0,0,1,723,421.9Z" transform="translate(-549.435 -323.428)" opacity="0.1"/>
    <path id="Path_1350" data-name="Path 1350" d="M723.19,423.875l-2.58.6-.052-.385-.148-1.039a1.774,1.774,0,0,1,2.5-.34l.127.52Z" transform="translate(-549.116 -323.913)" fill="#dce6f2"/>
    <path id="Path_1351" data-name="Path 1351" d="M552.569,390.312l-2.751,1.475-.26-.52c-.26-.548-.652-1.374-.759-1.67-.164-.455-1.312-1.039-1.312-1.039-2.881-2.754.551-5.12.551-5.12,1.818-3.655,3.842,1.242,3.842,1.242a12.509,12.509,0,0,1,.083,2.754c-.2.174-.2.878-.2.878a10.665,10.665,0,0,1,.665,1.577C552.525,390.151,552.569,390.312,552.569,390.312Z" transform="translate(-420.263 -294.123)" fill="#ffcdd3"/>
    <path id="Path_1352" data-name="Path 1352" d="M561.751,412.519,559,413.995l-.26-.52c.387-.322,1.766-1.439,2.219-1.39a3.461,3.461,0,0,0,.652.018C561.707,412.358,561.751,412.519,561.751,412.519Z" transform="translate(-429.444 -316.33)" opacity="0.1"/>
    <path id="Path_1353" data-name="Path 1353" d="M562.3,413.924l-3.091,1.525-.062-.665-.044-.46s1.792-1.535,2.322-1.478a2.8,2.8,0,0,0,.808,0l.034.556Z" transform="translate(-429.711 -316.892)" fill="#dce6f2"/>
    <path id="Path_1354" data-name="Path 1354" d="M669.429,426.984s-13.487,1.522-10.965.7a3.382,3.382,0,0,0,2.6-2.925,7.027,7.027,0,0,0-.5-3.117,13.423,13.423,0,0,0-1.205-2.437s10.31-5.671,8.248-.52a8.259,8.259,0,0,0-.584,2.442,6.827,6.827,0,0,0,.26,2.47A7.345,7.345,0,0,0,669.429,426.984Z" transform="translate(-503.03 -319.618)" fill="#ffcdd3"/>
    <path id="Path_1355" data-name="Path 1355" d="M671.028,418.681a8.261,8.261,0,0,0-.584,2.442c-.972.816-2.037.761-3.4.761-1.039,0-2.213.26-3.055-.26a13.415,13.415,0,0,0-1.205-2.437S673.09,413.521,671.028,418.681Z" transform="translate(-506.457 -319.607)" opacity="0.1"/>
    <circle id="Ellipse_247" data-name="Ellipse 247" cx="5.577" cy="5.577" r="5.577" transform="translate(154.821 91.48)" fill="#ffcdd3"/>
    <path id="Path_1356" data-name="Path 1356" d="M669.429,445.493s-13.487,1.522-10.965.7a3.382,3.382,0,0,0,2.6-2.925,7.357,7.357,0,0,1,2.886-1.53,4.029,4.029,0,0,1,2.445-.039,3.4,3.4,0,0,1,.888.41A7.344,7.344,0,0,0,669.429,445.493Z" transform="translate(-503.03 -338.128)" opacity="0.1"/>
    <path id="Path_1357" data-name="Path 1357" d="M723.611,426.217l-2.579.6-.052-.384a2.278,2.278,0,0,1,2.476-.847Z" transform="translate(-549.538 -326.255)" opacity="0.1"/>
    <path id="Path_1358" data-name="Path 1358" d="M562.424,415.512l-3.091,1.525-.062-.665a22.732,22.732,0,0,1,3.117-1.382Z" transform="translate(-429.836 -318.481)" opacity="0.1"/>
    <path id="Path_1359" data-name="Path 1359" d="M663.237,579.011c-5.221.826-12.656,1.9-13.836,1.541a34.977,34.977,0,0,0-6.822-.174c.023-1.361.047-2.263.047-2.263L662.871,576A16.717,16.717,0,0,0,663.237,579.011Z" transform="translate(-491.505 -437.664)" opacity="0.1"/>
    <path id="Path_1360" data-name="Path 1360" d="M604.482,459.075s-17.2,2.954-19.044,2.39-11.321.047-11.321.047c-4.263,2.857-2.483-1.359-2.483-1.359a10.49,10.49,0,0,1,.14-3.982,24.253,24.253,0,0,0,.717-3.982s-.093-2.813.421-3.468,1.125-5.344,1.125-5.344.47-3.185.423-3.9a26.658,26.658,0,0,1,.14-2.671l.608-3.281c-3.515-.468-14.2-7.029-14.2-7.029-.519-2.2-4.5-7.357-4.5-7.357a5.351,5.351,0,0,0-.33-1.265c-.281-.748,3.938-2.247,3.938-2.247s3.138,3.842,3.8,4.873a21.409,21.409,0,0,0,2.9,2.951,2.286,2.286,0,0,1,1.039.135l.055.016h0a8.4,8.4,0,0,1,2.1,1.205,4.068,4.068,0,0,1,2.858,1.078s1.922-.281,2.25.047,1.969,0,1.969,0,1.639-3.468,2.717-2.46,5.65.961,5.65.961a6.758,6.758,0,0,1,3.021-1.691,4.047,4.047,0,0,1,2.444-.039,3.15,3.15,0,0,1,.964.465l2.774,2.717s.8-1.039.7-1.265.938-.421.938-.421,1.359-.423,1.873-.564.987.418,1.039.468a5.492,5.492,0,0,1-.231-2.06,2.425,2.425,0,0,0-.564-1.689c1.642-4.029,5.344-.655,5.344-.655a7.726,7.726,0,0,1,.047,3.045c-.374.842.374,2.626.281,3.094s.187,1.265.187,2.156a12.645,12.645,0,0,1-.751,3.325c-.283.748-2.53,2.437-2.53,2.437a10.578,10.578,0,0,1-1.125,4.219c-.985,1.546-.4,6.842-.4,6.842s.938,4.133,2.117,5.455S604.482,459.075,604.482,459.075Z" transform="translate(-427.541 -318.954)" fill="#bdc3c7"/>
    <path id="Path_1361" data-name="Path 1361" d="M638.973,455.993s-.519-1.546-.984-1.686a11.153,11.153,0,0,1-1.359-.611l.3-.577s1.759.483,2.042,1A4.024,4.024,0,0,1,638.973,455.993Z" transform="translate(-487.1 -346.706)" opacity="0.1"/>
    <path id="Path_1362" data-name="Path 1362" d="M597.235,447.514c-.093.468-4.265.891-4.265.891l2.109-2.115h0l.052.018h0a8.4,8.4,0,0,1,2.1,1.205Z" transform="translate(-454.782 -341.65)" opacity="0.1"/>
    <circle id="Ellipse_248" data-name="Ellipse 248" cx="0.374" cy="0.374" r="0.374" transform="translate(130.01 99.06)" fill="#f0bc5e"/>
    <circle id="Ellipse_249" data-name="Ellipse 249" cx="0.374" cy="0.374" r="0.374" transform="translate(130.491 99.811)" fill="#f0bc5e"/>
    <circle id="Ellipse_250" data-name="Ellipse 250" cx="0.374" cy="0.374" r="0.374" transform="translate(130.961 100.502)" fill="#f0bc5e"/>
    <circle id="Ellipse_251" data-name="Ellipse 251" cx="0.374" cy="0.374" r="0.374" transform="translate(131.452 101.253)" fill="#f0bc5e"/>
    <circle id="Ellipse_252" data-name="Ellipse 252" cx="0.304" cy="0.304" r="0.304" transform="translate(175.694 101.281)" fill="#f0bc5e"/>
    <circle id="Ellipse_253" data-name="Ellipse 253" cx="0.304" cy="0.304" r="0.304" transform="translate(175.741 101.972)" fill="#f0bc5e"/>
    <circle id="Ellipse_254" data-name="Ellipse 254" cx="0.304" cy="0.304" r="0.304" transform="translate(175.783 102.663)" fill="#f0bc5e"/>
    <path id="Path_1363" data-name="Path 1363" d="M645.74,513.059c-.044-.055,10.518,13.285,18.719,5.577C664.459,518.637,651.5,520.393,645.74,513.059Z" transform="translate(-493.843 -391.074)" opacity="0.1"/>
    <path id="Path_1364" data-name="Path 1364" d="M622.38,539.76s6.32.171,6.98,1.99v1.894a1.208,1.208,0,0,1-1.174,0c-.637-.345-4.46-2.286-5.806-1.353Z" transform="translate(-476.552 -410.839)" opacity="0.1"/>
    <path id="Path_1365" data-name="Path 1365" d="M622.83,539.76s6.045.164,6.676,1.9v1.8a1.159,1.159,0,0,1-1.125,0c-.608-.327-4.263-2.179-5.551-1.3Z" transform="translate(-476.885 -410.839)" fill="#f0bc5e"/>
    <path id="Path_1366" data-name="Path 1366" d="M635.66,486.92a20.426,20.426,0,0,0,2.45,4.206,16.492,16.492,0,0,0,3.839,3.707S635.764,487.79,635.66,486.92Z" transform="translate(-486.382 -371.725)" opacity="0.1"/>
    <path id="Path_1367" data-name="Path 1367" d="M627.7,458.65s1.055,4.551,3.772,6.1Z" transform="translate(-480.49 -350.799)" opacity="0.1"/>
    <path id="Path_1368" data-name="Path 1368" d="M621.2,460.416c-.026-.083-.935,3.6,3.5,5.64C624.718,466.056,622.822,465.414,621.2,460.416Z" transform="translate(-475.612 -352.105)" opacity="0.1"/>
    <path id="Path_1369" data-name="Path 1369" d="M727.715,448.662a31.86,31.86,0,0,1,2.806,2.107S729.051,448.568,727.715,448.662Z" transform="translate(-554.523 -343.403)" opacity="0.1"/>
    <path id="Path_1370" data-name="Path 1370" d="M659.48,400.7a1.188,1.188,0,0,0,.436.753,1.2,1.2,0,0,0,.52.117,11.285,11.285,0,0,0,5.042-.475,1.907,1.907,0,0,0,.779-.507,3.143,3.143,0,0,0,.447-1.234,16.2,16.2,0,0,1,1.039-2.369,7.948,7.948,0,0,0,.551-4.253,2.819,2.819,0,0,0-.424-1.244c-.452-.644-1.273-.9-1.87-1.416s-.979-1.3-1.675-1.683a3.234,3.234,0,0,0-2.1-.187,11.1,11.1,0,0,0-3.954,1.476,1.962,1.962,0,0,1-1.3.447,1.814,1.814,0,0,1-.966-.74,5.2,5.2,0,0,0-.416,2.429,1.082,1.082,0,0,1,0,.366,1.13,1.13,0,0,1-.26.387,1.4,1.4,0,0,0-.26,1.748c.179.216.457.332.634.551.314.392.208.953.2,1.457a.742.742,0,0,0,.125.494.719.719,0,0,0,.688.164,1.911,1.911,0,0,1,.733-.07,1.205,1.205,0,0,1,.636.491A9.012,9.012,0,0,1,659.48,400.7Z" transform="translate(-500.588 -298.589)" fill="#2d293d"/>
    <g id="Group_1582" data-name="Group 1582" transform="translate(154.246 90.742)" opacity="0.1">
      <path id="Path_1371" data-name="Path 1371" d="M666.389,413.44a1.886,1.886,0,0,1-.779.52,11.23,11.23,0,0,1-5.042.473,1.133,1.133,0,0,1-.52-.117,1.18,1.18,0,0,1-.436-.753,8.683,8.683,0,0,0-1.421-3.3,1.205,1.205,0,0,0-.637-.491,1.86,1.86,0,0,0-.732.07.725.725,0,0,1-.681-.164.748.748,0,0,1-.125-.5c0-.5.114-1.065-.2-1.455-.177-.221-.452-.335-.634-.551a1.1,1.1,0,0,1-.109-1.12,1.283,1.283,0,0,0-.078,1.494c.179.216.457.332.634.551.314.392.208.953.2,1.457a.742.742,0,0,0,.125.494.719.719,0,0,0,.688.164,1.908,1.908,0,0,1,.732-.07,1.2,1.2,0,0,1,.637.491,8.8,8.8,0,0,1,1.421,3.3.881.881,0,0,0,.961.87,11.284,11.284,0,0,0,5.042-.475,1.9,1.9,0,0,0,.779-.507,1.486,1.486,0,0,0,.242-.452.8.8,0,0,1-.068.065Z" transform="translate(-654.786 -402.613)"/>
      <path id="Path_1372" data-name="Path 1372" d="M657.6,395.492a.779.779,0,0,0,.171-.281,1.085,1.085,0,0,0,0-.366,5.168,5.168,0,0,1,.26-2.018L658,392.79a5.158,5.158,0,0,0-.416,2.429A1.605,1.605,0,0,1,657.6,395.492Z" transform="translate(-656.846 -392.79)"/>
    </g>
    <path id="Path_1373" data-name="Path 1373" d="M668.84,449.215s6.967.922,7.593-.125" transform="translate(-510.943 -343.722)" opacity="0.1"/>
    <path id="Path_1374" data-name="Path 1374" d="M721,438.47s3.868,0,4.72,1.457" transform="translate(-549.553 -335.861)" opacity="0.1"/>
    <path id="Path_1375" data-name="Path 1375" d="M1037.939,425s.483.631-.223,1.587-1.3,1.764-1.055,2.359c0,0,1.068-1.774,1.935-1.8S1038.895,426.055,1037.939,425Z" transform="translate(-783.172 -325.89)" fill="#6c63ff"/>
    <path id="Path_1376" data-name="Path 1376" d="M1038.024,425a.86.86,0,0,1,.1.2c.847,1,1.3,1.925.483,1.948-.759.023-1.668,1.379-1.886,1.722a.232.232,0,0,0,.026.078c.01.026,1.068-1.774,1.935-1.8S1038.98,426.055,1038.024,425Z" transform="translate(-783.257 -325.89)" opacity="0.1"/>
    <path id="Path_1377" data-name="Path 1377" d="M1044.882,427.645c0,.223-.023.405-.055.405s-.057-.182-.057-.405.031-.117.063-.117S1044.882,427.424,1044.882,427.645Z" transform="translate(-789.216 -327.743)" fill="#ffd037"/>
    <path id="Path_1378" data-name="Path 1378" d="M1045.307,428.644c-.195.107-.366.171-.379.143s.13-.135.327-.242.117-.029.133,0S1045.5,428.537,1045.307,428.644Z" transform="translate(-789.332 -328.474)" fill="#ffd037"/>
    <path id="Path_1379" data-name="Path 1379" d="M1028.8,425s-.486.631.224,1.587,1.3,1.764,1.055,2.359c0,0-1.068-1.774-1.938-1.8S1027.843,426.055,1028.8,425Z" transform="translate(-776.588 -325.89)" fill="#6c63ff"/>
    <path id="Path_1380" data-name="Path 1380" d="M1028.8,425a.8.8,0,0,0-.1.2c-.847,1-1.3,1.925-.483,1.948.759.023,1.67,1.379,1.889,1.722a.232.232,0,0,1-.026.078c-.01.026-1.068-1.774-1.938-1.8S1027.843,426.055,1028.8,425Z" transform="translate(-776.588 -325.89)" opacity="0.1"/>
    <path id="Path_1381" data-name="Path 1381" d="M1028.43,427.647c0,.223.026.405.057.405a.821.821,0,0,0,.055-.405c0-.221-.031-.117-.062-.117S1028.43,427.426,1028.43,427.647Z" transform="translate(-777.121 -327.745)" fill="#ffd037"/>
    <path id="Path_1382" data-name="Path 1382" d="M1026.9,428.644c.2.107.366.171.382.143s-.133-.135-.328-.242-.119-.029-.135,0S1026.705,428.537,1026.9,428.644Z" transform="translate(-775.9 -328.474)" fill="#ffd037"/>
    <path id="Path_1383" data-name="Path 1383" d="M1029,437.736a4.952,4.952,0,0,0,1.761-.333c.408-.291,2.078-.636,2.185-.171s2.034,2.317.52,2.338a12.715,12.715,0,0,1-3.959-.486C1029.1,438.835,1029,437.736,1029,437.736Z" transform="translate(-777.543 -334.776)" fill="#a8a8a8"/>
    <path id="Path_1384" data-name="Path 1384" d="M1033.484,441.485a13.376,13.376,0,0,1-3.956-.486c-.312-.19-.434-.868-.475-1.179H1029s.086,1.094.494,1.34a12.964,12.964,0,0,0,3.959.486c.442,0,.592-.161.585-.392C1033.98,441.394,1033.814,441.483,1033.484,441.485Z" transform="translate(-777.543 -336.861)" opacity="0.2"/>
  </g>
</svg>
