<svg xmlns="http://www.w3.org/2000/svg" width="33.851" height="36.195" viewBox="0 0 33.851 36.195">
  <path id="bag" d="M8.48,27.7h3.809v2.831H8.8ZM8.162,24.87h4.127V22.039H7.845Zm6.771,5.662H18.9V27.7H14.934Zm0-5.662H18.9V22.039H14.934ZM33.852,17.3h-2L30.264,32.422a4.072,4.072,0,0,1-3.942,3.773H7.627a4.075,4.075,0,0,1-3.939-3.741L1.992,17.3H0V14.465H13.178a4.329,4.329,0,0,1,.669-1.269L7.192,1.469,9.452,0l6.653,11.725a3.715,3.715,0,0,1,.812-.09,4,4,0,0,1,3.739,2.831h13.2ZM16.917,14.465a1.419,1.419,0,1,0,1.322,1.416A1.373,1.373,0,0,0,16.917,14.465ZM29.19,17.3H20.656a4,4,0,0,1-3.739,2.831,4,4,0,0,1-3.74-2.831H4.655l1.659,14.82a1.358,1.358,0,0,0,1.313,1.247H26.322a1.358,1.358,0,0,0,1.314-1.257ZM25.222,30.532l.29-2.762V27.7H21.545v2.831Zm.892-8.493H21.545V24.87h4.271Zm0,0" transform="translate(0 0.001)" fill="#b2bec3"/>
</svg>
