<svg id="company" xmlns="http://www.w3.org/2000/svg" width="28.934" height="28.933" viewBox="0 0 28.934 28.933">
  <g id="Group_1533" data-name="Group 1533" transform="translate(0 7.234)">
    <path id="Path_1133" data-name="Path 1133" d="M23.508,27.7H.6a.6.6,0,0,1-.6-.6V6.6a.6.6,0,0,1,.809-.567l12.452,4.528V6.6a.6.6,0,0,1,.809-.567l9.644,3.508a.6.6,0,1,1-.412,1.133L14.467,7.463v3.961a.6.6,0,0,1-.809.567L1.206,7.463V26.494h22.3a.6.6,0,1,1,0,1.206Z" transform="translate(0 -6.001)" fill="#b2bec3"/>
  </g>
  <g id="Group_1534" data-name="Group 1534" transform="translate(22.905 0)">
    <path id="Path_1134" data-name="Path 1134" d="M24.425,28.933H19.6a.6.6,0,0,1-.6-.615L19.6.591a.6.6,0,0,1,.6-.591h3.617a.6.6,0,0,1,.6.59l.6,27.728a.605.605,0,0,1-.6.616Zm-4.206-1.206H23.81L23.233,1.206H20.8Z" transform="translate(-19 0)" fill="#b2bec3"/>
  </g>
  <g id="Group_1535" data-name="Group 1535" transform="translate(23.424 3.617)">
    <path id="Path_1135" data-name="Path 1135" d="M23.818,4.206H20.033a.6.6,0,1,1,0-1.206h3.785a.6.6,0,0,1,0,1.206Z" transform="translate(-19.43 -3)" fill="#b2bec3"/>
  </g>
  <g id="Group_1536" data-name="Group 1536" transform="translate(3.617 15.672)">
    <path id="Path_1136" data-name="Path 1136" d="M6.014,14.206H3.6A.6.6,0,1,1,3.6,13H6.014a.6.6,0,0,1,0,1.206Z" transform="translate(-3 -13)" fill="#b2bec3"/>
  </g>
  <g id="Group_1537" data-name="Group 1537" transform="translate(9.644 15.672)">
    <path id="Path_1137" data-name="Path 1137" d="M11.014,14.206H8.6A.6.6,0,1,1,8.6,13h2.411a.6.6,0,1,1,0,1.206Z" transform="translate(-8 -13)" fill="#b2bec3"/>
  </g>
  <g id="Group_1538" data-name="Group 1538" transform="translate(15.672 15.672)">
    <path id="Path_1138" data-name="Path 1138" d="M16.014,14.206H13.6A.6.6,0,0,1,13.6,13h2.411a.6.6,0,0,1,0,1.206Z" transform="translate(-13 -13)" fill="#b2bec3"/>
  </g>
  <g id="Group_1539" data-name="Group 1539" transform="translate(3.617 19.289)">
    <path id="Path_1139" data-name="Path 1139" d="M6.014,17.206H3.6A.6.6,0,1,1,3.6,16H6.014a.6.6,0,0,1,0,1.206Z" transform="translate(-3 -16)" fill="#b2bec3"/>
  </g>
  <g id="Group_1540" data-name="Group 1540" transform="translate(9.644 19.289)">
    <path id="Path_1140" data-name="Path 1140" d="M11.014,17.206H8.6A.6.6,0,1,1,8.6,16h2.411a.6.6,0,1,1,0,1.206Z" transform="translate(-8 -16)" fill="#b2bec3"/>
  </g>
  <g id="Group_1541" data-name="Group 1541" transform="translate(15.672 19.289)">
    <path id="Path_1141" data-name="Path 1141" d="M16.014,17.206H13.6A.6.6,0,0,1,13.6,16h2.411a.6.6,0,0,1,0,1.206Z" transform="translate(-13 -16)" fill="#b2bec3"/>
  </g>
  <g id="Group_1542" data-name="Group 1542" transform="translate(3.617 22.906)">
    <path id="Path_1142" data-name="Path 1142" d="M6.014,20.206H3.6A.6.6,0,1,1,3.6,19H6.014a.6.6,0,0,1,0,1.206Z" transform="translate(-3 -19)" fill="#b2bec3"/>
  </g>
  <g id="Group_1543" data-name="Group 1543" transform="translate(9.644 22.906)">
    <path id="Path_1143" data-name="Path 1143" d="M11.014,20.206H8.6A.6.6,0,1,1,8.6,19h2.411a.6.6,0,1,1,0,1.206Z" transform="translate(-8 -19)" fill="#b2bec3"/>
  </g>
  <g id="Group_1544" data-name="Group 1544" transform="translate(15.672 22.906)">
    <path id="Path_1144" data-name="Path 1144" d="M16.014,20.206H13.6A.6.6,0,0,1,13.6,19h2.411a.6.6,0,0,1,0,1.206Z" transform="translate(-13 -19)" fill="#b2bec3"/>
  </g>
</svg>
