<svg id="dashboard-img" xmlns="http://www.w3.org/2000/svg" width="19.267" height="12.845" viewBox="0 0 19.267 12.845">
  <g id="Group_65" data-name="Group 65" transform="translate(0 0)">
    <g id="Group_64" data-name="Group 64">
      <path id="Path_52" data-name="Path 52" d="M239.62,213.439l-4.7,4.132-.018.017a.8.8,0,0,0,.567,1.371.814.814,0,0,0,.586-.254l4.132-4.7a.4.4,0,0,0-.567-.566Z" transform="translate(-225.836 -208.523)" fill="#f5f6fa"/>
      <path id="Path_53" data-name="Path 53" d="M9.633,85.333A9.631,9.631,0,0,0,.458,97.9a.4.4,0,0,0,.383.279H18.426a.4.4,0,0,0,.383-.279A9.631,9.631,0,0,0,9.633,85.333ZM17.26,95.368h1.176a8.792,8.792,0,0,1-.308,2.007H1.138a8.792,8.792,0,0,1-.308-2.007H2.007a.4.4,0,1,0,0-.8H.823A8.762,8.762,0,0,1,1.8,90.907l1.028.594a.4.4,0,0,0,.4-.7L2.2,90.213A8.889,8.889,0,0,1,4.88,87.536l.593,1.027a.4.4,0,1,0,.695-.4l-.594-1.029a8.762,8.762,0,0,1,3.658-.977V87.34a.4.4,0,0,0,.8,0V86.156a8.762,8.762,0,0,1,3.658.977L13.1,88.161a.4.4,0,1,0,.695.4l.593-1.027a8.889,8.889,0,0,1,2.677,2.677l-1.026.593a.4.4,0,0,0,.4.7l1.028-.594a8.762,8.762,0,0,1,.976,3.658H17.26a.4.4,0,1,0,0,.8Z" transform="translate(0 -85.333)" fill="#f5f6fa"/>
    </g>
  </g>
</svg>
