<svg xmlns="http://www.w3.org/2000/svg" xmlns:xlink="http://www.w3.org/1999/xlink" width="134" height="134" viewBox="0 0 134 134">
  <defs>
    <filter id="Rectangle_16" x="0" y="0" width="134" height="134" filterUnits="userSpaceOnUse">
      <feOffset dx="6" dy="6" input="SourceAlpha"/>
      <feGaussianBlur stdDeviation="5.5" result="blur"/>
      <feFlood flood-opacity="0.161"/>
      <feComposite operator="in" in2="blur"/>
      <feComposite in="SourceGraphic"/>
    </filter>
  </defs>
  <g id="com-1" transform="translate(-395.5 -2146.5)">
    <g transform="matrix(1, 0, 0, 1, 395.5, 2146.5)" filter="url(#Rectangle_16)">
      <rect id="Rectangle_16-2" data-name="Rectangle 16" width="101" height="101" rx="25" transform="translate(10.5 10.5)" fill="#fbc531"/>
    </g>
    <g id="rocket_1_" data-name="rocket (1)" transform="translate(427.998 2186.991)">
      <path id="Path_14" data-name="Path 14" d="M67.27,0A46.723,46.723,0,0,0,27.723,21.661H17.7a10.288,10.288,0,0,0-7.564,3.327L.3,35.713a1.14,1.14,0,0,0,1.14,1.871l11.5-3.135a1.137,1.137,0,0,1,.962.171l3.806,2.718L15,41.57a1.14,1.14,0,0,0,.155,1.42l1.162,1.162L8.615,48a1.079,1.079,0,0,0-.137.114L8.462,48.1A20.237,20.237,0,0,0,0,64.53v2.736a1.14,1.14,0,0,0,1.14,1.14H3.879a20.235,20.235,0,0,0,16.436-8.459l-.021-.016a1.11,1.11,0,0,0,.114-.136l3.853-7.706,1.161,1.162a1.141,1.141,0,0,0,1.381.179l4.39-2.562,2.6,3.638a1.141,1.141,0,0,1,.172.964l-3.135,11.5a1.14,1.14,0,0,0,1.871,1.14l10.724-9.83a10.286,10.286,0,0,0,3.325-7.565V41.72A47.086,47.086,0,0,0,68.41,2.2V1.139A1.14,1.14,0,0,0,67.27,0ZM15.227,32.763a3.418,3.418,0,0,0-2.886-.516l-7.691,2.1,7.165-7.816A8,8,0,0,1,17.7,23.942h8.568L18.937,35.414ZM3.879,66.126h-1.6v-1.6a17.958,17.958,0,0,1,6.738-14l1.635,1.635a8.3,8.3,0,0,0-2.673,6.09v1.026a1.14,1.14,0,0,0,1.14,1.14H10.15a8.3,8.3,0,0,0,6.092-2.672l1.635,1.635a17.958,17.958,0,0,1-14,6.738Zm8.392-12.343,2.355,2.355a6.019,6.019,0,0,1-4.362,2.006,6.017,6.017,0,0,1,2.007-4.362Zm6.8,3.577-8.024-8.024,2.408-1.2,6.818,6.818Zm2.28-4.56-5.744-5.744,2.408-1.2,4.538,4.538Zm23.115-2.089A8,8,0,0,1,41.88,56.6l-7.816,7.165,2.1-7.691a3.416,3.416,0,0,0-.517-2.888l-2.476-3.466,11.3-6.591Zm.546-10.594h-.008l-.166.106c-.289.178-.57.37-.862.543L30.94,48.375l-4.527,2.64-7.36-7.36-1.632-1.633L24.209,31.4l5.1-7.981.334-.529A44.5,44.5,0,0,1,49.813,5.814L62.867,18.869A44.755,44.755,0,0,1,45.014,40.118ZM63.75,16.531,52.134,4.913a44.709,44.709,0,0,1,14-2.619A44.459,44.459,0,0,1,63.75,16.531Zm0,0" transform="translate(0)" fill="#f5f6fa"/>
      <path id="Path_15" data-name="Path 15" d="M215.749,164.163l-.952,1.491,1.921,1.227.952-1.491c.173-.269.342-.536.526-.8L216.3,163.32C216.117,163.595,215.931,163.873,215.749,164.163Zm0,0" transform="translate(-184.183 -140.045)" fill="#f5f6fa"/>
      <path id="Path_16" data-name="Path 16" d="M153.27,207.135l7.309-11.447,1.922,1.227-7.308,11.447Zm0,0" transform="translate(-131.424 -167.8)" fill="#f5f6fa"/>
      <path id="Path_17" data-name="Path 17" d="M256,105.121A9.121,9.121,0,1,0,265.125,96,9.121,9.121,0,0,0,256,105.121Zm15.962,0a6.841,6.841,0,1,1-6.841-6.841A6.84,6.84,0,0,1,271.966,105.121Zm0,0" transform="translate(-219.517 -82.319)" fill="#f5f6fa"/>
      <path id="Path_18" data-name="Path 18" d="M288,132.56h2.28a2.28,2.28,0,0,1,2.28-2.28V128A4.561,4.561,0,0,0,288,132.56Zm0,0" transform="translate(-246.957 -109.759)" fill="#f5f6fa"/>
      <path id="Path_19" data-name="Path 19" d="M188.564,6.841V4.56h2.28V2.28h-2.28V0h-2.28V2.28H184V4.56h2.28v2.28Zm0,0" transform="translate(-157.778 -0.001)" fill="#f5f6fa"/>
      <path id="Path_20" data-name="Path 20" d="M88,72h2.28v2.28H88Zm0,0" transform="translate(-75.46 -61.74)" fill="#f5f6fa"/>
      <path id="Path_21" data-name="Path 21" d="M436.565,256h-2.28v2.28H432v2.28h2.28v2.28h2.28v-2.28h2.28v-2.28h-2.28Zm0,0" transform="translate(-370.434 -219.517)" fill="#f5f6fa"/>
      <path id="Path_22" data-name="Path 22" d="M346.284,408v2.28H344v2.28h2.28v2.28h2.28v-2.28h2.28v-2.28h-2.28V408Zm0,0" transform="translate(-294.976 -349.855)" fill="#f5f6fa"/>
      <path id="Path_23" data-name="Path 23" d="M384,320h2.28v2.28H384Zm0,0" transform="translate(-329.275 -274.396)" fill="#f5f6fa"/>
      <path id="Path_24" data-name="Path 24" d="M32,120h2.28v2.28H32Zm0,0" transform="translate(-27.44 -102.899)" fill="#f5f6fa"/>
    </g>
  </g>
</svg>
