<svg xmlns="http://www.w3.org/2000/svg" xmlns:xlink="http://www.w3.org/1999/xlink" width="390.5" height="387" viewBox="0 0 390.5 387">
  <defs>
    <filter id="Path_82" x="180" y="46.492" width="131.5" height="230.008" filterUnits="userSpaceOnUse">
      <feOffset dx="6" dy="6" input="SourceAlpha"/>
      <feGaussianBlur stdDeviation="5.5" result="blur"/>
      <feFlood flood-opacity="0.161"/>
      <feComposite operator="in" in2="blur"/>
      <feComposite in="SourceGraphic"/>
    </filter>
    <filter id="Concrete" x="75.5" y="262.5" width="315" height="106" filterUnits="userSpaceOnUse">
      <feOffset dx="6" dy="6" input="SourceAlpha"/>
      <feGaussianBlur stdDeviation="5.5" result="blur-2"/>
      <feFlood flood-opacity="0.161"/>
      <feComposite operator="in" in2="blur-2"/>
      <feComposite in="SourceGraphic"/>
    </filter>
    <filter id="Path_81" x="115.5" y="100.364" width="147.785" height="121.379" filterUnits="userSpaceOnUse">
      <feOffset dx="6" dy="6" input="SourceAlpha"/>
      <feGaussianBlur stdDeviation="5.5" result="blur-3"/>
      <feFlood flood-opacity="0.161"/>
      <feComposite operator="in" in2="blur-3"/>
      <feComposite in="SourceGraphic"/>
    </filter>
  </defs>
  <g id="icon" transform="translate(-876 -167)">
    <rect id="Rectangle_110" data-name="Rectangle 110" width="386" height="387" rx="50" transform="translate(876 167)" fill="#fbc531"/>
    <g id="Group_323" data-name="Group 323">
      <g id="Path_83" data-name="Path 83" transform="translate(968 224)" fill="#535c68">
        <path d="M 98.49999237060547 196.5 C 91.85049438476563 196.5 85.205322265625 195.8301239013672 78.74904632568359 194.5089721679688 C 72.45712280273438 193.2214813232422 66.26817321777344 191.30029296875 60.35414505004883 188.7988739013672 C 54.54734420776367 186.3428192138672 48.9466438293457 183.3028564453125 43.70761871337891 179.763427734375 C 38.51824569702148 176.2575531005859 33.63837051391602 172.2312927246094 29.20354461669922 167.7964782714844 C 24.76872062683105 163.3616485595703 20.74244499206543 158.4817504882813 17.23657035827637 153.2923736572266 C 13.69714450836182 148.0533447265625 10.65719509124756 142.4526824951172 8.201119422912598 136.6458740234375 C 5.699694633483887 130.7318267822266 3.778519868850708 124.5428771972656 2.491019725799561 118.2509536743164 C 1.169869780540466 111.794677734375 0.4999948441982269 105.1494979858398 0.4999948441982269 98.5 C 0.4999948441982269 91.85050201416016 1.169869780540466 85.205322265625 2.491019725799561 78.74904632568359 C 3.778519868850708 72.45712280273438 5.699694633483887 66.26817321777344 8.201119422912598 60.3541259765625 C 10.65719509124756 54.54732513427734 13.69714450836182 48.94665145874023 17.23657035827637 43.70762634277344 C 20.74244499206543 38.51824951171875 24.76872062683105 33.63835144042969 29.20354461669922 29.20352554321289 C 33.63837051391602 24.76869964599609 38.51824569702148 20.74245071411133 43.70761871337891 17.23657417297363 C 48.9466438293457 13.69715023040771 54.54734420776367 10.65717506408691 60.35414505004883 8.201125144958496 C 66.26817321777344 5.699699878692627 72.45712280273438 3.778525114059448 78.74904632568359 2.491024971008301 C 85.205322265625 1.169875025749207 91.85049438476563 0.5 98.49999237060547 0.5 C 104.8837432861328 0.5 110.7671966552734 3.295424938201904 115.9869232177734 8.808600425720215 C 120.862419128418 13.95817470550537 125.1164169311523 21.40897560119629 128.6308135986328 30.95400047302246 C 131.9403686523438 39.9427490234375 134.5056457519531 50.52434921264648 136.25537109375 62.40487670898438 C 137.9438934326172 73.869873046875 138.800048828125 86.01402282714844 138.800048828125 98.5 C 138.8000183105469 110.9859771728516 137.9438934326172 123.130126953125 136.25537109375 134.5951232910156 C 134.5056457519531 146.4756469726563 131.9403686523438 157.0572509765625 128.6308135986328 166.0460052490234 C 125.1164169311523 175.5910186767578 120.862419128418 183.0418243408203 115.9869232177734 188.19140625 C 110.7671966552734 193.7045745849609 104.8837432861328 196.5 98.49999237060547 196.5 Z" stroke="none"/>
        <path d="M 98.5 1 C 91.88409423828125 1 85.27264404296875 1.66644287109375 78.84929656982422 2.980880737304688 C 72.58969116210938 4.26177978515625 66.43257141113281 6.173049926757813 60.54891967773438 8.66162109375 C 54.77184295654297 11.10511779785156 49.19979858398438 14.12953186035156 43.98751831054688 17.65087890625 C 38.82451629638672 21.13893127441406 33.96942138671875 25.144775390625 29.55709838867188 29.55709838867188 C 25.14476776123047 33.96940612792969 21.13894653320313 38.82449340820313 17.65086364746094 43.98751831054688 C 14.12954711914063 49.19979858398438 11.10511779785156 54.7718505859375 8.66162109375 60.54890441894531 C 6.173049926757813 66.43255615234375 4.261764526367188 72.58969879150391 2.980865478515625 78.84929656982422 C 1.66644287109375 85.27265167236328 1 91.88410186767578 1 98.5 C 1 105.1158981323242 1.66644287109375 111.7273483276367 2.980865478515625 118.1507034301758 C 4.261764526367188 124.4103012084961 6.173049926757813 130.5674285888672 8.66162109375 136.4510803222656 C 11.10511779785156 142.2281494140625 14.12954711914063 147.8002014160156 17.65086364746094 153.0124816894531 C 21.13894653320313 158.1754760742188 25.14476776123047 163.0305786132813 29.55709838867188 167.4429016113281 C 33.96942138671875 171.855224609375 38.82451629638672 175.8610534667969 43.98751831054688 179.34912109375 C 49.19979858398438 182.8704528808594 54.77184295654297 185.8948669433594 60.54891967773438 188.33837890625 C 66.43257141113281 190.8269500732422 72.58969116210938 192.7382202148438 78.84929656982422 194.0191192626953 C 85.27264404296875 195.3335571289063 91.88409423828125 196 98.5 196 C 113.8476409912109 196 123.101318359375 179.6169281005859 128.16162109375 165.8732299804688 C 131.4592895507813 156.916748046875 134.0159912109375 146.3687744140625 135.7606964111328 134.5222778320313 C 137.4456634521484 123.0813217163086 138.3000183105469 110.9616775512695 138.3000183105469 98.5 C 138.3000183105469 86.03832244873047 137.4456634521484 73.91867828369141 135.7606964111328 62.47772216796875 C 134.0159912109375 50.6312255859375 131.4592895507813 40.083251953125 128.16162109375 31.12677001953125 C 123.101318359375 17.38307189941406 113.8476409912109 1 98.5 1 M 98.5 0 C 152.9000396728516 0 152.9000396728516 197 98.5 197 C 44.09996795654297 197 0 152.9000244140625 0 98.5 C 0 44.09994506835938 44.09996795654297 0 98.5 0 Z" stroke="none" fill="#707070"/>
      </g>
      <g transform="matrix(1, 0, 0, 1, 876, 167)" filter="url(#Path_82)">
        <path id="Path_82-2" data-name="Path 82" d="M98.5,0s40-1.317,69.3,29.282S197,94.488,197,98.5c0,20.291-7.377,59.5-50.18,86.691C124.88,195.294,98.5,197,98.5,197Z" transform="translate(92 57)" fill="#fbc531"/>
      </g>
    </g>
    <g id="Group_322" data-name="Group 322" transform="translate(-7)">
      <text id="mr." transform="translate(912.645 500)" fill="#535c68" font-size="40" font-family="Ubuntu-Bold, Ubuntu" font-weight="700"><tspan x="0" y="0">mr.</tspan></text>
      <g transform="matrix(1, 0, 0, 1, 883, 167)" filter="url(#Concrete)">
        <text id="Concrete-2" data-name="Concrete" transform="translate(86 334)" fill="#f5f6fa" font-size="65" font-family="Ubuntu-Bold, Ubuntu" font-weight="700"><tspan x="0" y="0">Concrete</tspan></text>
      </g>
    </g>
    <g id="protection-helmet" transform="translate(1002 207.47)">
      <g transform="matrix(1, 0, 0, 1, -126, -40.47)" filter="url(#Path_81)">
        <path id="Path_81-2" data-name="Path 81" d="M113.974,119.4l-5.139-7.519C107.312,98.727,103.55,88.99,97.384,82.2,90.165,74.257,79.85,70.394,65.847,70.394c-1.973,0-4.053.079-6.182.235-23.863,1.745-36.639,29.23-41.7,43.516q-.378.162-.758.328C5.617,119.567-.013,125.238,0,131.81c0,2.479,1.462,5.128,4.724,8.587a69.692,69.692,0,0,0,9.106,7.891c4.12,3.031,14.642,10.119,23.333,10.463.388.015.8.023,1.237.023h0c13.682,0,56.988-8.069,75.52-34.042A4.652,4.652,0,0,0,113.974,119.4Zm-23.318,5.462c-1.1.742-2.233,1.444-3.378,2.118A86.314,86.314,0,0,1,79.567,131a79.905,79.905,0,0,1-15.635,5.414c-4.9,1.111-10.113,1.794-15.107.934a45.625,45.625,0,0,1-13.819-4.779c-4.269-2.3-8.646-5.195-11.746-8.99q2.905,1.278,5.862,2.427a117.741,117.741,0,0,1,4.5-12.876,41.1,41.1,0,0,1,6.647-11.335,49.38,49.38,0,0,1,12.2-9.867,41.145,41.145,0,0,1,12.121-4.889,34.952,34.952,0,0,0-4.936,2.258A48.883,48.883,0,0,0,47.067,99.556a30.463,30.463,0,0,0-4.351,5.857,34.08,34.08,0,0,0-2.661,7.43,103.609,103.609,0,0,0-2.52,15.524c-.051.544-.031.5.507.642l1.023.278c.616.181,1.241.331,1.866.481,1.3.311,2.6.582,3.9.85,7.843,1.678,18.287-.248,24.753-1.685,6.534-1.452,13.018-3.119,19.538-4.633l.206-.048c.971-.22.752-.17.394-.088.912-.205,1.826-.406,2.743-.586C92.466,123.852,90.856,124.731,90.656,124.866Z" transform="translate(126 40.47)" fill="#fff"/>
      </g>
    </g>
  </g>
</svg>
