<svg xmlns="http://www.w3.org/2000/svg" width="16.266" height="19.97" viewBox="0 0 16.266 19.97">
  <path id="company" d="M61.621,18.681H60.333V2.9a.644.644,0,0,0-.644-.644H54.858V.644A.644.644,0,0,0,54.213,0H49.744A.644.644,0,0,0,49.1.644v1.61h-.523a.644.644,0,0,0-.644.644V18.681H46.644a.644.644,0,0,0,0,1.288H61.621a.644.644,0,0,0,0-1.288ZM50.389,1.288h3.181v.966H50.389Zm2.456,17.393V15.944h2.577v2.738Zm3.865,0V15.944h.282a.644.644,0,1,0,0-1.288H51.274a.644.644,0,0,0,0,1.288h.282v2.738H49.221V3.543h9.824V18.681Zm-3.5-13.246a.644.644,0,0,1-.644.644h-.725a.644.644,0,0,1,0-1.288h.725A.644.644,0,0,1,53.207,5.435Zm3.825,0a.644.644,0,0,1-.644.644h-.725a.644.644,0,0,1,0-1.288h.725A.644.644,0,0,1,57.032,5.435ZM53.207,7.851a.644.644,0,0,1-.644.644h-.725a.644.644,0,0,1,0-1.288h.725A.644.644,0,0,1,53.207,7.851Zm3.825,0a.644.644,0,0,1-.644.644h-.725a.644.644,0,0,1,0-1.288h.725A.644.644,0,0,1,57.032,7.851Zm-3.825,2.416a.644.644,0,0,1-.644.644h-.725a.644.644,0,0,1,0-1.288h.725A.644.644,0,0,1,53.207,10.267Zm3.825,0a.644.644,0,0,1-.644.644h-.725a.644.644,0,0,1,0-1.288h.725A.644.644,0,0,1,57.032,10.267Zm-3.825,2.416a.644.644,0,0,1-.644.644h-.725a.644.644,0,0,1,0-1.288h.725A.644.644,0,0,1,53.207,12.682Zm3.825,0a.644.644,0,0,1-.644.644h-.725a.644.644,0,0,1,0-1.288h.725A.644.644,0,0,1,57.032,12.682Z" transform="translate(-46)" fill="#f0bc5e"/>
</svg>
