<svg xmlns="http://www.w3.org/2000/svg" width="20.075" height="20.075" viewBox="0 0 20.075 20.075">
  <g id="dashboard-disabled" transform="translate(0 0)">
    <path id="Path_760" data-name="Path 760" d="M7.737,6.692H1.464A1.465,1.465,0,0,1,0,5.228V1.464A1.465,1.465,0,0,1,1.464,0H7.737A1.465,1.465,0,0,1,9.2,1.464V5.228A1.465,1.465,0,0,1,7.737,6.692ZM1.464,1.255a.209.209,0,0,0-.209.209V5.228a.209.209,0,0,0,.209.209H7.737a.209.209,0,0,0,.209-.209V1.464a.209.209,0,0,0-.209-.209Zm0,0" fill="#b2bec3"/>
    <path id="Path_761" data-name="Path 761" d="M7.737,225.043H1.464A1.465,1.465,0,0,1,0,223.579V214.8a1.465,1.465,0,0,1,1.464-1.464H7.737A1.465,1.465,0,0,1,9.2,214.8v8.783A1.465,1.465,0,0,1,7.737,225.043ZM1.464,214.587a.209.209,0,0,0-.209.209v8.783a.209.209,0,0,0,.209.209H7.737a.209.209,0,0,0,.209-.209V214.8a.209.209,0,0,0-.209-.209Zm0,0" transform="translate(0 -204.967)" fill="#b2bec3"/>
    <path id="Path_762" data-name="Path 762" d="M285.069,348.024H278.8a1.465,1.465,0,0,1-1.464-1.464V342.8a1.465,1.465,0,0,1,1.464-1.464h6.273a1.465,1.465,0,0,1,1.464,1.464v3.764A1.465,1.465,0,0,1,285.069,348.024Zm-6.273-5.437a.209.209,0,0,0-.209.209v3.764a.209.209,0,0,0,.209.209h6.273a.209.209,0,0,0,.209-.209V342.8a.209.209,0,0,0-.209-.209Zm0,0" transform="translate(-266.458 -327.949)" fill="#b2bec3"/>
    <path id="Path_763" data-name="Path 763" d="M285.069,11.711H278.8a1.465,1.465,0,0,1-1.464-1.464V1.464A1.465,1.465,0,0,1,278.8,0h6.273a1.465,1.465,0,0,1,1.464,1.464v8.783A1.465,1.465,0,0,1,285.069,11.711ZM278.8,1.255a.209.209,0,0,0-.209.209v8.783a.209.209,0,0,0,.209.209h6.273a.209.209,0,0,0,.209-.209V1.464a.209.209,0,0,0-.209-.209Zm0,0" transform="translate(-266.458)" fill="#b2bec3"/>
  </g>
</svg>
