<svg xmlns="http://www.w3.org/2000/svg" width="28.749" height="21.809" viewBox="0 0 28.749 21.809">
  <g id="delivery-truck" transform="translate(0 -73.866)">
    <path id="Path_868" data-name="Path 868" d="M28.379,91.073h-.9V86.05a2.96,2.96,0,0,0-.506-1.652l-2.251-3.334a2.959,2.959,0,0,0-2.451-1.3H18.783a.739.739,0,0,0-.739.739V91.073H12.33a3.036,3.036,0,0,1,1.024,1.863h6.025a3.034,3.034,0,0,1,6.007,0h2.994a.371.371,0,0,0,.37-.37V91.443A.371.371,0,0,0,28.379,91.073ZM24.7,85.063H20.092a.368.368,0,0,1-.37-.37V82.139a.371.371,0,0,1,.37-.37H22.9a.375.375,0,0,1,.3.155L25,84.483A.369.369,0,0,1,24.7,85.063Zm-2.314,6.01a2.3,2.3,0,1,0,2.3,2.3A2.3,2.3,0,0,0,22.383,91.073Zm0,3.452a1.15,1.15,0,1,1,1.15-1.15A1.151,1.151,0,0,1,22.383,94.525ZM3.215,91.073a.371.371,0,0,0-.37.37v1.124a.371.371,0,0,0,.37.37H7.347a3.05,3.05,0,0,1,1.02-1.863H3.215Zm7.134,0a2.3,2.3,0,1,0,2.3,2.3A2.3,2.3,0,0,0,10.348,91.073Zm0,3.452a1.15,1.15,0,1,1,1.15-1.15A1.151,1.151,0,0,1,10.348,94.525Zm5.53-17.055H11.594a6.205,6.205,0,0,1,.322,1.985,6.333,6.333,0,0,1-8.161,6.058V89.6a.371.371,0,0,0,.37.37H16.617a.371.371,0,0,0,.37-.37V78.58A1.107,1.107,0,0,0,15.878,77.471Zm-10.29-3.6a5.588,5.588,0,1,0,5.589,5.588A5.588,5.588,0,0,0,5.589,73.866Zm0,9.905a4.317,4.317,0,1,1,4.317-4.317A4.317,4.317,0,0,1,5.589,83.771Zm1.649-3.405a.56.56,0,0,1-.145-.019l-1.8-.485a.555.555,0,0,1-.41-.535V76.554a.554.554,0,0,1,1.109,0V78.9l1.391.375a.554.554,0,0,1-.144,1.09Z" fill="#fbc531"/>
  </g>
</svg>
