<svg xmlns="http://www.w3.org/2000/svg" width="16.546" height="19" viewBox="0 0 16.546 19">
  <g id="order" transform="translate(-33.062)">
    <g id="Group_658" data-name="Group 658" transform="translate(33.062)">
      <g id="Group_657" data-name="Group 657" transform="translate(0)">
        <path id="Path_769" data-name="Path 769" d="M49.533,5.244l-.014-.024a.9.9,0,0,0-.067-.116L46.809.534A1.072,1.072,0,0,0,45.884,0h-9.1a1.072,1.072,0,0,0-.926.535L33.175,5.2a.557.557,0,0,0-.054.131.941.941,0,0,0-.059.328V17.691A1.311,1.311,0,0,0,34.371,19H48.3a1.311,1.311,0,0,0,1.309-1.309V5.609c0-.016,0-.032,0-.048A.554.554,0,0,0,49.533,5.244Zm-7.622-4.13h3.947l2.079,3.595H41.911Zm-5.1,0H40.8V4.709H34.741ZM48.494,17.691a.2.2,0,0,1-.2.2H34.371a.2.2,0,0,1-.2-.2V5.822H48.494Z" transform="translate(-33.062)" fill="#fbc531"/>
      </g>
    </g>
    <g id="Group_660" data-name="Group 660" transform="translate(38.682 9.857)">
      <g id="Group_659" data-name="Group 659">
        <path id="Path_770" data-name="Path 770" d="M189.693,265.795a.557.557,0,0,0-.787,0l-2.486,2.486-.956-.956a.557.557,0,1,0-.788.788l1.35,1.35a.557.557,0,0,0,.787,0l2.88-2.88A.557.557,0,0,0,189.693,265.795Z" transform="translate(-184.512 -265.632)" fill="#fbc531"/>
      </g>
    </g>
  </g>
</svg>
