<svg id="settings-disabled" xmlns="http://www.w3.org/2000/svg" width="22.019" height="22.02" viewBox="0 0 22.019 22.02">
  <g id="Group_670" data-name="Group 670">
    <g id="Group_669" data-name="Group 669">
      <path id="Path_779" data-name="Path 779" d="M21.672,8.455l-2.014-.5a9.319,9.319,0,0,0-.372-.89l1.07-1.784a.459.459,0,0,0-.069-.56L17.3,1.732a.459.459,0,0,0-.56-.069L14.958,2.734a9.238,9.238,0,0,0-.889-.372l-.5-2.014A.459.459,0,0,0,13.12,0H8.9a.459.459,0,0,0-.445.348l-.5,2.014a9.26,9.26,0,0,0-.889.372L5.277,1.663a.459.459,0,0,0-.56.069L1.733,4.717a.459.459,0,0,0-.069.56l1.07,1.784a9.292,9.292,0,0,0-.372.89l-2.014.5A.459.459,0,0,0,0,8.9v4.22a.459.459,0,0,0,.348.445l2.014.5a9.319,9.319,0,0,0,.372.89l-1.07,1.784a.459.459,0,0,0,.069.56l2.984,2.984a.46.46,0,0,0,.56.069l1.784-1.07a9.292,9.292,0,0,0,.89.372l.5,2.014a.459.459,0,0,0,.445.348h4.22a.459.459,0,0,0,.445-.348l.5-2.014a9.319,9.319,0,0,0,.89-.372l1.784,1.07a.459.459,0,0,0,.56-.069L20.287,17.3a.459.459,0,0,0,.069-.56l-1.07-1.784a9.292,9.292,0,0,0,.372-.89l2.014-.5a.459.459,0,0,0,.348-.445V8.9A.458.458,0,0,0,21.672,8.455Zm-.57,4.307-1.909.478a.457.457,0,0,0-.325.3,8.286,8.286,0,0,1-.513,1.227.458.458,0,0,0,.015.445l1.015,1.692-2.478,2.478L15.215,18.37a.461.461,0,0,0-.445-.015,8.31,8.31,0,0,1-1.227.513.458.458,0,0,0-.3.325L12.762,21.1h-3.5L8.78,19.193a.457.457,0,0,0-.3-.325,8.31,8.31,0,0,1-1.227-.513.457.457,0,0,0-.445.015L5.112,19.385,2.635,16.907,3.65,15.215a.458.458,0,0,0,.015-.445,8.286,8.286,0,0,1-.513-1.227.458.458,0,0,0-.325-.3L.917,12.762v-3.5L2.827,8.78a.457.457,0,0,0,.325-.3A8.286,8.286,0,0,1,3.665,7.25.458.458,0,0,0,3.65,6.8L2.635,5.112,5.112,2.634,6.8,3.65a.455.455,0,0,0,.445.015,8.286,8.286,0,0,1,1.227-.513.458.458,0,0,0,.3-.325L9.258.917h3.5l.478,1.909a.457.457,0,0,0,.3.325,8.286,8.286,0,0,1,1.227.513.459.459,0,0,0,.445-.015l1.692-1.016,2.478,2.478L18.37,6.8a.458.458,0,0,0-.015.445,8.286,8.286,0,0,1,.513,1.227.458.458,0,0,0,.325.3l1.909.478v3.5Z" fill="#b2bec3"/>
      <path id="Path_780" data-name="Path 780" d="M133.5,128a5.5,5.5,0,1,0,5.5,5.5A5.511,5.511,0,0,0,133.5,128Zm0,10.092a4.587,4.587,0,1,1,4.587-4.587A4.593,4.593,0,0,1,133.5,138.092Z" transform="translate(-122.495 -122.495)" fill="#b2bec3"/>
    </g>
  </g>
</svg>
