<svg xmlns="http://www.w3.org/2000/svg" width="33.929" height="26.1" viewBox="0 0 33.929 26.1">
  <g id="staff" transform="translate(-35.999 -504.53)">
    <g id="user_2_" data-name="user (2)" transform="translate(36 506)">
      <path id="Path_764" data-name="Path 764" d="M92,9.938a4.808,4.808,0,0,0,3.513-1.456A4.808,4.808,0,0,0,96.97,4.969a4.808,4.808,0,0,0-1.456-3.513,4.968,4.968,0,0,0-7.026,0,4.808,4.808,0,0,0-1.456,3.513,4.808,4.808,0,0,0,1.456,3.513A4.81,4.81,0,0,0,92,9.938ZM89.342,2.311a3.759,3.759,0,0,1,5.317,0,3.592,3.592,0,0,1,1.1,2.658,3.592,3.592,0,0,1-1.1,2.658,3.758,3.758,0,0,1-5.317,0,3.591,3.591,0,0,1-1.1-2.658,3.592,3.592,0,0,1,1.1-2.658Zm0,0" transform="translate(-83.525 0)" fill="#f0bc5e"/>
      <path id="Path_765" data-name="Path 765" d="M17.17,253.215a12.274,12.274,0,0,0-.167-1.3,10.27,10.27,0,0,0-.321-1.311,6.475,6.475,0,0,0-.539-1.222,4.608,4.608,0,0,0-.812-1.059,3.582,3.582,0,0,0-1.167-.733,4.033,4.033,0,0,0-1.49-.27,1.512,1.512,0,0,0-.808.342c-.242.158-.525.34-.841.542a4.821,4.821,0,0,1-1.089.48,4.227,4.227,0,0,1-2.663,0,4.806,4.806,0,0,1-1.088-.479c-.313-.2-.6-.383-.842-.543a1.511,1.511,0,0,0-.807-.342,4.028,4.028,0,0,0-1.49.27,3.579,3.579,0,0,0-1.167.733,4.609,4.609,0,0,0-.812,1.059A6.486,6.486,0,0,0,.529,250.6a10.294,10.294,0,0,0-.32,1.31,12.189,12.189,0,0,0-.167,1.3c-.027.394-.041.8-.041,1.218a3.426,3.426,0,0,0,1.017,2.592,3.662,3.662,0,0,0,2.622.956h9.933a3.663,3.663,0,0,0,2.622-.956,3.424,3.424,0,0,0,1.018-2.592c0-.416-.014-.826-.042-1.219Zm-1.809,2.934a2.466,2.466,0,0,1-1.788.623H3.639a2.466,2.466,0,0,1-1.788-.623,2.237,2.237,0,0,1-.642-1.716c0-.387.013-.768.038-1.135a10.994,10.994,0,0,1,.151-1.174,9.079,9.079,0,0,1,.282-1.155,5.28,5.28,0,0,1,.438-.994,3.416,3.416,0,0,1,.6-.782,2.376,2.376,0,0,1,.776-.483,2.782,2.782,0,0,1,.952-.184c.042.023.118.065.24.145.249.162.535.347.852.549a5.99,5.99,0,0,0,1.366.611,5.435,5.435,0,0,0,3.406,0,6,6,0,0,0,1.367-.611c.324-.207.6-.387.851-.549.122-.079.2-.123.24-.145a2.784,2.784,0,0,1,.952.184,2.38,2.38,0,0,1,.776.483,3.407,3.407,0,0,1,.6.783,5.262,5.262,0,0,1,.439.994,9.058,9.058,0,0,1,.282,1.155,11.087,11.087,0,0,1,.151,1.174h0c.026.365.039.747.039,1.134a2.237,2.237,0,0,1-.642,1.716Zm0,0" transform="translate(0 -237.351)" fill="#f0bc5e"/>
    </g>
    <g id="user_2_2" data-name="user (2)" transform="translate(49 504.53)">
      <path id="Path_764-2" data-name="Path 764" d="M90.187,6.311a3.053,3.053,0,0,0,2.231-.924,3.053,3.053,0,0,0,.924-2.231A3.053,3.053,0,0,0,92.418.924a3.154,3.154,0,0,0-4.462,0,3.053,3.053,0,0,0-.924,2.231,3.053,3.053,0,0,0,.924,2.231A3.054,3.054,0,0,0,90.187,6.311ZM88.5,1.467a2.387,2.387,0,0,1,3.376,0,2.281,2.281,0,0,1,.7,1.688,2.281,2.281,0,0,1-.7,1.688,2.386,2.386,0,0,1-3.376,0,2.281,2.281,0,0,1-.7-1.688,2.281,2.281,0,0,1,.7-1.688Zm0,0" transform="translate(-84.805 0)" fill="#f0bc5e"/>
      <path id="Path_765-2" data-name="Path 765" d="M10.9,251.062a7.8,7.8,0,0,0-.106-.828,6.521,6.521,0,0,0-.2-.832,4.112,4.112,0,0,0-.342-.776,2.926,2.926,0,0,0-.516-.672,2.274,2.274,0,0,0-.741-.466,2.561,2.561,0,0,0-.946-.171.96.96,0,0,0-.513.217c-.154.1-.334.216-.534.344a3.063,3.063,0,0,1-.691.3,2.685,2.685,0,0,1-1.691,0,3.052,3.052,0,0,1-.691-.3c-.2-.127-.379-.243-.535-.345a.959.959,0,0,0-.513-.217,2.558,2.558,0,0,0-.946.171,2.273,2.273,0,0,0-.741.466,2.927,2.927,0,0,0-.516.672,4.118,4.118,0,0,0-.342.776,6.537,6.537,0,0,0-.2.832,7.74,7.74,0,0,0-.106.828c-.017.25-.026.51-.026.774a2.175,2.175,0,0,0,.646,1.646,2.326,2.326,0,0,0,1.665.607H8.618a2.326,2.326,0,0,0,1.665-.607,2.174,2.174,0,0,0,.646-1.646c0-.264-.009-.524-.026-.774Zm-1.149,1.863a1.566,1.566,0,0,1-1.135.4H2.311a1.566,1.566,0,0,1-1.135-.4,1.42,1.42,0,0,1-.408-1.09c0-.245.008-.488.024-.72a6.981,6.981,0,0,1,.1-.745,5.764,5.764,0,0,1,.179-.734A3.353,3.353,0,0,1,1.345,249a2.169,2.169,0,0,1,.379-.5,1.509,1.509,0,0,1,.493-.307,1.767,1.767,0,0,1,.6-.117c.027.014.075.042.152.092.158.1.34.22.541.349a3.8,3.8,0,0,0,.868.388,3.451,3.451,0,0,0,2.163,0,3.807,3.807,0,0,0,.868-.388c.206-.132.383-.245.54-.348.078-.05.125-.078.152-.092a1.768,1.768,0,0,1,.6.117,1.511,1.511,0,0,1,.493.307,2.163,2.163,0,0,1,.379.5,3.343,3.343,0,0,1,.279.631,5.753,5.753,0,0,1,.179.734,7.04,7.04,0,0,1,.1.746h0c.016.232.024.474.025.72a1.42,1.42,0,0,1-.408,1.089Zm0,0" transform="translate(0 -240.988)" fill="#f0bc5e"/>
    </g>
    <g id="user_2_3" data-name="user (2)" transform="translate(51 517.53)">
      <path id="Path_764-3" data-name="Path 764" d="M90.187,6.311a3.053,3.053,0,0,0,2.231-.924,3.053,3.053,0,0,0,.924-2.231A3.053,3.053,0,0,0,92.418.924a3.154,3.154,0,0,0-4.462,0,3.053,3.053,0,0,0-.924,2.231,3.053,3.053,0,0,0,.924,2.231A3.054,3.054,0,0,0,90.187,6.311ZM88.5,1.467a2.387,2.387,0,0,1,3.376,0,2.281,2.281,0,0,1,.7,1.688,2.281,2.281,0,0,1-.7,1.688,2.386,2.386,0,0,1-3.376,0,2.281,2.281,0,0,1-.7-1.688,2.281,2.281,0,0,1,.7-1.688Zm0,0" transform="translate(-84.805 0)" fill="#f0bc5e"/>
      <path id="Path_765-3" data-name="Path 765" d="M10.9,251.062a7.8,7.8,0,0,0-.106-.828,6.521,6.521,0,0,0-.2-.832,4.112,4.112,0,0,0-.342-.776,2.926,2.926,0,0,0-.516-.672,2.274,2.274,0,0,0-.741-.466,2.561,2.561,0,0,0-.946-.171.96.96,0,0,0-.513.217c-.154.1-.334.216-.534.344a3.063,3.063,0,0,1-.691.3,2.685,2.685,0,0,1-1.691,0,3.052,3.052,0,0,1-.691-.3c-.2-.127-.379-.243-.535-.345a.959.959,0,0,0-.513-.217,2.558,2.558,0,0,0-.946.171,2.273,2.273,0,0,0-.741.466,2.927,2.927,0,0,0-.516.672,4.118,4.118,0,0,0-.342.776,6.537,6.537,0,0,0-.2.832,7.74,7.74,0,0,0-.106.828c-.017.25-.026.51-.026.774a2.175,2.175,0,0,0,.646,1.646,2.326,2.326,0,0,0,1.665.607H8.618a2.326,2.326,0,0,0,1.665-.607,2.174,2.174,0,0,0,.646-1.646c0-.264-.009-.524-.026-.774Zm-1.149,1.863a1.566,1.566,0,0,1-1.135.4H2.311a1.566,1.566,0,0,1-1.135-.4,1.42,1.42,0,0,1-.408-1.09c0-.245.008-.488.024-.72a6.981,6.981,0,0,1,.1-.745,5.764,5.764,0,0,1,.179-.734A3.353,3.353,0,0,1,1.345,249a2.169,2.169,0,0,1,.379-.5,1.509,1.509,0,0,1,.493-.307,1.767,1.767,0,0,1,.6-.117c.027.014.075.042.152.092.158.1.34.22.541.349a3.8,3.8,0,0,0,.868.388,3.451,3.451,0,0,0,2.163,0,3.807,3.807,0,0,0,.868-.388c.206-.132.383-.245.54-.348.078-.05.125-.078.152-.092a1.768,1.768,0,0,1,.6.117,1.511,1.511,0,0,1,.493.307,2.163,2.163,0,0,1,.379.5,3.343,3.343,0,0,1,.279.631,5.753,5.753,0,0,1,.179.734,7.04,7.04,0,0,1,.1.746h0c.016.232.024.474.025.72a1.42,1.42,0,0,1-.408,1.089Zm0,0" transform="translate(0 -240.988)" fill="#f0bc5e"/>
    </g>
    <g id="user_2_4" data-name="user (2)" transform="translate(59 508.53)">
      <path id="Path_764-4" data-name="Path 764" d="M90.187,6.311a3.053,3.053,0,0,0,2.231-.924,3.053,3.053,0,0,0,.924-2.231A3.053,3.053,0,0,0,92.418.924a3.154,3.154,0,0,0-4.462,0,3.053,3.053,0,0,0-.924,2.231,3.053,3.053,0,0,0,.924,2.231A3.054,3.054,0,0,0,90.187,6.311ZM88.5,1.467a2.387,2.387,0,0,1,3.376,0,2.281,2.281,0,0,1,.7,1.688,2.281,2.281,0,0,1-.7,1.688,2.386,2.386,0,0,1-3.376,0,2.281,2.281,0,0,1-.7-1.688,2.281,2.281,0,0,1,.7-1.688Zm0,0" transform="translate(-84.805 0)" fill="#f0bc5e"/>
      <path id="Path_765-4" data-name="Path 765" d="M10.9,251.062a7.8,7.8,0,0,0-.106-.828,6.521,6.521,0,0,0-.2-.832,4.112,4.112,0,0,0-.342-.776,2.926,2.926,0,0,0-.516-.672,2.274,2.274,0,0,0-.741-.466,2.561,2.561,0,0,0-.946-.171.96.96,0,0,0-.513.217c-.154.1-.334.216-.534.344a3.063,3.063,0,0,1-.691.3,2.685,2.685,0,0,1-1.691,0,3.052,3.052,0,0,1-.691-.3c-.2-.127-.379-.243-.535-.345a.959.959,0,0,0-.513-.217,2.558,2.558,0,0,0-.946.171,2.273,2.273,0,0,0-.741.466,2.927,2.927,0,0,0-.516.672,4.118,4.118,0,0,0-.342.776,6.537,6.537,0,0,0-.2.832,7.74,7.74,0,0,0-.106.828c-.017.25-.026.51-.026.774a2.175,2.175,0,0,0,.646,1.646,2.326,2.326,0,0,0,1.665.607H8.618a2.326,2.326,0,0,0,1.665-.607,2.174,2.174,0,0,0,.646-1.646c0-.264-.009-.524-.026-.774Zm-1.149,1.863a1.566,1.566,0,0,1-1.135.4H2.311a1.566,1.566,0,0,1-1.135-.4,1.42,1.42,0,0,1-.408-1.09c0-.245.008-.488.024-.72a6.981,6.981,0,0,1,.1-.745,5.764,5.764,0,0,1,.179-.734A3.353,3.353,0,0,1,1.345,249a2.169,2.169,0,0,1,.379-.5,1.509,1.509,0,0,1,.493-.307,1.767,1.767,0,0,1,.6-.117c.027.014.075.042.152.092.158.1.34.22.541.349a3.8,3.8,0,0,0,.868.388,3.451,3.451,0,0,0,2.163,0,3.807,3.807,0,0,0,.868-.388c.206-.132.383-.245.54-.348.078-.05.125-.078.152-.092a1.768,1.768,0,0,1,.6.117,1.511,1.511,0,0,1,.493.307,2.163,2.163,0,0,1,.379.5,3.343,3.343,0,0,1,.279.631,5.753,5.753,0,0,1,.179.734,7.04,7.04,0,0,1,.1.746h0c.016.232.024.474.025.72a1.42,1.42,0,0,1-.408,1.089Zm0,0" transform="translate(0 -240.988)" fill="#f0bc5e"/>
    </g>
  </g>
</svg>
