<svg xmlns="http://www.w3.org/2000/svg" width="24.812" height="24.812" viewBox="0 0 24.812 24.812">
  <path id="team-disabled" d="M24.811,10.4h-.9l-1.34.705a1.99,1.99,0,0,0-.477-.2l-1.686-.422V10.3A2.81,2.81,0,0,0,21.61,8V7.3a2.875,2.875,0,0,0-2.715-2.9c-.076,0-.151,0-.226,0l.437-1.023L16.986,1.266l-1.249.813a6.769,6.769,0,0,0-1.5-.621L13.931,0h-3.05l-.309,1.458a6.761,6.761,0,0,0-1.5.621L7.825,1.266,5.708,3.384l.43,1.024-.048,0A2.8,2.8,0,0,0,3.2,7.2V8a2.809,2.809,0,0,0,1.2,2.3v.192l-1.1.275L1.309,9.6H0V17.9l3.937,1.312H4.7l.1-.335,1.207.724a1.246,1.246,0,0,0,1.2,1.207,1.246,1.246,0,0,0,1.2,1.2,1.246,1.246,0,0,0,1.2,1.2,1.245,1.245,0,0,0,1.946.988l.354.313a1.219,1.219,0,0,0,.805.3h.074A1.218,1.218,0,0,0,14,23.609a1.217,1.217,0,0,0,1.2-1.2,1.217,1.217,0,0,0,1.2-1.2,1.231,1.231,0,0,0,1.2-1.228,1.172,1.172,0,0,0-.006-.12l7.209-3.6Zm-4-3.1V8a2.009,2.009,0,0,1-1,1.732l-.2.116,0,1.266,2,.5-4.4,2.316V12.855a1.991,1.991,0,0,0-.573-1.395l1.373-.343V9.85l-.2-.115a2.007,2.007,0,0,1-1-1.731V7.2a2,2,0,0,1,2.063-2,2.069,2.069,0,0,1,1.939,2.1Zm-7.8,6.314L11.2,13.04a4.942,4.942,0,0,0-2.564-.117l-.229.051v-.118a1.2,1.2,0,0,1,.909-1.165l2.292-.573V9.85l-.2-.115A2.007,2.007,0,0,1,10.4,8V7.2a2,2,0,0,1,2.063-2,2.069,2.069,0,0,1,1.939,2.1V8a2.009,2.009,0,0,1-1,1.732l-.2.116,0,1.266,2.292.573a1.2,1.2,0,0,1,.909,1.165v1.5l-.1.052h-.245l-2.46-.7a2.523,2.523,0,0,0-.594-.085ZM8.493,5.989A4.4,4.4,0,0,1,16.3,5.957,2.783,2.783,0,0,0,16.007,7.2V8a2.809,2.809,0,0,0,1.2,2.3v.192l-1.6.4-1.6-.4V10.3a2.81,2.81,0,0,0,1.2-2.3V7.3a2.875,2.875,0,0,0-2.715-2.9A2.8,2.8,0,0,0,9.6,7.2V8a2.809,2.809,0,0,0,1.2,2.3v.192l-1.6.4-1.6-.4V10.3A2.81,2.81,0,0,0,8.8,8V7.3a2.95,2.95,0,0,0-.31-1.315ZM6.653,3.569,7.931,2.291l1.125.732.215-.132A5.972,5.972,0,0,1,11,2.172l.246-.059L11.53.8h1.752l.278,1.313.246.059a5.977,5.977,0,0,1,1.733.719l.215.132,1.125-.732,1.277,1.277L17.7,4.63a2.8,2.8,0,0,0-.845.562c-.016.016-.03.033-.047.05a5.2,5.2,0,0,0-8.826.024A2.823,2.823,0,0,0,7.1,4.64ZM5.2,11.117V9.85L5,9.735A2.007,2.007,0,0,1,4,8V7.2a2,2,0,0,1,2.063-2A2.069,2.069,0,0,1,8,7.3V8A2.009,2.009,0,0,1,7,9.735l-.2.116,0,1.266,1.373.343A1.991,1.991,0,0,0,7.6,12.855v.3l-1.248.277.032-.113.015-.74L4.292,11.345ZM.8,10.4h.292L3.97,12.083,2.518,17.892.8,17.319Zm3.266,8-.788-.262L4.69,12.5l.913.532v.114L4.1,18.408ZM6.8,19.561a.452.452,0,0,1,.131-.317l.7-.7a.449.449,0,0,1,.635.635l-.7.7a.449.449,0,0,1-.766-.317Zm1.2,1.2a.452.452,0,0,1,.131-.317l.7-.7a.449.449,0,0,1,.635.635l-.7.7A.449.449,0,0,1,8,20.761Zm1.2,1.2a.452.452,0,0,1,.131-.317l.7-.7a.449.449,0,0,1,.635.635l-.7.7a.449.449,0,0,1-.766-.317Zm1.649,1.649a.449.449,0,0,1-.317-.766l.7-.7a.449.449,0,0,1,.635.635l-.7.7A.452.452,0,0,1,10.853,23.611Zm1.935.4h-.074a.415.415,0,0,1-.276-.1l-.3-.264.3-.3a1.244,1.244,0,0,0,.252-.372l.364.3a.417.417,0,0,1-.267.738Zm3.589-3.6h-.069a.429.429,0,0,1-.275-.1L13.863,18.5l-.513.615,2.107,1.756a.418.418,0,0,1-.268.738H15.1a.417.417,0,0,1-.267-.1L12.662,19.7l-.513.615,2.107,1.756a.417.417,0,0,1-.267.737.661.661,0,0,1-.421-.152l-.893-.744a1.245,1.245,0,0,0-1.075-.7,1.246,1.246,0,0,0-1.2-1.2,1.246,1.246,0,0,0-1.2-1.2,1.246,1.246,0,0,0-2.127-.839l-.7.7a1.233,1.233,0,0,0-.112.137l-1.229-.738L6.1,14.305l2.7-.6a4.123,4.123,0,0,1,2.147.1l.59.189-2,1a1.334,1.334,0,0,0-.74,1.2v.079a1.34,1.34,0,0,0,2.03,1.149l1.49-.894a.826.826,0,0,1,.96.092l3.381,3.043a.431.431,0,0,1-.288.751Zm7.634-4.649-6.742,3.371c-.022-.023-.045-.045-.069-.067l-3.381-3.043a1.61,1.61,0,0,0-1.907-.184l-1.491.894a.54.54,0,0,1-.817-.463v-.079a.537.537,0,0,1,.3-.483l2.232-1.116a1.739,1.739,0,0,1,1.247-.116l2.515.718.609.015,7.5-3.95Zm0,0" transform="translate(0 0)" fill="#b2bec3"/>
</svg>
