<svg id="image" xmlns="http://www.w3.org/2000/svg" width="54" height="54" viewBox="0 0 54 54">
  <g id="Group_362" data-name="Group 362">
    <g id="Group_361" data-name="Group 361">
      <path id="Path_106" data-name="Path 106" d="M48.938,0H5.062A5.062,5.062,0,0,0,0,5.062V48.938A5.062,5.062,0,0,0,5.062,54H48.938A5.062,5.062,0,0,0,54,48.938V5.062A5.062,5.062,0,0,0,48.938,0Zm1.688,48.938a1.687,1.687,0,0,1-1.687,1.688H5.062a1.687,1.687,0,0,1-1.687-1.687V5.062A1.687,1.687,0,0,1,5.062,3.375H48.938a1.687,1.687,0,0,1,1.688,1.687Z" fill="#b2bec3"/>
      <path id="Path_107" data-name="Path 107" d="M108.4,244a1.687,1.687,0,0,0-2.379,0l-3.881,3.881L94.9,240.638a1.687,1.687,0,0,0-2.379,0L80.707,252.45a1.687,1.687,0,0,0,1.181,2.869h33.75a1.687,1.687,0,0,0,1.2-2.886Z" transform="translate(-71.764 -214.819)" fill="#b2bec3"/>
      <circle id="Ellipse_22" data-name="Ellipse 22" cx="5" cy="5" r="5" transform="translate(27 13.436)" fill="#b2bec3"/>
    </g>
  </g>
</svg>
