<svg id="supplier" xmlns="http://www.w3.org/2000/svg" width="27" height="27" viewBox="0 0 27 27">
  <circle id="Ellipse_20" data-name="Ellipse 20" cx="13.5" cy="13.5" r="13.5" fill="#fbc531" opacity="0.3"/>
  <g id="inventory_1_" data-name="inventory (1)" transform="translate(6.857 6.857)">
    <path id="Path_73" data-name="Path 73" d="M33,44.172h6.465V39H33Zm2.586-4.741h1.293v.431H35.586Zm-2.155,0h1.724v.862H37.31v-.862h1.724v4.31h-5.6Z" transform="translate(-26.104 -30.811)" fill="#fbc531"/>
    <path id="Path_74" data-name="Path 74" d="M57,57h.431v.431H57Z" transform="translate(-44.932 -44.932)" fill="#fbc531"/>
    <path id="Path_75" data-name="Path 75" d="M53,57h.431v.431H53Z" transform="translate(-41.794 -44.932)" fill="#fbc531"/>
    <path id="Path_76" data-name="Path 76" d="M49,57h.431v.431H49Z" transform="translate(-38.656 -44.932)" fill="#fbc531"/>
    <path id="Path_77" data-name="Path 77" d="M13.93,5.31H13.5V1H7.9V5.31H7.465V1h-5.6V5.31H1.431A.431.431,0,0,0,1,5.741v.431a.431.431,0,0,0,.431.431H2.565A1.711,1.711,0,0,0,3.281,8.47,3.238,3.238,0,0,0,1,11.56a1.078,1.078,0,0,0,.647.986v1.815H7.465v-2.8A3.238,3.238,0,0,0,5.184,8.47,1.711,1.711,0,0,0,5.9,6.6h8.03a.431.431,0,0,0,.431-.431V5.741A.431.431,0,0,0,13.93,5.31ZM10.051,1.431h1.293v.431H10.051Zm-1.724,0H9.62v.862h2.155V1.431h1.293V5.31H11.775V4.448H9.62V5.31H8.327ZM11.344,5.31H10.051V4.879h1.293ZM4.017,1.431H5.31v.431H4.017Zm-1.724,0H3.586v.862H5.741V1.431H7.034V5.31H5.741V4.448H3.586V5.31H2.293ZM4.017,5.31V4.879H5.31V5.31Zm-2.586.862V5.741H3.1a1.739,1.739,0,0,0-.354.431Zm.647,6.465H2.94V13.93H2.078Zm2.047-1.509H3.371V10.051H4.879v1.078H5.957v2.8H3.371V12.637h.754a.754.754,0,1,0,0-1.509Zm1.185-.773.342.342H5.31Zm1.724,1.2V13.93H6.388V10.824l-1.2-1.2H2.94v1.509H2.293v.431H4.125a.323.323,0,1,1,0,.647H2.078a.647.647,0,0,1-.647-.647,2.8,2.8,0,1,1,5.6,0Zm-2.8-3.233A1.293,1.293,0,1,1,5.526,7.034,1.294,1.294,0,0,1,4.233,8.327Zm9.7-2.155H5.723a1.734,1.734,0,0,0-.354-.431H13.93Z" transform="translate(-1 -1)" fill="#fbc531"/>
    <path id="Path_78" data-name="Path 78" d="M49,53h2.155v.431H49Z" transform="translate(-38.656 -41.794)" fill="#fbc531"/>
  </g>
</svg>
