<svg xmlns="http://www.w3.org/2000/svg" xmlns:xlink="http://www.w3.org/1999/xlink" width="515.533" height="206.618" viewBox="0 0 515.533 206.618">
  <defs>
    <filter id="Rectangle_583" x="109.733" y="29.358" width="30.29" height="30.29" filterUnits="userSpaceOnUse">
      <feOffset dy="3" input="SourceAlpha"/>
      <feGaussianBlur stdDeviation="3" result="blur"/>
      <feFlood flood-opacity="0.161"/>
      <feComposite operator="in" in2="blur"/>
      <feComposite in="SourceGraphic"/>
    </filter>
    <filter id="Rectangle_584" x="0" y="67.344" width="99.934" height="99.934" filterUnits="userSpaceOnUse">
      <feOffset dy="3" input="SourceAlpha"/>
      <feGaussianBlur stdDeviation="3" result="blur-2"/>
      <feFlood flood-opacity="0.302"/>
      <feComposite operator="in" in2="blur-2"/>
      <feComposite in="SourceGraphic"/>
    </filter>
    <filter id="Rectangle_585" x="51.389" y="0" width="43.002" height="43.002" filterUnits="userSpaceOnUse">
      <feOffset dy="3" input="SourceAlpha"/>
      <feGaussianBlur stdDeviation="3" result="blur-3"/>
      <feFlood flood-opacity="0.161"/>
      <feComposite operator="in" in2="blur-3"/>
      <feComposite in="SourceGraphic"/>
    </filter>
  </defs>
  <g id="banner-booking" transform="translate(32.27 8.333)">
    <path id="Path_1079" data-name="Path 1079" d="M63.666,389.566l-10.894-.727L56.4,405.181,68.75,400.1Z" transform="translate(-21.469 -217.348)" fill="#ffb9b9"/>
    <path id="Path_1080" data-name="Path 1080" d="M217.372,289.437l-25.419-24.693L177.427,276l-28.688,34.5,3.268,5.084,34.861-23.6,23.6,30.866,22.514-11.257Z" transform="translate(-75.312 -147.722)" fill="#2f2e41"/>
    <path id="Path_1081" data-name="Path 1081" d="M217.372,289.437l-25.419-24.693L177.427,276l-28.688,34.5,3.268,5.084,34.861-23.6,23.6,30.866,22.514-11.257Z" transform="translate(-75.312 -147.722)" opacity="0.1"/>
    <path id="Path_1082" data-name="Path 1082" d="M307.11,562.389l-3.268,2.542-26.509-9.078-6.173-2.542-12.347,2.542s0-10.168,11.62-9.8l11.983,2.905,14.162,1.089Z" transform="translate(-162.872 -404.333)" fill="#ffb9b9"/>
    <path id="Path_1083" data-name="Path 1083" d="M200.915,369.321l-7.989,5.084h-9.442l-43.939-16.341L75.27,369.684l-1.816-13.8L132.282,330.1l51.565,17.067Z" transform="translate(-33.073 -184.392)" fill="#2f2e41"/>
    <path id="Path_1084" data-name="Path 1084" d="M294.4,452.394l-5.447,1.089L287.77,452.1a7.338,7.338,0,0,1-.992-8.057h0l15.252-19.972s4.358-9.8,11.257-5.81-5.81,10.531-5.81,10.531l-7.626,11.983.726,6.173Z" transform="translate(-178.127 -332.104)" fill="#ffb9b9"/>
    <circle id="Ellipse_208" data-name="Ellipse 208" cx="14.162" cy="14.162" r="14.162" transform="translate(136.612 68.362)" fill="#ffb9b9"/>
    <path id="Path_1085" data-name="Path 1085" d="M369.258,430.116l6.537,15.615,15.615-6.536s-5.084-12.347-5.084-12.71S369.258,430.116,369.258,430.116Z" transform="translate(-224.839 -337.243)" fill="#ffb9b9"/>
    <path id="Path_1086" data-name="Path 1086" d="M373.963,489.24a81.367,81.367,0,0,1-3.99,25.167l-1.061,3.263-5.084,23.241-5.447,1.453-3.994-5.084-7.989-5.81-5.81-9.442-4.982-8.3-1.554-2.593L328.6,483.9l-20.7-11.62-6.9-1.089,1.453-3.994,6.173-8.352,6.173-.726,1.816-1.453,1.453.726,5.81-3.268,1.816.726,10.618.988,6.449-1.351,9.274-4.978,3.8.621,13.073,10.894A81.3,81.3,0,0,1,373.963,489.24Z" transform="translate(-186.544 -350.172)" fill="#1e272e"/>
    <path id="Path_1087" data-name="Path 1087" d="M85.288,601.377s3.253-5.512,1.879-6.156-7.208-3.209-7.208-3.209L71.4,589.177s-12.346-18.348-12.617-2.392,8.989,19.791,8.989,19.791,8.259,17.774,12.937,14.939,9.359-12.455,9.359-12.455S81.636,604.525,85.288,601.377Z" transform="translate(-50.641 -423.536)" fill="#fbc531"/>
    <path id="Path_1088" data-name="Path 1088" d="M347.89,285.484l-13.8,9.078-20.6,18.571-1.554-2.593-4.358-21.788h1.089l11.257-20.7Z" transform="translate(-164.433 -149.579)" opacity="0.1"/>
    <path id="Path_1089" data-name="Path 1089" d="M305.54,263.09l-11.257,20.7h-3.994l-2.542,7.263-5.81,1.453,15.615,17.067L319.7,289.6l13.8-9.078Z" transform="translate(-150.044 -146.794)" fill="#fbc531"/>
    <path id="Path_1090" data-name="Path 1090" d="M352.354,373.019l-1.534.59a2.142,2.142,0,0,1-.548-3.011l-2.836-.133a21.412,21.412,0,0,1,31.966-2.576c.129-.445,1.536.42,2.111,1.3.193-.724,1.513,2.774,1.979,5.246.216-.823,1.047.506.319,1.781.461-.067.669,1.113.312,1.77.5-.237.42,1.171-.128,2.113.72-.064-5.678,9.865-8.268,15.668-.752-3.456-1.6-7.1-4.023-9.669-.412-.437-.864-.836-1.314-1.234l-2.438-2.152c-2.835-2.5-5.413-5.59-9.189-6.525-2.6-.643-4.236-.788-2.822-3.712-1.278.533-2.471,1.326-3.76,1.821C352.2,373.885,352.38,373.428,352.354,373.019Z" transform="translate(-212.595 -301.025)" fill="#2f2e41"/>
    <circle id="Ellipse_209" data-name="Ellipse 209" cx="2.542" cy="2.542" r="2.542" transform="translate(155.314 81.616)" fill="#ffb9b9"/>
    <g transform="matrix(1, 0, 0, 1, -32.27, -8.33)" filter="url(#Rectangle_583)">
      <rect id="Rectangle_583-2" data-name="Rectangle 583" width="12.29" height="12.29" transform="translate(118.73 35.36)" fill="#1e272e"/>
    </g>
    <path id="Path_1091" data-name="Path 1091" d="M263.144,277.694H248.22V262.77h14.924Zm-14.275-.649h13.626V263.419H248.869Z" transform="translate(-156.928 -245.401)" fill="#3f3d56"/>
    <g transform="matrix(1, 0, 0, 1, -32.27, -8.33)" filter="url(#Rectangle_584)">
      <rect id="Rectangle_584-2" data-name="Rectangle 584" width="66.282" height="66.282" transform="translate(72.73 73.34) rotate(74.06)" fill="#fff"/>
    </g>
    <path id="Path_1092" data-name="Path 1092" d="M129.21,399.718l-5.3-18.568,18.568-5.3,5.3,18.568Zm-4.264-17.992,4.841,16.954,16.954-4.841L141.9,376.885Z" transform="translate(-92.604 -308.845)" fill="#3f3d56"/>
    <path id="Path_1093" data-name="Path 1093" d="M112.781,263.126l10.19-10.9,10.9,10.19-10.19,10.9ZM123,253.14l-9.3,9.955,9.955,9.3,9.3-9.955Z" transform="translate(-80.939 -239.483)" fill="#3f3d56"/>
    <path id="Path_1094" data-name="Path 1094" d="M716.4,227.413h-114.2V225.06H550.425v2.354H435.756a7.725,7.725,0,0,0-7.725,7.725V391.51a7.725,7.725,0,0,0,7.725,7.725H716.4a7.725,7.725,0,0,0,7.725-7.725V235.138a7.725,7.725,0,0,0-7.724-7.724Z" transform="translate(-257.814 -224.243)" fill="#3f3d56"/>
    <rect id="Rectangle_586" data-name="Rectangle 586" width="275.385" height="155.345" transform="translate(180.574 16.821)" fill="#fbc531"/>
    <circle id="Ellipse_210" data-name="Ellipse 210" cx="2.824" cy="2.824" r="2.824" transform="translate(315.206 6.936)" fill="#6c63ff"/>
    <path id="Path_1095" data-name="Path 1095" d="M589.475,191.809H392.845V36.464Z" transform="translate(-212.271 -19.642)" opacity="0.1"/>
    <circle id="Ellipse_211" data-name="Ellipse 211" cx="26.471" cy="26.471" r="26.471" transform="translate(197.192 107.601)" fill="#f2f2f2"/>
    <path id="Path_1096" data-name="Path 1096" d="M521.13,489.795a32.927,32.927,0,1,1,32.927-32.927A32.927,32.927,0,0,1,521.13,489.795Zm0-65.424a32.5,32.5,0,1,0,32.5,32.5A32.5,32.5,0,0,0,521.13,424.371Z" transform="translate(-291.574 -335.828)" fill="#3f3d56"/>
    <rect id="Rectangle_587" data-name="Rectangle 587" width="25.724" height="5.375" transform="translate(382.286 100.6)" fill="#fff"/>
    <rect id="Rectangle_588" data-name="Rectangle 588" width="87.922" height="2.304" transform="translate(351.187 58.751)" fill="#fff"/>
    <rect id="Rectangle_589" data-name="Rectangle 589" width="87.922" height="2.304" transform="translate(351.187 66.046)" fill="#fff"/>
    <rect id="Rectangle_590" data-name="Rectangle 590" width="87.922" height="2.304" transform="translate(351.187 73.341)" fill="#fff"/>
    <rect id="Rectangle_591" data-name="Rectangle 591" width="87.922" height="2.304" transform="translate(351.187 80.635)" fill="#fff"/>
    <rect id="Rectangle_592" data-name="Rectangle 592" width="87.922" height="2.304" transform="translate(351.187 87.931)" fill="#fff"/>
    <rect id="Rectangle_593" data-name="Rectangle 593" width="10.75" height="10.75" transform="translate(428.358 19.973)" fill="#f2f2f2"/>
    <path id="Path_1097" data-name="Path 1097" d="M1035.314,287.88H1022.26V274.826h13.054Zm-12.486-.568h11.919V275.394h-11.919Z" transform="translate(-591.214 -252.165)" fill="#3f3d56"/>
    <path id="Path_1098" data-name="Path 1098" d="M716.819,606.035H689.944V604.1a.384.384,0,0,0-.384-.384h-9.215a.384.384,0,0,0-.384.384v1.936H674.2V604.1a.384.384,0,0,0-.384-.384H664.6a.384.384,0,0,0-.384.384v1.936h-5.757V604.1a.384.384,0,0,0-.384-.384h-9.215a.384.384,0,0,0-.384.384v1.936h-5.759V604.1a.384.384,0,0,0-.384-.384h-9.215a.384.384,0,0,0-.384.384v1.936h-5.759V604.1a.384.384,0,0,0-.384-.384h-9.214a.384.384,0,0,0-.384.384v1.936h-5.759V604.1a.384.384,0,0,0-.384-.384h-9.215a.384.384,0,0,0-.384.384v1.936h-5.759V604.1a.384.384,0,0,0-.384-.384H522.928a.384.384,0,0,0-.384.384v1.936h-5.759V604.1a.384.384,0,0,0-.384-.384h-9.215a.384.384,0,0,0-.384.384v1.936h-5.759V604.1a.384.384,0,0,0-.384-.384h-9.215a.384.384,0,0,0-.384.384v1.936H485.3V604.1a.384.384,0,0,0-.384-.384H475.7a.384.384,0,0,0-.384.384v1.936h-5.759V604.1a.384.384,0,0,0-.384-.384h-9.215a.384.384,0,0,0-.384.384v1.936h-5.759V604.1a.384.384,0,0,0-.384-.384H444.22a.384.384,0,0,0-.384.384v1.936h-5.759V604.1a.384.384,0,0,0-.384-.384h-9.214a.384.384,0,0,0-.384.384v1.936H410.434a9.215,9.215,0,0,0-9.215,9.215v4.167a9.215,9.215,0,0,0,9.215,9.215H716.819a9.215,9.215,0,0,0,9.215-9.215V615.25A9.215,9.215,0,0,0,716.819,606.035Z" transform="translate(-242.771 -436.693)" fill="#3f3d56"/>
    <g transform="matrix(1, 0, 0, 1, -32.27, -8.33)" filter="url(#Rectangle_585)">
      <rect id="Rectangle_585-2" data-name="Rectangle 585" width="17.689" height="17.689" transform="matrix(-0.68, 0.73, -0.73, -0.68, 85.39, 18.08)" fill="#fbc531"/>
    </g>
  </g>
</svg>
