<svg xmlns="http://www.w3.org/2000/svg" xmlns:xlink="http://www.w3.org/1999/xlink" width="308" height="308" viewBox="0 0 308 308">
  <defs>
    <filter id="philip-martin-5aGUyCW_PJw-unsplash" x="0" y="0" width="308" height="308" filterUnits="userSpaceOnUse">
      <feOffset input="SourceAlpha"/>
      <feGaussianBlur stdDeviation="11" result="blur"/>
      <feFlood flood-opacity="0.2"/>
      <feComposite operator="in" in2="blur"/>
      <feComposite in="SourceGraphic"/>
    </filter>
  </defs>
  <g id="avatar" transform="translate(-279 -190)">
    <g transform="matrix(1, 0, 0, 1, 279, 190)" filter="url(#philip-martin-5aGUyCW_PJw-unsplash)">
      <g id="philip-martin-5aGUyCW_PJw-unsplash-2" data-name="philip-martin-5aGUyCW_PJw-unsplash" transform="translate(33 33)" fill="rgba(83,92,104,0.1)" stroke="#f5f6fa" stroke-width="2">
        <circle cx="121" cy="121" r="121" stroke="none"/>
        <circle cx="121" cy="121" r="120" fill="none"/>
      </g>
    </g>
    <g id="user_1_" data-name="user (1)" transform="translate(312 223)">
      <path id="Path_961" data-name="Path 961" d="M121,242a120.986,120.986,0,1,1,92.522-43.013A122.273,122.273,0,0,1,199.244,213.3,121.036,121.036,0,0,1,121,242Zm0-226.875A105.881,105.881,0,0,0,40.038,189.234a107.112,107.112,0,0,0,12.5,12.533,105.885,105.885,0,0,0,136.918,0,107.108,107.108,0,0,0,12.506-12.537A105.881,105.881,0,0,0,121,15.125Z" transform="translate(0)" fill="#b2bec3"/>
      <path id="Path_962" data-name="Path 962" d="M205.375,154.75a45.375,45.375,0,1,1,45.375-45.375A45.426,45.426,0,0,1,205.375,154.75Zm0-75.625a30.25,30.25,0,1,0,30.25,30.25A30.284,30.284,0,0,0,205.375,79.125Z" transform="translate(-84.375 -33.75)" fill="#b2bec3"/>
      <path id="Path_963" data-name="Path 963" d="M236.545,333.223a7.569,7.569,0,0,1-7.341-9.405,68.125,68.125,0,0,0-65.02-84.688l-1,0-1,0a68.125,68.125,0,0,0-65.021,84.688A7.562,7.562,0,0,1,82.5,327.5a83.21,83.21,0,0,1,79.507-103.495h.106l1.073-.005,1.073,0h.106a83.251,83.251,0,0,1,79.507,103.5A7.566,7.566,0,0,1,236.545,333.223Z" transform="translate(-42.188 -118.125)" fill="#b2bec3"/>
    </g>
  </g>
</svg>
