<svg id="avatar" xmlns="http://www.w3.org/2000/svg" width="51" height="51" viewBox="0 0 51 51">
  <circle id="Ellipse_300" data-name="Ellipse 300" cx="25.5" cy="25.5" r="25.5" fill="#fbc531"/>
  <g id="user_1_" data-name="user (1)" transform="translate(15 15)">
    <g id="Group_1748" data-name="Group 1748" transform="translate(0 11.09)">
      <g id="Group_1747" data-name="Group 1747" transform="translate(0)">
        <path id="Path_1795" data-name="Path 1795" d="M21.9,257.323A10.585,10.585,0,0,0,11.328,267.9a.46.46,0,1,0,.919,0,9.653,9.653,0,0,1,19.307,0,.46.46,0,1,0,.919,0A10.584,10.584,0,0,0,21.9,257.323Z" transform="translate(-11.328 -257.323)"/>
      </g>
    </g>
    <g id="Group_1750" data-name="Group 1750" transform="translate(5.516)">
      <g id="Group_1749" data-name="Group 1749">
        <path id="Path_1796" data-name="Path 1796" d="M144.385,0a5.057,5.057,0,1,0,5.057,5.057A5.063,5.063,0,0,0,144.385,0Zm0,9.194a4.137,4.137,0,1,1,4.137-4.137A4.142,4.142,0,0,1,144.385,9.194Z" transform="translate(-139.328)"/>
      </g>
    </g>
  </g>
</svg>
