<svg id="buy" xmlns="http://www.w3.org/2000/svg" width="41.786" height="41.786" viewBox="0 0 41.786 41.786">
  <g id="Group_1609" data-name="Group 1609" transform="translate(0 16.018)">
    <g id="Group_1608" data-name="Group 1608">
      <path id="Path_1570" data-name="Path 1570" d="M41.09,196.267H33.429v1.393h6.964v2.786h-39V197.66H8.357v-1.393H.7a.7.7,0,0,0-.7.7v4.179a.7.7,0,0,0,.7.7H41.09a.7.7,0,0,0,.7-.7v-4.179A.7.7,0,0,0,41.09,196.267Z" transform="translate(0 -196.267)"/>
    </g>
  </g>
  <g id="Group_1611" data-name="Group 1611" transform="translate(13.232 16.018)">
    <g id="Group_1610" data-name="Group 1610">
      <rect id="Rectangle_683" data-name="Rectangle 683" width="15.322" height="1.393"/>
    </g>
  </g>
  <g id="Group_1613" data-name="Group 1613" transform="translate(2.089 20.197)">
    <g id="Group_1612" data-name="Group 1612">
      <path id="Path_1571" data-name="Path 1571" d="M63.053,247.723a.693.693,0,0,0-.54-.257H26.3a.7.7,0,0,0-.682.838l3.719,17.974a3.5,3.5,0,0,0,3.41,2.777h23.32a3.5,3.5,0,0,0,3.41-2.777L63.195,248.3A.7.7,0,0,0,63.053,247.723ZM58.112,266a2.1,2.1,0,0,1-2.046,1.667H32.746A2.1,2.1,0,0,1,30.7,266l-3.546-17.137h34.5Z" transform="translate(-25.602 -247.466)"/>
    </g>
  </g>
  <g id="Group_1615" data-name="Group 1615" transform="translate(1.12 1.122)">
    <g id="Group_1614" data-name="Group 1614">
      <path id="Path_1572" data-name="Path 1572" d="M26.921,29.874,19.158,15.239a2.889,2.889,0,0,0-5.027-.04.683.683,0,0,0-.056.132l-.022.07a2.831,2.831,0,0,0,.029,2.688l7.76,14.628a2.886,2.886,0,0,0,1.116,1.142,2.847,2.847,0,0,0,3.866-1.08l.092-.151A2.834,2.834,0,0,0,26.921,29.874Zm-1.21,2.052-.094.155a1.455,1.455,0,0,1-1.975.564,1.486,1.486,0,0,1-.572-.585L15.306,17.425a1.453,1.453,0,0,1,0-1.415.664.664,0,0,0,.055-.127l.017-.056a1.468,1.468,0,0,1,1.954-.506l.012.006a1.445,1.445,0,0,1,.589.575L25.7,30.537A1.445,1.445,0,0,1,25.712,31.926Z" transform="translate(-13.728 -13.744)"/>
    </g>
  </g>
  <g id="Group_1617" data-name="Group 1617" transform="translate(8.357 22.982)">
    <g id="Group_1616" data-name="Group 1616">
      <path id="Path_1573" data-name="Path 1573" d="M104.489,281.6a2.092,2.092,0,0,0-2.089,2.089v10.447a2.089,2.089,0,0,0,4.179,0V283.689A2.092,2.092,0,0,0,104.489,281.6Zm.7,12.536a.7.7,0,1,1-1.393,0V283.689a.7.7,0,0,1,1.393,0Z" transform="translate(-102.4 -281.6)"/>
    </g>
  </g>
  <g id="Group_1619" data-name="Group 1619" transform="translate(15.322 22.982)">
    <g id="Group_1618" data-name="Group 1618">
      <path id="Path_1574" data-name="Path 1574" d="M189.822,281.6a2.092,2.092,0,0,0-2.089,2.089v10.447a2.089,2.089,0,0,0,4.179,0V283.689A2.092,2.092,0,0,0,189.822,281.6Zm.7,12.536a.7.7,0,1,1-1.393,0V283.689a.7.7,0,1,1,1.393,0Z" transform="translate(-187.733 -281.6)"/>
    </g>
  </g>
  <g id="Group_1621" data-name="Group 1621" transform="translate(22.286 22.982)">
    <g id="Group_1620" data-name="Group 1620">
      <path id="Path_1575" data-name="Path 1575" d="M275.156,281.6a2.092,2.092,0,0,0-2.089,2.089v10.447a2.089,2.089,0,0,0,4.179,0V283.689A2.092,2.092,0,0,0,275.156,281.6Zm.7,12.536a.7.7,0,1,1-1.393,0V283.689a.7.7,0,1,1,1.393,0Z" transform="translate(-273.067 -281.6)"/>
    </g>
  </g>
  <g id="Group_1623" data-name="Group 1623" transform="translate(29.25 22.982)">
    <g id="Group_1622" data-name="Group 1622">
      <path id="Path_1576" data-name="Path 1576" d="M360.489,281.6a2.092,2.092,0,0,0-2.089,2.089v10.447a2.089,2.089,0,1,0,4.179,0V283.689A2.092,2.092,0,0,0,360.489,281.6Zm.7,12.536a.7.7,0,1,1-1.393,0V283.689a.7.7,0,0,1,1.393,0Z" transform="translate(-358.4 -281.6)"/>
    </g>
  </g>
  <g id="Group_1625" data-name="Group 1625" transform="translate(27.148 1.121)">
    <g id="Group_1624" data-name="Group 1624">
      <path id="Path_1577" data-name="Path 1577" d="M345.836,15.339l-.079-.15a2.861,2.861,0,0,0-3.878-1.1h0a2.862,2.862,0,0,0-1.126,1.146L333,29.853a2.85,2.85,0,0,0,.015,2.791l.065.106h0a2.855,2.855,0,0,0,3.882,1.094,2.892,2.892,0,0,0,1.113-1.142l7.751-14.615A2.833,2.833,0,0,0,345.836,15.339ZM344.6,17.425l-7.756,14.622a1.488,1.488,0,0,1-.568.586,1.461,1.461,0,0,1-1.975-.55l-.024-.042-.061-.1a1.457,1.457,0,0,1,.006-1.426l7.756-14.622a1.461,1.461,0,0,1,2.552-.041l.077.146A1.463,1.463,0,0,1,344.6,17.425Z" transform="translate(-332.643 -13.733)"/>
    </g>
  </g>
  <g id="Group_1627" data-name="Group 1627" transform="translate(12.536 0)">
    <g id="Group_1626" data-name="Group 1626">
      <path id="Path_1578" data-name="Path 1578" d="M170.265,5.32a.7.7,0,0,0-.65-.445h-2.089V.7a.7.7,0,0,0-.7-.7h-9.75a.7.7,0,0,0-.7.7V4.875h-2.089a.7.7,0,0,0-.469,1.212l7.661,6.964a.7.7,0,0,0,.937,0l7.661-6.964A.7.7,0,0,0,170.265,5.32Zm-8.311,6.274-5.86-5.326h.985a.7.7,0,0,0,.7-.7V1.393h8.357V5.572a.7.7,0,0,0,.7.7h.984Z" transform="translate(-153.597 0)"/>
    </g>
  </g>
</svg>
