<svg xmlns="http://www.w3.org/2000/svg" xmlns:xlink="http://www.w3.org/1999/xlink" width="134" height="134" viewBox="0 0 134 134">
  <defs>
    <filter id="Rectangle_16" x="0" y="0" width="134" height="134" filterUnits="userSpaceOnUse">
      <feOffset dx="6" dy="6" input="SourceAlpha"/>
      <feGaussianBlur stdDeviation="5.5" result="blur"/>
      <feFlood flood-opacity="0.161"/>
      <feComposite operator="in" in2="blur"/>
      <feComposite in="SourceGraphic"/>
    </filter>
  </defs>
  <g id="com-3" transform="translate(-1274 -2178.5)">
    <g transform="matrix(1, 0, 0, 1, 1274, 2178.5)" filter="url(#Rectangle_16)">
      <rect id="Rectangle_16-2" data-name="Rectangle 16" width="101" height="101" rx="25" transform="translate(10.5 10.5)" fill="#fbc531"/>
    </g>
    <g id="data" transform="translate(1318 2218)">
      <path id="Path_27" data-name="Path 27" d="M48,160h3.882v1.941H48Zm0,0" transform="translate(-42.177 -140.591)" fill="#f5f6fa"/>
      <path id="Path_28" data-name="Path 28" d="M57.256,15.527a2.915,2.915,0,0,0,2.911-2.911v-9.7A2.915,2.915,0,0,0,57.256,0H43.67a2.915,2.915,0,0,0-2.911,2.911v9.7a2.915,2.915,0,0,0,2.911,2.911h2.911v1.941H44.64v1.941h4.852v9.7h-4a6.785,6.785,0,0,0-2.795-1.653c0-.1.007-.193.007-.288A7.758,7.758,0,0,0,28.4,23a7.723,7.723,0,0,0-3.166-.68,7.806,7.806,0,0,0-7.255,5.008,6.746,6.746,0,0,0-2.048.815H8.734V25.231h3.882a2.915,2.915,0,0,0,2.911-2.911V2.911A2.915,2.915,0,0,0,12.616,0h-9.7A2.915,2.915,0,0,0,0,2.911V22.32a2.915,2.915,0,0,0,2.911,2.911H6.793v4.852h7.071a6.755,6.755,0,0,0-.943,1.941H8.734V42.7H4.852A2.915,2.915,0,0,0,1.941,45.61v8.734H0v2.911a2.915,2.915,0,0,0,2.911,2.911H18.438a2.915,2.915,0,0,0,2.911-2.911V54.344H19.409V45.61A2.915,2.915,0,0,0,16.5,42.7H10.675V33.965h1.941a6.8,6.8,0,0,0,6.793,6.793h21.35a6.8,6.8,0,0,0,6.715-5.823h3.959V42.7H44.64V60.167H60.167V42.7H53.374v-9.7h-5.9a6.716,6.716,0,0,0-.6-1.941h4.567V19.409h4.852V17.468H54.344V15.527Zm-43.67,0H1.941v-9.7H13.586ZM2.911,1.941h9.7a.971.971,0,0,1,.97.97v.97H1.941v-.97A.971.971,0,0,1,2.911,1.941ZM1.941,22.32V17.468H13.586V22.32a.971.971,0,0,1-.97.97h-9.7A.971.971,0,0,1,1.941,22.32ZM19.409,57.256a.971.971,0,0,1-.97.97H2.911a.971.971,0,0,1-.97-.97v-.97H19.409ZM17.468,45.61v8.734H3.882V45.61a.971.971,0,0,1,.97-.97H16.5A.971.971,0,0,1,17.468,45.61ZM46.581,58.226V52.4H58.226v5.823Zm11.645-7.763H46.581V44.64H58.226ZM40.758,38.817H19.409a4.85,4.85,0,0,1-.582-9.665l.637-.077.18-.616a5.806,5.806,0,0,1,8.634-3.33l.926.571.462-.987A5.809,5.809,0,0,1,40.682,28.07l-.146.96.96.145a4.849,4.849,0,0,1-.736,9.642ZM43.67,1.941H57.256a.971.971,0,0,1,.97.97V9.7H42.7V2.911A.971.971,0,0,1,43.67,1.941ZM42.7,12.616v-.97H58.226v.97a.971.971,0,0,1-.97.97H43.67A.971.971,0,0,1,42.7,12.616Zm9.7,4.852H48.522V15.527H52.4Zm0,0" fill="#f5f6fa"/>
      <path id="Path_29" data-name="Path 29" d="M400,384h1.941v1.941H400Zm0,0" transform="translate(-351.478 -337.419)" fill="#f5f6fa"/>
      <path id="Path_30" data-name="Path 30" d="M448,448h1.941v1.941H448Zm0,0" transform="translate(-393.656 -393.656)" fill="#f5f6fa"/>
      <path id="Path_31" data-name="Path 31" d="M432,384h3.882v1.941H432Zm0,0" transform="translate(-379.596 -337.419)" fill="#f5f6fa"/>
      <path id="Path_32" data-name="Path 32" d="M400,448h3.882v1.941H400Zm0,0" transform="translate(-351.478 -393.656)" fill="#f5f6fa"/>
    </g>
    <path id="Path_33" data-name="Path 33" d="M188.564,6.841V4.56h2.28V2.28h-2.28V0h-2.28V2.28H184V4.56h2.28v2.28Zm0,0" transform="translate(1139.721 2201.99)" fill="#f5f6fa"/>
    <path id="Path_36" data-name="Path 36" d="M188.564,6.841V4.56h2.28V2.28h-2.28V0h-2.28V2.28H184V4.56h2.28v2.28Zm0,0" transform="translate(1169.721 2266.99)" fill="#f5f6fa"/>
    <path id="Path_34" data-name="Path 34" d="M88,72h2.28v2.28H88Zm0,0" transform="translate(1222.039 2140.252)" fill="#f5f6fa"/>
    <path id="Path_37" data-name="Path 37" d="M88,72h2.28v2.28H88Zm0,0" transform="translate(1252.039 2205.252)" fill="#f5f6fa"/>
    <path id="Path_35" data-name="Path 35" d="M32,120h2.28v2.28H32Zm0,0" transform="translate(1270.059 2099.092)" fill="#f5f6fa"/>
  </g>
</svg>
