<svg xmlns="http://www.w3.org/2000/svg" xmlns:xlink="http://www.w3.org/1999/xlink" width="134" height="134" viewBox="0 0 134 134">
  <defs>
    <filter id="Rectangle_16" x="0" y="0" width="134" height="134" filterUnits="userSpaceOnUse">
      <feOffset dx="6" dy="6" input="SourceAlpha"/>
      <feGaussianBlur stdDeviation="5.5" result="blur"/>
      <feFlood flood-opacity="0.161"/>
      <feComposite operator="in" in2="blur"/>
      <feComposite in="SourceGraphic"/>
    </filter>
  </defs>
  <g id="com-2" transform="translate(-797 -2178.5)">
    <g transform="matrix(1, 0, 0, 1, 797, 2178.5)" filter="url(#Rectangle_16)">
      <rect id="Rectangle_16-2" data-name="Rectangle 16" width="101" height="101" rx="25" transform="translate(10.5 10.5)" fill="#fbc531"/>
    </g>
    <g id="account" transform="translate(801.607 2224.535)">
      <g id="Group_21" data-name="Group 21" transform="translate(51.392 0)">
        <g id="Group_20" data-name="Group 20" transform="translate(0 0)">
          <path id="Path_25" data-name="Path 25" d="M100.736,7.125a1.149,1.149,0,0,0-.846-.959L76.6.037a1.149,1.149,0,0,0-.585,0L52.731,6.166a1.149,1.149,0,0,0-.846.959,83.812,83.812,0,0,0,.736,23.412A50.7,50.7,0,0,0,59.424,49a32.079,32.079,0,0,0,16.5,13.284,1.148,1.148,0,0,0,.774,0A32.079,32.079,0,0,0,93.2,49,50.7,50.7,0,0,0,100,30.537,83.828,83.828,0,0,0,100.736,7.125Zm-3,23.007a48.431,48.431,0,0,1-6.477,17.633A29.838,29.838,0,0,1,76.31,59.982,29.831,29.831,0,0,1,61.375,47.789a48.363,48.363,0,0,1-6.483-17.6,83.921,83.921,0,0,1-.815-22L76.31,2.337,98.544,8.188A83.812,83.812,0,0,1,97.739,30.131Z" transform="translate(-51.392 0)" fill="#f5f6fa"/>
        </g>
      </g>
      <g id="Group_23" data-name="Group 23" transform="translate(58.615 11.95)">
        <g id="Group_22" data-name="Group 22" transform="translate(0)">
          <path id="Path_26" data-name="Path 26" d="M128.4,98.124a17.7,17.7,0,1,0,17.7,17.7A17.715,17.715,0,0,0,128.4,98.124Zm0,33.092a15.362,15.362,0,0,1-11.471-5.139,12.573,12.573,0,0,1,22.943,0A15.362,15.362,0,0,1,128.4,131.216Zm-5.3-20.159a5.3,5.3,0,1,1,5.3,5.3A5.3,5.3,0,0,1,123.1,111.057Zm13.808,7.972a14.8,14.8,0,0,0-3.9-1.943,7.6,7.6,0,1,0-9.227,0,14.888,14.888,0,0,0-8.4,6.947,15.4,15.4,0,1,1,26.035,0A14.851,14.851,0,0,0,136.908,119.029Z" transform="translate(-110.703 -98.124)" fill="#f5f6fa"/>
        </g>
      </g>
    </g>
    <path id="Path_39" data-name="Path 39" d="M188.564,6.841V4.56h2.28V2.28h-2.28V0h-2.28V2.28H184V4.56h2.28v2.28Zm0,0" transform="translate(667.658 2219.99)" fill="#f5f6fa"/>
    <path id="Path_40" data-name="Path 40" d="M88,72h2.28v2.28H88Zm0,0" transform="translate(783.977 2135.252)" fill="#f5f6fa"/>
    <path id="Path_43" data-name="Path 43" d="M88,72h2.28v2.28H88Zm0,0" transform="translate(881.129 2156.661) rotate(70)" fill="#f5f6fa"/>
    <path id="Path_41" data-name="Path 41" d="M32,120h2.28v2.28H32Zm0,0" transform="translate(831.996 2094.092)" fill="#f5f6fa"/>
    <path id="Path_44" data-name="Path 44" d="M32,120h2.28v2.28H32Zm0,0" transform="translate(936.231 2187.707) rotate(70)" fill="#f5f6fa"/>
  </g>
</svg>
