<svg id="discount" xmlns="http://www.w3.org/2000/svg" width="34.574" height="34.574" viewBox="0 0 34.574 34.574">
  <path id="Path_1589" data-name="Path 1589" d="M175.8,124.875l3.581-10.744a.76.76,0,1,0-1.441-.48l-3.581,10.744a.76.76,0,1,0,1.441.48Z" transform="translate(-161.829 -103.778)" fill="#fbc531"/>
  <path id="Path_1590" data-name="Path 1590" d="M266.812,193.761a2.279,2.279,0,1,0-2.279-2.279A2.282,2.282,0,0,0,266.812,193.761Zm0-3.039a.76.76,0,1,1-.76.76A.761.761,0,0,1,266.812,190.722Z" transform="translate(-245.717 -175.745)" fill="#fbc531"/>
  <path id="Path_1591" data-name="Path 1591" d="M97.106,189.2a2.279,2.279,0,1,0,2.279,2.279A2.282,2.282,0,0,0,97.106,189.2Zm0,3.039a.76.76,0,1,1,.76-.76A.761.761,0,0,1,97.106,192.242Z" transform="translate(-88.082 -175.745)" fill="#fbc531"/>
  <path id="Path_1592" data-name="Path 1592" d="M34.372,12.56,30.84,7.851l.138-.964a1.013,1.013,0,0,0-.287-.859L28.542,3.878l2.149-2.149A1.013,1.013,0,0,0,29.258.3L27.11,2.446,24.961.3A1.014,1.014,0,0,0,24.1.01L14.074,1.443a1.013,1.013,0,0,0-.573.287L1.086,14.144a3.718,3.718,0,0,0,0,5.252l10.5,10.5a3.7,3.7,0,0,0,.7.548v.411A3.718,3.718,0,0,0,16,34.574H30.86a3.718,3.718,0,0,0,3.714-3.714V13.168a1.013,1.013,0,0,0-.2-.608Zm-31.853,5.4a1.69,1.69,0,0,1,0-2.388L14.695,3.4l9.192-1.313,1.791,1.791L24.245,5.311l-.716-.716A1.013,1.013,0,1,0,22.1,6.027l2.865,2.865a1.013,1.013,0,0,0,1.432-1.432l-.716-.716L27.11,5.311,28.9,7.1l-1.313,9.192L15.411,28.469a1.688,1.688,0,0,1-2.388,0Zm30.03,12.9a1.69,1.69,0,0,1-1.688,1.688H16a1.69,1.69,0,0,1-1.683-1.564A3.7,3.7,0,0,0,16.844,29.9L29.258,17.487a1.013,1.013,0,0,0,.287-.573l.89-6.227,2.114,2.819Z" transform="translate(0 0)" fill="#fbc531"/>
</svg>
