<svg id="home-white" xmlns="http://www.w3.org/2000/svg" width="36.201" height="34.409" viewBox="0 0 36.201 34.409">
  <g id="Group_1670" data-name="Group 1670">
    <path id="Path_1585" data-name="Path 1585" d="M35.593,27.963l-3.058-2.787v-9.24a1.065,1.065,0,0,0-1.065-1.065H24.109a1.065,1.065,0,0,0-1.065,1.065v.592l-3.693-3.365a1.848,1.848,0,0,0-2.5,0L.608,27.963a1.856,1.856,0,0,0,1.25,3.228H4.453V46.02a1.065,1.065,0,0,0,1.065,1.065h8.9a1.065,1.065,0,0,0,1.065-1.065v-9h5.232v9a1.065,1.065,0,0,0,1.065,1.065h8.9a1.065,1.065,0,0,0,1.065-1.065V31.191h2.595a1.856,1.856,0,0,0,1.25-3.229Zm-4.909,1.1a1.065,1.065,0,0,0-1.065,1.065V44.955H22.846v-9a1.065,1.065,0,0,0-1.065-1.065H14.42a1.065,1.065,0,0,0-1.065,1.065v9H6.582V30.127a1.065,1.065,0,0,0-1.065-1.065H2.563L18.1,14.9l5.291,4.821a1.065,1.065,0,0,0,1.782-.787V17h5.232v8.646a1.065,1.065,0,0,0,.348.787l2.885,2.629H30.684Z" transform="translate(0 -12.676)" fill="#fff"/>
  </g>
</svg>
