<svg xmlns="http://www.w3.org/2000/svg" width="25.082" height="23.84" viewBox="0 0 25.082 23.84">
  <g id="home-lined" transform="translate(0 0)">
    <g id="Group_701" data-name="Group 701">
      <path id="Path_797" data-name="Path 797" d="M24.661,23.267l-2.119-1.931v-6.4A.738.738,0,0,0,21.8,14.2H16.7a.738.738,0,0,0-.738.738v.41l-2.559-2.332a1.28,1.28,0,0,0-1.733,0L.421,23.267A1.286,1.286,0,0,0,1.288,25.5h1.8V35.778a.738.738,0,0,0,.738.738H9.991a.738.738,0,0,0,.738-.738V29.54h3.625v6.238a.738.738,0,0,0,.738.738h6.168A.738.738,0,0,0,22,35.778V25.5h1.8a1.286,1.286,0,0,0,.866-2.237Zm-3.4.762a.738.738,0,0,0-.738.738V35.04H15.829V28.8a.738.738,0,0,0-.738-.738h-5.1a.738.738,0,0,0-.738.738V35.04H4.56V24.767a.738.738,0,0,0-.738-.738H1.776l10.765-9.809,3.666,3.341a.738.738,0,0,0,1.234-.545V15.672h3.625v5.99a.738.738,0,0,0,.241.545l2,1.821Z" transform="translate(0 -12.676)" fill="#fbc531"/>
    </g>
  </g>
</svg>
