<svg id="login" xmlns="http://www.w3.org/2000/svg" width="18.324" height="18.324" viewBox="0 0 18.324 18.324">
  <path id="Path_926" data-name="Path 926" d="M7.826,209.145H.573a.573.573,0,0,1,0-1.145H7.826a.573.573,0,0,1,0,1.145Zm0,0" transform="translate(0 -200.556)" fill="#1e272e"/>
  <path id="Path_927" data-name="Path 927" d="M123.244,134.857a.573.573,0,0,1-.4-.978l2.459-2.458-2.459-2.458a.573.573,0,1,1,.81-.81l2.863,2.863a.573.573,0,0,1,0,.81l-2.863,2.863A.572.572,0,0,1,123.244,134.857Zm0,0" transform="translate(-118.282 -123.404)" fill="#1e272e"/>
  <path id="Path_928" data-name="Path 928" d="M300.195,18.4a1.528,1.528,0,0,1-1.527-1.527V3.134a1.537,1.537,0,0,1,1.034-1.45L304.289.155A1.543,1.543,0,0,1,306.3,1.607V15.35A1.537,1.537,0,0,1,305.27,16.8l-4.589,1.53a1.6,1.6,0,0,1-.486.075Zm4.581-17.179a.449.449,0,0,0-.137.02l-4.568,1.523a.394.394,0,0,0-.258.366V16.877a.4.4,0,0,0,.518.362l4.568-1.523a.4.4,0,0,0,.258-.366V1.607A.382.382,0,0,0,304.776,1.225Zm0,0" transform="translate(-287.979 -0.08)" fill="#1e272e"/>
  <path id="Path_929" data-name="Path 929" d="M171.241,3.818a.573.573,0,0,1-.573-.573V2.1a2.1,2.1,0,0,1,2.1-2.1h8.589a.573.573,0,0,1,0,1.145h-8.589a.956.956,0,0,0-.954.954V3.245A.573.573,0,0,1,171.241,3.818Zm0,0" transform="translate(-164.56)" fill="#1e272e"/>
  <path id="Path_930" data-name="Path 930" d="M175.822,345.15h-3.054a2.1,2.1,0,0,1-2.1-2.1V341.9a.573.573,0,0,1,1.145,0v1.145a.956.956,0,0,0,.954.954h3.054a.573.573,0,0,1,0,1.145Zm0,0" transform="translate(-164.56 -329.116)" fill="#1e272e"/>
</svg>
