<svg id="market" xmlns="http://www.w3.org/2000/svg" width="24.596" height="20.657" viewBox="0 0 24.596 20.657">
  <path id="Path_730" data-name="Path 730" d="M20.993,55.892a.721.721,0,0,0,.684-.493l2.882-8.647a.721.721,0,0,0-.684-.948H5.751l-.5-3A2.155,2.155,0,0,0,3.119,41H.721a.721.721,0,1,0,0,1.441h2.4a.718.718,0,0,1,.711.6L5.861,55.231v1.382a2.165,2.165,0,0,0,1.718,2.116,1.8,1.8,0,1,0,2.844.046h6.727a1.8,1.8,0,1,0,2.88,0h.962a.721.721,0,0,0,0-1.441H8.023a.721.721,0,0,1-.721-.721v-.721Zm-2.882-8.647h4.765l-.48,1.441H18.111Zm0,2.882h3.8l-.48,1.441H18.111Zm0,2.882h2.843l-.48,1.441H18.111Zm-3.6-5.765H16.67v1.441H14.508Zm0,2.882H16.67v1.441H14.508Zm0,2.882H16.67v1.441H14.508Zm-3.6-5.765h2.162v1.441H10.9Zm0,2.882h2.162v1.441H10.9Zm0,2.882h2.162v1.441H10.9ZM5.991,47.245H9.464v1.441H6.231Zm.48,2.882H9.464v1.441H6.711Zm.721,4.324-.24-1.441H9.464v1.441Z" transform="translate(0 -41)" fill="#2f3542"/>
</svg>
