<svg id="market-filled" xmlns="http://www.w3.org/2000/svg" width="25.412" height="25.118" viewBox="0 0 25.412 25.118">
  <path id="Path_1579" data-name="Path 1579" d="M8.239,16.745H21.69a.761.761,0,0,0,.715-.607L25.383,4.416a.921.921,0,0,0-.121-.734.721.721,0,0,0-.595-.333H6.52L5.988.656A.77.77,0,0,0,5.261,0H.744A.8.8,0,0,0,0,.837a.8.8,0,0,0,.744.837H4.663L7.352,15.28a2.539,2.539,0,0,0-1.346,2.3,2.388,2.388,0,0,0,2.233,2.512H21.69a.843.843,0,0,0,0-1.674H8.239a.843.843,0,0,1,0-1.674Zm0,0" transform="translate(0 0)"/>
  <path id="Path_1580" data-name="Path 1580" d="M151,362.516A2.249,2.249,0,1,0,153.234,360,2.388,2.388,0,0,0,151,362.516Zm0,0" transform="translate(-143.505 -339.91)"/>
  <path id="Path_1581" data-name="Path 1581" d="M362,362.516A2.249,2.249,0,1,0,364.238,360,2.388,2.388,0,0,0,362,362.516Zm0,0" transform="translate(-344.036 -339.91)"/>
</svg>
