<svg id="question" xmlns="http://www.w3.org/2000/svg" width="43.373" height="43.373" viewBox="0 0 43.373 43.373">
  <g id="Group_1672" data-name="Group 1672" transform="translate(0 0)">
    <g id="Group_1671" data-name="Group 1671">
      <path id="Path_1586" data-name="Path 1586" d="M43.205,39.278l-2.978-8.666A21.19,21.19,0,1,0,21.213,42.42h.033a21.275,21.275,0,0,0,9.369-2.195L39.28,43.2a3.113,3.113,0,0,0,1.013.17,3.093,3.093,0,0,0,2.912-4.1Zm-2.555,1.37a.5.5,0,0,1-.534.123l-9.182-3.155a1.286,1.286,0,0,0-1.019.079A18.631,18.631,0,1,1,37.7,29.912a1.286,1.286,0,0,0-.079,1.019l3.155,9.182A.5.5,0,0,1,40.65,40.647Z" transform="translate(-0.003 0)" fill="#fbc531"/>
    </g>
  </g>
  <g id="Group_1674" data-name="Group 1674" transform="translate(19.724 30.744)">
    <g id="Group_1673" data-name="Group 1673">
      <path id="Path_1587" data-name="Path 1587" d="M234,362.748a1.276,1.276,0,1,0,1.276,1.276A1.291,1.291,0,0,0,234,362.748Z" transform="translate(-232.719 -362.748)" fill="#fbc531"/>
    </g>
  </g>
  <g id="Group_1676" data-name="Group 1676" transform="translate(14.649 10.873)">
    <g id="Group_1675" data-name="Group 1675">
      <path id="Path_1588" data-name="Path 1588" d="M178.744,127.674a6.357,6.357,0,0,0-6.35,6.349,1.276,1.276,0,0,0,2.552,0,3.8,3.8,0,1,1,3.8,3.8,1.276,1.276,0,0,0-1.276,1.276V144.3a1.276,1.276,0,1,0,2.552,0v-4.058a6.35,6.35,0,0,0-1.276-12.57Z" transform="translate(-172.395 -127.674)" fill="#fbc531"/>
    </g>
  </g>
</svg>
