<svg xmlns="http://www.w3.org/2000/svg" width="20.781" height="20.74" viewBox="0 0 20.781 20.74">
  <g id="search" transform="translate(-454 -144)">
    <g id="Path_1583" data-name="Path 1583" transform="translate(454 144)" fill="rgba(220,221,225,0.5)">
      <path d="M 9 17.25 C 4.450930118560791 17.25 0.75 13.54907035827637 0.75 9 C 0.75 4.450930118560791 4.450930118560791 0.75 9 0.75 C 13.54907035827637 0.75 17.25 4.450930118560791 17.25 9 C 17.25 13.54907035827637 13.54907035827637 17.25 9 17.25 Z" stroke="none"/>
      <path d="M 9 1.5 C 4.864489555358887 1.5 1.5 4.864489555358887 1.5 9 C 1.5 13.1355094909668 4.864489555358887 16.5 9 16.5 C 13.1355094909668 16.5 16.5 13.1355094909668 16.5 9 C 16.5 4.864489555358887 13.1355094909668 1.5 9 1.5 M 9 0 C 13.97056007385254 0 18 4.029439926147461 18 9 C 18 13.97056007385254 13.97056007385254 18 9 18 C 4.029439926147461 18 0 13.97056007385254 0 9 C 0 4.029439926147461 4.029439926147461 0 9 0 Z" stroke="none" fill="#a5b1c2"/>
    </g>
    <path id="Path_1582" data-name="Path 1582" d="M-18018.143-11921.11l4.863,4.79" transform="translate(18487 12080)" fill="none" stroke="#a5b1c2" stroke-linecap="round" stroke-width="1.5"/>
  </g>
</svg>
