<svg id="shop" xmlns="http://www.w3.org/2000/svg" width="35.779" height="30.189" viewBox="0 0 35.779 30.189">
  <g id="Group_1669" data-name="Group 1669">
    <path id="Path_1584" data-name="Path 1584" d="M35.674,53.639l-6.359-13.05A1.048,1.048,0,0,0,28.372,40H7.408a1.048,1.048,0,0,0-.942.589L.106,53.639a1.048,1.048,0,0,0,.819,1.5,13.426,13.426,0,0,0,2.639.053V69.141a1.048,1.048,0,0,0,1.048,1.048H31.168a1.048,1.048,0,0,0,1.048-1.048V55.192a13.509,13.509,0,0,0,2.639-.054,1.048,1.048,0,0,0,.819-1.5ZM21.364,42.1l3.027,8.594c-3.011,3.279-10.025,3.243-13,0L14.416,42.1ZM2.684,53.134,8.063,42.1h4.13L9.27,50.4C7.779,52.285,5.1,53.1,2.684,53.134Zm9.965,14.959H5.661V64.948h6.988Zm8.386,0H14.745V59.707h6.289Zm9.085,0H23.131V64.948h6.988Zm0-5.241H23.131V58.658a1.048,1.048,0,0,0-1.048-1.048H13.7a1.048,1.048,0,0,0-1.048,1.048v4.193H5.661V54.858A10.005,10.005,0,0,0,10.2,52.477c3.843,3.681,11.536,3.675,15.373,0a10,10,0,0,0,4.543,2.381ZM26.51,50.4l-2.924-8.3h4.13L33.1,53.134C30.688,53.1,28.007,52.292,26.51,50.4Z" transform="translate(0 -40)"/>
  </g>
</svg>
