<svg xmlns="http://www.w3.org/2000/svg" width="25.103" height="29.004" viewBox="0 0 25.103 29.004">
  <path id="shopping-bag" d="M25.1,28.051l-2.2-20.992a.863.863,0,0,0-.859-.773H17.891V5.341a5.34,5.34,0,0,0-10.681,0v.945H3.067a.863.863,0,0,0-.859.773L0,28.051A.863.863,0,0,0,.863,29H24.239a.863.863,0,0,0,.859-.953ZM8.937,5.341a3.614,3.614,0,0,1,7.228,0v.945H8.937ZM1.821,27.278,3.845,8.012H7.21v1.9a.863.863,0,1,0,1.726,0v-1.9h7.228v1.9a.863.863,0,0,0,1.726,0v-1.9h3.366L23.28,27.278Zm0,0" transform="translate(0 0)" fill="#f4f7fc"/>
</svg>
