<svg xmlns="http://www.w3.org/2000/svg" width="84" height="76" viewBox="0 0 84 76">
  <g id="step1" transform="translate(-483 -2062)">
    <rect id="Rectangle_351" data-name="Rectangle 351" width="84" height="76" transform="translate(483 2062)" fill="#fbc531"/>
    <path id="Path_731" data-name="Path 731" d="M22.826,3.125A3.125,3.125,0,0,0,19.7,0H3.125A3.125,3.125,0,0,0,0,3.125v32.3A3.125,3.125,0,0,0,3.125,38.55H19.7a3.125,3.125,0,0,0,3.125-3.125ZM12.432,34.236a1.019,1.019,0,1,1-1.019-1.02A1.019,1.019,0,0,1,12.432,34.236Zm.254-3.322-.4-.711,0,0-2.244-4.029a.882.882,0,0,1,1.12.167l.814.934a.639.639,0,0,0,1.12-.42c0-2.288,0-5.274,0-6.807,0-.139.133-.17.21-.17h.313c.1,0,.21.049.211.171,0,.369-.022,5.345-.023,5.4,0,.028,0,.053,0,.08v.262a.639.639,0,0,0,1.277,0V24.247c0-.041.053-.063.094-.063h.636a.06.06,0,0,1,.068.063v2.034a.639.639,0,0,0,1.277,0V24.747a.1.1,0,0,1,.089-.084h.631a.087.087,0,0,1,.079.084v1.535a.639.639,0,0,0,1.277,0v-.23a.245.245,0,0,1,.049-.166.106.106,0,0,1,.087-.028h.335a.2.2,0,0,1,.21.2c0,1.315,0,1.339,0,1.985,0,.343,0,.863,0,1.843A2.124,2.124,0,0,1,17.8,32.005H14.534a2.122,2.122,0,0,1-1.849-1.092ZM7.881,22.587a1.2,1.2,0,0,1-.884-.4,1,1,0,0,1-.251-.783l.808-7.035H8.22v1.659a.639.639,0,1,0,1.277,0V14.367h3.991v1.659a.639.639,0,1,0,1.277,0V14.367h.55l.808,7.026a.985.985,0,0,1-.251.773,1.172,1.172,0,0,1-.766.38c0-1.191.006-2.329.006-2.5A1.451,1.451,0,0,0,13.624,18.6h-.313a1.466,1.466,0,0,0-1.487,1.462c0,.639,0,1.491,0,2.529Zm5.608-9.5H9.5v-.62a1.931,1.931,0,0,1,2-1.852,1.931,1.931,0,0,1,2,1.852Zm7.7,12.963a1.484,1.484,0,0,0-1.487-1.472H19.37a1.466,1.466,0,0,0-.148,0,1.358,1.358,0,0,0-1.343-1.2h-.631a1.336,1.336,0,0,0-.349.05,1.331,1.331,0,0,0-.244-.249,2.387,2.387,0,0,0,.171-.171,2.269,2.269,0,0,0,.567-1.767l-.873-7.592a.641.641,0,0,0-.634-.568h-1.12v-.62A3.208,3.208,0,0,0,11.493,9.34,3.208,3.208,0,0,0,8.22,12.469v.62H6.984a.641.641,0,0,0-.634.568l-.873,7.59a2.313,2.313,0,0,0,.567,1.786,2.476,2.476,0,0,0,1.837.831h3.94v1.365a2.163,2.163,0,0,0-2.7.048l-.292.219a.625.625,0,0,0-.169.807l1.982,3.547H1.277V7.5H21.549V29.851h-.358c0-.958,0-1.474,0-1.815,0-.648,0-.664,0-1.983ZM3.124,1.277H19.7a1.872,1.872,0,0,1,1.847,1.874V6.226H1.277V3.151A1.872,1.872,0,0,1,3.124,1.277ZM19.7,37.353H3.124a1.872,1.872,0,0,1-1.847-1.874V31.128H11.353l.217.4a3.421,3.421,0,0,0,.3.456,2.31,2.31,0,1,0,1.524,1.1,3.381,3.381,0,0,0,1.137.2H17.8a3.378,3.378,0,0,0,3.15-2.155h.6v4.351A1.872,1.872,0,0,1,19.7,37.353Zm0,0" transform="translate(514.001 2081)" fill="#fff"/>
    <path id="Path_732" data-name="Path 732" d="M101.885,38.277h5.388a.639.639,0,0,0,0-1.277h-5.388a.639.639,0,1,0,0,1.277Zm0,0" transform="translate(420.835 2046.953)" fill="#fff"/>
  </g>
</svg>
