<svg xmlns="http://www.w3.org/2000/svg" width="84" height="76" viewBox="0 0 84 76">
  <g id="step4" transform="translate(-1347 -2062)">
    <rect id="Rectangle_351" data-name="Rectangle 351" width="84" height="76" transform="translate(1347 2062)" fill="#fbc531"/>
    <g id="review" transform="translate(1373 2084)">
      <g id="Group_601" data-name="Group 601" transform="translate(0 15.29)">
        <g id="Group_600" data-name="Group 600">
          <path id="Path_746" data-name="Path 746" d="M11.531,258.347a6.733,6.733,0,0,0-2.324-1.522,4.3,4.3,0,1,0-4.9,0A6.766,6.766,0,0,0,0,263.123v1.412a.614.614,0,0,0,.614.614H12.9a.614.614,0,0,0,.614-.614v-1.412A6.708,6.708,0,0,0,11.531,258.347ZM3.684,253.3a3.07,3.07,0,1,1,3.07,3.07A3.074,3.074,0,0,1,3.684,253.3Zm8.6,10.623H1.228v-.8a5.526,5.526,0,0,1,11.053,0Z" transform="translate(0 -249)" fill="#fff"/>
        </g>
      </g>
      <g id="Group_603" data-name="Group 603" transform="translate(17.93 15.29)">
        <g id="Group_602" data-name="Group 602">
          <path id="Path_747" data-name="Path 747" d="M303.531,258.347a6.733,6.733,0,0,0-2.324-1.522,4.3,4.3,0,1,0-4.9,0,6.766,6.766,0,0,0-4.306,6.3v1.412a.614.614,0,0,0,.614.614H304.9a.614.614,0,0,0,.614-.614v-1.412A6.708,6.708,0,0,0,303.531,258.347Zm-7.847-5.049a3.07,3.07,0,1,1,3.07,3.07A3.074,3.074,0,0,1,295.684,253.3Zm8.6,10.623H293.228v-.8a5.526,5.526,0,0,1,11.053,0Z" transform="translate(-292 -249)" fill="#fff"/>
        </g>
      </g>
      <g id="Group_605" data-name="Group 605" transform="translate(4.912 3.869)">
        <g id="Group_604" data-name="Group 604">
          <path id="Path_748" data-name="Path 748" d="M82.71,64.843l.794-.794a.614.614,0,0,0-.869-.868l-.794.794-.794-.794a.614.614,0,0,0-.868.868l.794.794-.794.794a.614.614,0,0,0,.868.868l.794-.794.794.794a.614.614,0,1,0,.868-.868Z" transform="translate(-79.999 -63.001)" fill="#fff"/>
        </g>
      </g>
      <g id="Group_607" data-name="Group 607">
        <g id="Group_606" data-name="Group 606">
          <path id="Path_749" data-name="Path 749" d="M11.667,0H1.842A1.844,1.844,0,0,0,0,1.842V9.579a1.844,1.844,0,0,0,1.842,1.842H5.135L6.2,13.707a.614.614,0,0,0,1.114,0l1.063-2.285h3.293a1.844,1.844,0,0,0,1.842-1.842V1.842A1.844,1.844,0,0,0,11.667,0Zm.614,9.579a.615.615,0,0,1-.614.614H7.983a.614.614,0,0,0-.557.355l-.671,1.443-.671-1.443a.614.614,0,0,0-.557-.355H1.842a.615.615,0,0,1-.614-.614V1.842a.615.615,0,0,1,.614-.614h9.825a.615.615,0,0,1,.614.614Z" fill="#fff"/>
        </g>
      </g>
      <g id="Group_609" data-name="Group 609" transform="translate(17.93)">
        <g id="Group_608" data-name="Group 608">
          <path id="Path_750" data-name="Path 750" d="M303.667,0h-9.825A1.844,1.844,0,0,0,292,1.842V9.579a1.844,1.844,0,0,0,1.842,1.842h3.293l1.063,2.285a.614.614,0,0,0,1.113,0l1.063-2.285h3.293a1.844,1.844,0,0,0,1.842-1.842V1.842A1.844,1.844,0,0,0,303.667,0Zm.614,9.579a.615.615,0,0,1-.614.614h-3.684a.614.614,0,0,0-.557.355l-.671,1.443-.671-1.443a.614.614,0,0,0-.557-.355h-3.684a.615.615,0,0,1-.614-.614V1.842a.615.615,0,0,1,.614-.614h9.825a.615.615,0,0,1,.614.614Z" transform="translate(-292)" fill="#fff"/>
        </g>
      </g>
      <g id="Group_611" data-name="Group 611" transform="translate(22.843 3.869)">
        <g id="Group_610" data-name="Group 610">
          <path id="Path_751" data-name="Path 751" d="M376.732,63.18a.614.614,0,0,0-.868,0L373.841,65.2l-.794-.794a.614.614,0,0,0-.868.868l1.228,1.228a.614.614,0,0,0,.868,0l2.456-2.456A.614.614,0,0,0,376.732,63.18Z" transform="translate(-371.999 -63)" fill="#fff"/>
        </g>
      </g>
    </g>
  </g>
</svg>
