<svg xmlns="http://www.w3.org/2000/svg" width="84" height="76" viewBox="0 0 84 76">
  <g id="step3" transform="translate(-1071 -2062)">
    <rect id="Rectangle_351" data-name="Rectangle 351" width="84" height="76" transform="translate(1071 2062)" fill="#fbc531"/>
    <g id="cargo" transform="translate(1092.999 2083)">
      <path id="Path_737" data-name="Path 737" d="M381.681,79.835l1.265.253.8-4.007-1.738-1.737-.912.912,1.248,1.249Zm0,0" transform="translate(-350.363 -68.349)" fill="#fff"/>
      <path id="Path_738" data-name="Path 738" d="M89.936,336a1.936,1.936,0,1,0,1.936,1.936A1.938,1.938,0,0,0,89.936,336Zm0,2.581a.645.645,0,1,1,.645-.645A.646.646,0,0,1,89.936,338.581Zm0,0" transform="translate(-80.903 -308.903)" fill="#fff"/>
      <path id="Path_739" data-name="Path 739" d="M33.816,4.516l-1.99-1.99-6.494,1.3a10.938,10.938,0,0,0-8.6,8.6L16.315,14.5a3.222,3.222,0,0,0-2.165-1.531,3.065,3.065,0,0,0-2.537-2.592V5.162a1.292,1.292,0,0,1,1.29-1.29h1.29V0H12.9A5.167,5.167,0,0,0,7.742,5.162v5.161H4.725a3.079,3.079,0,0,0-3.051,2.693L.023,26.222A3.143,3.143,0,0,0,0,26.6a3.079,3.079,0,0,0,3.075,3.075H4.567a4.51,4.51,0,0,0,8.929,0H25.858a4.51,4.51,0,0,0,8.929,0h2.632v-.645a7.09,7.09,0,0,0-3.029-5.807h1.093A3.23,3.23,0,0,0,38.71,20V8.54L40,5.959V4.517Zm-8.232.574L31.4,3.927,34.783,7.31,33.62,13.126a9.668,9.668,0,0,1-.5,1.666l-9.2-9.2a9.7,9.7,0,0,1,1.666-.5Zm-2.9,1.088,9.848,9.848a9.629,9.629,0,0,1-3.6,3.6L19.08,9.782a9.629,9.629,0,0,1,3.6-3.6Zm-4.691,6.5a9.676,9.676,0,0,1,.5-1.666l9.2,9.2a9.7,9.7,0,0,1-1.666.5l-5.816,1.163L16.829,18.5ZM13.106,27.1H23.5a7.111,7.111,0,0,0-.243,1.29H13.5a4.479,4.479,0,0,0-.39-1.29Zm10.9-1.29H14.193V23.227h5.539l.055.055.276-.055h6.192a7.139,7.139,0,0,0-2.246,2.581Zm-7.235-3.871V20.268l1.668,1.668Zm-1.29-5.807v2.515l-.055.278.055.055v2.958h-1.29V14.313A1.933,1.933,0,0,1,15.484,16.13ZM9.032,5.162A3.875,3.875,0,0,1,12.9,1.291v1.29a2.583,2.583,0,0,0-2.581,2.581v5.161H9.032ZM2.954,13.176a1.788,1.788,0,0,1,1.77-1.563h6.393A1.787,1.787,0,0,1,12.9,13.4V25.807h-.717a4.5,4.5,0,0,0-6.309,0H4.516V23.872A1.938,1.938,0,0,0,2.58,21.936H1.859Zm.271,12.631H1.375L1.7,23.227H2.58a.646.646,0,0,1,.645.645ZM1.368,27.1h3.59a4.479,4.479,0,0,0-.39,1.29H3.074A1.782,1.782,0,0,1,1.368,27.1Zm7.664,5.161a3.226,3.226,0,1,1,3.226-3.226A3.23,3.23,0,0,1,9.032,32.259Zm21.291,0a3.226,3.226,0,1,1,3.226-3.226A3.23,3.23,0,0,1,30.322,32.259Zm5.77-3.871H34.787a4.51,4.51,0,0,0-8.929,0h-1.3a5.805,5.805,0,0,1,11.539,0Zm-.609-6.452h-.645v-.645a1.938,1.938,0,0,1,1.936-1.936h.645V20A1.938,1.938,0,0,1,35.484,21.936Zm1.936-13.7v9.83h-.645a3.23,3.23,0,0,0-3.226,3.226v.645H26.477a10.935,10.935,0,0,0,8.409-8.557l1.3-6.494L35.106,5.807h3.527Zm0,0" transform="translate(0.001 0)" fill="#fff"/>
      <path id="Path_740" data-name="Path 740" d="M353.936,336a1.936,1.936,0,1,0,1.936,1.936A1.938,1.938,0,0,0,353.936,336Zm0,2.581a.645.645,0,1,1,.645-.645A.646.646,0,0,1,353.936,338.581Zm0,0" transform="translate(-323.612 -308.903)" fill="#fff"/>
      <path id="Path_741" data-name="Path 741" d="M47.615,161.29a1.292,1.292,0,0,0-1.29-1.29H41.1a1.285,1.285,0,0,0-1.284,1.162l-.658,6.58h8.455Zm-1.29,5.161H40.586l.516-5.161h5.223Zm0,0" transform="translate(-36.002 -147.097)" fill="#fff"/>
      <path id="Path_742" data-name="Path 742" d="M312.965,153.889l.912-.912.913.912-.913.912Zm0,0" transform="translate(-287.725 -140.639)" fill="#fff"/>
      <path id="Path_743" data-name="Path 743" d="M290.34,131.256l.912-.912.912.912-.912.912Zm0,0" transform="translate(-266.925 -119.832)" fill="#fff"/>
      <path id="Path_744" data-name="Path 744" d="M335.6,176.495l.912-.912.866.866-.913.912Zm0,0" transform="translate(-308.533 -161.422)" fill="#fff"/>
    </g>
  </g>
</svg>
