<svg xmlns="http://www.w3.org/2000/svg" width="47.774" height="51.186" viewBox="0 0 47.774 51.186">
  <g id="supply" transform="translate(-15.999 -15.999)">
    <path id="Path_1565" data-name="Path 1565" d="M215.839,208v1.706h-.853a2.986,2.986,0,1,0,0,5.972H218.4a1.28,1.28,0,1,1,0,2.559h-5.545v1.706h2.986v1.706h1.706v-1.706h.853a2.986,2.986,0,1,0,0-5.972h-3.412a1.28,1.28,0,1,1,0-2.559h5.545v-1.706h-2.986V208Z" transform="translate(-175.099 -171.526)" fill="#2f3542"/>
    <path id="Path_1566" data-name="Path 1566" d="M84.35,125.005H76.672l-.853-1.138V113.231A11.462,11.462,0,0,0,67.5,102.207l1.463-5.119A.853.853,0,0,0,68.141,96H63.022v1.706H67.01l-1.219,4.266H63.022v1.706h3.326a9.76,9.76,0,0,1,7.764,9.553v10.922a.852.852,0,0,0,.088.373,12.492,12.492,0,0,0-11.7.48H56.2a3.417,3.417,0,0,0-3.3,4.306l-3.4-1.556a1.706,1.706,0,0,1,.208-.361l2.047-2.73a.853.853,0,0,0,.171-.512v-9.384H50.226v9.1l-1.877,2.5a3.412,3.412,0,0,0-.393.675l-2.81-1.287a3.64,3.64,0,0,0-4.72,1.582,3.953,3.953,0,0,0-.437,1.914A3.623,3.623,0,0,0,42,132.511l9.947,4.974a11.15,11.15,0,0,0,4.959,1.17H84.35a.853.853,0,0,0,.853-.853V125.859A.853.853,0,0,0,84.35,125.005ZM74.113,136.949h-17.2a9.437,9.437,0,0,1-4.2-.99l-9.947-4.973a1.926,1.926,0,0,1-1.07-1.731,2.353,2.353,0,0,1,.233-1.105,1.929,1.929,0,0,1,2.507-.84l9.7,4.444a.853.853,0,0,0,.355.078h9.384v-1.706H56.2a1.706,1.706,0,0,1,0-3.412h6.54a.853.853,0,0,0,.439-.122l.08-.048a10.789,10.789,0,0,1,10.373-.4l.483.242Zm9.384,0H75.819V126.712H83.5Z" transform="translate(-21.43 -71.469)" fill="#2f3542"/>
    <ellipse id="Ellipse_267" data-name="Ellipse 267" cx="1.5" cy="2" rx="1.5" ry="2" transform="translate(55.999 60.185)" fill="#2f3542"/>
    <path id="Path_1567" data-name="Path 1567" d="M21.991,39.321a.853.853,0,0,0,1.092.631L26.061,39l2.1,2.31a.853.853,0,0,0,1.261,0l2.1-2.31,2.978.948a.853.853,0,0,0,1.092-.631l.668-3.053,3.053-.668a.853.853,0,0,0,.631-1.092L39,31.531l2.31-2.1a.853.853,0,0,0,0-1.261L39,26.061l.948-2.978a.853.853,0,0,0-.631-1.092l-3.053-.668L35.6,18.271a.853.853,0,0,0-1.092-.631l-2.978.948-2.1-2.31a.853.853,0,0,0-1.261,0l-2.1,2.31-2.978-.948a.853.853,0,0,0-1.092.631l-.668,3.052-3.052.668a.853.853,0,0,0-.631,1.092l.948,2.978-2.31,2.1a.853.853,0,0,0,0,1.261l2.31,2.1-.948,2.978a.853.853,0,0,0,.631,1.092l3.053.668Zm-1.85-8.683L18.119,28.8l2.022-1.842a.853.853,0,0,0,.238-.889l-.83-2.607,2.672-.584a.853.853,0,0,0,.651-.651l.584-2.672,2.607.83a.854.854,0,0,0,.89-.238L28.8,18.119l1.842,2.022a.853.853,0,0,0,.89.238l2.607-.83.584,2.672a.853.853,0,0,0,.651.651l2.672.584-.83,2.607a.853.853,0,0,0,.238.889L39.473,28.8l-2.022,1.842a.853.853,0,0,0-.238.889l.83,2.607-2.672.584a.853.853,0,0,0-.651.651l-.584,2.672-2.607-.83a.853.853,0,0,0-.89.238L28.8,39.473l-1.842-2.022a.853.853,0,0,0-.89-.238l-2.607.83-.584-2.672a.853.853,0,0,0-.651-.651l-2.672-.584.83-2.607A.853.853,0,0,0,20.141,30.638Z" fill="#2f3542"/>
    <rect id="Rectangle_681" data-name="Rectangle 681" width="12.065" height="1.706" transform="translate(23.927 32.458) rotate(-45)" fill="#2f3542"/>
    <path id="Path_1568" data-name="Path 1568" d="M82.559,85.119A2.559,2.559,0,1,0,80,82.559,2.559,2.559,0,0,0,82.559,85.119Zm0-3.412a.853.853,0,1,1-.853.853A.853.853,0,0,1,82.559,81.706Z" transform="translate(-57.176 -57.176)" fill="#2f3542"/>
    <path id="Path_1569" data-name="Path 1569" d="M152,138.559A2.559,2.559,0,1,0,154.559,136,2.559,2.559,0,0,0,152,138.559Zm3.412,0a.853.853,0,1,1-.853-.853A.853.853,0,0,1,155.412,138.559Z" transform="translate(-121.498 -107.204)" fill="#2f3542"/>
  </g>
</svg>
