<svg id="user-yellow" xmlns="http://www.w3.org/2000/svg" width="20.789" height="24.918" viewBox="0 0 20.789 24.918">
  <path id="Path_798" data-name="Path 798" d="M93.033,12a5.807,5.807,0,0,0,4.244-1.758A5.808,5.808,0,0,0,99.035,6a5.808,5.808,0,0,0-1.758-4.243,6,6,0,0,0-8.487,0A5.807,5.807,0,0,0,87.032,6a5.808,5.808,0,0,0,1.758,4.244A5.809,5.809,0,0,0,93.033,12ZM89.823,2.791a4.54,4.54,0,0,1,6.422,0A4.339,4.339,0,0,1,97.575,6a4.339,4.339,0,0,1-1.331,3.211,4.539,4.539,0,0,1-6.422,0A4.338,4.338,0,0,1,88.492,6a4.338,4.338,0,0,1,1.331-3.211Zm0,0" transform="translate(-82.796 0)" fill="#fbc531"/>
  <path id="Path_799" data-name="Path 799" d="M20.738,254.441a14.825,14.825,0,0,0-.2-1.574,12.406,12.406,0,0,0-.387-1.583,7.821,7.821,0,0,0-.651-1.476,5.565,5.565,0,0,0-.981-1.279,4.326,4.326,0,0,0-1.41-.886,4.872,4.872,0,0,0-1.8-.326,1.826,1.826,0,0,0-.975.414c-.292.191-.634.411-1.016.655a5.822,5.822,0,0,1-1.315.579,5.105,5.105,0,0,1-3.216,0,5.8,5.8,0,0,1-1.314-.579c-.378-.242-.72-.462-1.017-.656a1.825,1.825,0,0,0-.975-.414,4.865,4.865,0,0,0-1.8.326,4.323,4.323,0,0,0-1.41.886,5.567,5.567,0,0,0-.981,1.279,7.835,7.835,0,0,0-.651,1.477,12.435,12.435,0,0,0-.387,1.583,14.724,14.724,0,0,0-.2,1.575c-.033.476-.05.971-.05,1.471a4.138,4.138,0,0,0,1.229,3.13A4.423,4.423,0,0,0,4.4,260.2h12a4.424,4.424,0,0,0,3.166-1.155,4.136,4.136,0,0,0,1.229-3.131c0-.5-.017-1-.05-1.472Zm-2.185,3.544a2.978,2.978,0,0,1-2.16.753H4.4a2.978,2.978,0,0,1-2.16-.752,2.7,2.7,0,0,1-.775-2.073c0-.467.015-.928.046-1.37a13.281,13.281,0,0,1,.183-1.418,10.967,10.967,0,0,1,.34-1.4,6.377,6.377,0,0,1,.53-1.2,4.126,4.126,0,0,1,.721-.945A2.87,2.87,0,0,1,4.218,249a3.36,3.36,0,0,1,1.15-.222c.051.027.142.079.29.175.3.2.646.419,1.029.663a7.234,7.234,0,0,0,1.65.737,6.564,6.564,0,0,0,4.114,0,7.242,7.242,0,0,0,1.651-.738c.391-.25.728-.467,1.028-.663.148-.1.239-.148.29-.175a3.362,3.362,0,0,1,1.15.222,2.874,2.874,0,0,1,.938.583,4.115,4.115,0,0,1,.721.945,6.356,6.356,0,0,1,.53,1.2,10.943,10.943,0,0,1,.341,1.4,13.392,13.392,0,0,1,.183,1.418h0c.031.441.047.9.047,1.37a2.7,2.7,0,0,1-.776,2.072Zm0,0" transform="translate(0 -235.28)" fill="#fbc531"/>
</svg>
