<svg id="user" xmlns="http://www.w3.org/2000/svg" width="26.767" height="26.767" viewBox="0 0 26.767 26.767">
  <path id="Path_924" data-name="Path 924" d="M26.767,13.383A13.383,13.383,0,1,0,13.383,26.767,13.376,13.376,0,0,0,26.767,13.383ZM13.383,1.568A11.817,11.817,0,0,1,23.175,20,13.378,13.378,0,0,0,3.592,20,11.817,11.817,0,0,1,13.383,1.568ZM4.57,21.251a11.812,11.812,0,0,1,17.627,0A11.8,11.8,0,0,1,4.57,21.251Zm0,0"/>
  <path id="Path_925" data-name="Path 925" d="M170.705,71.978a4.71,4.71,0,0,0,4.705-4.705V65.705a4.705,4.705,0,0,0-9.41,0v1.568A4.71,4.71,0,0,0,170.705,71.978Zm-3.137-6.273a3.137,3.137,0,0,1,6.273,0v1.568a3.137,3.137,0,0,1-6.273,0Zm0,0" transform="translate(-157.322 -57.811)"/>
</svg>
